<?xml version="1.0" encoding="UTF-8"?>
<!DOCTYPE svg PUBLIC "-//W3C//DTD SVG 1.1//EN" "http://www.w3.org/Graphics/SVG/1.1/DTD/svg11.dtd">
<!-- Creator: CorelDRAW -->
<svg xmlns="http://www.w3.org/2000/svg" xml:space="preserve" width="1000px" height="1000px" style="shape-rendering:geometricPrecision; text-rendering:geometricPrecision; image-rendering:optimizeQuality; fill-rule:evenodd; clip-rule:evenodd"
viewBox="0 0 1000 1000"
 xmlns:xlink="http://www.w3.org/1999/xlink">
 <defs>
  <style type="text/css">
   <![CDATA[
    .str0 {stroke:#1F1A17;stroke-width:16.6665}
    .str1 {stroke:#1F1A17;stroke-width:33.3331}
    .fil2 {fill:none}
    .fil1 {fill:white}
    .fil0 {fill:#D1B2CE}
   ]]>
  </style>
 </defs>
 <g id="Warstwa_x0020_1">
  <metadata id="CorelCorpID_0Corel-Layer"/>
  <circle class="fil0" cx="498.037" cy="497.483" r="485.835"/>
  <g id="_229491792">
   <path id="_229489200" class="fil1" d="M492.757 940.3c0.56693,0 -29.0327,30.4087 -41.9929,30.4087 -21.8244,0 -27.0343,-18.6437 -36.2008,-33.3048 -15.9047,-25.441 -79.8178,-51.3874 -69.5056,-78.1938 21.6992,-56.4107 51.9745,-196.778 92.6741,-237.477 28.8343,-28.8343 -57.4902,2.89607 -112.947,2.89607 -71.0221,0 -152.817,-43.754 -83.9859,-133.219 60.6544,-78.8351 80.1213,-178.23 159.317,-242.563 18.0839,-14.6894 45.7937,-37.9512 78.8575,-51.065 26.5453,-10.5272 56.5465,-12.5835 87.7926,-12.985 9.92009,-0.126378 16.8839,-7.21182 24.1229,-14.1354 30.0969,-28.7835 75.3001,-55.6843 103.116,-52.4835 39.5693,4.55197 71.1095,42.326 70.3052,81.3733 -0.129921,6.30119 -8.77087,12.6473 -10.5201,18.8693 -3.29292,11.7118 -17.0681,21.5622 -22.9819,31.4114 -9.22324,15.3638 -13.0925,32.1236 -27.4087,36.5268l-68.9469 -5.01969 -47.0115 29.6457 27.5362 122.48 75.2327 -66.5599 -79.0926 -56.7544 28.4173 -26.1768 66.1241 4.11142 -0.49252 11.785 31.9382 51.5705 -14.7591 56.5347 -43.6559 64.6985 -63.5611 56.7792 -27.4075 1.3748 -73.9536 -83.7272 -42.8729 43.9111 90.9603 23.3398 12.2681 17.1591 8.25709 34.6996 -50.2359 92.4308 69.2186 -29.2819 -34.3524 -19.3725 18.45 -25.7457 0.73819 -46.3465 5.23229 -5.06811 28.8969 2.19803 65.1036 -55.1374 18.4583 27.587 39.6118 15.7382 8.58544 68.7544 -20.0091 25.4362 -33.7701 10.2874 -15.4784 52.0122 -133.429 105.928 -30.4559 81.8032 6.00945 42.476 14.6906 28.9559 -46.8874 1.43386z"/>
   <path id="_229489368" class="fil2 str0" d="M704.171 282.892c14.3162,-4.40315 17.4142,-17.6977 26.6386,-33.0614 5.91378,-9.8504 19.689,-19.6996 22.9819,-31.4114 1.74921,-6.22205 10.3902,-12.5681 10.5201,-18.8693 0.804331,-39.0473 -30.7359,-76.8213 -70.3052,-81.3733 -27.8162,-3.20079 -73.0193,23.7 -103.116,52.4835 -7.23898,6.92363 -14.2028,14.0091 -24.1229,14.1354 -31.2461,0.401575 -61.2473,2.45788 -87.7926,12.985 -33.0638,13.1138 -60.7737,36.3756 -78.8575,51.065 -79.1953,64.3335 -98.6623,163.728 -159.317,242.563 -68.8312,89.465 12.9638,133.219 83.9859,133.219 55.4563,0 141.781,-31.7303 112.947,-2.89607 -40.6996,40.6996 -70.9749,181.067 -92.6741,237.477 -10.3122,26.8063 53.6008,52.7528 69.5056,78.1938 9.16654,14.661 14.3764,33.3048 36.2008,33.3048 12.9602,0 42.5599,-30.4087 41.9929,-30.4087"/>
   <path id="_229489296" class="fil2 str0" d="M694.035 230.763c3.21733,2.47441 5.34331,4.92048 8.6882,5.79213 0.933072,0.242126 0.629528,0.937796 1.44803,1.44803 0.787796,0.49252 3.5563,-0.49252 4.3441,0 1.6063,1.00276 0.646064,1.44803 4.3441,1.44803"/>
   <path id="_229488432" class="fil2 str0" d="M583.985 298.82c22.3181,-10.3004 69.8788,-18.8244 95.5702,-18.8244 24.9579,0 27.6614,35.8004 44.889,47.7851 47.602,33.1122 -69.515,214.07 -130.323,207.069 -22.0642,-2.53937 -150.595,-184.263 -150.595,-215.757"/>
   <path id="_229488240" class="fil2 str0" d="M449.318 255.379c54.5575,-54.5575 121.403,-5.63977 136.115,43.441 8.84646,29.5158 22.1315,84.1725 26.0646,114.395 3.37677,25.9406 0.690945,26.0421 20.2725,10.1362 17.1484,-13.9311 41.0504,-34.4091 52.1292,-52.1292 12.2244,-19.5555 -59.4178,-47.0882 -76.7457,-57.9213 -12.5303,-7.83308 2.8441,-13.0323 13.0323,-13.0323 15.6673,0 23.5547,10.1362 40.5449,10.1362 17.1898,0 -26.6799,-23.9953 -30.4087,-24.6166"/>
   <path id="_229490760" class="fil2 str0" d="M508.687 434.935c3.10866,8.08465 1.85788,7.65827 -2.89607,13.0323 -7.45985,8.43426 -16.5118,19.4079 -21.7205,24.6166 -2.93268,2.93268 -6.06024,4.03583 -8.6882,8.6882 -1.97126,3.48898 -3.78071,8.42009 -7.24016,13.0323"/>
   <path id="_229483608" class="fil2 str0" d="M400.085 492.857c38.6965,0 140.602,8.83111 160.732,28.9607 48.5244,48.5244 19.6394,50.6162 -11.5843,101.362 -24.6756,40.102 -108.658,136.467 -112.947,169.42 -4.5567,35.0079 0.51378,53.6067 4.3441,86.882 4.60985,40.0359 61.8414,59.9623 33.3048,78.1938"/>
   <path id="_229166496" class="fil2 str0" d="M688.243 475.48c2.7189,8.15906 7.39016,22.5827 13.0323,28.9607 15.398,17.4095 29.139,2.60669 41.9929,23.1685 8.31142,13.2933 16.0843,55.8331 1.44803,73.8497 -7.86969,9.68859 -15.6886,24.6166 -30.4087,24.6166 -10.4917,0 -25.8626,-3.58583 -37.2473,0.878741"/>
   <path id="_229490976" class="fil2 str0" d="M663.627 617.387c16.2414,-3.74764 23.0681,-10.9016 31.8567,-21.7205 2.74016,-3.37441 8.0067,-10.6571 8.6882,-15.9284 0.51378,-3.97323 5.51811,-6.62953 13.2307,-16.0772"/>
   <path id="_229493184" class="fil2 str0" d="M683.899 563.81c-10.5508,6.15473 -10.311,12.2823 -21.7205,4.3441 -6.22205,-4.32756 -0.80315,-27.3886 2.89607,-33.3048 8.863,-14.1791 -4.3441,-20.2536 -4.3441,-31.8567"/>
   <path id="_229491912" class="fil2 str0" d="M566.608 610.147c18.1181,8.36221 22.4457,5.95512 43.441,8.6882 6.61418,0.859843 -18.6945,18.0354 -21.7205,18.8244 -17.2453,4.49528 -78.1938,34.2662 -78.1938,43.441"/>
   <path id="_229490568" class="fil2 str0" d="M698.379 627.524c15.0579,65.2524 -140.45,122.523 -154.939,170.868 -5.84528,19.5012 -40.8969,72.8859 -23.1685,104.258 3.81614,6.75473 33.9567,29.3776 8.6882,39.0969 -28.5425,10.9795 -46.4363,-4.13032 -65.1615,-21.7205"/>
   <path id="_229490592" class="fil2 str1" d="M413.497 664.797c-72.7949,-31.8886 -198.534,-71.9599 -257.54,5.5878 -56.0422,73.6548 -48.5752,206.695 -20.6032,286.346"/>
  </g>
 </g>
</svg>
