<?xml version="1.0" encoding="UTF-8"?>
<!DOCTYPE svg PUBLIC "-//W3C//DTD SVG 1.1//EN" "http://www.w3.org/Graphics/SVG/1.1/DTD/svg11.dtd">
<!-- Creator: CorelDRAW -->
<svg xmlns="http://www.w3.org/2000/svg" xml:space="preserve" width="1000px" height="1000px" style="shape-rendering:geometricPrecision; text-rendering:geometricPrecision; image-rendering:optimizeQuality; fill-rule:evenodd; clip-rule:evenodd"
viewBox="0 0 1000 1000"
 xmlns:xlink="http://www.w3.org/1999/xlink">
 <defs>
  <style type="text/css">
   <![CDATA[
    .str1 {stroke:#1F1A17;stroke-width:8.33386}
    .str2 {stroke:#1F1A17;stroke-width:16.6665}
    .str0 {stroke:#1F1A17;stroke-width:25.0004}
    .fil3 {fill:none}
    .fil2 {fill:#1F1A17}
    .fil1 {fill:white}
    .fil0 {fill:#D1B2CE}
   ]]>
  </style>
 </defs>
 <g id="Warstwa_x0020_1">
  <metadata id="CorelCorpID_0Corel-Layer"/>
  <circle class="fil0" cx="498.037" cy="497.483" r="485.835"/>
  <g id="_229483608">
   <path id="_54717040" class="fil1 str0" d="M377.181 786.925l0 8.19686c59.1957,128.25 291.082,48.1465 305.349,-61.4717 3.39095,-26.0516 75.9414,49.3134 92.2229,-36.8965 0.350788,-1.85315 45.241,-18.2669 51.9166,-23.2252 11.902,-8.84056 25.976,-18.0591 12.0106,-22.852 -4.97481,-1.70669 -16.4008,2.04449 -16.1091,-8.57127 0.206693,-7.5378 15.6567,-18.6508 16.6571,-29.0894 1.90984,-19.9276 -9.91064,-39.2138 -7.79056,-39.2138 9.56812,0 26.7319,-61.5591 19.8236,-73.7847 -9.44292,-16.7126 25.4339,1.62756 -2.73189,-43.7197 -13.4162,-21.6012 -19.6205,-63.9863 -37.3583,-62.9056 -18.6508,1.1374 22.0878,-40.604 8.48505,-62.8075 -7.75158,-12.652 -30.6591,-13.1421 -43.4823,-27.9461 -10.1469,-11.713 -16.5024,-37.9831 -35.5772,-49.9087 -41.1933,-25.7551 -78.1253,-62.0977 -129.791,-81.9733 -5.89016,-2.26536 -131.157,-59.2619 -131.157,-25.9583 -38.4945,-17.7673 -88.5438,1.87205 -130.83,34.076 -25.3736,19.3228 -45.3095,45.8162 -65.68,64.0607 -16.6299,14.8925 -38.2925,16.4362 -46.6796,24.8244 -20.0788,20.0788 -7.76694,59.6835 -34.1551,86.0717 -29.4614,29.4614 -16.0654,59.7851 -32.7898,76.5083 -1.02284,1.02284 -34.9122,21.8599 -10.9299,21.8599 64.6536,0 -29.0091,38.3114 6.8315,95.6363 8.70827,13.9299 22.3311,29.0339 12.2965,45.0851 -11.2677,18.0201 20.1402,-1.46339 25.9583,13.6618 2.56654,6.67441 -0.63189,20.5075 13.2366,29.4992 8.0752,5.23583 29.8394,-6.36851 13.4339,15.3189 -10.0311,13.2626 27.2162,32.1981 47.4874,46.1315 16.2732,11.1862 16.8307,18.6638 9.1819,21.0815 -14.602,4.61575 -31.4292,12.9343 -1.36654,16.3949 27.4264,3.15709 35.9457,-16.924 50.55,12.2953 4.68898,9.38032 30.2162,39.6213 40.9866,39.6213z"/>
   <path id="_229154208" class="fil2 str1" d="M320.984 473.13c-4.90985,-13.7516 38.0126,-40.6323 50.2725,-40.6323 17.1709,0 32.1284,0.10748 44.0752,7.5756 25.7776,16.1126 -17.9551,28.9524 -31.6784,35.8111 -12.0319,6.01063 -59.9256,8.22993 -62.6693,-2.75433z"/>
   <path id="_229154520" class="fil2 str1" d="M526.206 461.422c5.1567,-16.7587 39.3118,-33.404 59.9138,-25.4799 15.6886,6.03426 26.4177,14.3197 43.3866,16.5272 32.824,4.26969 -26.2169,23.4154 -40.6311,23.4154 -22.2626,0 -56.1792,2.94331 -62.6693,-14.4626z"/>
   <path id="_229154640" class="fil2 str1" d="M406.707 701.93c-0.757087,-15.0484 21.7713,-37.4788 39.6142,-37.3512 15.9473,0.114567 27.6815,8.8441 40.6311,-2.06575 20.1579,-16.9831 59.7508,8.57245 71.6221,23.4142 10.9736,13.7209 35.9717,37.1882 1.37717,37.1882 -21.502,0 -28.252,-5.88544 -43.3866,-11.7071 -24.0721,-9.25867 -47.4319,-4.513 -66.1123,4.82126 -8.00552,4.0004 -25.2095,3.20315 -34.4327,0.688583 -10.3854,-2.83347 -6.56457,-8.54292 -9.313,-14.9882z"/>
   <path id="_229154064" class="fil3 str1" d="M562.135 198.76c-16.5532,0 -33.3733,-5.64804 -43.1044,8.34331 -15.013,21.5835 -18.0732,48.1406 -31.9807,68.1331 -6.49725,9.34135 -48.4252,32.7118 -55.6182,11.1236"/>
   <path id="_229154616" class="fil3 str1" d="M538.498 261.331c-11.2217,14.5866 -14.2004,28.1469 -23.6386,41.7142 -20.5394,29.5288 -69.2434,31.4457 -80.6469,-2.7815"/>
   <path id="_229154808" class="fil3 str1" d="M478.708 184.856c-16.9571,0 -37.8437,15.5953 -47.276,25.0276 -7.62166,7.62284 -12.248,12.1004 -16.6854,23.6386 -7.45867,19.3937 9.25749,39.5032 19.4658,45.8847 20.1532,12.5965 19.2851,-36.1512 37.5425,-36.1512"/>
   <path id="_229154760" class="fil3 str1" d="M391.108 252.988c-21.0555,0 -32.374,-9.99568 -47.2748,8.34331 -11.3339,13.95 -13.5402,48.5575 -27.8091,52.8378 -20.5512,6.16182 -49.9111,13.1185 -57.0095,-15.2953"/>
   <path id="_229154256" class="fil3 str1" d="M374.423 287.75c-35.5559,6.77245 -36.6024,34.9878 -58.3985,45.8847 -5.79213,2.89607 -21.561,9.03426 -30.5906,5.56182 -6.39449,-2.45788 -30.2173,-10.3606 -23.6374,-15.2953"/>
   <path id="_229154232" class="fil3 str1" d="M286.824 360.053c-7.41142,16.0583 -16.324,43.4965 -36.1512,48.6662 -5.06103,1.32047 -37.7221,10.4185 -40.324,0"/>
   <path id="_229154448" class="fil3 str1" d="M268.748 355.882c-5.37166,6.98268 -9.34843,12.8162 -15.2953,18.0768 -5.69056,5.03504 -14.6351,8.73072 -20.8571,11.1236 -6.77008,2.60433 -17.2075,2.78032 -25.0276,2.78032"/>
   <path id="_229154736" class="fil3 str1" d="M300.729 339.196c11.6669,31.1162 0.459449,81.1123 -26.4189,94.552 -39.9307,19.9642 -74.5158,54.7973 -37.5425,91.7705 13.2437,13.2425 14.6457,35.3764 0,47.2748 -8.35512,6.78898 -11.8807,11.7803 -16.6854,19.4669 -12.5894,20.1437 13.1457,30.5906 -13.9051,30.5906"/>
   <path id="_229159920" class="fil3 str1" d="M249.281 425.405c-24.4418,14.2559 -65.3457,54.2386 -48.6662,87.5989 5.56182,11.1236 18.0768,16.8461 18.0768,34.7622 0,24.424 -9.24331,42.0378 -31.9807,52.8367"/>
   <path id="_229492320" class="fil3 str1" d="M293.777 468.509c0,49.03 -4.17166,103.413 -4.17166,151.56 0,21.6874 20.0339,30.861 22.2473,50.0563 1.21299,10.5272 3.87166,19.8354 1.39016,30.5906 -4.03701,17.504 -19.2945,21.3177 1.39016,30.5906"/>
   <path id="_229155576" class="fil3 str1" d="M277.09 471.291c-15.4217,11.863 -30.3957,37.7929 -16.6854,55.6182 4.33347,5.63268 10.3134,13.8189 11.1236,20.8571 0.8563,7.41497 0.487796,27.8091 -11.1236,27.8091"/>
   <path id="_229488144" class="fil3 str1" d="M279.872 620.07c-13.9996,7.5378 -17.6882,13.1728 -22.2473,25.0288 -4.82599,12.5445 20.9811,20.4673 27.8091,22.2473 6.5256,1.70079 13.174,8.30552 13.9051,13.9039 1.98662,15.2492 4.22126,14.2701 -11.1236,26.4189"/>
   <path id="_197929416" class="fil3 str1" d="M562.135 259.941c6.05315,-11.2417 13.076,-24.2008 20.8571,-31.9807 7.49646,-7.49646 25.6973,4.67717 33.3709,5.56182 5.88544,0.677953 11.5795,2.13898 18.0756,1.39016 4.74449,-0.54567 15.2953,-6.70867 15.2953,-11.1236 -7.20119,33.2433 -6.18189,21.2055 -15.2953,41.7142 -15.5917,35.0835 32.7555,56.6233 -15.2953,80.6469 -18.137,9.06851 -27.8091,-8.10827 -27.8091,-25.0288 0,-8.19449 2.15788,-16.063 6.95316,-20.8571 1.35473,-1.35473 14.5299,-12.0295 16.6854,-5.56182"/>
   <path id="_197929512" class="fil3 str1" d="M534.326 314.169c4.04174,-3.73111 6.10158,-6.52796 9.73347,-8.34331 7.02048,-3.50906 15.4193,-10.7327 22.2473,-12.5138 4.18819,-1.09134 9.45709,-5.16378 12.5138,-5.56182 14.5016,-1.88977 6.60355,-6.1441 27.8091,6.95197"/>
   <path id="_229055328" class="fil3 str1" d="M666.42 243.255c-8.17087,15.176 -20.7272,40.6583 -13.9039,58.3985 8.15079,21.1902 10.6618,33.0555 -4.17166,52.8378"/>
   <path id="_229054920" class="fil3 str1" d="M684.497 266.893c-8.82048,19.1091 -2.3563,37.2544 4.17048,54.228 7.50591,19.5142 -17.5311,55.0382 -23.6374,70.9134 -10.6429,27.6733 15.2953,45.2516 15.2953,61.18"/>
   <path id="_229055040" class="fil3 str1" d="M716.476 412.891c-24.0437,12.9461 -30.5894,58.317 -30.5894,84.8186 0,15.1406 17.354,15.2622 26.4189,26.4177 15.5457,19.1362 -19.4669,24.1772 -19.4669,12.515"/>
   <path id="_229155504" class="fil3 str1" d="M706.744 275.236c15.6236,26.7862 17.2654,42.7973 12.5138,73.6938 -1.74331,11.3386 -9.73938,27.7122 -15.2953,37.5425 -11.4189,20.2051 -11.413,31.0099 -37.5425,37.5425"/>
   <path id="_229056240" class="fil3 str1" d="M751.238 303.045c4.78465,14.3575 10.8343,17.3847 6.95197,36.1512 -3.87284,18.7323 -25.0288,32.5028 -25.0288,51.4477 0,17.6988 37.5425,26.9599 37.5425,13.9039"/>
   <path id="_229163328" class="fil3 str1" d="M737.333 428.187c0,20.6705 -9.11576,33.4158 -11.1236,52.8367 -2.03504,19.6854 34.4658,45.2965 22.2473,61.1812 -7.86024,10.2177 -14.25,17.5547 -26.4189,23.6374 -3.14764,1.57441 -12.4807,4.88268 -16.6854,2.7815 -16.513,-8.25709 -2.01969,-19.9748 5.56182,-27.8103"/>
   <path id="_229488192" class="fil3 str1" d="M781.828 553.328c-30.9638,23.8193 13.3736,74.4568 -9.73229,102.894 -10.3323,12.7169 -28.0713,20.8571 -47.276,20.8571 -13.0701,0 -41.152,-20.2134 -12.5138,-44.4957 -5.26536,1.75394 -2.03858,8.93741 -1.39134,13.9051 0.829135,6.37087 9.40513,3.29882 13.9051,2.78032 18.3473,-2.11654 2.43307,-21.5445 1.39016,-30.5894 -1.21299,-10.5189 -8.13308,-14.491 -15.2953,-22.2473"/>
   <path id="_197929176" class="fil3 str1" d="M777.657 464.338c4.39843,8.17087 13.6099,19.7977 19.4658,26.4189 4.9878,5.63741 7.32638,9.43111 12.515,15.2953 7.3193,8.27481 21.9614,37.4563 12.5138,50.0563"/>
   <path id="_229488792" class="fil3 str1" d="M787.39 408.72c8.63387,16.0347 16.689,28.6477 27.8103,43.1044 3.22323,4.19055 7.68426,10.9772 8.34213,16.6854 2.14961,18.6484 -3.78544,17.7874 -20.8571,30.5906"/>
   <path id="_229486464" class="fil3 str1" d="M787.39 335.026c23.315,5.37874 1.45394,37.4575 0,50.0563 -1.26969,11.0209 2.36103,13.4847 6.95316,18.0756 7.2756,7.2756 9.60119,4.17166 19.4658,4.17166"/>
   <path id="_229163880" class="fil3 str1" d="M791.561 576.965c12.5079,3.84803 18.0768,9.60709 18.0768,23.6374 0,13.4953 -6.4878,30.6815 -12.515,40.324 -4.63701,7.41851 4.39843,12.4606 6.95316,13.9039 11.4036,6.44528 12.4854,-1.2248 23.6374,-5.56182"/>
   <path id="_229159296" class="fil3 str1" d="M701.182 659.002c1.7563,30.4689 -8.83347,54.789 22.2473,66.743 20.5193,7.89213 44.9433,-3.17008 50.0563,-23.6386"/>
   <path id="_229491600" class="fil3 str1" d="M494.002 547.766c14.7721,12.3095 30.4465,16.5414 41.7142,27.8091 9.70394,9.70394 10.6146,19.6169 13.9051,30.5906 4.98426,16.6193 30.9555,13.4516 33.3709,31.9796 2.20866,16.9441 15.4736,31.1185 20.8571,47.276"/>
   <path id="_229491144" class="fil3 str1" d="M436.994 526.909c-8.49686,18.4087 -14.9823,26.6634 -26.4189,43.1044 -5.37166,7.72323 -12.4004,10.8957 -18.0756,22.2473 -5.53583,11.0717 -6.22205,33.6485 -13.9051,43.1044 -7.91812,9.7441 -19.4658,26.0044 -19.4658,41.7142"/>
   <path id="_229491216" class="fil3 str2" d="M432.822 595.041c-5.89961,-0.981497 -6.29646,-2.85945 -5.56182,2.7815 0.314173,2.41654 1.81417,1.59213 2.7815,2.78032 0.194882,0.243307 1.93347,5.01969 4.17048,2.7815 0.157087,-0.157087 0,-3.75237 0,-4.17166 0,-1.30158 0.166536,-2.89252 0,-4.17166 -0.127559,-0.98504 -8.69292,-12.163 -12.5138,-8.34213 -1.41732,1.41732 -2.78032,5.31024 -2.78032,6.95197l0 12.515c0,0.87756 -0.285827,3.43111 0,4.17048 2.90906,7.56615 19.3772,12.6036 27.8091,4.17166"/>
   <path id="_229488336" class="fil3 str2" d="M456.461 628.413c4.86851,5.27481 6.95197,6.66969 6.95197,12.5138 0,1.23543 1.5874,6.75473 2.78032,5.56182 1.8189,-1.8189 -0.415748,-0.973229 1.39134,-4.17166 0.94252,-1.66772 1.54488,-3.09213 2.78032,-5.56182 3.44173,-6.88583 4.27796,-20.7508 0,-25.0276 -1.9252,-1.92638 -4.18819,-5.91378 -5.56182,-8.34331 -1.56378,-2.76851 -3.00591,-2.7378 -4.17166,-4.17166 -1.69961,-2.0941 -0.341339,-4.74922 22.2473,-9.73347 2.3563,-1.81181 4.34055,-4.14449 6.95316,-5.56182 2.32914,-1.26378 3.84567,1.6937 4.17048,2.7815 0.418111,1.3937 2.42717,2.09764 1.39134,4.17166 -1.77638,3.55158 -8.86064,5.56182 -12.515,5.56182 -4.50591,0 -6.95197,0.494882 -6.95197,-4.17166 0,-4.00276 -0.416929,-1.52362 1.39016,-2.7815 1.31929,-0.915355 2.59607,-4.02048 2.7815,-4.17048 0.587008,-0.479528 3.47362,0.435827 4.17166,0 2.21221,-1.38189 -1.9689,-0.772442 2.78032,-1.39134 0.917717,-0.11811 0.604725,-0.900001 1.39016,-1.39016 0.211417,-0.132284 6.74174,-0.132284 6.95316,0 0.785434,0.490158 0.50315,1.12559 1.39016,1.39016 3.83268,1.14803 2.78032,5.02796 2.78032,9.73347 0,0.591733 0.446457,4.17166 0,4.17166l-1.39016 0c-0.137008,0 -1.25315,2.78032 -1.39016,2.78032l-1.39016 0 0 1.39134c0,2.5937 -0.557481,1.39016 -2.7815,2.78032 -0.735827,0.459449 -3.27048,-0.346063 -4.17166,0 -2.44606,0.940158 -1.22835,1.05236 -4.17048,1.39134 -2.4437,0.281103 -2.70709,1.39016 -5.56182,1.39016 -3.29764,0 -4.14449,-0.689764 -6.95316,-1.39016"/>
   <path id="_229492560" class="fil3 str1" d="M420.309 742.431c19.4799,4.4941 22.1953,3.21024 37.5425,-1.39134 6.37087,-1.90984 13.3193,-8.75079 20.8571,-9.73229 18.3473,-2.39173 67.4221,15.1299 76.4753,8.34213"/>
   <path id="_229167816" class="fil3 str1" d="M474.537 759.116l37.5425 0c16.7362,0 35.6941,1.45158 45.8847,9.73229 5.47323,4.44685 27.0284,24.0721 29.2004,30.5906"/>
   <path id="_229490592" class="fil3 str2" d="M441.166 501.88c0,-19.1788 2.78032,-38.0622 2.78032,-57.0083 0,-19.3807 -7.02993,-25.0524 -16.6854,-38.9327 -15.0791,-21.6803 -16.5189,-18.7335 -36.1524,-2.7815 -22.1055,17.961 -37.9181,10.1032 -50.0563,44.4945"/>
   <path id="_229490568" class="fil3 str2" d="M499.564 490.757c-7.10197,-30.7855 -27.7547,-95.941 16.6866,-95.941 21.1146,0 29.8429,13.089 44.4945,22.2473 2.50984,1.56732 21.9295,5.56182 26.4189,5.56182 3.65315,0 8.86182,2.78032 12.5138,2.78032 16.428,0 12.5858,2.07756 6.95197,20.8571"/>
   <path id="_229491912" class="fil3 str1" d="M327.148 355.882c9.79017,-6.77717 21.5599,-2.94449 31.9807,-6.95197 7.37245,-2.83583 13.5626,-9.70867 20.8559,-12.5138 13.291,-5.11063 62.5749,-3.12402 72.3048,4.17166"/>
   <path id="_229493184" class="fil3 str1" d="M342.442 305.825c8.40237,25.2059 5.11772,17.2701 22.2484,15.2953 24.9839,-2.88189 45.9473,-8.34331 72.3036,-8.34331"/>
   <path id="_229490976" class="fil3 str1" d="M492.612 339.196c6.19725,0 12.3721,0.0330709 18.0756,1.39134 10.5484,2.50984 21.8788,2.43425 31.9807,5.56182 6.59292,2.03977 15.3059,5.56182 20.8571,5.56182"/>
   <path id="_229166496" class="fil3 str1" d="M513.469 321.121c13.5236,3.12047 26.0244,2.78032 40.3229,2.78032 3.6,0 12.2445,-1.17284 15.2953,0 15.6331,6.013 11.6079,7.42205 23.6386,-13.9039"/>
  </g>
 </g>
</svg>
