<?xml version="1.0" encoding="UTF-8"?>
<!DOCTYPE svg PUBLIC "-//W3C//DTD SVG 1.1//EN" "http://www.w3.org/Graphics/SVG/1.1/DTD/svg11.dtd">
<!-- Creator: CorelDRAW -->
<svg xmlns="http://www.w3.org/2000/svg" xml:space="preserve" width="1000px" height="1000px" style="shape-rendering:geometricPrecision; text-rendering:geometricPrecision; image-rendering:optimizeQuality; fill-rule:evenodd; clip-rule:evenodd"
viewBox="0 0 1000 1000"
 xmlns:xlink="http://www.w3.org/1999/xlink">
 <defs>
  <style type="text/css">
   <![CDATA[
    .str1 {stroke:#1F1A17;stroke-width:8.33386}
    .str0 {stroke:#1F1A17;stroke-width:25.0004}
    .fil3 {fill:none}
    .fil2 {fill:#1F1A17}
    .fil1 {fill:white}
    .fil0 {fill:#D1B2CE}
   ]]>
  </style>
 </defs>
 <g id="Warstwa_x0020_1">
  <metadata id="CorelCorpID_0Corel-Layer"/>
  <circle class="fil0" cx="498.037" cy="497.483" r="485.835"/>
  <g id="_229492536">
   <polygon id="_229489200" class="fil1 str0" points="141.6,166.871 146.856,657.456 758.337,655.705 754.832,170.375 "/>
   <path id="_229489368" class="fil2 str1" d="M773.422 391.866c-40.0075,0 -76.0831,155.715 -59.5347,198.741 5.32323,13.8402 -5.19567,83.9918 -16.6347,95.4308 -24.0166,24.0154 35.0351,38.537 42.9,46.402 8.21457,8.21457 -45.1311,145.827 -40.2733,149.712 25.1221,20.0953 36.8811,9.72993 34.1445,-14.0079 -3.22087,-27.9331 25.9299,-100.852 41.1496,-125.198 33.0697,-52.9052 17.5099,48.8847 17.5099,70.917 0,21.4819 -27.8209,89.5961 3.50197,93.6792 17.2488,2.24882 33.2693,-133.28 33.2693,-166.347 0,-23.3327 11.3811,-42.0945 11.3811,-67.415 0,-23.1555 79.0406,16.5638 55.1575,-45.5268 -20.6717,-53.7437 -28.1327,-110.431 -70.9158,-153.214 -11.0752,-11.0752 24.913,-31.4173 4.37717,-36.7713 -0.602363,-0.157087 -38.113,-60.0556 -56.0327,-46.402zm32.2925 19.1469c4.99607,3.82087 11.765,4.81063 17.9256,5.46496 3.11457,0.329528 12.6307,-0.170079 14.8654,-2.40473m-30.8244 13.1162c5.89725,2.42835 28.4977,4.2437 31.9181,-3.27874m-42.4111 -24.4843c4.05355,1.24725 8.38583,3.75709 12.4606,5.46496 4.13386,1.73268 5.41772,3.88583 10.2744,3.27874m1.0937 20.7685c2.67756,1.73268 4.52244,4.32874 7.21418,6.12048 2.85945,1.9063 6.92363,4.48583 10.4929,4.37244 1.14921,-0.0366142 8.65512,0.230315 8.96339,0m-90.0674 -36.0697c-8.46379,3.9815 -15.7016,13.9902 -25.7965,13.9902m18.8008 4.15394c-8.84528,9.28702 -17.3894,18.9248 -30.3862,20.5488m18.7996 2.40473c-3.56575,1.01929 -12.6969,10.611 -15.0839,13.7728 -3.13347,4.14803 -6.9815,8.32087 -11.5866,3.71575m34.9784 -44.5961c-3.54922,1.85906 -7.31693,3.13347 -10.9311,4.80945 -2.57599,1.19646 -5.63386,3.27992 -8.5252,3.27992m96.8434 13.3347c11.8984,0 24.4311,27.1453 35.6339,19.2378m-48.75 -16.6146c9.50198,1.81063 16.9677,10.252 20.987,18.5823 2.21575,4.59095 9.82678,16.3843 15.3024,15.5209"/>
   <path id="_229489296" class="fil3 str1" d="M281.768 205.416c0,113.875 15.7689,227.739 15.7689,343.411"/>
   <path id="_229488432" class="fil3 str1" d="M315.057 252.723c0,59.6398 8.76024,119.294 8.76024,180.465 0,35.876 -3.16181,121.437 14.0173,148.929"/>
   <path id="_229488240" class="fil3 str1" d="M246.725 322.807c61.6749,0 124.025,-5.84646 185.723,-7.00867 68.4674,-1.28976 126.852,3.7252 194.482,-10.513"/>
   <path id="_195156176" class="fil3 str1" d="M549.838 229.947c0,109.013 44.9091,233.815 12.2646,339.905"/>
   <path id="_229490760" class="fil3 str1" d="M388.646 475.239c67.4304,-17.8477 120.044,-8.76024 187.473,-8.76024 35.3244,0 69.6166,-5.25709 103.374,-5.25709"/>
   <path id="_229167360" class="fil3 str1" d="M437.704 476.991c52.5119,0 108.644,-2.76024 159.441,10.513 15.6969,4.10197 66.7335,8.31615 80.5961,0"/>
   <path id="_229166976" class="fil3 str1" d="M451.72 547.075c37.4587,10.702 85.9158,1.75158 126.151,1.75158 32.9162,0 68.3044,-4.50591 99.8694,0"/>
   <path id="_229488552" class="fil3 str1" d="M481.506 259.732c18.4536,3.95315 38.2725,-5.25591 57.8185,-5.25591 56.1697,0 119.068,3.28937 173.458,-3.50433"/>
   <path id="_229488168" class="fil3 str1" d="M560.434 247.762c-5.25,10.5 -0.121654,27.8918 1.74921,38.9126 2.19685,12.9425 2.62323,24.5138 2.62323,37.6016"/>
   <path id="_229488288" class="fil3 str1" d="M611.151 252.572c-1.40315,11.9268 1.35945,28.4929 3.06024,40.6618 0.83504,5.97166 1.22362,11.9362 1.74921,17.9256 0.119291,1.3689 0.418111,10.6453 -0.437008,10.9311"/>
   <path id="_229488720" class="fil3 str1" d="M535.512 262.628c15.8209,0 31.3843,-1.31102 47.2193,-1.31102 13.389,0 26.4496,3.06024 39.3508,3.06024"/>
   <path id="_229488744" class="fil3 str1" d="M550.815 307.662c15.2008,0 31.4516,-5.25 46.7835,-6.99567 10.8343,-1.23425 21.5339,-1.31102 32.354,-1.31102"/>
   <path id="_229489344" class="fil3 str1" d="M572.239 261.317c0,10.4587 0.218504,19.8697 2.18622,30.1677 0.780709,4.09016 0.915355,16.3772 3.06024,19.2378"/>
   <path id="_229488456" class="fil3 str1" d="M592.35 263.94c1.6441,8.6315 4.62284,16.9559 4.80945,25.7965 0.133465,6.25394 0,12.541 0,18.7996"/>
   <path id="_229167600" class="fil3 str1" d="M558.685 267c6.16063,8.49804 9.11103,6.98032 19.2366,6.12166 9.6815,-0.820867 19.2414,-0.500788 28.8567,0.437008 3.61299,0.351969 15.0602,1.85433 17.9268,-0.437008"/>
   <path id="_229489728" class="fil3 str1" d="M552.564 287.55c15.9591,5.07638 33.1925,0.412205 49.4056,0 7.82363,-0.199606 18.0508,1.38898 25.3595,-0.438189"/>
   <path id="_229490352" class="fil3 str1" d="M666.241 244.265c0,9.5882 0.883465,18.8858 1.31102,28.4197 0.295276,6.56221 2.18622,12.8291 2.18622,19.2366"/>
   <path id="_229486512" class="fil3 str1" d="M644.817 273.559c12.026,5.15315 34.1256,-2.50984 48.5315,-0.874016 9.13465,1.03701 21.2303,0.912993 30.1677,-0.875198"/>
   <path id="_229493472" class="fil3 str1" d="M568.304 690.667c-54.0804,0 -110.842,-1.86024 -164.395,-5.68465 0.6,4.00394 -1.14567,13.6512 2.62323,14.4284 32.9268,6.79016 77.3871,6.12166 111.491,6.12166 7.1563,0 25.5449,-3.97914 31.917,-0.438189 4.60748,2.56063 21.5421,-1.86732 20.5488,-0.874016"/>
  </g>
 </g>
</svg>
