<?xml version="1.0" encoding="UTF-8"?>
<!DOCTYPE svg PUBLIC "-//W3C//DTD SVG 1.1//EN" "http://www.w3.org/Graphics/SVG/1.1/DTD/svg11.dtd">
<!-- Creator: CorelDRAW -->
<svg xmlns="http://www.w3.org/2000/svg" xml:space="preserve" width="1000px" height="1000px" style="shape-rendering:geometricPrecision; text-rendering:geometricPrecision; image-rendering:optimizeQuality; fill-rule:evenodd; clip-rule:evenodd"
viewBox="0 0 1000 1000"
 xmlns:xlink="http://www.w3.org/1999/xlink">
 <defs>
  <style type="text/css">
   <![CDATA[
    .str0 {stroke:#1F1A17;stroke-width:16.6665}
    .str1 {stroke:#1F1A17;stroke-width:25.0004}
    .str2 {stroke:#1F1A17;stroke-width:8.33386;stroke-dasharray:16.668 8.334}
    .fil2 {fill:none}
    .fil1 {fill:white}
    .fil0 {fill:#A8D6D3}
   ]]>
  </style>
 </defs>
 <g id="Warstwa_x0020_1">
  <metadata id="CorelCorpID_0Corel-Layer"/>
  <circle class="fil0" cx="500.639" cy="499.714" r="485.835"/>
  <g id="_229491912">
   <rect id="_229490568" class="fil1 str0" x="153.761" y="150.832" width="316.24" height="316.24"/>
   <rect id="_229490592" class="fil1 str0" x="532.554" y="151.006" width="316.24" height="316.24"/>
   <rect id="_229491792" class="fil1 str0" x="153.825" y="530.894" width="316.24" height="316.24"/>
   <rect id="_229491672" class="fil1 str0" x="533.385" y="530.813" width="316.24" height="316.24"/>
   <rect id="_229491528" class="fil2 str1" x="222.666" y="221.077" width="172.814" height="179.121"/>
   <rect id="_229491768" class="fil2 str1" x="226.169" y="601.538" width="172.814" height="179.121"/>
   <rect id="_229491408" class="fil2 str1" x="571.092" y="188.889" width="164.615" height="170.623"/>
   <rect id="_229490112" class="fil2 str1" x="572.647" y="570.784" width="164.615" height="170.623"/>
   <rect id="_229493256" class="fil2 str1" x="646.723" y="259.583" width="164.615" height="170.623"/>
   <rect id="_229493424" class="fil2 str1" x="648.278" y="641.477" width="164.615" height="170.623"/>
   <line id="_229493472" class="fil2 str2" x1="153.323" y1="533.384" x2="469.763" y2= "848.5" />
   <polygon id="_229486512" class="fil1" points="534.109,532.822 849.605,845.672 849.605,533.483 "/>
   <line id="_229490352" class="fil2 str2" x1="535.495" y1="535.177" x2="851.935" y2= "850.293" />
   <rect id="_229489728" class="fil2 str0" x="533.308" y="530.722" width="316.24" height="316.24"/>
  </g>
 </g>
</svg>
