<?xml version="1.0" encoding="UTF-8"?>
<!DOCTYPE svg PUBLIC "-//W3C//DTD SVG 1.1//EN" "http://www.w3.org/Graphics/SVG/1.1/DTD/svg11.dtd">
<!-- Creator: CorelDRAW -->
<svg xmlns="http://www.w3.org/2000/svg" xml:space="preserve" width="1000px" height="1000px" style="shape-rendering:geometricPrecision; text-rendering:geometricPrecision; image-rendering:optimizeQuality; fill-rule:evenodd; clip-rule:evenodd"
viewBox="0 0 1000 1000"
 xmlns:xlink="http://www.w3.org/1999/xlink">
 <defs>
  <style type="text/css">
   <![CDATA[
    .str1 {stroke:#1F1A17;stroke-width:8.33386}
    .str0 {stroke:#1F1A17;stroke-width:16.6665}
    .fil2 {fill:none}
    .fil1 {fill:white}
    .fil0 {fill:#A8D6D3}
    .fil3 {fill:#1F1A17;fill-rule:nonzero}
   ]]>
  </style>
 </defs>
 <g id="Warstwa_x0020_1">
  <metadata id="CorelCorpID_0Corel-Layer"/>
  <circle class="fil0" cx="500.639" cy="499.714" r="485.835"/>
  <g id="_229492536">
   <path id="_229490784" class="fil1 str0" d="M726.219 512.063c-20.4449,-102.775 -102.768,-272.349 -201.121,-324.533 -126.542,-67.1386 -296.049,130.192 -324.533,253.627 -17.6811,76.6264 -31.6559,169.094 13.6358,239.991 106.143,166.154 351.822,297.864 496.344,119.995 79.9843,-98.4379 36.0945,-201.213 15.6732,-289.08z"/>
   <path id="_229490808" class="fil1 str0" d="M501.975 396.903c-98.6871,-23.5299 -247.197,47.5512 -231.238,127.797 44.8406,225.474 181.707,328.753 363.374,231.688 116.549,-62.2737 -9.88938,-330.335 -132.136,-359.484z"/>
   <path id="_229490928" class="fil1 str0" d="M549.559 512.161c-56.3611,-13.4386 -225.682,24.4311 -216.568,70.2603 25.6087,128.771 141.94,209.562 245.692,154.127 66.5623,-35.5642 40.6937,-207.741 -29.1236,-224.387z"/>
   <path id="_229490712" class="fil1 str0" d="M537.8 568.401c-33.4016,-6.81497 -124.399,33.4347 -119.046,60.3567 15.0437,75.6461 56.8524,111.158 123.887,90.5422 58.3205,-17.9362 64.2615,-136.798 -4.84134,-150.899z"/>
   <line id="_229490856" class="fil2 str1" x1="669.632" y1="356.903" x2="781.398" y2= "280.576" />
   <line id="_229490496" class="fil2 str1" x1="609.661" y1="471.395" x2="780.035" y2= "407.334" />
   <line id="_229491024" class="fil2 str1" x1="597.394" y1="557.263" x2="781.398" y2= "530.004" />
   <line id="_229490976" class="fil2 str1" x1="588.003" y1="641.417" x2="789.576" y2= "652.673" />
   <path id="_229493184" class="fil3" d="M838.54 295.487c0,2.90079 -0.517323,5.51693 -1.51654,7.83426 -1.01693,2.33268 -2.46732,4.33347 -4.35,5.98347 -1.88386,1.66654 -4.21772,2.93268 -6.98386,3.83268 -2.76614,0.900001 -5.88308,1.35 -9.36615,1.35 -2.11772,0 -4.10079,-0.183071 -5.93386,-0.516142 -1.84961,-0.350788 -3.48307,-0.750001 -4.91693,-1.21654 -1.43268,-0.484252 -2.61614,-0.967324 -3.56693,-1.46693 -0.933072,-0.517323 -1.53307,-0.86693 -1.76575,-1.09961 -0.250394,-0.233858 -0.433465,-0.45 -0.56693,-0.683859 -0.133465,-0.233858 -0.250394,-0.499607 -0.350788,-0.833859 -0.0992127,-0.333071 -0.166536,-0.715749 -0.216142,-1.2 -0.0496063,-0.466536 -0.0661418,-1.05 -0.0661418,-1.73268 0,-1.16693 0.115748,-1.98307 0.333071,-2.43307 0.232677,-0.466536 0.549213,-0.683859 0.982678,-0.683859 0.283465,0 0.86693,0.250394 1.73386,0.783071 0.86693,0.517323 1.96654,1.08425 3.31654,1.68425 1.35,0.6 2.93386,1.16575 4.73386,1.68307 1.81654,0.516142 3.81614,0.783071 6.03308,0.783071 2.14961,0 4.03347,-0.283465 5.66693,-0.833859 1.63347,-0.549213 3,-1.33228 4.09961,-2.34921 1.09961,-1.00039 1.93347,-2.2004 2.48386,-3.58347 0.565748,-1.38307 0.832678,-2.88307 0.832678,-4.51654 0,-1.8 -0.349607,-3.4004 -1.05,-4.83426 -0.700394,-1.43268 -1.71614,-2.66575 -3.06614,-3.71575 -1.35,-1.03347 -3.01654,-1.83425 -4.98426,-2.38347 -1.96654,-0.56693 -4.21654,-0.833859 -6.71575,-0.833859l-6 0c-0.266929,0 -0.517323,-0.0661418 -0.767717,-0.166536 -0.232677,-0.116929 -0.45,-0.3 -0.633071,-0.56693 -0.183071,-0.265748 -0.316536,-0.6 -0.433465,-1.03347 -0.115748,-0.415748 -0.166536,-0.966142 -0.166536,-1.65 0,-0.616536 0.0330709,-1.13268 0.133465,-1.54961 0.100394,-0.400394 0.233858,-0.71693 0.416929,-0.966142 0.183071,-0.250394 0.382677,-0.433465 0.616536,-0.533859 0.233858,-0.116929 0.483071,-0.183071 0.783071,-0.183071l5.51693 0c2.14961,0 4.06654,-0.266929 5.78386,-0.817323 1.69961,-0.565748 3.15,-1.35 4.35,-2.4 1.18347,-1.03228 2.1,-2.28307 2.73307,-3.73229 0.633071,-1.45039 0.949607,-3.06733 0.949607,-4.86733 0,-1.30039 -0.216142,-2.53347 -0.633071,-3.73347 -0.433465,-1.18347 -1.06654,-2.21693 -1.9004,-3.1004 -0.849213,-0.865749 -1.93347,-1.56614 -3.24922,-2.06575 -1.31693,-0.517323 -2.85,-0.766536 -4.56733,-0.766536 -1.88268,0 -3.61654,0.282284 -5.19922,0.865749 -1.58386,0.56693 -2.98347,1.16693 -4.23426,1.81654 -1.23307,0.667323 -2.25,1.26732 -3.06614,1.83425 -0.817323,0.583465 -1.38307,0.865749 -1.71732,0.865749 -0.216142,0 -0.433465,-0.0496063 -0.6,-0.132284 -0.183071,-0.0838583 -0.333071,-0.233858 -0.45,-0.484252 -0.115748,-0.249213 -0.183071,-0.583465 -0.232677,-1.03347 -0.0507874,-0.432284 -0.0838583,-1.01575 -0.0838583,-1.73268 0,-0.483071 0.0165354,-0.916536 0.0507874,-1.28386 0.0330709,-0.382677 0.0992127,-0.699213 0.199606,-0.982678 0.100394,-0.266929 0.216142,-0.533859 0.333071,-0.750001 0.133465,-0.233858 0.349607,-0.500788 0.667323,-0.817323 0.3,-0.3 0.933072,-0.750001 1.88268,-1.33347 0.933072,-0.582284 2.1,-1.16575 3.48307,-1.73268 1.38425,-0.56693 2.98347,-1.05 4.78347,-1.45039 1.81654,-0.382677 3.75,-0.583465 5.83347,-0.583465 2.93386,0 5.5004,0.383859 7.71733,1.13386 2.21575,0.750001 4.06654,1.8 5.55,3.16654 1.48347,1.36654 2.58307,3 3.31654,4.91693 0.733465,1.89921 1.09961,3.99922 1.09961,6.31654 0,1.98307 -0.266929,3.83386 -0.783071,5.53347 -0.517323,1.71614 -1.28386,3.23268 -2.29961,4.54961 -1.00039,1.31693 -2.23347,2.43307 -3.7004,3.36733 -1.46693,0.933072 -3.16654,1.56614 -5.08347,1.93347l0 0.0992127c2.18386,0.217323 4.18347,0.766536 5.98347,1.63347 1.8,0.86693 3.36614,1.95 4.66654,3.2504 1.30039,1.29921 2.31614,2.81693 3.04961,4.56615 0.733465,1.73386 1.10079,3.6 1.10079,5.58308z"/>
   <path id="_229493184" class="fil3" d="M839.023 432.005c0,0.583465 -0.0330709,1.11614 -0.116929,1.56614 -0.0826772,0.45 -0.199606,0.833859 -0.349607,1.15039 -0.15,0.3 -0.333071,0.533859 -0.583465,0.683859 -0.250394,0.15 -0.517323,0.216142 -0.799607,0.216142l-34.917 0c-0.45,0 -0.850394,-0.0496063 -1.2,-0.166536 -0.334252,-0.116929 -0.634252,-0.3 -0.883465,-0.56693 -0.233858,-0.266929 -0.416929,-0.633071 -0.533859,-1.11614 -0.116929,-0.500788 -0.166536,-1.10079 -0.166536,-1.81654 0,-0.650788 0.0165354,-1.21772 0.0673229,-1.70079 0.0496063,-0.499607 0.166536,-0.916536 0.316536,-1.29921 0.166536,-0.367323 0.366142,-0.750001 0.616536,-1.11732 0.249213,-0.382677 0.56693,-0.783071 0.949607,-1.2l12.2669 -12.9839c2.81693,-3 5.1,-5.68229 6.79961,-8.06575 1.71732,-2.36693 3.03425,-4.53426 3.96733,-6.48426 0.916536,-1.96654 1.53307,-3.73229 1.81654,-5.33268 0.3,-1.58386 0.45,-3.08386 0.45,-4.48347 0,-1.39961 -0.233858,-2.73307 -0.683859,-3.98386 -0.466536,-1.24961 -1.11614,-2.34921 -1.98307,-3.3 -0.86693,-0.933072 -1.95,-1.68307 -3.2504,-2.25 -1.29921,-0.549213 -2.79921,-0.816142 -4.48229,-0.816142 -1.98425,0 -3.76772,0.266929 -5.3504,0.816142 -1.58386,0.56693 -2.96693,1.16693 -4.1504,1.81654 -1.18347,0.650788 -2.18268,1.25079 -2.98347,1.8 -0.799607,0.550394 -1.38307,0.833859 -1.78347,0.833859 -0.216142,0 -0.433465,-0.0661418 -0.6,-0.199606 -0.183071,-0.133465 -0.333071,-0.334252 -0.45,-0.634252 -0.115748,-0.282284 -0.199606,-0.682678 -0.265748,-1.16575 -0.0673229,-0.484252 -0.100394,-1.08425 -0.100394,-1.76693 0,-0.483071 0.0165354,-0.900001 0.0496063,-1.26732 0.0330709,-0.349607 0.100394,-0.666142 0.166536,-0.916536 0.0838583,-0.265748 0.200788,-0.516142 0.334252,-0.733465 0.115748,-0.232677 0.382677,-0.516142 0.766536,-0.865749 0.399213,-0.334252 1.06654,-0.800788 2.03268,-1.38425 0.967324,-0.582284 2.16732,-1.16575 3.61654,-1.73268 1.45039,-0.56693 3.03425,-1.05 4.78347,-1.45039 1.73386,-0.382677 3.56693,-0.583465 5.48386,-0.583465 3.06614,0 5.74961,0.433465 8.03268,1.30039 2.30079,0.86693 4.2,2.0504 5.71772,3.53386 1.51654,1.5 2.64921,3.24922 3.39922,5.23229 0.750001,1.98425 1.11732,4.10079 1.11732,6.35079 0,2.01614 -0.184252,4.01693 -0.533859,6.03308 -0.366142,1.99961 -1.11614,4.16693 -2.26654,6.48308 -1.16693,2.33386 -2.83347,4.91693 -5.01615,7.76694 -2.16732,2.85 -5.06693,6.13347 -8.68347,9.83387l-10.0169 10.4492 27.4996 0c0.250394,0 0.517323,0.0838583 0.750001,0.217323 0.250394,0.15 0.466536,0.366142 0.633071,0.666142 0.184252,0.3 0.317717,0.667323 0.400394,1.10079 0.0838583,0.433465 0.116929,0.949607 0.116929,1.53307z"/>
   <path id="_229493184" class="fil3" d="M839.173 554.372c0,0.616536 -0.0496063,1.13268 -0.15,1.56614 -0.100394,0.416929 -0.233858,0.750001 -0.383859,1.01693 -0.166536,0.266929 -0.349607,0.45 -0.565748,0.56693 -0.217323,0.116929 -0.433465,0.166536 -0.667323,0.166536l-33 0c-0.233858,0 -0.433465,-0.0496063 -0.633071,-0.166536 -0.200788,-0.116929 -0.383859,-0.3 -0.56693,-0.56693 -0.183071,-0.266929 -0.316536,-0.6 -0.416929,-1.01693 -0.0992127,-0.433465 -0.15,-0.949607 -0.15,-1.56614 0,-0.583465 0.0507874,-1.09961 0.15,-1.51654 0.100394,-0.416929 0.217323,-0.766536 0.367323,-1.05 0.15,-0.283465 0.333071,-0.483071 0.532678,-0.633071 0.217323,-0.15 0.45,-0.217323 0.71693,-0.217323l13.1835 0 0 -48.0496 -12.2173 7.26615c-0.616536,0.333071 -1.09961,0.533859 -1.48228,0.6 -0.367323,0.0496063 -0.667323,-0.0165354 -0.900001,-0.232677 -0.233858,-0.200788 -0.383859,-0.550394 -0.467717,-1.05 -0.0826772,-0.484252 -0.115748,-1.10079 -0.115748,-1.85079 0,-0.550394 0.0165354,-1.01693 0.0661418,-1.41614 0.0496063,-0.383859 0.116929,-0.71693 0.217323,-0.967324 0.0992127,-0.266929 0.249213,-0.499607 0.415748,-0.699213 0.184252,-0.184252 0.416929,-0.383859 0.71693,-0.583465l14.55 -9.31654c0.133465,-0.100394 0.283465,-0.184252 0.483071,-0.250394 0.200788,-0.0673229 0.433465,-0.133465 0.733465,-0.199606 0.3,-0.0673229 0.634252,-0.100394 1.03347,-0.116929 0.383859,-0.0165354 0.86693,-0.0165354 1.45039,-0.0165354 0.783071,0 1.43268,0.0330709 1.96654,0.0826772 0.516142,0.0673229 0.916536,0.166536 1.21654,0.283465 0.283465,0.100394 0.483071,0.250394 0.583465,0.433465 0.100394,0.183071 0.15,0.366142 0.15,0.56693l0 55.5166 11.4165 0c0.266929,0 0.517323,0.0673229 0.733465,0.217323 0.233858,0.15 0.416929,0.349607 0.56693,0.633071 0.15,0.283465 0.266929,0.633071 0.349607,1.05 0.0673229,0.416929 0.116929,0.933072 0.116929,1.51654z"/>
   <path id="_229493184" class="fil3" d="M841.123 648.022c0,4.85079 -0.383859,9.26694 -1.15039,13.2839 -0.766536,4.0004 -2.03268,7.43386 -3.79961,10.3169 -1.78347,2.88307 -4.09961,5.11654 -6.96733,6.69922 -2.86654,1.56732 -6.39922,2.36693 -10.5992,2.36693 -3.96733,0 -7.31693,-0.71693 -10.0335,-2.13307 -2.71654,-1.41614 -4.9004,-3.49961 -6.56693,-6.2504 -1.65,-2.74961 -2.83347,-6.13347 -3.53386,-10.1492 -0.699213,-4.01693 -1.05,-8.63387 -1.05,-13.8508 0,-4.81654 0.383859,-9.23268 1.16693,-13.2496 0.783071,-4.01693 2.0504,-7.46694 3.81733,-10.35 1.74921,-2.88307 4.06654,-5.11654 6.93308,-6.7004 2.86654,-1.56614 6.38386,-2.36693 10.5496,-2.36693 4.0004,0 7.35001,0.71693 10.0843,2.13425 2.71654,1.41614 4.89922,3.49961 6.56575,6.24922 1.65,2.75079 2.83347,6.13347 3.53386,10.1504 0.700394,4.01693 1.05,8.63387 1.05,13.8496zm-8.59961 0.583465c0,-3.16654 -0.100394,-6 -0.334252,-8.49922 -0.232677,-2.5004 -0.565748,-4.71733 -0.999213,-6.63426 -0.45,-1.93347 -1.01693,-3.58347 -1.71732,-4.96654 -0.699213,-1.38307 -1.53307,-2.51693 -2.51693,-3.41693 -0.966142,-0.900001 -2.08229,-1.54961 -3.33307,-1.95 -1.24961,-0.399213 -2.66693,-0.616536 -4.23307,-0.616536 -2.76614,0 -4.99961,0.650788 -6.73347,1.96654 -1.73268,1.30039 -3.08386,3.08386 -4.08307,5.36693 -0.983859,2.28307 -1.66654,4.95 -2.01732,8.00079 -0.366142,3.06614 -0.532678,6.34961 -0.532678,9.86576 0,4.71733 0.232677,8.73426 0.733465,12.0343 0.483071,3.31654 1.24961,6 2.31614,8.08347 1.05,2.08229 2.4,3.6 4.05,4.54961 1.63347,0.933072 3.63307,1.41614 5.98347,1.41614 1.81654,0 3.41693,-0.3 4.8,-0.883465 1.38307,-0.582284 2.58307,-1.43268 3.56693,-2.51575 1.00039,-1.08425 1.81654,-2.4 2.46614,-3.93426 0.650788,-1.53307 1.16693,-3.21614 1.56732,-5.08347 0.382677,-1.84961 0.649607,-3.86575 0.799607,-6.01654 0.15,-2.16614 0.217323,-4.43268 0.217323,-6.76654z"/>
  </g>
 </g>
</svg>
