<?xml version="1.0" encoding="UTF-8"?>
<!DOCTYPE svg PUBLIC "-//W3C//DTD SVG 1.1//EN" "http://www.w3.org/Graphics/SVG/1.1/DTD/svg11.dtd">
<!-- Creator: CorelDRAW -->
<svg xmlns="http://www.w3.org/2000/svg" xml:space="preserve" width="1000px" height="1000px" style="shape-rendering:geometricPrecision; text-rendering:geometricPrecision; image-rendering:optimizeQuality; fill-rule:evenodd; clip-rule:evenodd"
viewBox="0 0 1000 1000"
 xmlns:xlink="http://www.w3.org/1999/xlink">
 <defs>
  <style type="text/css">
   <![CDATA[
    .str3 {stroke:#1F1A17;stroke-width:4.16693}
    .str2 {stroke:#1F1A17;stroke-width:8.33386}
    .str1 {stroke:#1F1A17;stroke-width:8.33386;stroke-linejoin:round}
    .str0 {stroke:#1F1A17;stroke-width:16.6665}
    .fil1 {fill:none}
    .fil2 {fill:white}
    .fil0 {fill:#A8D6D3}
   ]]>
  </style>
 </defs>
 <g id="Warstwa_x0020_1">
  <metadata id="CorelCorpID_0Corel-Layer"/>
  <circle class="fil0" cx="500.639" cy="499.714" r="485.835"/>
  <g id="_229492320">
   <polygon id="_229155576" class="fil1 str0" points="105.998,272.952 129.171,556.824 385.236,881.25 925.172,676.166 955.298,370.279 610.016,159.403 "/>
   <path id="_229155504" class="fil2 str1" d="M381.76 637.93c-10.8402,115.6 -34.2189,197.599 -44.0315,186.545 -30.7087,-36.9437 -75.0178,-274.71 -106.595,-286.19 -38.8016,14.0776 -46.826,93.2481 -60.2504,78.789 -19.0831,-41.0422 -36.9213,-166.676 -54.4571,-312.839l305.887 49.8225c94.48,-38.2205 168.888,-101.534 244.478,-163.371 30.8882,98.5654 62.9363,188.217 103.121,215.511l115.866 -81.1064c38.0209,31.5355 36.1087,177.662 49.8225,266.492l-308.204 23.1732 -245.636 23.1732z"/>
   <line id="_229154472" class="fil1 str2" x1="177.605" y1="615.223" x2="246.475" y2= "560.242" />
   <path id="_229154328" class="fil1 str2" d="M345.44 822.412c80.0493,-79.2083 175.557,-149.007 291.107,-206.61"/>
   <polyline id="_229492296" class="fil1 str3" points="129.569,415.557 415.467,351.317 109.313,354.789 "/>
   <line id="_229154400" class="fil1 str3" x1="139.408" y1="472.852" x2="460.609" y2= "339.163" />
   <line id="_229161624" class="fil1 str3" x1="148.089" y1="523.782" x2="492.44" y2= "318.329" />
   <line id="_229166976" class="fil1 str3" x1="152.719" y1="561.4" x2="488.389" y2= "322.38" />
   <line id="_229488552" class="fil1 str3" x1="159.085" y1="589.758" x2="516.168" y2= "306.754" />
   <line id="_229488168" class="fil1 str3" x1="559.574" y1="276.659" x2="258.05" y2= "531.884" />
   <line id="_229488288" class="fil1 str3" x1="230.27" y1="538.25" x2="729.145" y2= "355.947" />
   <line id="_229488720" class="fil1 str3" x1="288.723" y1="515.1" x2="664.326" y2= "199.687" />
   <line id="_229488744" class="fil1 str3" x1="676.479" y1="212.998" x2="308.4" y2= "509.313" />
   <line id="_229489344" class="fil1 str3" x1="318.239" y1="506.419" x2="681.109" y2= "229.203" />
   <line id="_229488456" class="fil1 str3" x1="689.79" y1="253.51" x2="325.762" y2= "503.526" />
   <polyline id="_229167600" class="fil1 str3" points="706.348,304.988 329.235,501.211 696.156,274.344 "/>
   <line id="_229489728" class="fil1 str3" x1="716.991" y1="322.38" x2="343.125" y2= "497.159" />
   <line id="_229490352" class="fil1 str3" x1="722.2" y1="338.585" x2="336.18" y2= "497.738" />
   <line id="_229486512" class="fil1 str3" x1="776.601" y1="401.089" x2="463.503" y2= "630.849" />
   <polyline id="_229493472" class="fil1 str3" points="747.086,379.675 236.636,540.565 739.562,368.679 "/>
   <line id="_229492536" class="fil1 str3" x1="755.188" y1="391.829" x2="238.373" y2= "546.931" />
   <line id="_229490784" class="fil1 str3" x1="762.133" y1="398.774" x2="244.739" y2= "551.561" />
   <line id="_229490808" class="fil1 str3" x1="765.605" y1="404.561" x2="251.684" y2= "561.4" />
   <line id="_229490928" class="fil1 str3" x1="253.999" y1="576.447" x2="761.554" y2= "413.242" />
   <line id="_229490712" class="fil1 str3" x1="260.944" y1="591.494" x2="755.188" y2= "419.029" />
   <line id="_229490856" class="fil1 str3" x1="266.152" y1="611.75" x2="747.086" y2= "421.344" />
   <line id="_229493424" class="fil1 str3" x1="273.097" y1="633.742" x2="738.405" y2= "427.132" />
   <line id="_229490496" class="fil1 str3" x1="281.199" y1="660.943" x2="734.932" y2= "430.604" />
   <line id="_229159920" class="fil1 str3" x1="287.566" y1="688.723" x2="744.192" y2= "423.659" />
   <line id="_229154736" class="fil1 str3" x1="296.825" y1="716.502" x2="381.9" y2= "661.522" />
   <line id="_229154448" class="fil1 str3" x1="427.042" y1="632.006" x2="738.405" y2= "429.447" />
   <line id="_229154232" class="fil1 str3" x1="304.928" y1="745.439" x2="377.27" y2= "692.774" />
   <line id="_229154256" class="fil1 str3" x1="315.345" y1="770.904" x2="371.772" y2= "725.183" />
   <line id="_229154760" class="fil1 str3" x1="321.711" y1="792.317" x2="364.827" y2= "760.486" />
   <line id="_229154808" class="fil1 str3" x1="333.865" y1="807.943" x2="357.304" y2= "791.16" />
   <line id="_229154616" class="fil1 str3" x1="495.912" y1="627.376" x2="787.597" y2= "396.459" />
   <line id="_229154064" class="fil1 str3" x1="526.585" y1="625.061" x2="817.113" y2= "377.36" />
   <line id="_229154640" class="fil1 str3" x1="550.314" y1="622.746" x2="882.511" y2= "329.325" />
   <line id="_229154520" class="fil1 str3" x1="570.57" y1="620.431" x2="894.664" y2= "332.797" />
   <line id="_229154208" class="fil1 str3" x1="585.617" y1="619.274" x2="903.924" y2= "351.896" />
   <line id="_54717040" class="fil1 str3" x1="602.979" y1="619.274" x2="912.605" y2= "379.675" />
   <line id="_195156176" class="fil1 str3" x1="615.133" y1="617.537" x2="919.55" y2= "421.344" />
   <line id="_195541384" class="fil1 str3" x1="633.652" y1="614.644" x2="925.916" y2= "472.852" />
   <line id="_195541336" class="fil1 str3" x1="662.011" y1="611.171" x2="931.704" y2= "534.199" />
  </g>
 </g>
</svg>
