<?xml version="1.0" encoding="UTF-8"?>
<!DOCTYPE svg PUBLIC "-//W3C//DTD SVG 1.1//EN" "http://www.w3.org/Graphics/SVG/1.1/DTD/svg11.dtd">
<!-- Creator: CorelDRAW -->
<svg xmlns="http://www.w3.org/2000/svg" xml:space="preserve" width="1000px" height="1000px" style="shape-rendering:geometricPrecision; text-rendering:geometricPrecision; image-rendering:optimizeQuality; fill-rule:evenodd; clip-rule:evenodd"
viewBox="0 0 1000 1000"
 xmlns:xlink="http://www.w3.org/1999/xlink">
 <defs>
  <style type="text/css">
   <![CDATA[
    .str0 {stroke:#1F1A17;stroke-width:0.900001}
    .str2 {stroke:#1F1A17;stroke-width:8.33386}
    .str1 {stroke:#1F1A17;stroke-width:16.6665}
    .fil0 {fill:none}
    .fil1 {fill:#1F1A17}
    .fil2 {fill:white}
   ]]>
  </style>
 </defs>
 <g id="Warstwa_x0020_1">
  <metadata id="CorelCorpID_0Corel-Layer"/>
  <rect class="fil0 str0" x="-5324.47" y="7886.71" width="1002.45" height="1002.45"/>
  <g id="_282339472">
   <circle id="_228373792" class="fil1 str1" cx="458.18" cy="584.325" r="57.2628"/>
   <circle id="_228373432" class="fil1 str1" cx="239.544" cy="645.489" r="57.2628"/>
   <circle id="_282339064" class="fil1 str1" cx="840.48" cy="703.074" r="57.2628"/>
   <circle id="_282340024" class="fil1 str1" cx="718.475" cy="241.715" r="57.2628"/>
   <circle id="_282338776" class="fil1 str1" cx="554.715" cy="844.49" r="57.2628"/>
   <polyline id="_282339736" class="fil0 str2" points="420.153,304.648 553.147,144.804 719.598,241.432 735.097,454.963 465.485,583.804 725.554,235.456 520.362,130.474 183.943,190.123 188.716,431.104 423.731,307.035 457.134,587.384 553.765,822.4 844.851,698.33 720.781,252.157 768.5,221.14 "/>
   <line id="_282339760" class="fil0 str2" x1="551.379" y1="851.031" x2="231.662" y2= "643.453" />
   <polyline id="_282339784" class="fil0 str2" points="847.237,695.944 475.029,579.032 234.049,657.769 724.381,233.669 "/>
   <circle id="_282336568" class="fil2 str1" cx="530.307" cy="156.692" r="57.2628"/>
   <line id="_282339352" class="fil0 str2" x1="172.014" y1="182.965" x2="420.153" y2= "314.192" />
   <line id="_282338944" class="fil0 str2" x1="172.014" y1="440.647" x2="737.483" y2= "447.806" />
   <circle id="_282339184" class="fil2 str1" cx="731.598" cy="449.293" r="57.2628"/>
   <circle id="_282338920" class="fil2 str1" cx="424.455" cy="305.491" r="57.2628"/>
   <circle id="_282339376" class="fil2 str1" cx="176.96" cy="440.846" r="57.2628"/>
   <circle id="_282339904" class="fil2 str1" cx="175.445" cy="194.222" r="57.2628"/>
  </g>
 </g>
</svg>
