<?xml version="1.0" encoding="UTF-8"?>
<!DOCTYPE svg PUBLIC "-//W3C//DTD SVG 1.1//EN" "http://www.w3.org/Graphics/SVG/1.1/DTD/svg11.dtd">
<!-- Creator: CorelDRAW -->
<svg xmlns="http://www.w3.org/2000/svg" xml:space="preserve" width="1000px" height="1000px" style="shape-rendering:geometricPrecision; text-rendering:geometricPrecision; image-rendering:optimizeQuality; fill-rule:evenodd; clip-rule:evenodd"
viewBox="0 0 1000 1000"
 xmlns:xlink="http://www.w3.org/1999/xlink">
 <defs>
  <style type="text/css">
   <![CDATA[
    .str0 {stroke:#1F1A17;stroke-width:0.900001}
    .str2 {stroke:#1F1A17;stroke-width:4.16693}
    .str1 {stroke:#1F1A17;stroke-width:8.33386}
    .str3 {stroke:#1F1A17;stroke-width:16.6665}
    .fil0 {fill:none}
    .fil2 {fill:#1F1A17}
    .fil1 {fill:white}
   ]]>
  </style>
 </defs>
 <g id="Warstwa_x0020_1">
  <metadata id="CorelCorpID_0Corel-Layer"/>
  <rect class="fil0 str0" x="-5324.47" y="7886.71" width="1002.45" height="1002.45"/>
  <g id="_233804912">
   <path id="_228374056" class="fil1 str1" d="M453.315 316.843l-149.325 -92.6457c-28.0276,-17.1992 -54.0697,-16.5425 -78.4772,-1.09016l-139.514 98.0965c-20.0256,16.7374 -29.3599,38.1272 -32.6988,62.1272l-16.3488 172.213c-1.6937,19.3642 2.80866,35.4803 16.3488,46.8685l192.923 113.355c23.1626,11.1614 44.778,11.9232 64.3075,-1.09016l128.615 -94.8261 14.1697 -303.009z"/>
   <ellipse id="_282339712" class="fil2 str2" cx="269.947" cy="272.893" rx="31.2988" ry="20.8659"/>
   <ellipse id="_282339136" class="fil2 str2" cx="281.331" cy="338.803" rx="31.2988" ry="20.8659"/>
   <ellipse id="_282339688" class="fil2 str2" cx="292.715" cy="404.714" rx="31.2988" ry="20.8659"/>
   <ellipse id="_282339952" class="fil2 str2" cx="165.296" cy="341.619" rx="31.2988" ry="20.8659"/>
   <ellipse id="_282340192" class="fil2 str2" cx="391.145" cy="343.843" rx="31.2988" ry="20.8659"/>
   <ellipse id="_282339640" class="fil2 str2" transform="matrix(0.504666 0.980264 -0.980264 0.504666 162.171 538.162)" rx="29.3752" ry="17.7732"/>
   <ellipse id="_228379384" class="fil2 str2" transform="matrix(0.598744 -0.925803 0.925803 0.598744 340.71 620.083)" rx="27.6473" ry="12.8362"/>
   <polyline id="_282333784" class="fil0 str2" points="66.3792,345.182 296.365,482.517 278.921,723.397 "/>
   <line id="_282334768" class="fil0 str2" x1="295.531" y1="482.913" x2="336.9" y2= "463.861" />
   <path id="_282347080" class="fil1 str3" d="M724.56 218.308l-194.316 -8.63623c-41.4496,-0.0838583 -68.7922,10.7067 -82.0453,32.3859l-117.67 226.703c-16.3512,33.8374 -13.8307,66.2209 7.5567,97.1587l137.101 163.011c20.2276,19.9961 46.9441,32.3256 83.1249,33.4654l197.556 3.23859c24.9544,-0.106299 46.7351,-6.56339 61.5331,-26.9882l115.511 -224.544c17.2051,-30.9083 17.6386,-60.1725 -2.15906,-87.443l-132.783 -169.488c-18.1772,-21.2504 -43.728,-32.7898 -73.4091,-38.863z"/>
   <polyline id="_228396520" class="fil0 str1" points="320.34,517.395 617.898,526.115 763.952,231.827 "/>
   <line id="_228399616" class="fil0 str1" x1="617.898" y1="525.025" x2="799.921" y2= "755.006" />
   <ellipse id="_228395224" class="fil2 str2" transform="matrix(0.962404 -0.537945 0.537945 0.962404 613.418 315.26)" rx="36.0402" ry="24.1914"/>
   <ellipse id="_282338800" class="fil2 str2" transform="matrix(0.962404 -0.537945 0.537945 0.962404 459.871 411.108)" rx="36.0402" ry="24.1914"/>
   <ellipse id="_228393952" class="fil2 str2" transform="matrix(0.881491 0.460985 -0.405183 0.756335 436.948 584.236)" rx="36.0402" ry="24.1914"/>
   <ellipse id="_282340144" class="fil2 str2" transform="matrix(0.881491 0.460985 -0.405183 0.756335 552.843 644.159)" rx="36.0402" ry="24.1914"/>
   <ellipse id="_228376096" class="fil2 str2" transform="matrix(0.881491 0.460985 -0.405183 0.756335 668.738 704.082)" rx="36.0402" ry="24.1914"/>
   <ellipse id="_228375784" class="fil2 str2" transform="matrix(1.05734 -0.0935916 0.0935916 1.05734 786.621 363.873)" rx="23.6977" ry="35.5465"/>
   <ellipse id="_228400288" class="fil2 str2" transform="matrix(1.05734 -0.0935916 0.0935916 1.05734 870.937 466.452)" rx="23.6977" ry="35.5465"/>
   <ellipse id="_282339808" class="fil2 str2" transform="matrix(1.05734 -0.0935916 0.0935916 1.05734 745.258 447.491)" rx="23.6977" ry="35.5465"/>
   <ellipse id="_282339880" class="fil2 str2" transform="matrix(1.05734 -0.0935916 0.0935916 1.05734 829.302 547.892)" rx="23.6977" ry="35.5465"/>
   <ellipse id="_233803976" class="fil2 str2" transform="matrix(1.05734 -0.0935916 0.0935916 1.05734 703.894 531.109)" rx="23.6977" ry="35.5465"/>
   <ellipse id="_233800064" class="fil2 str2" transform="matrix(1.05734 -0.0935916 0.0935916 1.05734 789.299 629.061)" rx="23.6977" ry="35.5465"/>
  </g>
 </g>
</svg>
