<?xml version="1.0" encoding="UTF-8"?>
<!DOCTYPE svg PUBLIC "-//W3C//DTD SVG 1.1//EN" "http://www.w3.org/Graphics/SVG/1.1/DTD/svg11.dtd">
<!-- Creator: CorelDRAW -->
<svg xmlns="http://www.w3.org/2000/svg" xml:space="preserve" width="1000px" height="1000px" style="shape-rendering:geometricPrecision; text-rendering:geometricPrecision; image-rendering:optimizeQuality; fill-rule:evenodd; clip-rule:evenodd"
viewBox="0 0 1000 1000"
 xmlns:xlink="http://www.w3.org/1999/xlink">
 <defs>
  <style type="text/css">
   <![CDATA[
    .str1 {stroke:#1F1A17;stroke-width:4.16693}
    .str0 {stroke:#1F1A17;stroke-width:8.33386}
    .str2 {stroke:#1F1A17;stroke-width:16.6665}
    .fil3 {fill:none}
    .fil2 {fill:#1F1A17}
    .fil1 {fill:white}
    .fil0 {fill:#A8D6D3}
   ]]>
  </style>
 </defs>
 <g id="Warstwa_x0020_1">
  <metadata id="CorelCorpID_0Corel-Layer"/>
  <circle class="fil0" cx="500.639" cy="499.714" r="485.835"/>
  <g id="_229163880">
   <path id="_229159296" class="fil1 str0" d="M472.264 347.04l-133.97 -83.1213c-25.1469,-15.4299 -48.5103,-14.8406 -70.4079,-0.977954l-125.17 88.0099c-17.9669,15.0165 -26.341,34.2083 -29.3374,55.7398l-14.6681 154.506c-1.5189,17.374 2.52047,31.8331 14.6681,42.0496l173.087 101.7c20.7803,10.0146 40.174,10.6973 57.6945,-0.977954l115.391 -85.0761 12.7122 -271.852z"/>
   <ellipse id="_229491600" class="fil2 str1" cx="307.751" cy="307.608" rx="28.0807" ry="18.7205"/>
   <ellipse id="_229491144" class="fil2 str1" cx="317.965" cy="366.742" rx="28.0807" ry="18.7205"/>
   <ellipse id="_229491216" class="fil2 str1" cx="328.178" cy="425.875" rx="28.0807" ry="18.7205"/>
   <ellipse id="_229492560" class="fil2 str1" cx="213.86" cy="369.268" rx="28.0807" ry="18.7205"/>
   <ellipse id="_229492104" class="fil2 str1" cx="416.487" cy="371.263" rx="28.0807" ry="18.7205"/>
   <ellipse id="_229490640" class="fil2 str1" transform="matrix(0.452776 0.879473 -0.879473 0.452776 211.056 545.602)" rx="29.3752" ry="17.7732"/>
   <ellipse id="_229492440" class="fil2 str1" transform="matrix(0.537181 -0.830612 0.830612 0.537181 371.238 619.1)" rx="27.6473" ry="12.8362"/>
   <polyline id="_229160952" class="fil3 str1" points="125.114,372.464 331.452,495.678 315.802,711.792 "/>
   <line id="_197931024" class="fil3 str1" x1="330.704" y1="496.034" x2="367.819" y2= "478.941" />
   <path id="_197934216" class="fil1 str2" d="M715.621 258.636l-174.338 -7.74804c-37.1882,-0.0744095 -61.7197,9.60591 -73.6087,29.0563l-105.572 203.393c-14.6693,30.3579 -12.4087,59.4119 6.77953,87.169l123.005 146.25c18.1477,17.941 42.117,29.002 74.5784,30.0248l177.242 2.90551c22.389,-0.0956694 41.9303,-5.8878 55.2071,-24.2138l103.635 -201.456c15.4358,-27.7299 15.8244,-53.9847 -1.93701,-78.4524l-119.131 -152.061c-16.3087,-19.0654 -39.2327,-29.4177 -65.8607,-34.8674z"/>
   <polyline id="_197928360" class="fil3 str0" points="352.962,526.97 619.926,534.794 750.962,270.764 "/>
   <line id="_197928456" class="fil3 str0" x1="619.926" y1="533.816" x2="783.232" y2= "740.15" />
   <ellipse id="_197929632" class="fil2 str1" transform="matrix(0.863449 -0.482634 0.482634 0.863449 615.906 345.619)" rx="36.0402" ry="24.1914"/>
   <ellipse id="_197929776" class="fil2 str1" transform="matrix(0.863449 -0.482634 0.482634 0.863449 478.147 431.612)" rx="36.0402" ry="24.1914"/>
   <ellipse id="_197929224" class="fil2 str1" transform="matrix(0.790856 0.413587 -0.363522 0.678569 457.58 586.939)" rx="36.0402" ry="24.1914"/>
   <ellipse id="_229161168" class="fil2 str1" transform="matrix(0.790856 0.413587 -0.363522 0.678569 561.559 640.7)" rx="36.0402" ry="24.1914"/>
   <ellipse id="_229154352" class="fil2 str1" transform="matrix(0.790856 0.413587 -0.363522 0.678569 665.538 694.462)" rx="36.0402" ry="24.1914"/>
   <ellipse id="_229155432" class="fil2 str1" transform="matrix(0.948623 -0.0839685 0.0839685 0.948623 771.301 389.234)" rx="23.6977" ry="35.5465"/>
   <ellipse id="_229488408" class="fil2 str1" transform="matrix(0.948623 -0.0839685 0.0839685 0.948623 846.947 481.265)" rx="23.6977" ry="35.5465"/>
   <ellipse id="_229488336" class="fil2 str1" transform="matrix(0.948623 -0.0839685 0.0839685 0.948623 734.19 464.254)" rx="23.6977" ry="35.5465"/>
   <ellipse id="_229488792" class="fil2 str1" transform="matrix(0.948623 -0.0839685 0.0839685 0.948623 809.592 554.332)" rx="23.6977" ry="35.5465"/>
   <ellipse id="_197929176" class="fil2 str1" transform="matrix(0.948623 -0.0839685 0.0839685 0.948623 697.079 539.275)" rx="23.6977" ry="35.5465"/>
   <ellipse id="_229488192" class="fil2 str1" transform="matrix(0.948623 -0.0839685 0.0839685 0.948623 773.703 627.155)" rx="23.6977" ry="35.5465"/>
  </g>
 </g>
</svg>
