<?xml version="1.0" encoding="UTF-8"?>
<!DOCTYPE svg PUBLIC "-//W3C//DTD SVG 1.1//EN" "http://www.w3.org/Graphics/SVG/1.1/DTD/svg11.dtd">
<!-- Creator: CorelDRAW -->
<svg xmlns="http://www.w3.org/2000/svg" xml:space="preserve" width="1000px" height="1000px" style="shape-rendering:geometricPrecision; text-rendering:geometricPrecision; image-rendering:optimizeQuality; fill-rule:evenodd; clip-rule:evenodd"
viewBox="0 0 1000 1000"
 xmlns:xlink="http://www.w3.org/1999/xlink">
 <defs>
  <style type="text/css">
   <![CDATA[
    .str0 {stroke:#1F1A17;stroke-width:0.900001}
    .str1 {stroke:#1F1A17;stroke-width:16.6665}
    .str2 {stroke:#1F1A17;stroke-width:16.6665;stroke-dasharray:33.333 16.667}
    .fil0 {fill:none}
    .fil1 {fill:white}
   ]]>
  </style>
 </defs>
 <g id="Warstwa_x0020_1">
  <metadata id="CorelCorpID_0Corel-Layer"/>
  <rect class="fil0 str0" x="-5324.47" y="7886.71" width="1002.45" height="1002.45"/>
  <g id="_301998432">
   <circle id="_301999560" class="fil1 str1" cx="300.658" cy="182.064" r="90.7619"/>
   <circle id="_301999656" class="fil1 str1" cx="263.654" cy="811.916" r="90.7619"/>
   <polyline id="_301999632" class="fil0 str1" points="274.551,730.61 412.941,490.913 285.192,269.644 "/>
   <polyline id="_301999128" class="fil0 str1" points="311.918,727.982 450.307,488.285 322.558,267.016 "/>
   <polyline id="_301999680" class="fil0 str1" points="338.67,750.875 487.908,492.387 350.144,253.773 "/>
   <path id="_301998912" class="fil0 str1" d="M482.005 498.493c17.6717,-37.9524 14.4366,-55.6973 52.3052,-19.8201 35.3528,33.4937 49.3158,7.18938 64.9536,-46.4185 11.674,-40.0181 45.7725,-7.02993 55.7989,2.67756 28.5083,27.6047 46.2225,25.4516 51.2469,-5.52638 3.9378,-24.2823 11.6646,-73.539 45.3709,-49.6914 31.6878,22.4209 52.493,59.9977 62.1792,4.50355 5.27363,-30.2173 14.5595,-74.1886 59.9363,-22.5331"/>
   <circle id="_301998648" class="fil1 str1" cx="860.244" cy="345.591" r="41.4933"/>
   <line id="_301998600" class="fil0 str2" x1="625.424" y1="414.105" x2="712.975" y2= "161.283" />
   <circle id="_301998840" class="fil1 str1" cx="705.419" cy="159.784" r="33.6101"/>
  </g>
 </g>
</svg>
