<?xml version="1.0" encoding="UTF-8"?>
<!DOCTYPE svg PUBLIC "-//W3C//DTD SVG 1.1//EN" "http://www.w3.org/Graphics/SVG/1.1/DTD/svg11.dtd">
<!-- Creator: CorelDRAW -->
<svg xmlns="http://www.w3.org/2000/svg" xml:space="preserve" width="1000px" height="1000px" style="shape-rendering:geometricPrecision; text-rendering:geometricPrecision; image-rendering:optimizeQuality; fill-rule:evenodd; clip-rule:evenodd"
viewBox="0 0 1000 1000"
 xmlns:xlink="http://www.w3.org/1999/xlink">
 <defs>
  <style type="text/css">
   <![CDATA[
    .str0 {stroke:#1F1A17;stroke-width:0.900001}
    .str3 {stroke:#1F1A17;stroke-width:4.16693}
    .str2 {stroke:#1F1A17;stroke-width:12.4996}
    .str1 {stroke:#1F1A17;stroke-width:16.6665}
    .fil0 {fill:none}
    .fil1 {fill:white}
    .fil2 {fill:#1F1A17;fill-rule:nonzero}
   ]]>
  </style>
 </defs>
 <g id="Warstwa_x0020_1">
  <metadata id="CorelCorpID_0Corel-Layer"/>
  <rect class="fil0 str0" x="-5324.47" y="7886.71" width="1002.45" height="1002.45"/>
  <g id="_301992408">
   <polygon id="_301993176" class="fil1 str1" points="57.3685,724.745 915.187,724.745 915.187,272.822 "/>
   <circle id="_301993056" class="fil1 str2" cx="509.234" cy="318.791" r="144.983"/>
   <g>
    <path id="_301992936" class="fil2" d="M509.567 610.982l0 -294.607 4.16693 0 0 294.607 -4.16693 0zm2.08347 14.7756l-12.6 -29.4 0.787796 0.381496 0.786615 0.356693 0.787796 0.33189 0.787796 0.308268 0.787796 0.282284 0.786615 0.258662 0.787796 0.233858 0.787796 0.209055 0.787796 0.185433 0.786615 0.159449 0.787796 0.135827 0.787796 0.109843 0.787796 0.0862205 0.786615 0.0614174 0.787796 0.0377953 0.787796 0.011811 0.787796 -0.011811 0.786615 -0.0377953 0.787796 -0.0614174 0.787796 -0.0862205 0.787796 -0.109843 0.786615 -0.135827 0.787796 -0.159449 0.787796 -0.185433 0.787796 -0.209055 0.786615 -0.233858 0.787796 -0.258662 0.787796 -0.282284 0.787796 -0.308268 0.786615 -0.33189 0.787796 -0.356693 0.787796 -0.381496 0 0 -12.6 29.4z"/>
   </g>
   <g>
    <path class="fil2" d="M269.387 443.534l241.879 -128.391 1.95354 3.67796 -241.879 128.391 -1.95354 -3.67796zm-12.0732 8.76615l20.061 -24.913 0.0318898 0.874016 0.0543308 0.863387 0.0755906 0.850394 0.0980316 0.839764 0.119291 0.829135 0.140551 0.816142 0.162992 0.805512 0.184252 0.793701 0.206693 0.78189 0.227953 0.770079 0.249213 0.759449 0.271654 0.747638 0.292914 0.735827 0.314173 0.724016 0.336614 0.713386 0.359055 0.701575 0.380315 0.689764 0.401575 0.677953 0.424016 0.667323 0.445276 0.654331 0.466536 0.643701 0.488977 0.633071 0.510237 0.620079 0.532678 0.609449 0.553937 0.597638 0.575197 0.585827 0.597638 0.574016 0.618898 0.563386 0.641339 0.550394 0.662599 0.539764 0.683859 0.529134 0.7063 0.516142 0 0 -31.8756 2.65512z"/>
   </g>
   <path class="fil0 str3" d="M239.871 375.196c4.06063,11.6445 6.42756,20.5134 8.3256,32.2642 1.19055,7.37363 4.48583,14.8689 5.20394,21.8563 0.588189,5.72835 12.6791,-24.5173 13.5307,-27.5811 1.47638,-5.31969 1.56142,-8.54646 1.56142,-14.0504 0,-1.60394 0.32126,-8.22993 0.519685,-9.88702"/>
   <path class="fil0 str3" d="M232.451 366.718c16.2295,-1.4315 29.3268,0.603544 42.8398,0.603544"/>
   <path class="fil0 str3" d="M567.051 586.017c-44.8985,-26.8878 -41.7154,46.917 -12.1925,37.0689 7.93347,-2.64685 10.787,-11.8984 11.1319,-20.6622 1.23662,-31.3536 1.29449,9.46772 0.530315,19.4469 -0.874016,11.4413 4.72796,81.3131 -16.4327,59.5548 -22.2142,-22.8437 32.4508,-50.9693 36.5764,-69.8859"/>
   <path class="fil0 str3" d="M538.42 552.093c16.161,1.44685 33.313,3.0378 49.2237,3.0378"/>
   <path class="fil0 str3" d="M247.65 620.891c35.002,23.5075 46.7351,56.0859 27.5906,100.708"/>
   <path class="fil0 str3" d="M339.185 647.292c-10.3512,-11.7992 -13.9571,-7.2378 -19.2732,6.19489 -2.30788,5.83583 -17.8772,42.3851 -26.5016,21.339 -3.16299,-7.71969 0.951969,-21.8114 9.29292,-24.4358 10.6181,-3.3437 19.1917,14.9965 22.715,22.3713 2.66339,5.57481 13.6725,15.5705 16.5201,4.12914"/>
  </g>
 </g>
</svg>
