<?xml version="1.0" encoding="UTF-8"?>
<!DOCTYPE svg PUBLIC "-//W3C//DTD SVG 1.1//EN" "http://www.w3.org/Graphics/SVG/1.1/DTD/svg11.dtd">
<!-- Creator: CorelDRAW -->
<svg xmlns="http://www.w3.org/2000/svg" xml:space="preserve" width="1000px" height="1000px" style="shape-rendering:geometricPrecision; text-rendering:geometricPrecision; image-rendering:optimizeQuality; fill-rule:evenodd; clip-rule:evenodd"
viewBox="0 0 1000 1000"
 xmlns:xlink="http://www.w3.org/1999/xlink">
 <defs>
  <style type="text/css">
   <![CDATA[
    .str0 {stroke:#1F1A17;stroke-width:0.900001}
    .str2 {stroke:#1F1A17;stroke-width:4.16693}
    .str1 {stroke:#1F1A17;stroke-width:16.6665}
    .fil0 {fill:none}
    .fil1 {fill:white}
    .fil2 {fill:#1F1A17;fill-rule:nonzero}
   ]]>
  </style>
 </defs>
 <g id="Warstwa_x0020_1">
  <metadata id="CorelCorpID_0Corel-Layer"/>
  <rect class="fil0 str0" x="-5324.47" y="7886.71" width="1002.45" height="1002.45"/>
  <g id="_301993680">
   <path id="_301996512" class="fil1 str1" d="M180.626 729.387l662.762 0c-111.4,-244.971 -572.63,-241.762 -662.762,0z"/>
   <line id="_301993560" class="fil0 str2" x1="303.65" y1="598.426" x2="114.484" y2= "273.008" />
   <line id="_301994280" class="fil0 str2" x1="442.548" y1="552.127" x2="418.737" y2= "249.197" />
   <line id="_301993872" class="fil0 str2" x1="650.894" y1="563.371" x2="769.949" y2= "278.961" />
   <g>
    <path id="_301993776" class="fil2" d="M36.5032 328.034l-5.89134 5.89134 -11.785 -11.785 5.89134 -5.89134 11.785 11.785zm17.6776 17.6776l-5.89134 5.89134 -11.785 -11.785 5.89134 -5.89134 11.785 11.785zm17.6776 17.6776l-5.89134 5.89134 -11.785 -11.785 5.89134 -5.89134 11.785 11.785zm17.6776 17.6776l-5.89134 5.89134 -11.785 -11.785 5.89134 -5.89134 11.785 11.785zm17.6776 17.6776l-5.89134 5.89134 -11.785 -11.785 5.89134 -5.89134 11.785 11.785zm17.6788 17.6788l-5.89134 5.89134 -11.7862 -11.7862 5.89134 -5.89134 11.7862 11.7862zm17.6788 17.6788l-5.89134 5.89134 -11.7862 -11.7862 5.89134 -5.89134 11.7862 11.7862zm17.6788 17.6788l-5.89134 5.89134 -11.7862 -11.7862 5.89134 -5.89134 11.7862 11.7862zm17.6788 17.6788l-5.89134 5.89134 -11.7862 -11.7862 5.89134 -5.89134 11.7862 11.7862zm17.6788 17.6788l-5.89134 5.89134 -11.7862 -11.7862 5.89134 -5.89134 11.7862 11.7862zm17.6788 17.6788l-5.89134 5.89134 -11.7862 -11.7862 5.89134 -5.89134 11.7862 11.7862zm17.6788 17.6788l-5.89134 5.89134 -11.7862 -11.7862 5.89134 -5.89134 11.7862 11.7862zm17.6788 17.6788l-5.89134 5.89134 -11.7862 -11.7862 5.89134 -5.89134 11.7862 11.7862zm17.6799 17.6799l-5.89134 5.89134 -11.7874 -11.7874 5.89134 -5.89134 11.7874 11.7874zm17.6811 17.6811l-5.89134 5.89134 -11.7874 -11.7874 5.89134 -5.89134 11.7874 11.7874zm17.6811 17.6811l-5.89134 5.89134 -11.7874 -11.7874 5.89134 -5.89134 11.7874 11.7874zm-9.94017 -14.8571l8.17087 -1.59449 2.71181 13.7599 -8.17087 1.59449 -2.71181 -13.7599zm-4.06772 -20.6398l8.17087 -1.59449 2.71181 13.7599 -8.17087 1.59449 -2.71181 -13.7599zm-4.06772 -20.6398l8.17087 -1.59449 2.71181 13.7599 -8.17087 1.59449 -2.71181 -13.7599zm-4.06772 -20.641l8.17087 -1.59449 2.71181 13.761 -8.17087 1.59449 -2.71181 -13.761zm-4.06772 -20.641l8.17087 -1.59449 2.71181 13.761 -8.17087 1.59449 -2.71181 -13.761zm-4.06772 -20.641l8.17087 -1.59449 2.71181 13.761 -8.17087 1.59449 -2.71181 -13.761zm-4.0689 -20.6421l8.17087 -1.59449 2.71299 13.7622 -8.17087 1.59449 -2.71299 -13.7622zm6.37441 -10.7055l0.440552 2.22992 -8.17087 1.59449 -0.440552 -2.22992 8.17087 -1.59449zm-9.74765 -27.9343l35.7697 52.3418 -1.67835 -0.43937 -1.66772 -0.392126 -1.65827 -0.343701 -1.65 -0.296457 -1.63937 -0.249213 -1.6311 -0.200788 -1.62047 -0.152362 -1.61102 -0.105118 -1.60276 -0.056693 -1.59213 -0.00944883 -1.58386 0.0389764 -1.57323 0.0862205 -1.56496 0.133465 -1.55433 0.183071 -1.54606 0.229134 -1.53543 0.27874 -1.52717 0.324803 -1.51772 0.37441 -1.50709 0.421654 -1.49882 0.468898 -1.48819 0.517323 -1.47992 0.564567 -1.47047 0.612993 -1.45984 0.660237 -1.45158 0.708662 -1.44213 0.757087 -1.43268 0.804331 -1.42205 0.851575 -1.41378 0.900001 -1.40433 0.948426 -1.39488 0.99567 -1.38425 1.04291 0 0 13.2343 -61.9997z"/>
   </g>
   <g>
    <path class="fil2" d="M218.03 321.718l-5.89134 5.89134 -11.785 -11.785 5.89134 -5.89134 11.785 11.785zm17.6776 17.6776l-5.89134 5.89134 -11.785 -11.785 5.89134 -5.89134 11.785 11.785zm17.6776 17.6776l-5.89134 5.89134 -11.785 -11.785 5.89134 -5.89134 11.785 11.785zm17.6776 17.6776l-5.89134 5.89134 -11.785 -11.785 5.89134 -5.89134 11.785 11.785zm17.6776 17.6776l-5.89134 5.89134 -11.785 -11.785 5.89134 -5.89134 11.785 11.785zm17.6788 17.6788l-5.89134 5.89134 -11.7862 -11.7862 5.89134 -5.89134 11.7862 11.7862zm17.6788 17.6788l-5.89134 5.89134 -11.7862 -11.7862 5.89134 -5.89134 11.7862 11.7862zm17.6788 17.6788l-5.89134 5.89134 -11.7862 -11.7862 5.89134 -5.89134 11.7862 11.7862zm17.6788 17.6788l-5.89134 5.89134 -11.7862 -11.7862 5.89134 -5.89134 11.7862 11.7862zm17.6788 17.6788l-5.89134 5.89134 -11.7862 -11.7862 5.89134 -5.89134 11.7862 11.7862zm17.6788 17.6788l-5.89134 5.89134 -11.7862 -11.7862 5.89134 -5.89134 11.7862 11.7862zm17.6788 17.6788l-5.89134 5.89134 -11.7862 -11.7862 5.89134 -5.89134 11.7862 11.7862zm17.6811 17.6811l-5.89134 5.89134 -11.7874 -11.7874 5.89134 -5.89134 11.7874 11.7874zm17.6811 17.6811l-5.89134 5.89134 -11.7874 -11.7874 5.89134 -5.89134 11.7874 11.7874zm7.20355 -14.8205l6.80315 4.78583 -8.75788 12.4524 -6.80315 -4.78583 8.75788 -12.4524zm13.1362 -18.678l6.80315 4.78583 -8.75788 12.4524 -6.80315 -4.78583 8.75788 -12.4524zm13.1386 -18.678l6.80315 4.78583 -8.75906 12.4524 -6.80315 -4.78583 8.75906 -12.4524zm13.1386 -18.678l6.80315 4.78583 -8.75906 12.4524 -6.80315 -4.78583 8.75906 -12.4524zm13.1386 -18.6803l6.80315 4.78583 -8.75906 12.4536 -6.80315 -4.78583 8.75906 -12.4536zm13.1386 -18.6803l6.80315 4.78583 -8.75906 12.4536 -6.80315 -4.78583 8.75906 -12.4536zm13.1386 -18.6803l6.80315 4.78583 -8.75906 12.4536 -6.80315 -4.78583 8.75906 -12.4536zm13.1386 -18.6803l6.80315 4.78583 -8.75906 12.4536 -6.80315 -4.78583 8.75906 -12.4536zm13.1386 -18.6803l6.80315 4.78583 -8.75906 12.4536 -6.80315 -4.78583 8.75906 -12.4536zm13.1386 -18.6803l6.80315 4.78583 -8.75906 12.4536 -6.80315 -4.78583 8.75906 -12.4536zm13.1386 -18.6803l6.80315 4.78583 -8.75906 12.4536 -6.80315 -4.78583 8.75906 -12.4536zm13.1386 -18.6803l6.80315 4.78583 -8.75906 12.4536 -6.80315 -4.78583 8.75906 -12.4536zm13.1386 -18.6803l6.80315 4.78583 -8.75906 12.4536 -6.80315 -4.78583 8.75906 -12.4536zm14.8228 -6.61654l-3.64016 5.17559 -6.80315 -4.78583 3.64016 -5.17559 6.80315 4.78583zm13.4315 -26.3256l-13.0854 61.976 -0.840946 -1.51417 -0.869292 -1.4752 -0.896457 -1.43504 -0.925985 -1.39606 -0.95315 -1.35591 -0.980316 -1.31575 -1.00984 -1.27559 -1.03701 -1.23543 -1.06536 -1.19646 -1.0937 -1.1563 -1.12087 -1.11614 -1.14921 -1.07717 -1.17756 -1.03701 -1.20591 -0.996851 -1.23307 -0.956694 -1.26142 -0.916536 -1.28976 -0.87756 -1.31811 -0.837402 -1.34528 -0.797245 -1.37362 -0.758268 -1.40197 -0.71693 -1.43032 -0.677953 -1.45748 -0.638977 -1.48583 -0.597638 -1.51417 -0.558662 -1.54134 -0.518504 -1.56969 -0.478347 -1.59803 -0.43937 -1.62638 -0.398032 -1.65473 -0.359055 -1.68189 -0.320079 -1.71024 -0.27874 0 0 53.9044 -33.267z"/>
   </g>
   <g>
    <path class="fil2" d="M341.462 257.307l-5.89134 5.89134 -11.785 -11.785 5.89134 -5.89134 11.785 11.785zm17.6776 17.6776l-5.89134 5.89134 -11.785 -11.785 5.89134 -5.89134 11.785 11.785zm17.6776 17.6776l-5.89134 5.89134 -11.785 -11.785 5.89134 -5.89134 11.785 11.785zm17.6776 17.6776l-5.89134 5.89134 -11.785 -11.785 5.89134 -5.89134 11.785 11.785zm17.6776 17.6776l-5.89134 5.89134 -11.785 -11.785 5.89134 -5.89134 11.785 11.785zm17.6776 17.6776l-5.89134 5.89134 -11.785 -11.785 5.89134 -5.89134 11.785 11.785zm17.6788 17.6788l-5.89134 5.89134 -11.7862 -11.7862 5.89134 -5.89134 11.7862 11.7862zm17.6788 17.6788l-5.89134 5.89134 -11.7862 -11.7862 5.89134 -5.89134 11.7862 11.7862zm17.6788 17.6788l-5.89134 5.89134 -11.7862 -11.7862 5.89134 -5.89134 11.7862 11.7862zm17.6788 17.6788l-5.89134 5.89134 -11.7862 -11.7862 5.89134 -5.89134 11.7862 11.7862zm17.6788 17.6788l-5.89134 5.89134 -11.7862 -11.7862 5.89134 -5.89134 11.7862 11.7862zm17.6788 17.6788l-5.89134 5.89134 -11.7862 -11.7862 5.89134 -5.89134 11.7862 11.7862zm17.6788 17.6788l-5.89134 5.89134 -11.7862 -11.7862 5.89134 -5.89134 11.7862 11.7862zm17.6788 17.6788l-5.89134 5.89134 -11.7862 -11.7862 5.89134 -5.89134 11.7862 11.7862zm17.6788 17.6788l-5.89134 5.89134 -11.7862 -11.7862 5.89134 -5.89134 11.7862 11.7862zm17.6799 17.6799l-5.89134 5.89134 -11.7874 -11.7874 5.89134 -5.89134 11.7874 11.7874zm17.6811 17.6811l-5.89134 5.89134 -11.7874 -11.7874 5.89134 -5.89134 11.7874 11.7874zm17.6811 17.6811l-5.89134 5.89134 -11.7874 -11.7874 5.89134 -5.89134 11.7874 11.7874zm3.74882 13.6441l-3.09213 -1.20473 -0.654331 -0.654331 5.89134 -5.89134 0.654331 0.654331 -2.79921 7.09607zm0 0l-1.82126 0.0649607 -1.27087 -1.26969 3.09213 1.20473zm14.0504 -8.81694l0.292914 8.30079 -14.3433 0.516142 -0.292914 -8.30079 14.3433 -0.516142zm22.7776 -0.818505l0.292914 8.30079 -15.1854 0.54567 -0.292914 -8.30079 15.1854 -0.54567zm22.7776 -0.818505l0.292914 8.30079 -15.1854 0.54567 -0.292914 -8.30079 15.1854 -0.54567zm22.7776 -0.819686l0.292914 8.30079 -15.1854 0.546851 -0.292914 -8.30079 15.1854 -0.546851zm22.7799 -0.819686l0.292914 8.30079 -15.1866 0.546851 -0.292914 -8.30079 15.1866 -0.546851zm22.7799 -0.819686l0.292914 8.30079 -15.1866 0.546851 -0.292914 -8.30079 15.1866 -0.546851zm22.7799 -0.819686l0.292914 8.30079 -15.1866 0.546851 -0.292914 -8.30079 15.1866 -0.546851zm22.7799 -0.819686l0.292914 8.30079 -15.1866 0.546851 -0.292914 -8.30079 15.1866 -0.546851zm22.7799 -0.819686l0.292914 8.30079 -15.1866 0.546851 -0.292914 -8.30079 15.1866 -0.546851zm22.7799 -0.819686l0.292914 8.30079 -15.1866 0.546851 -0.292914 -8.30079 15.1866 -0.546851zm22.7799 -0.819686l0.292914 8.30079 -15.1866 0.546851 -0.292914 -8.30079 15.1866 -0.546851zm22.7799 -0.822048l0.292914 8.30079 -15.1866 0.548032 -0.292914 -8.30079 15.1866 -0.548032zm22.7799 -0.822048l0.292914 8.30079 -15.1866 0.548032 -0.292914 -8.30079 15.1866 -0.548032zm14.1071 7.80119l-6.22087 0.225591 -0.292914 -8.30079 6.22087 -0.225591 0.292914 8.30079zm29.0528 -5.20158l-57.2044 26.9918 0.698032 -1.58268 0.648426 -1.58268 0.601182 -1.57914 0.551575 -1.57795 0.50315 -1.57677 0.454725 -1.57441 0.4063 -1.57323 0.356693 -1.57087 0.309449 -1.56969 0.259843 -1.56732 0.211417 -1.56614 0.162992 -1.56378 0.113386 -1.5626 0.0661418 -1.56142 0.0165354 -1.55788 -0.0318898 -1.55788 -0.080315 -1.55551 -0.12874 -1.55315 -0.177165 -1.55197 -0.226772 -1.55079 -0.274016 -1.54843 -0.323622 -1.54606 -0.372048 -1.54488 -0.421654 -1.5437 -0.468898 -1.54134 -0.518504 -1.53898 -0.56693 -1.5378 -0.614174 -1.53662 -0.664961 -1.53425 -0.712205 -1.53307 -0.760631 -1.53071 -0.810237 -1.52835 0 0 58.9973 22.8083z"/>
   </g>
  </g>
 </g>
</svg>
