<?xml version="1.0" encoding="UTF-8"?>
<!DOCTYPE svg PUBLIC "-//W3C//DTD SVG 1.1//EN" "http://www.w3.org/Graphics/SVG/1.1/DTD/svg11.dtd">
<!-- Creator: CorelDRAW -->
<svg xmlns="http://www.w3.org/2000/svg" xml:space="preserve" width="1000px" height="1000px" style="shape-rendering:geometricPrecision; text-rendering:geometricPrecision; image-rendering:optimizeQuality; fill-rule:evenodd; clip-rule:evenodd"
viewBox="0 0 1000 1000"
 xmlns:xlink="http://www.w3.org/1999/xlink">
 <defs>
  <style type="text/css">
   <![CDATA[
    .str0 {stroke:#1F1A17;stroke-width:0.900001}
    .str3 {stroke:#1F1A17;stroke-width:16.6665}
    .str2 {stroke:white;stroke-width:33.3331}
    .str1 {stroke:#1F1A17;stroke-width:16.6665;stroke-dasharray:33.333 16.667}
    .fil0 {fill:none}
    .fil1 {fill:#1F1A17;fill-rule:nonzero}
   ]]>
  </style>
 </defs>
 <g id="Warstwa_x0020_1">
  <metadata id="CorelCorpID_0Corel-Layer"/>
  <rect class="fil0 str0" x="-5324.47" y="7886.71" width="1002.45" height="1002.45"/>
  <g id="_301996992">
   <path id="_302473896" class="fil0 str1" d="M390.878 199.049c-55.4906,-92.6883 -148.351,-110.953 -247.818,0 -115.605,128.953 -82.9583,378.314 -10.9795,522.299 36.58,73.1717 89.1213,122.34 177.236,122.34 24.2681,0 57.3733,-31.9311 76.8556,-43.917 11.6646,-7.17875 21.5504,-19.6583 32.9374,-26.6634 5.56654,-3.42402 35.2902,-47.6055 35.2902,-40.7811"/>
   <path id="_302473416" class="fil0 str1" d="M502.238 151.995c71.1875,-65.7119 220.21,-41.054 282.324,28.2319 131.519,146.707 94.3229,301.191 69.013,465.834 -26.4886,172.312 -187.064,133.608 -301.146,105.087"/>
   <path id="_302472576" class="fil0 str2" d="M143.06 453.14c159.347,22.148 199.621,30.8528 324.672,32.1544l225.859 2.35276 120.773 -7.84253"/>
   <path id="_302472480" class="fil0 str3" d="M144.628 471.178c221.153,52.8059 455.639,34.2449 672.088,29.0162"/>
   <path id="_302472960" class="fil0 str3" d="M141.491 431.182c99.8965,7.68308 223.709,34.2544 329.378,36.0744l181.942 3.13701c50.9374,0.876379 112.584,-8.62678 164.689,-8.62678"/>
   <g>
    <path id="_302472840" class="fil1" d="M316.985 382.463l-5.92441 -15.4937 0 0 4.46575 -1.42559 4.50355 -0.831497 4.50473 -0.226772 4.43032 0.257481 4.35355 0.780709 4.26969 1.21772 4.11614 1.60039 3.98622 1.95709 3.85276 2.25945 3.74646 2.53819 3.63071 2.76024 3.54449 2.9941 3.42048 3.20079 3.32008 3.35551 3.21614 3.51851 3.10512 3.62481 3.02008 3.74055 2.89843 3.80079 2.80158 3.87166 2.66811 3.91536 2.55945 3.94016 2.44488 3.94016 2.32559 3.88465 2.16732 3.83622 2.06811 3.80079 1.89685 3.67559 1.75276 3.58937 1.60394 3.41929 1.4811 3.32126 1.28622 3.10276 1.15158 2.95748 0.944883 2.75788 -15.7559 5.20867 -0.814961 -2.23819 -0.955513 -2.50158 -1.1563 -2.77677 -1.28504 -2.9315 -1.47402 -3.15709 -1.62284 -3.26575 -1.76693 -3.41339 -1.87205 -3.47481 -2.0374 -3.57638 -2.12953 -3.62481 -2.25118 -3.61418 -2.36339 -3.61418 -2.47205 -3.59174 -2.54173 -3.54567 -2.63858 -3.47481 -2.6941 -3.35079 -2.77914 -3.23268 -2.82638 -3.0626 -2.86418 -2.89961 -2.89843 -2.6811 -2.89488 -2.47205 -2.91496 -2.24055 -2.89843 -1.95236 -2.87717 -1.67362 -2.81457 -1.37126 -2.74843 -1.07835 -2.64213 -0.761812 -2.59607 -0.457087 -2.54292 -0.191339 -2.48504 0.16063 -2.48622 0.441733 -2.51221 0.773623 0 0zm-29.2004 70.0524l-16.5354 -1.8874 0 0 0.303544 -2.62914 0.315355 -2.72008 0.329528 -2.76969 0.381496 -2.81457 0.373229 -2.88189 0.399213 -2.91142 0.462992 -2.96575 0.464174 -2.97992 0.53504 -2.98583 0.54567 -3.0189 0.624804 -3.01181 0.673229 -3.02953 0.728741 -3.00709 0.818505 -3.01181 0.878741 -2.97402 0.944883 -2.93032 1.04764 -2.94567 1.12087 -2.85473 1.19528 -2.85355 1.31221 -2.78032 1.45866 -2.70118 1.51654 -2.67992 1.67362 -2.55236 1.83425 -2.51457 1.93465 -2.37402 2.10473 -2.29016 2.2441 -2.13425 2.38819 -2.00433 2.56772 -1.86496 2.72126 -1.68662 2.87717 -1.50236 3.03544 -1.27795 5.92441 15.4937 -1.86378 0.822048 -1.76929 0.916536 -1.67953 1.03701 -1.59213 1.14921 -1.54252 1.28858 -1.46221 1.41614 -1.38898 1.51063 -1.34882 1.65591 -1.24843 1.73504 -1.21772 1.9004 -1.19055 1.96417 -1.0689 2.11536 -1.05 2.19449 -1.00158 2.26772 -0.924804 2.39882 -0.851575 2.42362 -0.814961 2.54055 -0.748819 2.58425 -0.688583 2.61969 -0.662599 2.68347 -0.609449 2.70355 -0.558662 2.74961 -0.54567 2.75906 -0.47126 2.79213 -0.464174 2.78386 -0.396851 2.76969 -0.399213 2.7815 -0.373229 2.75197 -0.317717 2.74843 -0.329528 2.70591 -0.315355 2.65394 -0.303544 2.62914 0 0zm23.0055 126.278l-15.4937 5.92441 0 0 -1.5 -3.87048 -1.44803 -3.87874 -1.46102 -3.88937 -1.40433 -3.93189 -1.41024 -3.9437 -1.38071 -3.95433 -1.31575 -3.96733 -1.31339 -3.98032 -1.27441 -4.02638 -1.23307 -4.0063 -1.18937 -4.05473 -1.10906 -4.06772 -1.09134 -4.08426 -1.03937 -4.13268 -0.983859 -4.11733 -0.922442 -4.16575 -0.862205 -4.18465 -0.765355 -4.20237 -0.72756 -4.25315 -0.659056 -4.24016 -0.584646 -4.29331 -0.475985 -4.31221 -0.42874 -4.33347 -0.314173 -4.35591 -0.227953 -4.37717 -0.140551 -4.43268 -0.0484252 -4.42205 0.046063 -4.44803 0.142913 -4.50237 0.243307 -4.52835 0.379134 -4.55315 0.452363 -4.57914 16.5354 1.8874 -0.452363 4.18937 -0.312992 4.16339 -0.243307 4.13622 -0.142913 4.1126 -0.046063 4.12205 0.0484252 4.09607 0.140551 4.04292 0.227953 4.05118 0.314173 4.02992 0.362599 4.00748 0.475985 3.98859 0.520867 3.96733 0.592914 3.98032 0.66378 3.92717 0.765355 3.94252 0.796064 3.92244 0.858662 3.90591 0.917717 3.92126 0.973229 3.87284 1.02756 3.88819 1.10906 3.87402 1.12323 3.85866 1.16929 3.87638 1.20827 3.83032 1.24961 3.8504 1.31575 3.8374 1.31457 3.82441 1.34646 3.81378 1.40433 3.80197 1.39488 3.82323 1.44803 3.81496 1.43386 3.80433 0 0zm73.3548 -36.2504l16.6016 0 -0.222047 4.0878 -0.683859 4.16693 -1.06299 4.1504 -1.41969 4.16693 -1.72559 4.15748 -2.01378 4.17992 -2.27835 4.17166 -2.55827 4.10197 -2.78622 4.06772 -2.95984 3.96851 -3.21378 3.87402 -3.38032 3.71457 -3.53032 3.59055 -3.69095 3.40512 -3.86575 3.15709 -3.98622 2.94095 -4.12205 2.66457 -4.23662 2.35748 -4.33111 1.98662 -4.47284 1.62047 -4.56024 1.18937 -4.69489 0.662599 -4.67835 0.0744095 -4.77284 -0.543308 -4.71733 -1.25906 -4.54607 -1.97008 -4.35118 -2.74488 -4.00985 -3.41929 -3.68032 -4.09134 -3.29882 -4.76221 -2.9941 -5.39646 -2.60551 -6.09567 15.4937 -5.92441 2.08583 4.72796 2.14843 3.96496 2.25709 3.19843 2.24646 2.52992 2.25236 1.92166 2.20394 1.37717 2.26654 0.994489 2.30788 0.607087 2.42953 0.283465 2.66103 -0.0744095 2.74134 -0.402756 2.93268 -0.733465 3.04134 -1.09843 3.15945 -1.46693 3.19488 -1.77165 3.21024 -2.07874 3.20433 -2.35512 3.15 -2.63504 3.10512 -2.81929 3.00827 -3.00473 2.86063 -3.19488 2.69173 -3.28819 2.57008 -3.38268 2.33032 -3.41575 2.10236 -3.45 1.88858 -3.39213 1.62165 -3.33189 1.33583 -3.24567 1.02992 -3.06142 0.737008 -2.84882 0.424016 -2.53937 0.155906 -2.26418zm8.30079 -20.7851l33.2032 16.6016 0 24.9685 -33.2032 -16.6347 -33.1701 16.6347 -0.0330709 -24.9685 33.2032 -16.6016z"/>
   </g>
   <g>
    <path class="fil1" d="M599.308 362.264l-5.92441 15.4937 0 0 -3.34134 -1.11614 -3.26929 -0.840946 -3.19252 -0.57756 -3.10866 -0.291733 -3.11929 -0.0496063 -2.99173 0.21378 -2.9563 0.437008 -2.91614 0.676772 -2.87126 0.87756 -2.78622 1.09843 -2.7626 1.34173 -2.69882 1.50945 -2.6315 1.72914 -2.58898 1.94173 -2.47795 2.10827 -2.42481 2.29606 -2.30197 2.47559 -2.20512 2.61142 -2.10354 2.8004 -1.99488 2.9126 -1.88386 3.04961 -1.7315 3.2067 -1.60748 3.28583 -1.44331 3.39095 -1.30984 3.48307 -1.13622 3.5315 -0.987402 3.63544 -0.80315 3.6626 -0.646064 3.71221 -0.483071 3.75 -0.279921 3.74646 -0.0720473 3.79488 -16.6677 0 0.138189 -4.57678 0.346063 -4.59213 0.546851 -4.53189 0.775985 -4.49174 0.999213 -4.44449 1.18347 -4.35118 1.39606 -4.31339 1.56969 -4.19882 1.76929 -4.1067 1.93347 -4.00394 2.12126 -3.8563 2.27362 -3.76536 2.45079 -3.63071 2.62559 -3.45 2.79095 -3.32717 2.95394 -3.12756 3.07441 -2.94803 3.25985 -2.75788 3.37087 -2.52756 3.54095 -2.31496 3.67677 -2.09528 3.80433 -1.79764 3.95788 -1.55433 4.04292 -1.26732 4.15394 -0.938977 4.25788 -0.630709 4.35945 -0.279921 4.35473 0.0496063 4.47638 0.421654 4.4941 0.773623 4.50709 1.16693 4.513 1.57205 0 0zm55.4977 178.084l-16.5354 -1.8874 0 0 0.604725 -5.5063 0.499607 -5.66811 0.453544 -5.81103 0.368504 -5.93504 0.275197 -6.04371 0.175984 -6.09804 0.0696851 -6.20079 -0.0437008 -6.25276 -0.162992 -6.25276 -0.28937 -6.26693 -0.422835 -6.26457 -0.531496 -6.20906 -0.709843 -6.17008 -0.832678 -6.07678 -0.960237 -6 -1.15866 -5.90434 -1.30158 -5.75788 -1.48228 -5.59252 -1.63819 -5.44134 -1.83307 -5.20867 -1.96772 -5.05276 -2.17677 -4.78111 -2.35984 -4.5567 -2.51575 -4.28268 -2.71299 -3.9874 -2.88307 -3.70748 -3.05906 -3.41103 -3.24331 -3.09331 -3.43583 -2.76024 -3.66378 -2.47087 -3.86811 -2.13189 -4.08071 -1.80709 5.92441 -15.4937 5.51221 2.39292 5.17205 2.84764 4.83544 3.25276 4.54134 3.66969 4.22126 4.00512 3.90473 4.32284 3.59882 4.61929 3.29882 4.89922 3.0378 5.12835 2.74961 5.33859 2.50276 5.563 2.2937 5.70237 2.02677 5.92441 1.83425 6.02717 1.61221 6.17835 1.4315 6.27993 1.2248 6.36024 1.09016 6.45591 0.896457 6.53268 0.709843 6.55985 0.597638 6.59882 0.422835 6.59056 0.28937 6.59292 0.162992 6.57875 0.0437008 6.5126 -0.0696851 6.46064 -0.175984 6.42402 -0.275197 6.30355 -0.368504 6.19725 -0.453544 6.07087 -0.565748 5.92796 -0.604725 5.76615 0 0zm-129.076 4.79764l15.7559 -5.20867 2.08583 5.63622 2.36811 5.40237 2.62914 5.12481 2.86299 4.86378 3.07559 4.55788 3.26575 4.23898 3.46418 3.9378 3.5752 3.59174 3.69449 3.26221 3.79016 2.8878 3.8315 2.50158 3.88111 2.16378 3.87638 1.7504 3.84685 1.38543 3.79488 0.976772 3.71929 0.585827 3.62008 0.212599 3.5315 -0.204331 3.41811 -0.571654 3.31654 -0.950788 3.22087 -1.37717 3.10394 -1.81772 3.03071 -2.27126 2.93032 -2.77087 2.84055 -3.34961 2.69646 -3.90827 2.49567 -4.54843 2.33622 -5.16615 2.05748 -5.86536 1.78701 -6.54331 1.4941 -7.23662 1.14331 -7.97481 16.5354 1.8874 -1.27323 8.88662 -1.6878 8.27835 -2.11299 7.65119 -2.51339 7.03701 -2.85827 6.46772 -3.2752 5.85 -3.60827 5.27599 -3.94843 4.65118 -4.29803 4.07244 -4.59213 3.44292 -4.86142 2.79567 -5.04449 2.15906 -5.20394 1.53662 -5.30552 0.895276 -5.35512 0.270473 -5.37756 -0.27874 -5.34685 -0.84567 -5.29252 -1.36654 -5.21457 -1.84134 -5.11182 -2.33622 -4.98898 -2.74961 -4.87323 -3.21733 -4.70197 -3.60591 -4.54016 -3.97796 -4.35709 -4.37126 -4.11378 -4.71969 -3.91772 -5.08465 -3.66142 -5.40591 -3.38504 -5.70945 -3.08268 -6.03662 -2.76024 -6.31418 -2.41181 -6.61182zm1.30866 -22.3146l36.7335 5.24764 7.89213 23.6776 -36.7441 -5.27953 -26.1969 26.2595 -7.92402 -23.6669 26.2394 -26.2382z"/>
   </g>
   <g>
    <path class="fil1" d="M627.334 218.254l-11.7827 11.7827 0 0 -4.73622 -4.3004 -4.72087 -3.48307 -4.75158 -2.69882 -4.73386 -2.00906 -4.72914 -1.3878 -4.73977 -0.767717 -4.8626 -0.210236 -4.87205 0.377953 -4.92402 0.869292 -4.99489 1.39134 -5.0126 1.94528 -5.04685 2.40355 -5.06339 2.89134 -4.99607 3.34843 -4.94292 3.77126 -4.84016 4.12796 -4.72087 4.5189 -4.61221 4.8437 -4.42441 5.13426 -4.25079 5.3941 -4.05591 5.65158 -3.81614 5.81221 -3.55512 5.94095 -3.30827 6.09922 -3.01181 6.16182 -2.73071 6.22205 -2.36575 6.21851 -2.0811 6.18189 -1.68189 6.11221 -1.32756 6.00827 -0.956694 5.87363 -0.536221 5.67166 -16.6016 -0.975591 0.666142 -6.77953 1.08662 -6.84922 1.52362 -6.92008 1.94173 -6.95788 2.27717 -6.96379 2.69173 -6.93426 2.99055 -6.87402 3.3378 -6.81378 3.63425 -6.68504 3.94488 -6.59056 4.20591 -6.39804 4.44803 -6.17363 4.7067 -5.97993 4.9441 -5.72008 5.13426 -5.42953 5.37048 -5.10473 5.55591 -4.77993 5.72481 -4.35709 5.90788 -3.93426 6.03898 -3.47717 6.21851 -2.98937 6.38032 -2.40118 6.49252 -1.84725 6.61772 -1.19291 6.69331 -0.444095 6.68623 0.276378 6.75709 1.09134 6.68268 1.90984 6.55749 2.79095 6.37914 3.67441 6.21851 4.52481 5.97166 5.40827 0 0zm84.9839 129.975l-15.4937 5.92441 0 0 -2.75551 -7.11142 -2.59488 -6.65315 -2.45079 -6.2504 -2.2878 -5.7756 -2.2063 -5.42481 -2.07166 -5.03622 -1.98898 -4.6689 -1.88504 -4.36418 -1.86142 -4.08189 -1.79055 -3.7937 -1.76457 -3.56339 -1.72205 -3.32599 -1.72677 -3.11339 -1.74685 -2.95984 -1.74921 -2.86536 -1.79882 -2.72953 -1.86378 -2.6504 -1.94291 -2.60079 -2.03858 -2.60669 -2.14606 -2.63858 -2.30551 -2.66339 -2.4437 -2.71418 -2.59843 -2.85355 -2.80158 -2.92441 -3.01772 -3.11457 -3.18425 -3.23504 -3.46418 -3.44646 -3.6626 -3.68032 -3.93898 -3.91063 -4.19764 -4.16457 -4.47166 -4.44449 -4.7941 -4.7504 11.7827 -11.7827 4.73032 4.7504 4.47166 4.44449 4.19764 4.16457 3.93898 3.91063 3.72638 3.68032 3.46418 3.51024 3.31654 3.36496 3.0815 3.18071 2.9315 3.11811 2.79449 2.98583 2.63977 2.97402 2.49921 2.92323 2.40827 2.89843 2.29843 2.93268 2.20276 2.99055 2.12362 3.04252 2.06103 3.11929 2.00906 3.19134 1.94055 3.34961 1.92284 3.50551 1.91811 3.65197 1.89449 3.82323 1.92047 4.05355 1.92756 4.27796 2.01496 4.55788 2.05276 4.86496 2.1378 5.16615 2.2063 5.49095 2.35158 5.90552 2.45079 6.2504 2.59488 6.71693 2.75551 7.17756 0 0zm25.0961 281.973l-15.4937 -5.92441 0 0 2.51457 -7.13504 2.25 -7.41851 1.93228 -7.65001 1.65827 -7.89568 1.36181 -8.12481 1.10787 -8.30316 0.831497 -8.49686 0.597638 -8.63741 0.343701 -8.79568 0.0992127 -8.93623 -0.133465 -9.02363 -0.357874 -9.0945 -0.570473 -9.14883 -0.740552 -9.21497 -0.96378 -9.23268 -1.11378 -9.23387 -1.31693 -9.24568 -1.44449 -9.17717 -1.59449 -9.15709 -1.76575 -9.08505 -1.86024 -9.02599 -1.98071 -8.8878 -2.08701 -8.76142 -2.18504 -8.64922 -2.27126 -8.4567 -2.34685 -8.30906 -2.41418 -8.113 -2.46732 -7.86379 -2.51221 -7.66536 -2.54646 -7.41379 -2.57126 -7.1126 -2.54882 -6.85867 15.4937 -5.92441 2.6811 7.05473 2.63504 7.37245 2.6126 7.60985 2.57599 7.85906 2.53347 8.12599 2.47795 8.3067 2.41299 8.50512 2.33504 8.71654 2.25118 8.84528 2.15315 9.02127 2.04449 9.14764 1.92638 9.22205 1.76575 9.34489 1.65827 9.41694 1.51063 9.50316 1.31693 9.50788 1.17756 9.55749 0.96378 9.55867 0.806694 9.54095 0.570473 9.53859 0.357874 9.48662 0.133465 9.41339 -0.0992127 9.32599 -0.343701 9.25158 -0.597638 9.15946 -0.897639 9.01654 -1.17165 8.88898 -1.49173 8.71064 -1.78819 8.54764 -2.12835 8.36575 -2.44606 8.13426 -2.84055 7.91694 0 0zm-97.1505 80.6587l0 -16.6677 0 0.0330709 4.98544 -0.0826772 4.7067 -0.246851 4.47284 -0.376772 4.17874 -0.538583 3.96142 -0.66378 3.75118 -0.788977 3.48425 -0.943702 3.32362 -1.06536 3.10748 -1.18465 2.9315 -1.30158 2.76496 -1.45039 2.60788 -1.53189 2.48977 -1.67599 2.34803 -1.78701 2.25 -1.92756 2.15906 -2.03386 2.0752 -2.20394 2.03504 -2.34095 1.93701 -2.47323 1.84843 -2.60669 1.83189 -2.76851 1.7941 -2.93032 1.73032 -3.0567 1.70906 -3.21614 1.66299 -3.36969 1.65827 -3.52441 1.62992 -3.64488 1.64291 -3.76063 1.63228 -3.91181 1.62874 -4.05827 1.63583 -4.20118 1.68189 -4.2815 15.4937 5.92441 -1.68189 4.41142 -1.69961 4.26733 -1.69488 4.18819 -1.69606 4.10552 -1.70906 4.02284 -1.75984 3.90473 -1.78819 3.78425 -1.85906 3.69567 -1.90276 3.60591 -1.99252 3.5126 -2.05394 3.38622 -2.15788 3.29055 -2.30433 3.19252 -2.39292 3.05906 -2.48858 2.92677 -2.66339 2.78977 -2.80866 2.68583 -2.96575 2.51339 -3.12992 2.37284 -3.27166 2.19567 -3.45355 2.05394 -3.61063 1.84016 -3.77953 1.69134 -3.95315 1.51063 -4.10552 1.3252 -4.32992 1.13976 -4.46693 0.98504 -4.67717 0.793701 -4.89449 0.602363 -5.05867 0.442914 -5.29489 0.246851 -5.50512 0.0826772 0 0.0330709zm-100.382 -54.8953l0 -16.6677 3.12874 0.38504 2.60788 0.850394 2.37638 1.09843 2.20748 1.29449 2.22756 1.47165 2.24528 1.65945 2.32205 1.76221 2.39528 1.9441 2.49803 2.07166 2.59725 2.1815 2.69055 2.26772 2.81221 2.33622 2.89843 2.41772 2.97992 2.47559 3.08977 2.48504 3.16299 2.50512 3.26575 2.50512 3.33071 2.45197 3.42284 2.41063 3.48071 2.31969 3.53386 2.23937 3.58229 2.1378 3.62717 2.01732 3.69803 1.87677 3.70394 1.71614 3.73465 1.50236 3.76536 1.33347 3.78662 1.11378 3.77481 0.903544 3.82441 0.64252 3.7689 0.394488 3.84213 0.124016 0 16.6677 -4.95 -0.190158 -4.94056 -0.52441 -4.8 -0.838583 -4.7504 -1.09961 -4.63465 -1.37362 -4.54489 -1.59331 -4.45276 -1.82835 -4.35355 -1.97599 -4.22008 -2.13662 -4.14685 -2.27953 -4.03819 -2.39764 -3.92363 -2.49921 -3.8067 -2.57953 -3.68504 -2.60669 -3.59055 -2.64803 -3.45945 -2.63504 -3.35906 -2.63504 -3.21969 -2.61496 -3.10984 -2.54173 -2.96457 -2.4815 -2.81221 -2.40236 -2.69055 -2.26772 -2.5311 -2.11536 -2.36811 -1.94173 -2.20158 -1.74803 -1.99606 -1.56851 -1.78937 -1.26732 -1.51181 -1.01575 -1.22953 -0.708662 -0.748819 -0.382677 -0.200788 -0.068504 0.648426 0.0708662zm-20.8677 -8.33386l16.6677 -33.3355 25.0677 0 -16.7008 33.3355 16.7008 33.3024 -25.0677 0.0330709 -16.6677 -33.3355z"/>
   </g>
   <g>
    <path class="fil1" d="M273.818 228.429l-7.42205 -14.8441 0 0 8.22757 -3.69213 8.13898 -2.83229 8.04804 -1.9748 7.92284 -1.1185 7.72796 -0.33189 7.62757 0.422835 7.39489 1.17165 7.22481 1.85551 6.95434 2.47205 6.71103 3.08504 6.50197 3.63189 6.21969 4.10906 5.97166 4.55315 5.71772 4.963 5.49449 5.30433 5.2689 5.67402 5.03977 5.94686 4.77402 6.18426 4.57205 6.41812 4.33583 6.6189 4.0937 6.74882 3.88465 6.87993 3.66851 6.97441 3.41929 7.00158 3.20079 7.05945 2.97874 7.01693 2.72008 6.97205 2.49095 6.89292 2.26063 6.81024 2.02559 6.62835 1.78937 6.47835 1.55079 6.25749 -16.2118 3.71103 -1.41851 -5.80158 -1.65945 -6.02245 -1.89567 -6.23859 -2.13071 -6.35434 -2.36103 -6.50315 -2.59016 -6.57993 -2.78268 -6.62717 -3.00473 -6.60355 -3.22559 -6.61182 -3.40866 -6.51851 -3.62244 -6.42402 -3.83386 -6.29292 -4.00985 -6.09686 -4.18229 -5.89843 -4.38426 -5.66221 -4.51772 -5.36103 -4.68307 -5.02441 -4.84252 -4.71851 -5.00197 -4.31103 -5.12599 -3.90118 -5.2441 -3.45945 -5.32796 -2.97992 -5.47559 -2.49921 -5.58662 -2.01614 -5.66339 -1.46575 -5.83111 -0.911812 -5.93623 -0.356693 -6.16418 0.265748 -6.29528 0.924804 -6.48662 1.58268 -6.70512 2.3126 -6.92599 3.1063 0 0zm-68.765 386.607l-14.1921 8.72363 0 0 -6.03071 -10.5886 -5.60197 -11.237 -5.09882 -11.8335 -4.62048 -12.4087 -4.16339 -12.8658 -3.66733 -13.3677 -3.15945 -13.7516 -2.67756 -14.1118 -2.15197 -14.3906 -1.65 -14.6469 -1.13976 -14.8795 -0.588189 -14.9988 -0.0578741 -15.0614 0.479528 -15.1382 1.02638 -15.1583 1.64882 -15.0969 2.1815 -14.9799 2.78858 -14.8087 3.37205 -14.6197 4.03111 -14.3421 4.6004 -14.0457 5.27599 -13.663 5.92914 -13.2272 6.59174 -12.7689 7.2626 -12.2599 7.9441 -11.6634 8.66457 -11.0138 9.39568 -10.3134 10.1043 -9.55631 10.8862 -8.71536 11.6114 -7.82127 12.3484 -6.84095 7.42205 14.8441 -11.1106 6.18898 -10.4398 7.03938 -9.78072 7.86969 -9.19253 8.64449 -8.55001 9.40158 -7.94883 10.1043 -7.35591 10.7516 -6.74292 11.348 -6.13583 11.9232 -5.53937 12.4453 -4.95 12.8811 -4.40433 13.2638 -3.77126 13.6264 -3.24213 13.9039 -2.65866 14.1591 -2.11536 14.328 -1.5189 14.4449 -1.02638 14.5087 -0.479528 14.5524 0.0578741 14.5394 0.588189 14.413 1.07362 14.2299 1.58622 14.061 2.08583 13.8024 2.54764 13.4622 3.02953 13.0996 3.47126 12.652 3.90355 12.2138 4.36063 11.6291 4.77284 11.0516 5.14607 10.3913 5.57481 9.67678 0 0zm106.906 115.33l-2.14725 16.4717 0 0 -5.04567 -0.89882 -4.99843 -1.32874 -4.91457 -1.76929 -4.79646 -2.12362 -4.7067 -2.45906 -4.61339 -2.80394 -4.54607 -3.06614 -4.44567 -3.33898 -4.37244 -3.59174 -4.29567 -3.79134 -4.21654 -3.96733 -4.16457 -4.1941 -4.04292 -4.32992 -3.98622 -4.44685 -3.92126 -4.57559 -3.82205 -4.68426 -3.75118 -4.77402 -3.64607 -4.80591 -3.6 -4.85552 -3.48425 -4.88032 -3.36851 -4.85433 -3.31063 -4.87087 -3.18307 -4.80473 -3.08859 -4.71496 -2.98819 -4.67126 -2.88189 -4.54252 -2.77441 -4.42323 -2.63032 -4.2874 -2.54646 -4.12677 -2.3941 -3.91536 -2.27126 -3.71693 -2.1437 -3.46418 14.1921 -8.72363 2.1437 3.52796 2.27126 3.71693 2.3941 3.91536 2.48268 4.063 2.63032 4.22126 2.70827 4.35945 2.81811 4.47638 2.92205 4.54134 3.02244 4.65118 3.11929 4.67244 3.18071 4.67717 3.30236 4.72441 3.35433 4.68426 3.40394 4.65945 3.51614 4.61221 3.55748 4.51181 3.62599 4.42441 3.66142 4.31575 3.72402 4.18701 3.78307 4.00394 3.77481 3.80197 3.82441 3.6437 3.83977 3.39922 3.85276 3.13583 3.85985 2.88307 3.83032 2.61024 3.8315 2.28425 3.79488 2.00315 3.75473 1.66772 3.67914 1.31339 3.63071 1.00276 3.61181 0.638977 0 0zm114.502 -74.8938l16.6677 0 -0.243307 5.98701 -0.719292 5.83465 -1.14331 5.67993 -1.55197 5.48859 -1.9748 5.29607 -2.34685 5.13426 -2.70355 4.90394 -3.00945 4.67126 -3.33071 4.50237 -3.6 4.26615 -3.85512 4.0252 -4.12323 3.84922 -4.30985 3.63662 -4.51063 3.39095 -4.69607 3.20788 -4.8626 2.98701 -5.01024 2.8004 -5.1437 2.57599 -5.2252 2.35158 -5.35512 2.15433 -5.40119 1.92402 -5.46496 1.72323 -5.54056 1.52126 -5.53701 1.28268 -5.58071 1.0748 -5.57245 0.833859 -5.54764 0.620079 -5.5063 0.407481 -5.47914 0.155906 -5.3693 -0.0625985 -5.34095 -0.284646 -5.26182 -0.574016 2.14725 -16.4717 4.41615 0.444095 4.55906 0.284646 4.71969 0.0625985 4.76339 -0.155906 4.85433 -0.341339 4.89804 -0.5563 4.92048 -0.767717 4.92874 -0.944883 4.95119 -1.15276 4.89095 -1.3252 4.87914 -1.52953 4.81536 -1.72795 4.70315 -1.89449 4.63937 -2.08937 4.49174 -2.25236 4.36063 -2.40827 4.21063 -2.59725 4.0441 -2.75197 3.86103 -2.93504 3.65788 -3.05079 3.40748 -3.19725 3.20315 -3.37559 2.9504 -3.48425 2.67874 -3.59055 2.42362 -3.75945 2.11772 -3.86221 1.82717 -3.9626 1.5189 -4.12441 1.22599 -4.25315 0.883465 -4.37599 0.523229 -4.53307 0.177165 -4.68544zm8.33386 -20.8677l33.3355 16.6677 0 25.0677 -33.3355 -16.7008 -33.3024 16.7008 -0.0330709 -25.0677 33.3355 -16.6677z"/>
   </g>
  </g>
 </g>
</svg>
