<?xml version="1.0" encoding="UTF-8"?>
<!DOCTYPE svg PUBLIC "-//W3C//DTD SVG 1.1//EN" "http://www.w3.org/Graphics/SVG/1.1/DTD/svg11.dtd">
<!-- Creator: CorelDRAW -->
<svg xmlns="http://www.w3.org/2000/svg" xml:space="preserve" width="1000px" height="1000px" style="shape-rendering:geometricPrecision; text-rendering:geometricPrecision; image-rendering:optimizeQuality; fill-rule:evenodd; clip-rule:evenodd"
viewBox="0 0 1000 1000"
 xmlns:xlink="http://www.w3.org/1999/xlink">
 <defs>
  <style type="text/css">
   <![CDATA[
    .str2 {stroke:#1F1A17;stroke-width:16.6665}
    .str1 {stroke:white;stroke-width:33.3331}
    .str0 {stroke:#1F1A17;stroke-width:16.6665;stroke-dasharray:33.333 16.667}
    .fil1 {fill:none}
    .fil0 {fill:#E47E71}
    .fil2 {fill:#1F1A17;fill-rule:nonzero}
   ]]>
  </style>
 </defs>
 <g id="Warstwa_x0020_1">
  <metadata id="CorelCorpID_0Corel-Layer"/>
  <circle class="fil0" cx="499.745" cy="501.557" r="485.835"/>
  <g id="_229492344">
   <path id="_229159104" class="fil1 str0" d="M425.533 234.064c-54.8563,-91.6288 -146.656,-109.686 -244.988,0 -114.284,127.481 -82.0111,373.995 -10.8532,516.336 36.1618,72.3355 88.1032,120.943 175.212,120.943 23.9918,0 56.7189,-31.5662 75.978,-43.415 11.5311,-7.09725 21.3036,-19.4339 32.5618,-26.3599 5.50276,-3.38386 34.8874,-47.0622 34.8874,-40.3146"/>
   <path id="_229489104" class="fil1 str0" d="M535.622 187.547c70.3749,-64.9607 217.695,-40.5851 279.101,27.9107 130.017,145.031 93.2457,297.75 68.2241,460.515 -26.1862,170.345 -184.929,132.082 -297.707,103.887"/>
   <path id="_229490328" class="fil1 str1" d="M180.545 485.254c157.528,21.8953 197.342,30.5008 320.966,31.787l223.279 2.32559 119.393 -7.75276"/>
   <path id="_229489704" class="fil1 str2" d="M182.095 503.086c218.628,52.2024 450.436,33.854 664.413,28.6843"/>
   <path id="_229167600" class="fil1 str2" d="M178.995 463.546c98.7556,7.59568 221.155,33.8634 325.616,35.6634l179.864 3.1004c50.3552,0.86693 111.299,-8.52757 162.808,-8.52757"/>
   <g>
    <path id="_229490136" class="fil2" d="M352.518 415.473l-5.92441 -15.4937 0 0 4.42678 -1.41378 4.46339 -0.823229 4.46339 -0.225591 4.39134 0.255118 4.31339 0.773623 4.23071 1.20709 4.07599 1.58504 3.94843 1.93819 3.81378 2.23583 3.70748 2.51221 3.5941 2.73189 3.50788 2.96221 3.38386 3.1689 3.28583 3.3189 3.18071 3.48071 3.07087 3.58583 2.98937 3.7004 2.86536 3.75945 2.77205 3.82914 2.63858 3.87284 2.5311 3.89764 2.41772 3.89646 2.30079 3.84095 2.14252 3.79488 2.04567 3.75827 1.87677 3.63544 1.73386 3.5504 1.58622 3.38268 1.46457 3.25158 1.27323 3.10158 1.13858 2.92677 0.935434 2.72953 -15.7559 5.20867 -0.805512 -2.20984 -0.94252 -2.47087 -1.14331 -2.70945 -1.2685 -2.92796 -1.4563 -3.12047 -1.60394 -3.22677 -1.74685 -3.37323 -1.84961 -3.43229 -2.0126 -3.53504 -2.10473 -3.58111 -2.22402 -3.57048 -2.33504 -3.57166 -2.44252 -3.54922 -2.51221 -3.50315 -2.60551 -3.43347 -2.66339 -3.31063 -2.74488 -3.1937 -2.79095 -3.02481 -2.82992 -2.86299 -2.86181 -2.64921 -2.85827 -2.44016 -2.87835 -2.21221 -2.85945 -1.92638 -2.83819 -1.65 -2.77677 -1.35236 -2.70827 -1.06299 -2.60315 -0.751182 -2.55591 -0.45 -2.50394 -0.188977 -2.4437 0.159449 -2.44606 0.433465 -2.47323 0.761812 0 0zm-28.8059 69.1749l-16.5354 -1.8874 0 0 0.3 -2.59961 0.311811 -2.68937 0.325985 -2.7378 0.376772 -2.78268 0.368504 -2.85 0.394488 -2.87835 0.458268 -2.93386 0.459449 -2.94685 0.529134 -2.95276 0.539764 -2.98583 0.617717 -2.97992 0.666142 -2.99646 0.720473 -2.97402 0.809056 -2.97992 0.870473 -2.94213 0.935434 -2.89961 1.03583 -2.91496 1.10906 -2.82402 1.18347 -2.8252 1.29803 -2.75197 1.44567 -2.67402 1.5 -2.65158 1.65709 -2.52756 1.81772 -2.48977 1.91575 -2.35276 2.08347 -2.26772 2.22402 -2.11417 2.36457 -1.98425 2.54528 -1.84843 2.69528 -1.67126 2.85 -1.48819 3.00827 -1.26614 5.92441 15.4937 -1.83662 0.810237 -1.74213 0.902363 -1.65354 1.02165 -1.56969 1.13268 -1.5189 1.2685 -1.44213 1.39606 -1.36772 1.48819 -1.32992 1.63465 -1.23189 1.71024 -1.20118 1.87559 -1.17402 1.93583 -1.05591 2.08819 -1.03583 2.16614 -0.989765 2.23937 -0.912993 2.36811 -0.839764 2.39292 -0.805512 2.50984 -0.740552 2.55236 -0.679134 2.5878 -0.654331 2.6504 -0.602363 2.67047 -0.551575 2.71772 -0.539764 2.72599 -0.465355 2.75906 -0.459449 2.75079 -0.392126 2.7378 -0.394488 2.74843 -0.368504 2.72008 -0.312992 2.71654 -0.325985 2.67402 -0.311811 2.62323 -0.3 2.59961 0 0zm22.7362 124.789l-15.4937 5.92441 0 0 -1.48347 -3.82677 -1.4315 -3.83386 -1.44449 -3.84567 -1.38898 -3.88819 -1.3937 -3.89882 -1.36654 -3.91063 -1.30039 -3.92244 -1.29803 -3.93544 -1.26142 -3.9815 -1.2189 -3.96142 -1.17638 -4.00866 -1.09606 -4.02284 -1.07953 -4.03937 -1.02756 -4.08662 -0.972048 -4.07126 -0.912993 -4.11969 -0.853938 -4.13859 -0.786615 -4.15512 -0.688583 -4.20709 -0.651969 -4.19292 -0.578741 -4.24607 -0.470079 -4.26496 -0.424016 -4.28622 -0.31063 -4.30748 -0.225591 -4.32874 -0.138189 -4.38426 -0.0472441 -4.37481 0.0448819 -4.39725 0.141732 -4.45394 0.239764 -4.47874 0.375591 -4.50355 0.447638 -4.52835 16.5354 1.8874 -0.447638 4.13859 -0.309449 4.11378 -0.239764 4.08662 -0.141732 4.06418 -0.0448819 4.07126 0.0472441 4.04882 0.138189 3.99449 0.225591 4.00276 0.31063 3.9815 0.357874 3.96024 0.470079 3.94134 0.514961 3.92008 0.585827 3.93307 0.688583 3.88111 0.722835 3.89528 0.787796 3.87638 0.849213 3.85985 0.905906 3.8752 0.961418 3.82677 1.01575 3.84331 1.09606 3.82914 1.11024 3.8126 1.15512 3.8315 1.19528 3.78544 1.23425 3.80551 1.30039 3.79252 1.30039 3.78071 1.32992 3.7689 1.38898 3.75827 1.37835 3.77953 1.4315 3.77008 1.41732 3.76063 0 0zm72.3012 -35.8016l16.6677 0 -0.252756 4.05237 -0.677953 4.12796 -1.05236 4.11024 -1.40551 4.12559 -1.70906 4.11496 -1.99252 4.1374 -2.25473 4.12796 -2.53229 4.05945 -2.75551 4.02402 -2.92914 3.92717 -3.17953 3.83268 -3.34607 3.67441 -3.49252 3.55394 -3.65197 3.36969 -3.82559 3.12284 -3.94607 2.91142 -4.07953 2.6374 -4.1941 2.33386 -4.28859 1.96772 -4.42914 1.60394 -4.51772 1.17874 -4.61929 0.656693 -4.67008 0.0744095 -4.7315 -0.539764 -4.67717 -1.24843 -4.50709 -1.95236 -4.31339 -2.72126 -3.97441 -3.38977 -3.64725 -4.05355 -3.26693 -4.71733 -2.96457 -5.34331 -2.57835 -6.03308 15.4937 -5.92441 2.05866 4.66536 2.1189 3.91181 2.2252 3.15355 2.21339 2.49213 2.21693 1.89213 2.16614 1.35354 2.22756 0.976772 2.26772 0.596457 2.38819 0.279921 2.58662 -0.0744095 2.73189 -0.396851 2.89016 -0.722835 2.99764 -1.08189 3.11693 -1.44803 3.15236 -1.74803 3.16772 -2.05158 3.16418 -2.32559 3.10984 -2.60079 3.06614 -2.78386 2.97047 -2.96811 2.82638 -3.15473 2.65748 -3.24685 2.53937 -3.34134 2.29961 -3.37205 2.07638 -3.40748 1.86496 -3.34843 1.60039 -3.28937 1.31929 -3.20315 1.01575 -3.02008 0.726379 -2.80866 0.418111 -2.5004 0.120473 -2.22874zm8.33386 -20.8677l33.3355 16.6677 0 25.0677 -33.3355 -16.7008 -33.3024 16.7008 -0.0330709 -25.0677 33.3355 -16.6677z"/>
   </g>
   <g>
    <path class="fil2" d="M631.619 395.328l-5.92441 15.4937 0 0 -3.29646 -1.10079 -3.22559 -0.829135 -3.14764 -0.570473 -3.06614 -0.288189 -3.07677 -0.0484252 -2.94921 0.211417 -2.91614 0.429922 -2.87599 0.668504 -2.8311 0.865749 -2.74843 1.08307 -2.72481 1.32402 -2.66221 1.48701 -2.59607 1.70788 -2.55591 1.91457 -2.44488 2.0811 -2.3941 2.26654 -2.27126 2.4437 -2.17677 2.57717 -2.07638 2.76496 -1.97008 2.87481 -1.85906 3.01063 -1.71024 3.16654 -1.58622 3.24449 -1.42677 3.34843 -1.29213 3.43819 -1.12205 3.48662 -0.975591 3.59055 -0.79252 3.61536 -0.637796 3.66614 -0.477166 3.70276 -0.276378 3.69803 -0.0708662 3.74764 -16.6677 0 0.137008 -4.52953 0.34252 -4.5437 0.540945 -4.48465 0.767717 -4.44567 0.988583 -4.39725 1.17165 -4.3063 1.38189 -4.26851 1.55197 -4.15394 1.75276 -4.06418 1.91221 -3.9626 2.1 -3.81614 2.24882 -3.72638 2.42599 -3.59292 2.59843 -3.41457 2.7626 -3.29292 2.92323 -3.09567 3.0437 -2.91851 3.22677 -2.73071 3.3378 -2.5004 3.50551 -2.2937 3.64016 -2.07284 3.76654 -1.77992 3.92008 -1.53898 4.00276 -1.25551 4.11378 -0.930709 4.21772 -0.623623 4.31693 -0.277559 4.31221 0.0484252 4.43386 0.418111 4.44922 0.766536 4.46339 1.15512 4.46811 1.55669 0 0zm54.9225 176.15l-16.5354 -1.8874 0 0 0.597638 -5.44134 0.493701 -5.60197 0.448819 -5.74371 0.36378 -5.86654 0.272835 -5.97166 0.173622 -6.02717 0.068504 -6.12874 -0.0425197 -6.18071 -0.16063 -6.17953 -0.287008 -6.19371 -0.418111 -6.19016 -0.523229 -6.13701 -0.702756 -6.09567 -0.822048 -6.00591 -0.948426 -5.92914 -1.14567 -5.83465 -1.28622 -5.68819 -1.46457 -5.5252 -1.61811 -5.37638 -1.81063 -5.14489 -1.9441 -4.99134 -2.14961 -4.72205 -2.3315 -4.5 -2.48386 -4.22835 -2.67756 -3.93662 -2.84528 -3.66142 -3.02126 -3.36496 -3.19961 -3.05315 -3.38977 -2.72362 -3.61654 -2.4378 -3.81614 -2.10354 -4.0252 -1.78347 5.92441 -15.4937 5.4567 2.36929 5.12008 2.81929 4.78819 3.21969 4.49528 3.63307 4.17756 3.96496 3.86693 4.27678 3.56103 4.57323 3.26339 4.84843 3.00591 5.07402 2.72126 5.28189 2.47559 5.50394 2.27008 5.64095 2.00433 5.86063 1.81417 5.96221 1.59449 6.11103 1.41614 6.21024 1.21181 6.29056 1.07835 6.38504 0.885827 6.46182 0.702756 6.48544 0.589371 6.52678 0.418111 6.51615 0.287008 6.51969 0.16063 6.50552 0.0425197 6.44056 -0.068504 6.38859 -0.173622 6.35315 -0.272835 6.2315 -0.36378 6.12874 -0.448819 6.00355 -0.559843 5.86182 -0.597638 5.70119 0 0zm-127.786 4.76221l15.7559 -5.20867 2.06103 5.56654 2.33858 5.33504 2.59607 5.06103 2.82756 4.80355 3.0378 4.50118 3.22323 4.18583 3.42166 3.88701 3.52914 3.54685 3.64843 3.22087 3.74174 2.85118 3.78189 2.46851 3.83032 2.13662 3.82559 1.72559 3.79488 1.36772 3.74292 0.962599 3.66733 0.57756 3.56929 0.210236 3.47953 -0.200788 3.36969 -0.564567 3.26693 -0.936615 3.17362 -1.35709 3.05906 -1.79055 2.98583 -2.23819 2.88898 -2.73307 2.80276 -3.30355 2.65984 -3.8563 2.46378 -4.48819 2.30669 -5.1 2.03032 -5.79095 1.76457 -6.46182 1.4752 -7.14804 1.13032 -7.87914 16.5354 1.8874 -1.26024 8.79095 -1.6689 8.18977 -2.09055 7.56969 -2.48622 6.9626 -2.82874 6.40158 -3.24331 5.78977 -3.57166 5.22402 -3.91063 4.60512 -4.2567 4.03465 -4.54725 3.40985 -4.81654 2.76851 -4.99725 2.13898 -5.15433 1.52244 -5.25709 0.88819 -5.30315 0.266929 -5.32678 -0.276378 -5.29489 -0.837402 -5.24056 -1.35236 -5.1626 -1.82362 -5.06103 -2.31142 -4.93819 -2.72244 -4.82363 -3.18425 -4.65355 -3.56929 -4.4941 -3.93662 -4.31103 -4.32638 -4.07126 -4.6689 -3.8752 -5.0315 -3.62362 -5.34922 -3.34961 -5.64922 -3.04961 -5.97284 -2.73071 -6.24686 -2.38701 -6.54213zm1.30748 -22.3146l36.7335 5.24764 7.89331 23.6776 -36.7441 -5.27953 -26.1969 26.2595 -7.92402 -23.6669 26.2382 -26.2382z"/>
   </g>
   <g>
    <path class="fil2" d="M659.356 252.981l-11.7827 11.7827 0 0 -4.67599 -4.24489 -4.65709 -3.43701 -4.68898 -2.66221 -4.6689 -1.98189 -4.663 -1.3689 -4.67481 -0.755906 -4.79646 -0.206693 -4.80591 0.372048 -4.85906 0.858662 -4.92874 1.37244 -4.94764 1.92047 -4.98307 2.37284 -4.99961 2.85473 -4.93347 3.30709 -4.8815 3.72402 -4.78111 4.07717 -4.663 4.46457 -4.5567 4.78465 -4.37126 5.07284 -4.19882 5.32914 -4.00866 5.58426 -3.77008 5.74252 -3.51142 5.8689 -3.26929 6.02717 -2.9752 6.08623 -2.69882 6.14764 -2.33622 6.1441 -2.0563 6.10512 -1.66063 6.0378 -1.31221 5.93504 -0.944883 5.8004 -0.529134 5.60079 -16.6016 -0.975591 0.659056 -6.70867 1.0748 -6.77599 1.50827 -6.84686 1.92047 -6.88347 2.25236 -6.88701 2.66221 -6.85985 2.95866 -6.79961 3.30118 -6.73819 3.59528 -6.613 3.90118 -6.51851 4.15985 -6.32835 4.40079 -6.1063 4.65473 -5.91497 4.89095 -5.65867 5.07874 -5.37048 5.3126 -5.0504 5.49685 -4.72914 5.66339 -4.30985 5.84528 -3.89292 5.9752 -3.44055 6.15473 -2.95866 6.31536 -2.37638 6.42638 -1.82835 6.55276 -1.18228 6.62717 -0.438189 6.62008 0.272835 6.69213 1.07953 6.61654 1.89095 6.49252 2.76378 6.31654 3.6378 6.15473 4.47874 5.91142 5.35276 0 0zm84.0343 128.526l-15.4937 5.92441 0 0 -2.72362 -7.02993 -2.56536 -6.57638 -2.42244 -6.17953 -2.26181 -5.70945 -2.18032 -5.36221 -2.04803 -4.97717 -1.96536 -4.61575 -1.8626 -4.31221 -1.84134 -4.03465 -1.76811 -3.74882 -1.74449 -3.52087 -1.70079 -3.28583 -1.70551 -3.07559 -1.72677 -2.92441 -1.72795 -2.82992 -1.7752 -2.69646 -1.84134 -2.61851 -1.92047 -2.5689 -2.0126 -2.57481 -2.12126 -2.60788 -2.27717 -2.6315 -2.41536 -2.6811 -2.56772 -2.82047 -2.76851 -2.89016 -2.98347 -3.07914 -3.14646 -3.19725 -3.4252 -3.4063 -3.62008 -3.64016 -3.8941 -3.86575 -4.14922 -4.11733 -4.42205 -4.3937 -4.73859 -4.69607 11.7827 -11.7827 4.67481 4.69607 4.42205 4.3937 4.14922 4.11733 3.8941 3.86575 3.68386 3.64016 3.4252 3.47008 3.27874 3.32717 3.04725 3.14528 2.89843 3.08386 2.76378 2.95276 2.61142 2.94095 2.47087 2.89134 2.38347 2.86772 2.27244 2.90079 2.18032 2.95866 2.10118 3.01063 2.0374 3.08622 1.9878 3.15591 1.92047 3.31418 1.90158 3.46772 1.89685 3.61181 1.87441 3.78071 1.89803 4.00866 1.90748 4.23071 1.99252 4.50591 2.02914 4.81181 2.11417 5.10709 2.18032 5.42835 2.32559 5.83937 2.42244 6.17953 2.56536 6.64016 2.72362 7.09607 0 0zm24.8103 278.821l-15.4937 -5.92441 0 0 2.48386 -7.04882 2.22402 -7.32993 1.90866 -7.55788 1.63937 -7.80237 1.3441 -8.02914 1.09488 -8.20512 0.822048 -8.39646 0.591733 -8.53583 0.338977 -8.69292 0.0980316 -8.83111 -0.132284 -8.91851 -0.354331 -8.9882 -0.563386 -9.04253 -0.731103 -9.10749 -0.954331 -9.12639 -1.10079 -9.1252 -1.30158 -9.13938 -1.42677 -9.07087 -1.57559 -9.05079 -1.74567 -8.97993 -1.84016 -8.92205 -1.95709 -8.78387 -2.06339 -8.65985 -2.15788 -8.55001 -2.24646 -8.35867 -2.31969 -8.21339 -2.38583 -8.01851 -2.43898 -7.77284 -2.48386 -7.57678 -2.51575 -7.32756 -2.54173 -7.03111 -2.51929 -6.77835 15.4937 -5.92441 2.65158 6.97441 2.60551 7.29095 2.58189 7.52363 2.54764 7.77048 2.50512 8.03505 2.44961 8.21221 2.38583 8.40946 2.31024 8.61851 2.22402 8.74607 2.12953 8.91969 2.02087 9.04371 1.9063 9.11812 1.74567 9.23977 1.63937 9.31064 1.49291 9.39686 1.30158 9.40158 1.16457 9.44883 0.954331 9.45237 0.797245 9.43347 0.563386 9.43229 0.354331 9.38032 0.132284 9.30828 -0.0980316 9.22087 -0.338977 9.14883 -0.591733 9.05788 -0.88819 8.91615 -1.15866 8.79095 -1.47402 8.61497 -1.76929 8.45434 -2.10473 8.27363 -2.42008 8.04568 -2.80984 7.83071 0 0zm-96.13 79.7989l0 -16.6677 0 0 4.92638 -0.0484252 4.64882 -0.244488 4.41733 -0.372048 4.12796 -0.531496 3.91181 -0.656693 3.70394 -0.778347 3.44055 -0.93189 3.2811 -1.05118 3.06733 -1.16929 2.89252 -1.28504 2.72953 -1.4315 2.57244 -1.51063 2.45669 -1.65473 2.31732 -1.76339 2.21929 -1.90158 2.13071 -2.00669 2.04803 -2.17677 2.01024 -2.31024 1.91221 -2.44252 1.8248 -2.57244 1.80945 -2.73425 1.77165 -2.89488 1.70906 -3.05197 1.68898 -3.14292 1.64291 -3.33071 1.63819 -3.48307 1.61102 -3.60118 1.62284 -3.71575 1.61339 -3.86575 1.60984 -4.01103 1.61693 -4.15394 1.66299 -4.23071 15.4937 5.92441 -1.66299 4.36063 -1.68071 4.22008 -1.67599 4.14095 -1.67717 4.05945 -1.68898 3.97796 -1.74095 3.86103 -1.76811 3.74292 -1.83898 3.6567 -1.88268 3.59882 -1.97126 3.44173 -2.0315 3.35079 -2.13543 3.2563 -2.28071 3.15827 -2.36811 3.02835 -2.46378 2.89607 -2.63622 2.7626 -2.78032 2.65866 -2.93504 2.4874 -3.09922 2.34921 -3.23859 2.17441 -3.41811 2.03268 -3.5752 1.82126 -3.74055 1.6748 -3.913 1.49528 -4.063 1.31102 -4.28622 1.12795 -4.41969 0.97441 -4.62756 0.786615 -4.8437 0.595276 -5.00315 0.438189 -5.23701 0.244488 -5.44607 0.114567 0 0zm-99.2351 -54.2693l0 -16.6677 3.11457 0.383859 2.59134 0.844489 2.35866 1.09016 2.18858 1.28268 2.2063 1.45748 2.22166 1.64291 2.29725 1.74331 2.36929 1.92284 2.47087 2.04921 2.56772 2.15669 2.65866 2.24173 2.7815 2.30906 2.86418 2.42126 2.94449 2.41654 3.05433 2.45551 3.12638 2.47559 3.22677 2.47559 3.29055 2.42244 3.38268 2.38347 3.43937 2.29134 3.49016 2.21221 3.53859 2.11181 3.58347 1.99252 3.65315 1.85433 3.65788 1.69488 3.68859 1.48347 3.71693 1.31693 3.73819 1.09961 3.72756 0.891733 3.77363 0.634252 3.72048 0.388583 3.79134 0.122835 0 16.6677 -4.89922 -0.188977 -4.89213 -0.518504 -4.74922 -0.830316 -4.70315 -1.0878 -4.58622 -1.35945 -4.49646 -1.57677 -4.4067 -1.80945 -4.30748 -1.95473 -4.1752 -2.11417 -4.10315 -2.25473 -3.99449 -2.37166 -3.87992 -2.47205 -3.76536 -2.55118 -3.64488 -2.57953 -3.5504 -2.61851 -3.42048 -2.60551 -3.32244 -2.60551 -3.18425 -2.58544 -3.07441 -2.54646 -2.93032 -2.42126 -2.7815 -2.3752 -2.65866 -2.24173 -2.50158 -2.09055 -2.34095 -1.91929 -2.17559 -1.72677 -1.97126 -1.54961 -1.76575 -1.25079 -1.49055 -1.00158 -1.21063 -0.696851 -0.731103 -0.37441 -0.184252 -0.0625985 0.662599 0.0720473zm-20.8677 -8.33386l16.6677 -33.3355 25.0677 0 -16.7008 33.3355 16.7008 33.3024 -25.0677 0.0330709 -16.6677 -33.3355z"/>
   </g>
   <g>
    <path class="fil2" d="M309.852 263.195l-7.42205 -14.8441 0 0 8.14016 -3.65315 8.05512 -2.80276 7.96536 -1.95473 7.84134 -1.10669 7.64882 -0.328347 7.54961 0.416929 7.32048 1.16102 7.1504 1.83543 6.88229 2.44606 6.64252 3.05315 6.43347 3.5941 6.15591 4.06654 5.9067 4.50473 5.6563 4.91103 5.43662 5.24646 5.21103 5.6126 4.98544 5.88308 4.72205 6.11693 4.52244 6.34725 4.2874 6.54567 4.04882 6.67441 3.84213 6.80434 3.62835 6.89764 3.3815 6.92363 3.16536 6.9815 2.94567 6.9378 2.68937 6.89646 2.46378 6.81497 2.23583 6.73583 2.00315 6.55512 1.76929 6.4063 1.53425 6.18898 -16.2118 3.71103 -1.40197 -5.73308 -1.63937 -5.9504 -1.87323 -6.16536 -2.10591 -6.27993 -2.33386 -6.4252 -2.55945 -6.50434 -2.74961 -6.54804 -2.96929 -6.5256 -3.1878 -6.53386 -3.36851 -6.44174 -3.57992 -6.34843 -3.78898 -6.21851 -3.96142 -6.02363 -4.13268 -5.82756 -4.33229 -5.59489 -4.46339 -5.29725 -4.6252 -4.963 -4.78465 -4.66063 -4.94056 -4.25906 -5.06103 -3.85276 -5.18032 -3.41693 -5.25945 -2.94213 -5.40709 -2.46732 -5.51457 -1.99016 -5.58898 -1.44567 -5.7567 -0.901182 -5.85827 -0.350788 -6.08504 0.262205 -6.21378 0.912993 -6.40394 1.5626 -6.62127 2.28307 -6.83859 3.06733 0 0zm-67.9418 382.056l-14.1921 8.72363 0 0 -5.96457 -10.4728 -5.54056 -11.113 -5.04213 -11.7024 -4.56851 -12.2717 -4.11851 -12.7228 -3.62599 -13.2189 -3.12402 -13.5969 -2.64685 -13.9559 -2.12835 -14.2299 -1.6311 -14.4815 -1.12795 -14.7142 -0.581103 -14.8299 -0.0578741 -14.8937 0.474804 -14.9669 1.01457 -14.9894 1.6311 -14.9291 2.15669 -14.8122 2.75788 -14.6433 3.33425 -14.4555 3.98622 -14.1827 4.54843 -13.891 5.21811 -13.5106 5.86418 -13.0807 6.51851 -12.6284 7.18229 -12.1252 7.8567 -11.5358 8.57009 -10.8933 9.29292 -10.2 9.9945 -9.45237 10.7681 -8.62087 11.4862 -7.73623 12.2138 -6.76654 7.42205 14.8441 -10.976 6.11457 -10.3146 6.95434 -9.66261 7.7752 -9.08268 8.54056 -8.44725 9.2882 -7.85434 9.98387 -7.26851 10.624 -6.6626 11.2134 -6.0626 11.7827 -5.47441 12.2988 -4.89213 12.7288 -4.35237 13.1091 -3.72638 13.4669 -3.20433 13.7398 -2.62795 13.9937 -2.09055 14.1602 -1.50118 14.2772 -1.01457 14.3398 -0.474804 14.3811 0.0578741 14.3717 0.581103 14.2441 1.06181 14.0646 1.56732 13.8957 2.06221 13.6417 2.51693 13.3063 2.9941 12.9449 3.42992 12.5032 3.85866 12.0709 4.30866 11.4921 4.71615 10.9205 5.08465 10.2673 5.50867 9.56103 0 0zm105.618 113.969l-2.14725 16.4717 0 0 -4.99607 -0.890552 -4.94882 -1.31457 -4.86615 -1.75158 -4.74685 -2.10236 -4.65827 -2.43307 -4.59685 -2.77559 -4.46693 -3.03425 -4.39843 -3.30355 -4.3252 -3.55276 -4.24961 -3.75 -4.17048 -3.92481 -4.11851 -4.14685 -3.99803 -4.28268 -3.94252 -4.39843 -3.87756 -4.52481 -3.78071 -4.63229 -3.70866 -4.72087 -3.60473 -4.75276 -3.55985 -4.8 -3.44646 -4.82599 -3.32953 -4.8 -3.27402 -4.81536 -3.14764 -4.75158 -3.05433 -4.66063 -2.95394 -4.61929 -2.84882 -4.49055 -2.7437 -4.37363 -2.60079 -4.23898 -2.51693 -4.07953 -2.36693 -3.87166 -2.24528 -3.67441 -2.12008 -3.42402 14.1921 -8.72363 2.12008 3.4878 2.24528 3.67441 2.36693 3.87166 2.45315 4.01575 2.60079 4.17284 2.67756 4.30985 2.78504 4.42441 2.8878 4.48937 2.98819 4.59685 3.08386 4.61929 3.1441 4.62166 3.26339 4.67008 3.31654 4.62992 3.36378 4.60394 3.47481 4.55906 3.51496 4.45866 3.58465 4.37244 3.61772 4.26496 3.68032 4.13859 3.73819 3.9567 3.72874 3.75473 3.77835 3.60118 3.7937 3.35788 3.80551 3.09685 3.8126 2.84764 3.81496 2.57835 3.75118 2.25591 3.74646 1.97717 3.70512 1.64646 3.63071 1.29567 3.58111 0.988583 3.56221 0.630709 0 0zm113.087 -73.9442l16.6677 0 -0.240945 5.92678 -0.712205 5.77441 -1.13268 5.62323 -1.53543 5.43189 -1.95473 5.24292 -2.32323 5.08111 -2.67638 4.85433 -2.97756 4.62402 -3.29646 4.4563 -3.56339 4.22126 -3.81378 3.98268 -4.08071 3.80906 -4.26496 3.59882 -4.46221 3.35433 -4.64646 3.17362 -4.81063 2.9563 -4.95591 2.77087 -5.08937 2.54764 -5.16851 2.32559 -5.29725 2.13189 -5.34449 1.90276 -5.40473 1.70433 -5.4815 1.50473 -5.47678 1.26969 -5.52048 1.06417 -5.51339 0.82441 -5.48741 0.612993 -5.44725 0.402756 -5.42008 0.154725 -5.31142 -0.0625985 -5.28544 -0.281103 -5.2063 -0.568111 2.14725 -16.4717 4.36063 0.438189 4.50355 0.281103 4.66181 0.0625985 4.70433 -0.154725 4.79528 -0.336614 4.8378 -0.549213 4.86142 -0.758268 4.86851 -0.934253 4.89095 -1.13976 4.83189 -1.30866 4.8189 -1.51063 4.75867 -1.70669 4.64528 -1.87205 4.58268 -2.06339 4.43741 -2.22402 4.3063 -2.37874 4.15866 -2.56654 3.99449 -2.71772 3.8126 -2.89843 3.61299 -3.01299 3.36496 -3.15709 3.16181 -3.33307 2.91378 -3.43937 2.64449 -3.54449 2.39173 -3.71221 2.09055 -3.8126 1.80354 -3.90945 1.49882 -4.07126 1.20945 -4.19646 0.872835 -4.31929 0.516142 -4.47284 0.174803 -4.6252zm8.33386 -20.8677l33.3355 16.6677 0 25.0677 -33.3355 -16.7008 -33.3024 16.7008 -0.0330709 -25.0677 33.3355 -16.6677z"/>
   </g>
  </g>
 </g>
</svg>
