<?xml version="1.0" encoding="UTF-8"?>
<!DOCTYPE svg PUBLIC "-//W3C//DTD SVG 1.1//EN" "http://www.w3.org/Graphics/SVG/1.1/DTD/svg11.dtd">
<!-- Creator: CorelDRAW -->
<svg xmlns="http://www.w3.org/2000/svg" xml:space="preserve" width="1000px" height="1000px" style="shape-rendering:geometricPrecision; text-rendering:geometricPrecision; image-rendering:optimizeQuality; fill-rule:evenodd; clip-rule:evenodd"
viewBox="0 0 1000 1000"
 xmlns:xlink="http://www.w3.org/1999/xlink">
 <defs>
  <style type="text/css">
   <![CDATA[
    .str0 {stroke:#1F1A17;stroke-width:0.900001}
    .str2 {stroke:#1F1A17;stroke-width:4.16693}
    .str1 {stroke:#1F1A17;stroke-width:8.33386}
    .fil0 {fill:none}
    .fil2 {fill:#1F1A17}
    .fil1 {fill:white}
   ]]>
  </style>
 </defs>
 <g id="Warstwa_x0020_1">
  <metadata id="CorelCorpID_0Corel-Layer"/>
  <rect class="fil0 str0" x="-5324.47" y="7886.71" width="1002.45" height="1002.45"/>
  <g id="_301998648">
   <circle id="_302476200" class="fil1 str1" transform="matrix(0.583939 -0.0767479 0.0767479 0.583939 365.59 414.81)" r="55.6158"/>
   <circle id="_302474760" class="fil2 str1" transform="matrix(0.328533 -0.0431795 0.0431795 0.328533 219.072 325.729)" r="55.6158"/>
   <circle id="_302475456" class="fil2 str1" transform="matrix(0.328533 -0.0431795 0.0431795 0.328533 247.251 571.589)" r="55.6158"/>
   <circle id="_302475408" class="fil2 str1" transform="matrix(0.328533 -0.0431795 0.0431795 0.328533 285.471 810.308)" r="55.6158"/>
   <circle id="_302475360" class="fil2 str1" transform="matrix(0.328533 -0.0431795 0.0431795 0.328533 465.699 284.795)" r="55.6158"/>
   <circle id="_302475096" class="fil2 str1" transform="matrix(0.328533 -0.0431795 0.0431795 0.328533 513.551 524.392)" r="55.6158"/>
   <circle id="_302475264" class="fil2 str1" transform="matrix(0.328533 -0.0431795 0.0431795 0.328533 532.432 771.153)" r="55.6158"/>
   <circle id="_302475024" class="fil2 str1" transform="matrix(0.328533 -0.0431795 0.0431795 0.328533 715.009 237.32)" r="55.6158"/>
   <circle id="_302475000" class="fil2 str1" transform="matrix(0.328533 -0.0431795 0.0431795 0.328533 747.201 484.659)" r="55.6158"/>
   <circle id="_302475240" class="fil2 str1" transform="matrix(0.328533 -0.0431795 0.0431795 0.328533 779.394 731.999)" r="55.6158"/>
   <circle id="_302474904" class="fil1 str1" transform="matrix(0.583939 -0.0767479 0.0767479 0.583939 644.57 635.841)" r="55.6158"/>
   <circle id="_302475216" class="fil1 str1" transform="matrix(0.583939 -0.0767479 0.0767479 0.583939 169.217 711.488)" r="55.6158"/>
   <circle id="_301999800" class="fil1 str1" transform="matrix(0.583939 -0.0767479 0.0767479 0.583939 569.668 154.862)" r="55.6158"/>
   <circle id="_301997880" class="fil1 str1" transform="matrix(0.583939 -0.0767479 0.0767479 0.583939 837.545 354.865)" r="55.6158"/>
   <circle id="_301998048" class="fil1 str1" transform="matrix(0.176405 -0.0231851 0.0231851 0.176405 616.376 338.894)" r="55.6158"/>
   <circle id="_301997952" class="fil1 str1" transform="matrix(0.991473 -0.130311 0.130311 0.991473 881.587 571.968)" r="55.6158"/>
   <line id="_301998072" class="fil0 str2" x1="118.795" y1="466.124" x2="320.403" y2= "184.569" />
   <line id="_301998024" class="fil0 str2" x1="110.685" y1="478.869" x2="403.826" y2= "675.841" />
   <polyline id="_302473320" class="fil0 str2" points="318.659,183.989 611.801,383.279 407.876,676.42 "/>
   <circle id="_301998120" class="fil1 str1" transform="matrix(0.991473 -0.130311 0.130311 0.991473 315.178 187.679)" r="55.6158"/>
   <circle id="_302472624" class="fil1 str1" transform="matrix(0.991473 -0.130311 0.130311 0.991473 118.277 479.152)" r="55.6158"/>
   <circle id="_301998840" class="fil1 str1" transform="matrix(0.991473 -0.130311 0.130311 0.991473 598.382 379.824)" r="55.6158"/>
   <circle id="_301998600" class="fil1 str1" transform="matrix(0.991473 -0.130311 0.130311 0.991473 401.481 671.297)" r="55.6158"/>
  </g>
 </g>
</svg>
