<?xml version="1.0" encoding="UTF-8"?>
<!DOCTYPE svg PUBLIC "-//W3C//DTD SVG 1.1//EN" "http://www.w3.org/Graphics/SVG/1.1/DTD/svg11.dtd">
<!-- Creator: CorelDRAW -->
<svg xmlns="http://www.w3.org/2000/svg" xml:space="preserve" width="1000px" height="1000px" style="shape-rendering:geometricPrecision; text-rendering:geometricPrecision; image-rendering:optimizeQuality; fill-rule:evenodd; clip-rule:evenodd"
viewBox="0 0 1000 1000"
 xmlns:xlink="http://www.w3.org/1999/xlink">
 <defs>
  <style type="text/css">
   <![CDATA[
    .str0 {stroke:#1F1A17;stroke-width:0.900001}
    .str1 {stroke:#1F1A17;stroke-width:8.33386}
    .fil0 {fill:none}
    .fil1 {fill:white}
   ]]>
  </style>
 </defs>
 <g id="Warstwa_x0020_1">
  <metadata id="CorelCorpID_0Corel-Layer"/>
  <rect class="fil0 str0" x="-5324.47" y="7886.71" width="1002.45" height="1002.45"/>
  <g id="_301992288">
   <path id="_301996368" class="fil1" d="M321.157 167.948c-27.3921,15.2669 -45.3945,-11.4803 -71.1851,7.52363 -37.4882,27.6213 -38.7756,52.9772 -38.7756,98.3859 0,11.7106 -1.04291,32.9422 14.4685,30.6733 18.4122,-2.6941 17.6244,-16.1504 23.7284,-28.3583 15.8209,-31.6453 76.7564,-56.5004 101.858,-81.6024 9.10749,-9.10749 23.1071,-34.7209 4.62992,-41.0906 -6.58111,-2.2689 -16.0158,3.83977 -21.4134,5.78741 -4.98898,1.80118 -14.4685,8.10237 -13.311,8.68111z"/>
   <path id="_302476728" class="fil1" d="M166.055 325.944c-9.98387,-10.852 -8.27953,-13.1091 -16.2047,-6.94489 -18.7795,14.6055 -3.96378,30.3685 -14.4685,45.7205 -4.44213,6.49371 -15.3449,19.5874 -9.83859,26.6221 7.63701,9.75946 15.1984,1.79055 19.0984,-6.36615 6.01772,-12.5811 10.4752,-24.4358 17.941,-35.8819 3.17362,-4.86733 2.31496,-23.1496 3.47244,-23.1496z"/>
   <path id="_302476632" class="fil1" d="M235.504 415.649c-0.779528,-2.12362 -4.17992,-15.3721 -8.10237,-14.4685 -5.16615,1.19173 -8.80276,14.2713 -5.78741,19.0984 1.79055,2.86418 3.70276,12.2091 4.62992,16.2047 3.34252,14.4059 10.1622,9.44292 12.1536,-2.31496 1.51536,-8.94568 -0.661418,-11.3244 -2.8937,-18.5197z"/>
   <path id="_302476440" class="fil1" d="M341.413 415.07c-4.4563,-15.7169 -7.65119,-35.5654 -20.8347,-14.4685 -5.70709,9.13111 -3.02835,17.6067 -13.8898,22.5709 -11.0882,5.0693 -3.57166,13.1126 0,20.2559 7.93229,15.8646 -15.8492,27.0851 -5.20867,45.1418 2.54055,4.31339 9.48426,10.376 13.311,14.4685 2.67874,2.86654 4.53071,8.43308 8.10237,10.4173 9.67442,5.37402 4.20945,-25.1504 2.8937,-28.3583 -2.5937,-6.32717 1.77047,-36.4193 5.20867,-42.8268 5.64567,-10.5248 10.9961,-14.8843 10.4173,-27.2008z"/>
   <path id="_302476392" class="fil1" d="M401.024 562.071c-15.5894,-10.7929 -29.1154,-25.7091 -46.2992,-23.7284 -10.6287,1.22599 -11.2122,18.2882 -13.311,24.8858 -3.20788,10.0854 11.1626,13.3075 17.941,15.626 5.73189,1.95945 12.7288,-0.615355 18.5197,1.73622 20.4,8.2878 32.237,-17.941 23.1496,-18.5197z"/>
   <path id="_302476512" class="fil1" d="M454.268 596.795c-9.60591,-7.25316 -17.9953,-10.4173 -29.5158,-10.4173 -10.9358,0 -17.1213,-6.19725 -28.3583,-0.578741 -9.21733,4.60748 -4.87796,11.974 1.73622,16.7835 10.735,7.80827 60.2693,6.60945 56.1378,-5.78741z"/>
   <path id="_302476800" class="fil1" d="M292.22 547.023c-7.97717,-17.2854 -17.204,-20.3469 -18.5197,-38.7756 -1.02756,-14.4047 -14.2843,-11.7815 -19.6772,-22.5709 -3.25394,-6.50788 5.48977,-20.2843 -4.05118,-23.7284 -18.2091,-6.5752 -26.8795,14.7957 -21.4134,29.5158 5.57008,14.9965 7.58505,19.7386 19.0984,31.252 9.60828,9.60828 14.55,36.9036 21.9921,40.5118 16.3784,7.93938 32.4898,-8.47678 22.5709,-16.2047z"/>
   <path id="_302476344" class="fil1" d="M276.594 596.795c-16.1575,-13.65 -36.6473,-23.2169 -48.6142,-38.7756 -5.19449,-6.75237 -11.3811,-23.2701 -23.1496,-13.311 -22.0453,18.6532 32.4815,49.6855 46.878,56.1378 17.6953,7.93229 24.789,26.8937 44.563,28.937 9.06261,0.936615 27.9461,12.0213 36.4607,5.20867 14.4827,-11.5854 -52.0973,-27.2327 -56.1378,-38.1969z"/>
   <path id="_302477016" class="fil1" d="M491.307 692.866c-124.889,0 -248.225,1.84843 -311.362,-124.429 -12.6543,-25.3087 -31.265,-21.5339 -27.7795,8.68111 3.18425,27.613 49.0618,144.382 71.1851,157.996 62.6445,38.5488 226.927,25.154 303.839,32.4095 56.7544,5.35276 133.514,-90.1513 148.158,-127.323 15.8823,-40.3205 18.4984,-3.15945 30.0945,-31.8307 16.1728,-39.9827 -13.9382,-16.6618 -19.6772,-20.8347 -4.32048,-3.14292 7.19056,-72.1253 -5.20867,-87.9686 -14.3563,-18.3461 -29.1803,115.108 -60.189,131.374 -21.8575,11.4662 -62.8973,34.4492 -78.13,52.0867 -3.05788,3.54213 -51.2185,9.54922 -50.9292,9.83859z"/>
   <path id="_302476824" class="fil1" d="M713.543 509.984c-3.74646,-4.86024 -9.32481,-15.287 -15.626,-11.5748 -12.0236,7.08544 -1.18937,15.7488 2.31496,24.8858 3.74292,9.75473 0.578741,14.9197 0.578741,24.3071 0,12.5504 24.3024,-3.82796 16.2047,-16.7835 -2.19567,-3.51496 -1.84016,-16.0382 -3.47244,-20.8347z"/>
   <path id="_302476128" class="fil1" d="M692.709 423.752c-6.29292,-7.31457 -21.0709,-24.1099 -31.252,-15.626 -6.17717,5.14843 -7.92993,12.7453 0,17.941 7.88505,5.16496 16.1646,20.8536 27.7795,15.0473 3.82441,-1.91221 8.22875,-5.00197 7.52363,-10.4173 -0.314173,-2.41536 -4.05118,-6.36615 -4.05118,-6.94489z"/>
   <path id="_302476032" class="fil1" d="M545.709 395.972c-47.4945,-17.1957 -70.9087,16.6122 -103.595,37.0394 -16.3028,10.1894 -35.1721,17.2158 -17.941,-6.36615 4.89331,-6.69567 35.5843,-22.7232 22.5709,-33.567 -12.9177,-10.7658 -51.8008,45.1748 -52.6654,54.4016 -0.766536,8.19213 -2.89725,41.8701 3.47244,45.7205 11.3185,6.84449 4.44803,-43.8107 14.4685,-27.7795 5.96221,9.54095 -7.93465,34.428 2.8937,41.0906 14.8016,9.10867 3.45,-29.1673 8.68111,-36.4607 10.0819,-14.0528 38.8465,30.4181 11.5748,16.7835 -12.2646,-6.13229 4.62756,19.2898 9.25985,23.1496 13.3973,11.165 2.24882,46.1481 -16.7835,37.6181 -22.0536,-9.88583 -10.2,-30.4418 -39.9331,-38.1969 -9.87993,-2.57717 -14.6126,-43.6748 -21.9921,-53.8229 -12.1181,-16.6606 -11.7449,65.9835 17.3622,86.2324 20.0339,13.9358 95.3056,45.7205 117.484,45.7205 5.87008,0 61.7776,-14.0126 34.1457,5.20867 -50.0233,34.8 21.4571,8.48741 30.6733,-8.10237 10.7693,-19.3878 22.6323,-11.0575 10.9961,0.578741 -33.8256,33.8256 30.5162,-4.4504 36.4607,-9.83859 6.37441,-5.7756 18.0957,-20.3835 10.4173,-26.6221 -9.93898,-8.07402 -36.3201,23.4319 -16.2047,-9.83859 7.20945,-11.9232 15.2788,-30.326 24.8858,-39.9331 12.2232,-12.2232 26.6221,9.04607 26.6221,-6.94489 0,-6.77953 61.1304,-36.6839 18.5197,-33.567 -11.5913,0.846851 -38.9398,-19.0677 -29.5158,-34.1457 5.08465,-8.13662 -13.8484,-34.3784 -20.8347,-37.0394 -18.5457,-7.063 -7.37599,25.9996 -13.311,27.7795 -15.6898,4.70552 -27.5256,-48.4961 -42.8268,-12.1536 -11.8063,28.0394 -11.8583,-0.576378 -24.8858,-6.94489z"/>
   <path id="_302475888" class="fil1" d="M455.133 266.42c-28.976,14.7827 -58.9796,39.6614 -72.9957,64.8851 -26.5311,47.7496 7.363,-36.3024 -18.5386,-17.3799 -28.1044,20.5335 -0.362599,74.3894 2.31732,106.597 1.90984,22.9477 -36.6177,31.513 1.15866,49.8225 3.82205,1.85315 51.8339,-84.0402 71.8371,-98.4863 43.4433,-31.3725 12.4784,60.6107 63.7264,-3.47599 15.6024,-19.5106 -19.4067,-34.1764 54.4571,-63.7264 92.817,-37.1339 111.594,18.0118 184.227,34.7599 184.39,42.5162 49.8225,204.931 49.8225,322.108 0,25.2461 -53.7544,129.067 -13.9039,89.217 41.8335,-41.8335 60.9804,-55.8993 89.217,-112.39 16.7717,-33.5516 55.5709,-212.829 38.2359,-241.002 -17.0055,-27.6402 -11.9929,-58.6642 -30.1252,-89.217 -34.4563,-58.0548 -97.2709,-3.58819 -129.77,-54.4571 -15.0083,-23.4898 25.4906,-18.4358 25.4906,-42.8705 0,-23.3457 -54.5315,-19.7705 -70.6784,-24.3319 -53.4095,-15.0921 -85.9477,14.3445 -121.66,53.2985 -16.5425,18.0461 -121.818,19.4162 -122.818,26.6492z"/>
   <path id="_302475840" class="fil1" d="M805.049 484.249c-16.6996,-14.5595 -14.5524,-18.5646 -22.0146,-4.63465 -5.04213,9.40985 -3.63898,23.2666 -6.95197,32.4425 -7.18347,19.898 -9.14764,37.78 -18.5386,55.6158 -9.11812,17.3162 3.87992,30.2823 18.5386,17.3799 8.84764,-7.78583 1.24961,-22.3654 8.11064,-31.2839 7.99725,-10.3925 13.3311,-23.8559 18.5386,-37.0772 5.93032,-15.0602 1.15866,-18.3614 2.31732,-32.4425z"/>
   <path id="_302475768" class="fil0 str1" d="M748.879 732.36c-18.1394,-4.18465 -31.1717,0.705119 -44.0292,11.5866 -6.79489,5.74961 -32.2725,30.8303 -39.3945,25.4906"/>
   <path id="_302475552" class="fil0 str1" d="M736.133 753.216c-15.0543,20.5288 -23.7154,29.7154 -47.5052,37.0772 -8.75198,2.70709 -38.2359,5.57363 -38.2359,13.9039"/>
   <path id="_302475624" class="fil0 str1" d="M784.797 762.485c-3.68977,-6.56103 -3.47599,-5.55709 -3.47599,-11.5866 0,-8.9693 7.93229,-15.6791 10.428,-23.1732"/>
   <path id="_302475528" class="fil0 str1" d="M765.1 733.518c-10.5992,-19.6866 -9.48072,-29.9788 4.63465,-47.5052 11.5654,-14.3587 16.2213,-23.7307 16.2213,-44.0292"/>
   <path id="_302473776" class="fil0 str1" d="M766.258 655.888c-0.879922,-3.81733 -1.15866,-7.59686 -1.15866,-11.5866l0 -1.15866c0,-0.946064 1.82362,-2.60315 2.31732,-3.47599 0.865749,-1.53425 0.611812,-0.675591 1.15866,-2.31732"/>
   <path id="_302471184" class="fil0 str1" d="M810.288 684.854c4.82717,-4.82717 16.2213,-16.291 16.2213,-22.0146 0,-3.16181 1.07362,-22.4303 -1.15866,-23.1732"/>
   <path id="_302471136" class="fil0 str1" d="M813.764 703.393c10.2307,2.35984 17.928,-4.56496 25.4906,-11.5866 11.837,-10.9878 12.6697,-14.1248 13.9039,-28.9666 0.667323,-8.02442 8.45079,-25.6063 15.0626,-27.8079"/>
   <path id="_302470992" class="fil0 str1" d="M776.686 593.32c0,-6.58819 -1.10079,-8.16851 3.47599,-12.7453 3.45591,-3.45591 5.06339,-4.71969 9.2693,-6.95197 6.05434,-3.21142 14.8807,-8.11064 20.8559,-8.11064"/>
   <path id="_302470944" class="fil0 str1" d="M868.221 618.811c0,-17.341 0.237402,-33.3638 -12.7453,-46.3465 -5.09174,-5.09174 -11.4839,-6.95197 -18.5386,-6.95197 -6.31772,0 -9.2693,2.15315 -9.2693,-4.63465"/>
   <path id="_302471352" class="fil0 str1" d="M805.653 586.368c6.72756,-6.72756 27.8079,-26.6575 27.8079,-33.6012 0,-14.7142 -19.3713,-28.1339 -5.79331,-41.7118 7.82599,-7.82599 26.8347,-33.3485 16.2213,-47.5052"/>
   <path id="_302470920" class="fil0 str1" d="M842.73 489.041c21.4099,12.1311 8.01024,0.520867 11.5866,10.428 4.70788,13.0394 6.58819,27.7288 2.31732,40.5532"/>
   <path id="_302471544" class="fil0 str1" d="M878.649 418.362c-6.17717,-4.75158 -5.80512,-5.20158 -8.11064,-11.5866 -1.62284,-4.49764 -5.30906,-7.37599 -5.79331,-11.5866 -0.654331,-5.67638 0.869292,-9.55749 3.47599,-13.9039"/>
   <path id="_302470896" class="fil0 str1" d="M860.11 303.655c1.62284,7.57914 1.36181,13.5815 0,20.8559 -1.00276,5.36103 -4.63465,8.01024 -4.63465,13.9039"/>
   <path id="_302471424" class="fil0 str1" d="M882.125 299.02c3.11103,10.1126 12.6791,16.1315 11.5866,27.8079 -0.667323,7.12796 -10.3217,22.1197 -16.2213,25.4906"/>
   <path id="_302471520" class="fil0 str1" d="M839.254 429.949l-5.79331 0c-2.54646,0 -2.62205,0.0980316 -4.63465,-1.15866 -1.11614,-0.698032 -3.47599,0.158268 -3.47599,-1.15866l0 -1.15866c0,-2.35984 -2.82166,-0.0496063 -4.63465,-2.31732 -1.37008,-1.7126 -0.472441,-0.00708662 -2.31732,-1.15866 -0.3,-0.187795 -2.90433,-3.51851 -3.47599,-4.63465 -2.02323,-3.94252 -0.882284,-8.4378 -2.31732,-12.7453"/>
   <path id="_302471256" class="fil0 str1" d="M848.524 417.203c-8.7815,-17.5665 -28.5425,-27.1618 -34.7599,-45.1878 -2.05984,-5.9752 2.6811,-13.4717 4.63465,-17.3799 3.58937,-7.18347 3.47599,-9.55276 -1.15866,-18.5386 -12.9154,-4.55788 -17.6728,-2.71654 -26.6492,3.47599 -6.60001,4.55197 -27.404,7.25906 -35.9185,3.47599 -5.52874,-2.45551 -21.6792,-20.2323 -25.4906,-1.15866"/>
   <path id="_302471400" class="fil0 str1" d="M774.369 319.876c-12.528,-5.48032 -20.6114,-6.77835 -31.2839,-16.2213 -12.0071,-10.6217 -22.8343,0 -35.9185,0 -17.0268,0 -22.2154,-21.698 -30.1252,-24.3319"/>
   <path id="_302471328" class="fil0 str1" d="M697.897 256.149c-14.1957,8.87245 -22.6299,18.5386 -40.5532,18.5386 -17.5122,0 -34.3713,-15.0626 -50.9811,-15.0626 -10.4811,0 -54.6733,5.27481 -57.9331,15.0626"/>
   <path id="_302471496" class="fil0 str1" d="M556.541 289.751c20.3256,-15.9685 42.4571,-25.3347 55.6158,-47.5052 31.9099,-53.7674 71.8701,-55.6158 129.77,-55.6158"/>
   <path id="_302471040" class="fil0 str1" d="M675.883 228.342c9.82087,5.40119 18.0083,9.2693 28.9666,9.2693 5.76497,0 12.7453,1.47402 12.7453,-5.79331 3.4689,-7.43386 2.93622,-7.13504 9.2693,-3.47599 5.92087,3.41929 14.0551,4.63465 20.8559,4.63465 4.4752,0 12.9508,-6.40749 13.9039,-9.2693"/>
   <path id="_302471016" class="fil0 str1" d="M582.031 194.74l-4.63465 3.47599 -2.31732 0 0 2.31732 -2.31732 0c-2.64803,0 -5.17559,5.72245 -6.95197,8.11064 -3.30355,4.44449 -5.75788,4.87796 -10.428,6.95197 -3.01181,1.33819 -1.63465,1.88858 -5.79331,2.31732 -1.74331,0.179528 -3.23859,1.27087 -4.63465,2.31732"/>
   <path id="_302478696" class="fil0 str1" d="M547.271 248.039c-3.39803,0 -14.3894,1.15039 -17.3799,0 -2.16732,-0.832678 -4.65237,-1.84252 -6.95197,-2.31732 -4.0252,-0.830316 -5.2441,-3.83032 -9.2693,-4.63465"/>
   <path id="_302478624" class="fil0 str1" d="M522.939 282.799c0,4.07835 0.337796,8.67638 0,12.7453 -0.512599,6.18189 -7.9689,14.5536 -12.7453,19.6973 -2.73662,2.94803 -5.34804,5.63268 -8.11064,8.11064 -2.38701,2.13898 -3.50197,1.40669 -6.95197,3.47599"/>
   <path id="_302478936" class="fil0 str1" d="M485.54 334.779c0,12.6343 -16.7835,17.9327 -16.7835,31.252"/>
   <path id="_302478960" class="fil0 str1" d="M456.603 311.629c-5.44016,10.3583 -15.6709,26.9079 -20.2559,38.1969 -0.851575,2.09764 -2.03386,3.86929 0,1.15748"/>
   <path id="_302478816" class="fil0 str1" d="M407.989 367.188c-5.67048,16.3039 -4.80827,15.952 -15.626,25.4646 -8.71772,7.66418 -12.4016,19.3701 -12.7323,30.6733 -0.133465,4.5567 6.62717,28.3205 9.25985,31.8307"/>
   <path id="_302478744" class="fil0 str1" d="M384.839 352.72c-5.67638,14.4272 -10.4173,24.5351 -10.4173,39.9331 0,6.02835 0.876379,9.85276 3.47244,15.0473 1.82008,3.64016 2.69055,13.6181 4.62992,16.2047"/>
   <path id="_302478768" class="fil0 str1" d="M326.965 423.326c16.6665,19.0146 22.8614,22.9217 39.9331,36.4607 23.6622,18.7677 11.4284,59.706 34.7244,75.2363"/>
   <path id="_302478888" class="fil0 str1" d="M461.233 381.078c-8.76497,6.71103 -25.7693,15.5587 -16.2047,27.7795 0.961418,1.22953 6.82441,2.9811 8.10237,3.47244 4.6937,1.80354 5.77323,2.74725 9.83859,-0.578741"/>
   <path id="_302478864" class="fil0 str1" d="M421.878 407.122c4.31575,10.2319 6.02008,15.3602 6.94489,25.4646 0.442914,4.83307 0,10.1847 0,15.0473"/>
   <path id="_302477928" class="fil0 str1" d="M403.359 526.921c8.92678,9.8504 24.6862,30.7654 38.7756,32.9882 10.8484,1.7126 49.2485,12.4134 56.7166,9.83859 16.0252,-5.52402 35.6114,-2.6126 49.7717,-8.68111"/>
   <path id="_302477832" class="fil0 str1" d="M447.922 529.815c5.49449,9.61654 24.965,43.2331 39.3544,34.1457"/>
   <path id="_302478000" class="fil0 str1" d="M475.122 473.098c10.9866,-27.7925 13.5307,-27.8433 38.1969,-39.3544 17.3067,-8.0752 32.1567,-26.4721 50.9292,-15.0473 8.35867,5.08819 13.1315,2.40355 21.4134,-1.73622 15.0874,-7.54371 25.9713,-6.46064 41.0906,-10.9961"/>
   <path id="_302478264" class="fil0 str1" d="M576.981 434.322c17.6386,-1.25906 31.3937,3.52796 49.193,2.31496 19.128,-1.30276 28.1811,6.07323 45.7205,11.5748 9.32127,2.92441 33.567,0.853938 33.567,17.3622"/>
   <path id="_302478552" class="fil0 str1" d="M648.745 467.889c37.0276,54.4087 10.4173,42.3485 10.4173,94.3347 0,9.38032 7.0441,18.3614 5.20867,25.4646 -7.55552,29.2418 -52.1752,88.1363 -80.4449,97.8072 -27.9449,9.55867 -53.5548,45.0969 -77.5512,53.8229"/>
   <path id="_302477904" class="fil0 str1" d="M606.497 654.823c-33.1134,17.2016 -41.0422,48.7111 -80.4449,52.0867 -18.5705,1.59095 -52.7351,24.6154 -61.9252,39.9331"/>
   <path id="_302478480" class="fil0 str1" d="M585.662 571.484c-8.85237,12.3165 -14.1933,16.0902 -24.3071,25.4646 -4.37363,4.05237 -4.3937,7.02166 -5.20867,12.7323"/>
   <path id="_302478120" class="fil0 str1" d="M570.036 552.385c-1.39961,13.5307 -1.51772,20.0374 -10.9961,29.5158"/>
   <path id="_302478240" class="fil0 str1" d="M523.737 585.374c9.98623,-3.10984 10.7776,-2.09646 16.2047,-7.52363 1.92284,-1.92284 3.79016,-3.71103 5.78741,-5.20867"/>
   <path id="_302478384" class="fil0 str1" d="M584.504 519.397c-2.59961,10.0453 -4.01929,23.1792 -12.7323,29.5158"/>
   <path id="_302478168" class="fil0 str1" d="M608.812 514.767c2.1815,10.9087 3.99449,13.252 0.578741,22.5709 -0.94252,2.57126 -4.52717,6.41103 -5.78741,8.68111"/>
   <path id="_302478144" class="fil0 str1" d="M583.926 473.677c6.38386,25.2921 5.7,12.1772 3.47244,27.7795 -0.23504,1.65118 -1.10906,2.90315 -1.73622,4.62992"/>
   <path id="_302478048" class="fil0 str1" d="M632.54 494.511c0.111024,1.21063 4.60276,31.252 -4.62992,31.252"/>
   <path id="_302478360" class="fil0 str1" d="M617.493 504.929c-3.67205,-12.4441 -7.02875,-20.987 -18.5197,-26.6221 -2.51811,-1.23543 -20.6421,-8.97048 -23.1496,-5.20867"/>
   <path id="_302478312" class="fil0 str1" d="M421.3 764.783c-11.5961,0.620079 -20.6835,0.54567 -31.252,2.8937"/>
   <path id="_302477856" class="fil0 str1" d="M450.237 776.358c-5.64213,3.38504 -25.8225,16.2213 -33.567,11.5748"/>
   <path id="_302477472" class="fil0 str1" d="M368.634 757.26c-16.9406,-8.84883 -7.8756,-4.33701 -16.2047,-9.25985 -2.58189,-1.5248 -6.79607,-1.15748 -9.83859,-1.15748"/>
   <path id="_302477424" class="fil0 str1" d="M299.764 723.693c-12.4122,-1.01929 -31.7941,-5.72481 -42.8268,0.578741 -17.2701,9.8693 -58.1469,9.02009 -66.5552,-16.2047"/>
   <path id="_302477232" class="fil0 str1" d="M330.437 733.531c-3.47481,-6.60237 -8.93387,-19.1894 -14.4685,-24.3071 -5.15433,-4.76457 -10.787,-9.81379 -15.626,-15.0473 -5.72717,-6.19607 -3.87166,-12.0508 -12.1536,-16.7835"/>
   <path id="_302477520" class="fil0 str1" d="M303.815 749.157c17.2146,-19.7185 17.4248,-26.5512 -4.05118,-39.9331 -10.9996,-6.85512 -17.8016,-18.0603 -27.2008,-25.4646 -4.58032,-3.60945 -14.7295,0.523229 -19.0984,2.8937 -4.52717,2.45788 -12.7784,-5.65158 -13.8898,-2.31496"/>
   <path id="_302477760" class="fil0 str1" d="M211.795 642.09c2.24646,-4.01811 12.6803,-19.689 5.20867,-24.8858 -4.35355,-3.02835 -12.1122,-12.7725 -16.7835,-13.311 -9.75591,-1.12441 3.91772,-14.4685 -8.10237,-14.4685"/>
   <path id="_302477592" class="fil0 str1" d="M272.563 644.984c-13.624,-5.15079 -19.7799,-7.86379 -28.3583,-17.3622 -1.96063,-2.16969 -8.68111,-7.82245 -8.68111,-9.83859"/>
   <path id="_302477736" class="fil0 str1" d="M339.697 682.023c-6.22914,-8.48268 -10.9784,-17.0433 -20.8347,-20.8347 -3.7063,-1.42441 -7.4752,-1.10906 -10.4173,-4.05118"/>
   <path id="_301998432" class="fil0 str1" d="M340.855 631.673c-15.1914,-9.11457 -27.8351,-13.8898 -45.7205,-13.8898"/>
   <path id="_301999560" class="fil0 str1" d="M328.122 596.949c-12.9437,-4.21418 -31.9193,-9.90237 -42.2481,-19.6772 -10.6701,-10.0996 -11.5004,-8.06457 -26.6221,-11.5748 -7.46339,-1.7315 -16.4398,-19.8177 -17.3622,-27.2008"/>
   <path id="_301999656" class="fil0 str1" d="M364.583 579.008c-8.72599,-2.1815 -13.2614,-3.75591 -21.4134,-3.47244 -8.10355,0.281103 -8.47205,1.27087 -15.0473,-2.31496 -0.746457,-0.407481 -4.95591,-3.29173 -5.20867,-4.05118"/>
   <path id="_301999632" class="fil0 str1" d="M227.421 504.35c0,-7.24134 2.70945,-18.0697 -6.94489,-19.6772 -10.2024,-1.69961 -15.8906,-3.51851 -10.4173,-14.4685 3.92599,-7.85197 -9.29056,-5.99764 -15.0473,-6.94489 -3.09331,-0.507874 6.30591,-13.6134 6.36615,-13.8898 0.954331,-4.37126 -7.69489,-5.72835 -8.10237,-9.25985 -1.51417,-13.1374 7.08071,-5.51575 -0.578741,-20.8347 -2.92677,-5.85591 6.20079,-10.8378 -4.05118,-15.0473 -4.51536,-1.85433 0.895276,-22.5177 2.8937,-28.3583 1.50709,-4.40788 -10.6547,-21.4996 -4.05118,-23.1496"/>
   <path id="_301999128" class="fil0 str1" d="M170.126 291.952c0.0507874,-1.33347 -2.94449,-20.811 4.05118,-24.3071 5.97166,-2.98583 11.4307,-5.83701 13.8898,-11.5748"/>
   <path id="_301999680" class="fil0 str1" d="M247.677 282.692c21.8351,-31.0607 11.3102,-15.3591 34.7244,-27.2008 9.85985,-4.98544 16.8898,-20.3799 27.2008,-28.3583 3.22559,-2.49685 16.2295,-16.0205 18.5197,-16.7835"/>
   <path id="_302476224" class="fil0 str1" d="M305.551 300.633c11.7567,-23.941 7.92875,-20.3339 26.0433,-32.4095 5.37048,-3.58111 6.41575,-2.53229 8.68111,-8.68111"/>
   <path id="_301998912" class="fil0 str1" d="M328.701 241.023c9.27284,-6.44528 18.2421,-11.1756 27.2008,-17.3622 3.05079,-2.10591 8.68111,-4.06536 8.68111,-8.10237"/>
   <path id="_302474256" class="fil0 str1" d="M359.953 195.881c0.891733,-0.361418 10.963,-2.44488 13.0902,-7.52363 0.552756,-1.31811 3.49252,-9.02363 3.15118,-9.83859"/>
   <path id="_301992216" class="fil0 str1" d="M333.331 186.043c9.8445,-6.60827 21.4134,-9.66497 21.4134,-20.2559 0,-12.5681 10.0181,-8.06575 17.3622,-13.8898 7.59686,-6.02599 13.8756,-11.4272 23.7284,-13.8898"/>
   <path id="_301992120" class="fil0 str1" d="M261.567 211.507c2.33268,-4.43977 7.67599,-10.3134 5.78741,-14.4685 -2.93386,-6.45827 -0.67441,-11.9906 6.36615,-15.0473 3.35079,-1.45394 8.67757,-2.11654 11.5748,0 2.01024,1.46929 3.89646,5.15788 5.78741,5.78741"/>
   <path id="_301992168" class="fil0" d="M302.079 613.153c-19.8898,-9.94489 -28.3607,-16.9736 -42.2481,-31.8307 -14.0244,-15.0024 -27.5067,-35.6965 -43.4055,-48.6142 -15.4725,-12.5693 -30.1193,9.23505 -17.3622,22.5709 25.3158,26.4673 34.3016,49.5343 70.6064,64.8189 10.2508,4.31575 17.9291,8.82402 30.0945,10.9961 19.1504,3.41811 18.5197,-9.83859 19.0984,-9.83859"/>
  </g>
 </g>
</svg>
