<?xml version="1.0" encoding="UTF-8"?>
<!DOCTYPE svg PUBLIC "-//W3C//DTD SVG 1.1//EN" "http://www.w3.org/Graphics/SVG/1.1/DTD/svg11.dtd">
<!-- Creator: CorelDRAW -->
<svg xmlns="http://www.w3.org/2000/svg" xml:space="preserve" width="1000px" height="1000px" style="shape-rendering:geometricPrecision; text-rendering:geometricPrecision; image-rendering:optimizeQuality; fill-rule:evenodd; clip-rule:evenodd"
viewBox="0 0 1000 1000"
 xmlns:xlink="http://www.w3.org/1999/xlink">
 <defs>
  <style type="text/css">
   <![CDATA[
    .str0 {stroke:#1F1A17;stroke-width:0.900001}
    .str2 {stroke:#1F1A17;stroke-width:8.33386}
    .str3 {stroke:#1F1A17;stroke-width:12.4996}
    .str1 {stroke:#1F1A17;stroke-width:16.6665}
    .str4 {stroke:#1F1A17;stroke-width:8.33386;stroke-dasharray:16.668 8.334}
    .fil0 {fill:none}
    .fil1 {fill:white}
   ]]>
  </style>
 </defs>
 <g id="Warstwa_x0020_1">
  <metadata id="CorelCorpID_0Corel-Layer"/>
  <rect class="fil0 str0" x="-5324.47" y="7886.71" width="1002.45" height="1002.45"/>
  <g id="_246143320">
   <polygon id="_246138904" class="fil1 str1" points="510.486,300.69 341.944,419.293 387.721,633.611 541.696,696.034 712.319,585.753 651.977,361.031 "/>
   <circle id="_246139216" class="fil1 str2" cx="372.115" cy="270.519" r="53.0593"/>
   <circle id="_246139288" class="fil1 str3" cx="488.3" cy="116.88" r="53.0593"/>
   <circle id="_246138880" class="fil1 str3" cx="157.123" cy="356.504" r="53.0593"/>
   <circle id="_246139072" class="fil1 str3" cx="264.985" cy="739.701" r="53.0593"/>
   <circle id="_246139120" class="fil1 str3" cx="872.228" cy="646.404" r="53.0593"/>
   <circle id="_246139264" class="fil1 str3" cx="800.808" cy="353.692" r="53.0593"/>
   <circle id="_246137800" class="fil1 str3" cx="669.383" cy="720.242" r="53.0593"/>
   <circle id="_246137200" class="fil1 str2" cx="771.283" cy="260.452" r="53.0593"/>
   <circle id="_246137008" class="fil1 str2" cx="539.982" cy="862.128" r="53.0593"/>
   <circle id="_246136792" class="fil1 str2" cx="231.355" cy="642.242" r="53.0593"/>
   <line id="_246144256" class="fil0 str2" x1="371.074" y1="275.72" x2="426.215" y2= "359.991" />
   <line id="_246144640" class="fil0 str2" x1="774.741" y1="267.398" x2="639.492" y2= "371.436" />
   <line id="_246144328" class="fil0 str2" x1="539.615" y1="854.17" x2="537.535" y2= "698.115" />
   <line id="_246144304" class="fil0 str2" x1="248.31" y1="641.934" x2="364.832" y2= "575.35" />
   <line id="_246144376" class="fil0 str2" x1="489.54" y1="168.285" x2="498.898" y2= "330.485" />
   <line id="_246144544" class="fil0 str2" x1="206.731" y1="374.153" x2="360.612" y2= "425.102" />
   <line id="_246144424" class="fil0 str2" x1="756.754" y1="382.472" x2="639.263" y2= "432.379" />
   <line id="_246144400" class="fil0 str2" x1="823.297" y1="625.771" x2="703.727" y2= "561.308" />
   <line id="_246143800" class="fil0 str2" x1="639.263" y1="675.678" x2="573.76" y2= "584.182" />
   <line id="_246144160" class="fil0 str2" x1="309.665" y1="708.95" x2="410.52" y2= "609.135" />
   <polyline id="_246143728" class="fil0 str4" points="649.689,366.962 499.967,474.056 540.517,701.76 "/>
   <line id="_246143584" class="fil0 str4" x1="496.848" y1="474.056" x2="346.086" y2= "423.108" />
   <circle id="_246142768" class="fil1 str3" cx="428.69" cy="413.697" r="53.0593"/>
  </g>
 </g>
</svg>
