<?xml version="1.0" encoding="UTF-8"?>
<!DOCTYPE svg PUBLIC "-//W3C//DTD SVG 1.1//EN" "http://www.w3.org/Graphics/SVG/1.1/DTD/svg11.dtd">
<!-- Creator: CorelDRAW -->
<svg xmlns="http://www.w3.org/2000/svg" xml:space="preserve" width="1000px" height="1000px" style="shape-rendering:geometricPrecision; text-rendering:geometricPrecision; image-rendering:optimizeQuality; fill-rule:evenodd; clip-rule:evenodd"
viewBox="0 0 1000 1000"
 xmlns:xlink="http://www.w3.org/1999/xlink">
 <defs>
  <style type="text/css">
   <![CDATA[
    .str0 {stroke:#1F1A17;stroke-width:0.900001}
    .str1 {stroke:#1F1A17;stroke-width:8.33386}
    .str2 {stroke:#1F1A17;stroke-width:16.6665}
    .str3 {stroke:#1F1A17;stroke-width:8.33386;stroke-dasharray:16.668 8.334}
    .fil0 {fill:none}
    .fil1 {fill:white}
   ]]>
  </style>
 </defs>
 <g id="Warstwa_x0020_1">
  <metadata id="CorelCorpID_0Corel-Layer"/>
  <rect class="fil0 str0" x="-5324.47" y="7886.71" width="1002.45" height="1002.45"/>
  <g id="_246323592">
   <circle id="_246324528" class="fil1 str1" cx="694.377" cy="575.106" r="57.3538"/>
   <circle id="_246325056" class="fil1 str1" cx="224.075" cy="598.047" r="32.7736"/>
   <path id="_246324600" class="fil0 str2" d="M555.755 439.054c-67.7658,117.282 -35.152,236.156 53.2418,322.282 61.2308,59.6599 184.289,0.435827 230.602,-44.6906 183.346,-178.643 -147.728,-526.973 -283.844,-277.591z"/>
   <path id="_246323784" class="fil0 str3" d="M489.541 484.978c-13.8496,161.584 -54.4725,311.388 150.758,342.485 228.706,34.6536 344.9,-219.032 257.274,-417.864 -61.3347,-139.169 -389.824,-175.994 -408.032,75.3792z"/>
   <path id="_246323712" class="fil0 str2" d="M150.334 670.149c16.9595,21.4122 103.748,40.8685 132.734,27.8587 74.556,-33.4654 60.6591,-173.994 6.55394,-216.306 -110.408,-86.3434 -206.068,104.134 -139.288,188.447z"/>
   <path id="_246323904" class="fil0 str3" d="M86.4261 486.617c-26.8607,143.262 -4.96418,239.296 116.346,303.156 54.0071,28.428 162.123,-36.6473 173.7,-86.8501 19.8603,-86.1178 25.0477,-254.719 -68.8241,-291.685 -59.4119,-23.3977 -221.222,12.8563 -221.222,75.3792z"/>
   <path id="_246324000" class="fil0 str1" d="M205.081 300.769c-9.53268,0.794883 -20.9811,2.50394 -30.3154,3.27756 -6.02835,0.498426 -9.83268,-2.11063 -9.83268,4.91575 0,23.0445 5.73544,46.5555 5.73544,70.4634 0,14.8323 10.0618,3.763 19.6642,2.45788 5.42835,-0.735827 17.0941,-2.53583 21.9851,-3.53386"/>
   <path id="_246323616" class="fil0 str1" d="M229.661 307.324c2.48386,15.8102 5.38229,29.2961 8.19331,44.2441 0.333071,1.77165 1.4752,7.82953 1.48583,14.9634"/>
   <path id="_246324144" class="fil0 str1" d="M205.081 341.737c11.778,0 43.9252,-2.16732 55.826,-4.9252"/>
   <path id="_246324264" class="fil0 str1" d="M261.616 298.311c1.44449,-0.115748 29.6752,-3.41575 35.2311,0 1.27677,0.786615 3.17953,26.2618 4.09725,31.1351 1.45512,7.74213 11.6988,32.6622 4.91575,36.0508 -7.26497,3.63071 -32.2299,10.0961 -39.3284,11.4709"/>
   <path id="_246323832" class="fil0 str1" d="M636.055 208.671c-17.5725,-0.889371 -40.1492,-11.1425 -40.1492,10.1646 0,18.8445 -0.0307087,39.7016 1.63937,58.1729 0.337796,3.75118 31.8284,2.14961 34.4882,2.14961"/>
   <path id="_246323952" class="fil0 str1" d="M631.958 248.332c4.8,0 38.7544,0.742914 46.1634,-1.54252"/>
   <path id="_246324072" class="fil0 str1" d="M682.756 212.281c1.73032,0 32.0492,-2.28307 33.5929,3.27756 1.81772,6.54213 -0.298819,28.5473 -1.63819,36.0508 -1.10906,6.21851 2.59843,29.002 -0.819686,30.3154 -4.09843,1.57559 -29.8429,0.0531496 -36.3662,0.102756"/>
  </g>
 </g>
</svg>
