<?xml version="1.0" encoding="UTF-8"?>
<!DOCTYPE svg PUBLIC "-//W3C//DTD SVG 1.1//EN" "http://www.w3.org/Graphics/SVG/1.1/DTD/svg11.dtd">
<!-- Creator: CorelDRAW -->
<svg xmlns="http://www.w3.org/2000/svg" xml:space="preserve" width="1000px" height="1000px" style="shape-rendering:geometricPrecision; text-rendering:geometricPrecision; image-rendering:optimizeQuality; fill-rule:evenodd; clip-rule:evenodd"
viewBox="0 0 1000 1000"
 xmlns:xlink="http://www.w3.org/1999/xlink">
 <defs>
  <style type="text/css">
   <![CDATA[
    .str0 {stroke:#1F1A17;stroke-width:0.900001}
    .str2 {stroke:#1F1A17;stroke-width:4.16693}
    .str1 {stroke:#1F1A17;stroke-width:8.33386}
    .fil0 {fill:none}
    .fil2 {fill:#1F1A17}
    .fil1 {fill:white}
   ]]>
  </style>
 </defs>
 <g id="Warstwa_x0020_1">
  <metadata id="CorelCorpID_0Corel-Layer"/>
  <rect class="fil0 str0" x="-5324.47" y="7886.71" width="1002.45" height="1002.45"/>
  <g id="_200508608">
   <path id="_246328272" class="fil1 str1" d="M436.757 383.347l0 335.771c130.925,83.2619 264.566,82.356 403.637,0l0 -340.301c214.204,-150.448 -611.814,-165.996 -403.637,4.52953z"/>
   <path id="_246328512" class="fil1 str1" d="M103.051 210.744l142.595 -42.1181c124.937,-0.121654 206.608,13.3831 143.08,61.578l5.43308 554.208c126.79,89.5572 -316.492,86.3115 -198.138,0l-2.89725 -492.629c-14.3162,-29.8406 -52.8591,-58.4304 -90.0721,-81.039z"/>
   <ellipse id="_246328488" class="fil1 str1" cx="280.189" cy="208.682" rx="135.752" ry="43.4407"/>
   <ellipse id="_246328416" class="fil1 str1" cx="279.097" cy="207.74" rx="117.056" ry="30.7328"/>
   <g>
    <path id="_246328344" class="fil1 str1" d="M712.642 236.806l25.2343 12.2622 -171.671 353.274c72.8835,143.673 -183.559,11.5913 -25.2331,-12.2622l171.67 -353.274z"/>
    <circle id="_246328608" class="fil1 str1" transform="matrix(0.843552 0.409917 -0.409917 0.843552 733.378 228.737)" r="26.504"/>
   </g>
   <path id="_246328584" class="fil1 str1" d="M337.749 488.848l87.7194 -29.361c76.8579,-0.0850394 127.099,9.33072 88.0182,42.9284l0.918898 106.273c421.115,391.179 -524.344,410.429 -120.91,1.81536l-0.337796 -65.1615c-8.80631,-20.8028 -32.517,-40.7327 -55.4091,-56.4945z"/>
   <ellipse id="_246328392" class="fil1 str1" cx="446.719" cy="487.411" rx="83.5102" ry="30.2833"/>
   <ellipse id="_246328752" class="fil1 str1" cx="444.964" cy="486.143" rx="66.4371" ry="19.8859"/>
   <path id="_246328320" class="fil0 str1" d="M724.164 281.255c78.9024,9.16772 134.329,30.7654 134.329,55.9359 0,33.4843 -98.0765,60.6367 -219.013,60.6367 -120.938,0 -219.013,-27.1524 -219.013,-60.6367 0,-33.4831 98.0753,-60.6355 219.013,-60.6355 17.9504,0 35.4,0.597638 52.0973,1.72559"/>
   <ellipse id="_246328824" class="fil1 str2" cx="460.287" cy="787.888" rx="164.713" ry="37.1056"/>
   <circle id="_246328560" class="fil2 str1" cx="366.153" cy="771.27" r="3.60719"/>
   <circle id="_200055568" class="fil2 str1" transform="matrix(0.124412 0.352506 -0.352506 0.124412 493.913 778.024)" r="9.64961"/>
   <circle id="_200056432" class="fil2 str1" transform="matrix(-0.291005 0.234639 -0.234639 -0.291005 453.507 842.651)" r="9.64961"/>
   <circle id="_200056336" class="fil2 str1" cx="355.202" cy="794.36" r="3.60719"/>
   <circle id="_199555520" class="fil2 str1" transform="matrix(0.124412 0.352506 -0.352506 0.124412 457.468 776.317)" r="9.64961"/>
   <circle id="_199555280" class="fil2 str1" transform="matrix(-0.291005 0.234639 -0.234639 -0.291005 436.269 823.986)" r="9.64961"/>
   <circle id="_199555592" class="fil2 str1" transform="matrix(-0.145086 0.344513 -0.344513 -0.145086 318.015 816.921)" r="9.64961"/>
   <circle id="_199555760" class="fil2 str1" cx="463.807" cy="871.717" r="3.60719"/>
   <circle id="_199555928" class="fil2 str1" transform="matrix(0.124412 0.352506 -0.352506 0.124412 524.174 769.195)" r="9.64961"/>
   <circle id="_199559096" class="fil2 str1" transform="matrix(0.124412 0.352506 -0.352506 0.124412 567.38 775.763)" r="9.64961"/>
   <circle id="_199558784" class="fil2 str1" transform="matrix(-0.291005 0.234639 -0.234639 -0.291005 428.702 857.684)" r="9.64961"/>
   <circle id="_199558712" class="fil2 str1" transform="matrix(-0.145086 0.344513 -0.344513 -0.145086 348.441 832.237)" r="9.64961"/>
   <circle id="_199558352" class="fil2 str1" cx="378.723" cy="830.865" r="3.60719"/>
   <circle id="_246139480" class="fil2 str1" transform="matrix(0.124412 0.352506 -0.352506 0.124412 512.292 807.27)" r="9.64961"/>
   <circle id="_246139408" class="fil2 str1" transform="matrix(-0.291005 0.234639 -0.234639 -0.291005 402.15 819.842)" r="9.64961"/>
   <circle id="_246142816" class="fil2 str1" cx="403.268" cy="768.062" r="3.60719"/>
   <circle id="_246143152" class="fil2 str1" transform="matrix(0.124412 0.352506 -0.352506 0.124412 502.059 882.009)" r="9.64961"/>
   <circle id="_246142720" class="fil2 str1" transform="matrix(0.124412 0.352506 -0.352506 0.124412 588.652 797.734)" r="9.64961"/>
   <circle id="_246143392" class="fil2 str1" transform="matrix(-0.291005 0.234639 -0.234639 -0.291005 440.186 886.975)" r="9.64961"/>
   <circle id="_246142624" class="fil2 str1" transform="matrix(-0.145086 0.344513 -0.344513 -0.145086 337.822 852.506)" r="9.64961"/>
   <circle id="_246141064" class="fil2 str1" cx="416.876" cy="795.937" r="3.60719"/>
   <circle id="_246139696" class="fil2 str1" transform="matrix(0.124412 0.352506 -0.352506 0.124412 487.533 834.065)" r="9.64961"/>
   <circle id="_246139984" class="fil2 str1" transform="matrix(0.124412 0.352506 -0.352506 0.124412 547.461 809.9)" r="9.64961"/>
   <circle id="_200505632" class="fil2 str1" transform="matrix(-0.291005 0.234639 -0.234639 -0.291005 398.537 855.287)" r="9.64961"/>
   <circle id="_200505608" class="fil2 str1" cx="480.076" cy="798.114" r="3.60719"/>
   <circle id="_200506232" class="fil2 str1" transform="matrix(0.124412 0.352506 -0.352506 0.124412 514.998 839.567)" r="9.64961"/>
   <circle id="_200505896" class="fil2 str1" transform="matrix(0.124412 0.352506 -0.352506 0.124412 580.35 852.462)" r="9.64961"/>
   <circle id="_200506184" class="fil2 str1" transform="matrix(-0.291005 0.234639 -0.234639 -0.291005 402.49 883.017)" r="9.64961"/>
   <circle id="_200502560" class="fil2 str1" cx="457.927" cy="813.833" r="3.60719"/>
   <circle id="_200502512" class="fil2 str1" transform="matrix(0.32919 -0.177124 0.177124 0.32919 320.499 789.545)" r="9.64961"/>
   <circle id="_200503232" class="fil2 str1" transform="matrix(0.124412 0.352506 -0.352506 0.124412 487.278 859.955)" r="9.64961"/>
   <circle id="_200503136" class="fil2 str1" transform="matrix(0.124412 0.352506 -0.352506 0.124412 539.071 865.619)" r="9.64961"/>
   <circle id="_200502584" class="fil2 str1" transform="matrix(-0.291005 0.234639 -0.234639 -0.291005 374.039 863.663)" r="9.64961"/>
  </g>
 </g>
</svg>
