<?xml version="1.0" encoding="UTF-8"?>
<!DOCTYPE svg PUBLIC "-//W3C//DTD SVG 1.1//EN" "http://www.w3.org/Graphics/SVG/1.1/DTD/svg11.dtd">
<!-- Creator: CorelDRAW -->
<svg xmlns="http://www.w3.org/2000/svg" xml:space="preserve" width="1000px" height="1000px" style="shape-rendering:geometricPrecision; text-rendering:geometricPrecision; image-rendering:optimizeQuality; fill-rule:evenodd; clip-rule:evenodd"
viewBox="0 0 1000 1000"
 xmlns:xlink="http://www.w3.org/1999/xlink">
 <defs>
  <style type="text/css">
   <![CDATA[
    .str1 {stroke:#1F1A17;stroke-width:4.16693}
    .str0 {stroke:#1F1A17;stroke-width:8.33386}
    .fil2 {fill:none}
    .fil3 {fill:#1F1A17}
    .fil1 {fill:white}
    .fil0 {fill:#F1D851}
   ]]>
  </style>
 </defs>
 <g id="Warstwa_x0020_1">
  <metadata id="CorelCorpID_0Corel-Layer"/>
  <circle class="fil0" cx="499.235" cy="501.716" r="485.835"/>
  <g id="_197931144">
   <path id="_229155432" class="fil1 str0" d="M468.149 378.713l0 321.218c125.249,79.6512 253.097,78.7855 386.142,0l0 -325.551c204.919,-143.926 -585.296,-158.801 -386.142,4.33347z"/>
   <path id="_229155576" class="fil1 str0" d="M148.908 213.591l136.414 -40.2922c119.522,-0.116929 197.653,12.8032 136.878,58.9087l5.19804 530.187c121.295,85.6737 -302.775,82.5698 -189.551,0l-2.77205 -471.277c-13.6949,-28.5473 -50.5678,-55.8981 -86.1674,-77.5264z"/>
   <ellipse id="_229155504" class="fil1 str0" cx="318.368" cy="211.618" rx="129.868" ry="41.5578"/>
   <ellipse id="_229154472" class="fil1 str0" cx="317.323" cy="210.717" rx="111.982" ry="29.4007"/>
   <g>
    <path id="_229154400" class="fil1 str0" d="M732.076 238.524l24.1394 11.7307 -164.229 337.961c69.7241,137.445 -175.603,11.0882 -24.1406,-11.7307l164.23 -337.961z"/>
    <circle id="_229154352" class="fil1 str0" transform="matrix(0.806988 0.392149 -0.392149 0.806988 751.912 230.803)" r="26.504"/>
   </g>
   <path id="_229154736" class="fil1 str0" d="M373.433 479.64l83.9174 -28.0878c73.526,-0.0814961 121.59,8.9256 84.2032,41.067l0.878741 101.667c402.861,374.224 -501.616,392.639 -115.669,1.7374l-0.322441 -62.3375c-8.42481,-19.9016 -31.1079,-38.9681 -53.0079,-54.0461z"/>
   <ellipse id="_229154448" class="fil1 str0" cx="477.679" cy="478.265" rx="79.8905" ry="28.9707"/>
   <ellipse id="_229154232" class="fil1 str0" cx="476" cy="477.053" rx="63.5574" ry="19.024"/>
   <path id="_229154256" class="fil2 str0" d="M743.098 281.045c75.4819,8.77087 128.506,29.4319 128.506,53.5122 0,32.0315 -93.8245,58.0075 -209.519,58.0075 -115.696,0 -209.521,-25.976 -209.521,-58.0075 0,-32.0315 93.8245,-58.0075 209.521,-58.0075 17.1721,0 33.8646,0.571654 49.839,1.65118"/>
   <ellipse id="_229154760" class="fil1 str1" cx="490.659" cy="765.719" rx="157.573" ry="35.4972"/>
   <circle id="_229154808" class="fil3 str0" cx="400.605" cy="749.82" r="3.45083"/>
   <circle id="_229154616" class="fil3 str0" transform="matrix(0.119019 0.337227 -0.337227 0.119019 522.827 756.282)" r="9.64961"/>
   <circle id="_229154064" class="fil3 str0" transform="matrix(-0.278391 0.224468 -0.224468 -0.278391 484.173 818.108)" r="9.64961"/>
   <circle id="_229154640" class="fil3 str0" cx="390.129" cy="771.91" r="3.45083"/>
   <circle id="_229154520" class="fil3 str0" transform="matrix(0.119019 0.337227 -0.337227 0.119019 487.962 754.649)" r="9.64961"/>
   <circle id="_229154208" class="fil3 str0" transform="matrix(-0.278391 0.224468 -0.224468 -0.278391 467.682 800.252)" r="9.64961"/>
   <circle id="_54717040" class="fil3 str0" transform="matrix(-0.138798 0.32958 -0.32958 -0.138798 354.554 793.493)" r="9.64961"/>
   <circle id="_195156176" class="fil3 str0" cx="494.027" cy="845.913" r="3.45083"/>
   <circle id="_195541384" class="fil3 str0" transform="matrix(0.119019 0.337227 -0.337227 0.119019 551.777 747.836)" r="9.64961"/>
   <circle id="_195541336" class="fil3 str0" transform="matrix(0.119019 0.337227 -0.337227 0.119019 593.11 754.119)" r="9.64961"/>
   <circle id="_229492320" class="fil3 str0" transform="matrix(-0.278391 0.224468 -0.224468 -0.278391 460.443 832.489)" r="9.64961"/>
   <circle id="_229492296" class="fil3 str0" transform="matrix(-0.138798 0.32958 -0.32958 -0.138798 383.66 808.145)" r="9.64961"/>
   <circle id="_229492248" class="fil3 str0" cx="412.63" cy="806.832" r="3.45083"/>
   <circle id="_229492344" class="fil3 str0" transform="matrix(0.119019 0.337227 -0.337227 0.119019 540.41 784.261)" r="9.64961"/>
   <circle id="_229054392" class="fil3 str0" transform="matrix(-0.278391 0.224468 -0.224468 -0.278391 435.042 796.287)" r="9.64961"/>
   <circle id="_229054176" class="fil3 str0" cx="436.112" cy="746.751" r="3.45083"/>
   <circle id="_229044624" class="fil3 str0" transform="matrix(0.119019 0.337227 -0.337227 0.119019 530.62 855.76)" r="9.64961"/>
   <circle id="_229055832" class="fil3 str0" transform="matrix(0.119019 0.337227 -0.337227 0.119019 613.46 775.138)" r="9.64961"/>
   <circle id="_229055688" class="fil3 str0" transform="matrix(-0.278391 0.224468 -0.224468 -0.278391 471.429 860.511)" r="9.64961"/>
   <circle id="_229056240" class="fil3 str0" transform="matrix(-0.138798 0.32958 -0.32958 -0.138798 373.502 827.535)" r="9.64961"/>
   <circle id="_229055040" class="fil3 str0" cx="449.13" cy="773.418" r="3.45083"/>
   <circle id="_229054920" class="fil3 str0" transform="matrix(0.119019 0.337227 -0.337227 0.119019 516.724 809.894)" r="9.64961"/>
   <circle id="_229055328" class="fil3 str0" transform="matrix(0.119019 0.337227 -0.337227 0.119019 574.055 786.777)" r="9.64961"/>
   <circle id="_197929512" class="fil3 str0" transform="matrix(-0.278391 0.224468 -0.224468 -0.278391 431.586 830.196)" r="9.64961"/>
   <circle id="_197929416" class="fil3 str0" cx="509.59" cy="775.501" r="3.45083"/>
   <circle id="_197929176" class="fil3 str0" transform="matrix(0.119019 0.337227 -0.337227 0.119019 542.999 815.158)" r="9.64961"/>
   <circle id="_197929224" class="fil3 str0" transform="matrix(0.119019 0.337227 -0.337227 0.119019 605.518 827.494)" r="9.64961"/>
   <circle id="_197929776" class="fil3 str0" transform="matrix(-0.278391 0.224468 -0.224468 -0.278391 435.367 856.724)" r="9.64961"/>
   <circle id="_197929632" class="fil3 str0" cx="488.402" cy="790.538" r="3.45083"/>
   <circle id="_197928456" class="fil3 str0" transform="matrix(0.314921 -0.169447 0.169447 0.314921 356.93 767.304)" r="9.64961"/>
   <circle id="_197928360" class="fil3 str0" transform="matrix(0.119019 0.337227 -0.337227 0.119019 516.48 834.662)" r="9.64961"/>
   <circle id="_197934216" class="fil3 str0" transform="matrix(0.119019 0.337227 -0.337227 0.119019 566.028 840.08)" r="9.64961"/>
   <circle id="_197931024" class="fil3 str0" transform="matrix(-0.278391 0.224468 -0.224468 -0.278391 408.149 838.209)" r="9.64961"/>
  </g>
 </g>
</svg>
