<?xml version="1.0" encoding="UTF-8"?>
<!DOCTYPE svg PUBLIC "-//W3C//DTD SVG 1.1//EN" "http://www.w3.org/Graphics/SVG/1.1/DTD/svg11.dtd">
<!-- Creator: CorelDRAW -->
<svg xmlns="http://www.w3.org/2000/svg" xml:space="preserve" width="1000px" height="1000px" style="shape-rendering:geometricPrecision; text-rendering:geometricPrecision; image-rendering:optimizeQuality; fill-rule:evenodd; clip-rule:evenodd"
viewBox="0 0 1000 1000"
 xmlns:xlink="http://www.w3.org/1999/xlink">
 <defs>
  <style type="text/css">
   <![CDATA[
    .str0 {stroke:#1F1A17;stroke-width:0.900001}
    .str2 {stroke:#1F1A17;stroke-width:8.33386}
    .str1 {stroke:#1F1A17;stroke-width:16.6665}
    .fil0 {fill:none}
    .fil1 {fill:white}
   ]]>
  </style>
 </defs>
 <g id="Warstwa_x0020_1">
  <metadata id="CorelCorpID_0Corel-Layer"/>
  <rect class="fil0 str0" x="-5324.47" y="7886.71" width="1002.45" height="1002.45"/>
  <g id="_246138184">
   <path id="_246670752" class="fil1 str1" d="M635.053 358.897c-20.3386,-34.4173 -86.0965,-146.156 -132.516,-129.399 -158.19,57.1016 -209.219,282.939 -188.642,434.968 10.1138,74.7296 176.883,213.885 246.326,219.823 144.456,12.3532 198.07,-377.87 154.343,-481.739 -14.4992,-34.4398 -7.76103,-70.7174 -35.8571,-93.5422 -53.8453,-43.7386 -57.1997,-20.8736 -24.9449,29.6221 46.5874,72.9296 -12.6225,23.3339 -18.7087,20.2666z"/>
   <path id="_246670608" class="fil0 str1" d="M195.408 377.606c8.48977,0 91.5272,-122.708 107.574,-138.754 43.2319,-43.2319 69.0331,-177.555 159.02,-104.454 29.9492,24.3295 108.597,4.67717 146.549,4.67717 76.8024,0 18.9756,95.9587 4.67717,120.045 -23.5654,39.6945 27.939,81.8694 55.3489,108.366 5.36811,2.65512 -8.77796,10.8366 -13.1953,7.13504 -99.2398,-83.1627 -14.2913,-104.894 56.0646,-142.005 143.457,-75.6709 59.2914,190.876 95.1013,268.153 36.9792,79.806 40.702,122.372 -18.7087,188.642 -47.4638,52.9465 -32.2973,162.223 -79.5107,190.201"/>
   <path id="_246670584" class="fil0 str2" d="M636.048 234.826c12.6827,-16.1102 32.387,-33.8528 39.4796,-52.9843 6.27402,-16.9276 7.27323,-33.1607 7.27323,-50.9079"/>
   <path id="_246670920" class="fil0 str2" d="M636.048 209.892c0,-17.4496 1.7563,-20.1024 -6.23268,-31.167 -5.3315,-7.38071 -8.24174,-9.42875 -15.5847,-13.5059 -8.3941,-4.66536 -16.1953,0.832678 -21.8173,-1.03937"/>
   <path id="_246670320" class="fil0 str2" d="M647.476 171.451c2.38229,-14.7662 9.45001,-37.7114 1.03937,-51.9461 -3.75355,-6.35197 -12.2303,-14.9917 -14.5453,-20.778"/>
   <path id="_246670968" class="fil0 str2" d="M635.01 148.596c-7.13623,-16.0595 -8.18623,-19.5591 -18.7004,-29.0906 -8.52757,-7.72796 -25.813,-14.5807 -38.4414,-11.4284"/>
   <path id="_246670488" class="fil0 str2" d="M595.53 140.284c-18.3555,6.7819 -13.3606,4.51654 -22.8567,12.4665 -13.4445,11.2559 -24.0059,20.8347 -40.5177,29.0906"/>
   <path id="_246670440" class="fil0 str2" d="M552.934 141.323c-14.5984,13.7398 -21.6,22.076 -38.4402,30.1288 -7.69961,3.68268 -19.4492,7.27323 -28.0512,7.27323"/>
   <path id="_246670416" class="fil0 str2" d="M583.063 144.439c-11.9327,-11.661 -23.752,-21.6638 -35.3244,-31.1681 -6.49371,-5.33386 -13.8921,-10.389 -22.8555,-10.389"/>
   <path id="_246670560" class="fil0 str2" d="M517.61 144.439c-7.75158,-8.03859 -9.60709,-10.9724 -14.5453,-18.7004 -3.24803,-5.08701 -9.46064,-9.79135 -14.5441,-14.5453 -4.27205,-3.99095 -13.0689,-10.1091 -14.5453,-14.5453"/>
   <path id="_246670704" class="fil0 str2" d="M486.442 141.323c-4.73268,5.1626 -36.0709,46.7079 -45.7122,39.4796"/>
   <path id="_246670200" class="fil0 str2" d="M471.898 141.323c-7.19528,-10.1185 -20.9315,-27.9142 -22.8567,-39.4796 -2.06575,-12.398 -12.4051,-16.598 -22.8567,-20.778"/>
   <path id="_246143128" class="fil0 str2" d="M556.05 141.323c-24.3083,-10.7587 -30.5941,-16.0488 -46.7516,-32.2063 -6.06969,-6.06969 -10.7398,-9.8693 -15.5835,-16.6228 -2.68465,-3.74174 -7.67245,-10.4587 -13.5059,-11.4284"/>
   <path id="_246143272" class="fil0 str2" d="M440.73 117.428c-13.0288,-8.11654 -20.4225,-14.2217 -31.1681,-20.7792 -14.8866,-9.0815 -36.7051,1.56024 -51.9461,7.27323"/>
   <path id="_200507456" class="fil0 str2" d="M425.146 107.039c-13.9524,17.9386 -21.411,23.3244 -25.9736,43.6347 -1.95118,8.67993 -2.6941,17.7142 -6.23386,25.9725"/>
   <path id="_200508176" class="fil0 str2" d="M389.822 122.622c-33.0591,9.29765 -14.2075,5.08347 -33.2457,3.11693 -18.815,-1.94528 -42.3886,12.261 -47.7898,31.1681"/>
   <path id="_246324456" class="fil0 str2" d="M364.888 143.4c-7.95355,18.561 -7.84607,14.537 -6.23268,30.1299 1.0748,10.4138 4.68189,15.2894 2.07756,25.9725 -2.24764,9.21142 -7.10316,17.4614 -9.35079,27.0118"/>
   <path id="_246324912" class="fil0 str2" d="M358.655 157.945c-27.3614,16.5827 -18.0142,8.18505 -29.0906,21.8173 -5.68111,6.99213 -8.67875,11.4224 -17.6622,14.5453 -6.53623,2.27362 -12.3154,3.26575 -17.661,7.27205"/>
   <path id="_246326448" class="fil0 str2" d="M322.292 188.074c-4.47874,23.354 -1.32638,26.7933 -18.7016,33.2457 -7.04174,2.61614 -14.8429,5.12363 -21.8173,8.31142 -2.85355,1.30394 -20.3941,9.81379 -20.778,10.3902"/>
   <path id="_246137848" class="fil0 str2" d="M339.953 187.036c-5.79685,20.6138 -6.26221,41.08 -12.4665,59.2182 -4.03819,11.8063 -11.7921,22.9004 -15.5847,34.2851"/>
   <path id="_246137608" class="fil0 str2" d="M297.358 245.216c-18.7547,8.80867 -18.1854,11.1921 -32.2075,12.4665 -10.4669,0.949607 -29.8654,9.32245 -32.2063,18.7004"/>
   <path id="_246137560" class="fil0 str2" d="M277.618 269.111c-0.826772,17.3646 -0.82441,22.1882 1.03819,36.3626 1.43976,10.9453 -1.20945,33.3319 -11.4272,38.4402"/>
   <path id="_246137872" class="fil0 str2" d="M254.762 294.045c-2.89252,22.5071 -4.24725,31.3642 1.03937,49.8685 3.09095,10.8201 -4.1563,24.5693 -4.1563,35.3233"/>
   <path id="_246137968" class="fil0 str2" d="M250.606 309.629c-9.98032,0 -37.2567,-3.32481 -48.8304,4.1563 -5.73662,3.7063 -6.49371,3.95788 -10.389,8.31142 -2.32323,2.59488 -8.85827,11.9575 -10.389,12.4665"/>
   <path id="_246137368" class="fil0 str2" d="M226.71 338.719c0.964961,22.2307 0.530315,33.2445 -4.15512,52.9855 -3.13465,13.2012 -5.19449,23.615 -5.19449,37.4008"/>
   <path id="_246137416" class="fil0 str2" d="M209.049 362.614c-6.79725,15.3496 -14.0008,35.2512 -21.8185,49.8685 -5.11772,9.57048 -13.0429,18.6118 -22.8555,23.8961"/>
   <path id="_246137992" class="fil0 str2" d="M201.776 368.848c-26.7992,14.889 -51.3697,36.5091 -76.8804,55.063"/>
   <path id="_246137680" class="fil1 str2" d="M604.881 478.974c-23.3268,-32.6575 -39.7536,-63.7808 -87.2705,-55.063 -77.8394,14.2807 -36.9,88.0005 -30.1288,130.905 5.11418,32.4047 -15.1748,58.6394 9.35079,86.2312 48.828,54.9319 106.891,-25.7339 126.749,-65.4532 8.91024,-17.8205 -1.02638,-44.4874 -9.35079,-59.2182 -5.5878,-9.88583 -5.54528,-33.365 -9.34961,-37.402z"/>
   <path id="_246138064" class="fil1 str2" d="M524.883 438.456c-63.5115,14.4827 -14.5453,84.6627 -14.5453,128.826 0,18.9225 -13.7811,90.2446 29.0894,70.6477 45.0874,-20.6126 78.3414,-71.478 60.2587,-121.554 -4.31811,-11.9587 -19.9028,-56.0197 -29.0906,-62.3363 -8.42835,-5.79213 -46.2331,-15.065 -45.7122,-15.5835z"/>
   <path id="_246138832" class="fil0 str2" d="M515.533 453.002c10.7776,-0.818505 75.0532,-0.377953 28.0512,10.389 -10.7303,2.45788 -40.8603,7.67481 -43.6347,17.6622 -3.86339,13.911 37.3701,4.58386 42.5953,4.15512 6.90591,-0.565748 16.1492,-4.21654 22.8567,0 14.1638,8.90198 10.3075,14.7 -4.1563,15.5835 -3.68386,0.225591 -48.3331,2.70118 -49.8685,6.23386 -3.99213,9.18426 28.9607,10.4126 29.0906,10.389 10.9654,-1.95 28.004,-4.84016 37.4008,-3.11575 8.95631,1.6441 13.1563,9.39095 2.07874,12.4665 -14.3847,3.99567 -31.7209,3.11693 -46.7516,3.11693 -7.4126,0 -10.7835,4.48583 -3.11693,7.27205 12.7406,4.63347 49.7185,-7.72914 55.063,5.19449 7.14567,17.2748 -31.2473,11.785 -39.4796,10.3902 -11.2311,-1.90276 -30.1063,4.16457 -11.4284,10.389 12.6059,4.20118 26.3693,-0.0885827 38.4402,6.23386 25.9299,13.5791 -42.7004,5.19449 -45.7122,5.19449 -21.4713,0 18.1217,11.6599 19.7398,12.4665 31.1882,15.5941 -10.7953,14.0173 -22.8567,17.6622 -7.69843,2.32677 12.5669,8.57481 15.5835,9.35079 12.7181,3.26811 -9.07324,12.6721 -13.5059,9.34961"/>
   <path id="_246138304" class="fil0 str2" d="M505.144 408.327c19.7457,-8.6067 54.678,-16.2957 72.7241,-2.07756 21.1358,16.6488 36.1985,41.8607 50.9079,64.4126 5.12835,7.86497 5.56418,29.0906 15.5835,29.0906 5.11063,0 9.57284,-9.00001 4.1563,-11.4284 -5.70237,-2.55473 -12.7772,6.41812 -5.19449,8.31142"/>
   <path id="_246138328" class="fil0 str2" d="M647.476 469.624c-15.3921,-35.6469 -60.5138,-87.0461 -97.6583,-97.6595 -25.0807,-7.16693 -39.724,19.6488 -60.2587,23.8949 -7.40197,1.53189 -27.2292,11.7378 -17.661,-5.19449 7.91457,-14.0032 17.4083,4.1563 -1.03937,4.1563"/>
   <path id="_246138808" class="fil0 str2" d="M497.87 352.225c-18.7323,19.4268 -0.0389764,9.31064 -6.23268,3.11693 -3.74528,-3.74528 -5.12244,7.27205 1.03819,7.27205 10.4669,0 21.5977,-7.20001 34.2851,-9.34961 33.678,-5.70709 43.1174,-1.55669 63.3745,18.7004 21.4016,21.4016 60.6804,41.0386 69.6083,69.6083 2.1378,6.83977 0.892914,17.6941 4.15512,23.8949 7.60867,14.452 20.7555,12.6225 11.4284,2.07756 -2.03386,-2.29843 -11.0882,-3.35197 -9.34961,3.11693 2.27008,8.45434 13.7504,-2.63858 3.11575,-4.15512"/>
   <path id="_246138568" class="fil0 str2" d="M562.284 327.291c-21.1996,4.07717 -40.526,9.73229 -62.3351,8.31142 -4.43268,-0.288189 -6.913,-1.44213 -9.35079,-5.19449 -1.43858,-2.21221 5.19449,0 5.19449,1.03937"/>
   <path id="_246138208" class="fil1 str2" d="M371.122 587.023c-7.95001,-5.36457 -16.7079,-16.2366 -20.778,-3.11693 -6.8315,22.0229 0.979135,33.639 9.34961,54.0248 3.97323,9.67324 6.07205,23.4236 17.6622,24.9343 20.4225,2.66103 21.6248,-24.8622 13.5059,-39.4796 -4.18701,-7.53662 -17.0162,-34.4162 -19.7398,-36.3626z"/>
   <path id="_246138472" class="fil1 str2" d="M571.635 778.185c-29.3079,-11.3717 -51.2741,-26.3055 -81.0367,-10.389 -3.39567,1.81536 -2.27008,13.252 -1.03937,15.5835 9.14292,17.3303 51.6993,12.4441 67.5308,20.7792 10.8201,5.6941 15.1276,-3.24331 18.7004,-10.389 3.07914,-6.15827 -3.97914,-11.9327 -4.15512,-15.5847z"/>
   <path id="_246138160" class="fil0 str2" d="M637.087 665.982c-24.091,-6.65552 -38.0752,-11.6764 -55.063,7.27205 -13.9536,15.5622 -10.4492,45.9142 3.11693,58.18 15.3059,13.8378 26.7461,19.291 45.7122,8.31142 18.7358,-10.8461 33.8611,-21.7158 28.0512,-46.7516 -3.77126,-16.2484 -11.9929,-31.7233 -31.1681,-25.9736"/>
  </g>
 </g>
</svg>
