<?xml version="1.0" encoding="UTF-8"?>
<!DOCTYPE svg PUBLIC "-//W3C//DTD SVG 1.1//EN" "http://www.w3.org/Graphics/SVG/1.1/DTD/svg11.dtd">
<!-- Creator: CorelDRAW -->
<svg xmlns="http://www.w3.org/2000/svg" xml:space="preserve" width="1000px" height="1000px" style="shape-rendering:geometricPrecision; text-rendering:geometricPrecision; image-rendering:optimizeQuality; fill-rule:evenodd; clip-rule:evenodd"
viewBox="0 0 1000 1000"
 xmlns:xlink="http://www.w3.org/1999/xlink">
 <defs>
  <style type="text/css">
   <![CDATA[
    .str0 {stroke:#1F1A17;stroke-width:0.900001}
    .str2 {stroke:#1F1A17;stroke-width:8.33386}
    .str1 {stroke:#1F1A17;stroke-width:16.6665}
    .fil0 {fill:none}
    .fil2 {fill:white}
    .fil1 {fill:#5FB250}
   ]]>
  </style>
 </defs>
 <g id="Warstwa_x0020_1">
  <metadata id="CorelCorpID_0Corel-Layer"/>
  <rect class="fil0 str0" x="-5324.47" y="7886.71" width="1002.45" height="1002.45"/>
  <circle class="fil1" cx="498.146" cy="498.146" r="485.835"/>
  <g id="_229058616">
   <path id="_229059528" class="fil2 str1" d="M598.595 344.459c-20.7484,-35.1107 -87.8304,-149.098 -135.186,-132.004 -161.373,58.2508 -213.429,288.634 -192.438,443.724 10.3181,76.2331 180.443,218.19 251.284,224.248 147.364,12.6012 202.057,-385.477 157.451,-491.436 -14.791,-35.1331 -7.91694,-72.1406 -36.58,-95.4249 -54.9284,-44.6197 -58.3512,-21.2941 -25.4469,30.2173 47.5264,74.3977 -12.8764,23.804 -19.0843,20.6752z"/>
   <path id="_229059504" class="fil0 str1" d="M150.099 363.545c8.65985,0 93.3698,-125.178 109.739,-141.547 44.1012,-44.1012 70.4221,-181.128 162.221,-106.557 30.5528,24.8197 110.783,4.77048 149.499,4.77048 78.3485,0 19.3571,97.891 4.77048,122.462 -24.039,40.4941 28.5012,83.5182 56.4638,110.548 5.47559,2.70945 -8.95513,11.0551 -13.461,7.27914 -101.238,-84.8363 -14.5784,-107.004 57.1937,-144.863 146.343,-77.1945 60.4843,194.718 97.0146,273.551 37.7233,81.4111 41.5217,124.836 -19.0854,192.44 -48.4193,54.0119 -32.9469,165.488 -81.1111,194.029"/>
   <path id="_229059456" class="fil0 str2" d="M599.61 217.891c12.9366,-16.4351 33.0378,-34.5355 40.2733,-54.052 6.4004,-17.2677 7.41969,-33.828 7.41969,-51.9319"/>
   <path id="_229059840" class="fil0 str2" d="M599.61 192.455c0,-17.8016 1.79173,-20.5075 -6.35906,-31.7953 -5.4378,-7.52953 -8.40709,-9.61772 -15.8977,-13.7776 -8.563,-4.75867 -16.5213,0.849213 -22.2567,-1.06063"/>
   <path id="_229059768" class="fil0 str2" d="M611.267 153.241c2.43071,-15.0638 9.64017,-38.4709 1.06063,-52.9926 -3.83032,-6.47953 -12.4772,-15.2929 -14.8382,-21.1961"/>
   <path id="_229060152" class="fil0 str2" d="M598.549 129.924c-7.27914,-16.3819 -8.3504,-19.9524 -19.0772,-29.6752 -8.69883,-7.88268 -26.3315,-14.8736 -39.2138,-11.6575"/>
   <path id="_229059960" class="fil0 str2" d="M558.276 121.446c-18.7252,6.9189 -13.6299,4.60748 -23.3162,12.7181 -13.7162,11.4815 -24.4902,21.254 -41.3339,29.6752"/>
   <path id="_229059480" class="fil0 str2" d="M514.822 122.505c-14.8914,14.0173 -22.0347,22.5201 -39.2138,30.7359 -7.85434,3.75709 -19.8414,7.41851 -28.6158,7.41851"/>
   <path id="_229060032" class="fil0 str2" d="M545.558 125.685c-12.1725,-11.8949 -24.2303,-22.0996 -36.0343,-31.7953 -6.62599,-5.44134 -14.1732,-10.598 -23.3173,-10.598"/>
   <path id="_229059432" class="fil0 str2" d="M478.787 125.685c-7.90749,-8.2004 -9.8008,-11.1933 -14.8382,-19.0772 -3.31418,-5.18859 -9.6508,-9.98859 -14.837,-14.837 -4.35827,-4.07244 -13.3323,-10.3134 -14.8382,-14.8382"/>
   <path id="_229059792" class="fil0 str2" d="M446.992 122.505c-4.82835,5.26654 -36.7973,47.6481 -46.6323,40.2744"/>
   <path id="_229060128" class="fil0 str2" d="M432.154 122.505c-7.33938,-10.3217 -21.352,-28.4764 -23.3162,-40.2733 -2.10591,-12.6484 -12.6543,-16.9335 -23.3162,-21.1973"/>
   <path id="_229059912" class="fil0 str2" d="M518.001 122.505c-24.7973,-10.976 -31.2095,-16.3725 -47.693,-32.8548 -6.19134,-6.19134 -10.9559,-10.0677 -15.8977,-16.9571 -2.7378,-3.81733 -7.82599,-10.6689 -13.7776,-11.6587"/>
   <path id="_229059024" class="fil0 str2" d="M400.36 98.1296c-13.2921,-8.28072 -20.8347,-14.5087 -31.7953,-21.1973 -15.1866,-9.26457 -37.4445,1.59213 -52.9926,7.41851"/>
   <path id="_229058952" class="fil0 str2" d="M384.462 87.5304c-14.2335,18.3 -21.8421,23.7945 -26.4969,44.5134 -1.99016,8.85473 -2.74843,18.0709 -6.35906,26.4957"/>
   <path id="_229059288" class="fil0 str2" d="M348.427 103.428c-33.7252,9.48544 -14.4933,5.18622 -33.9142,3.17953 -19.1941,-1.98425 -43.2426,12.5079 -48.7524,31.7953"/>
   <path id="_229058928" class="fil0 str2" d="M322.99 124.625c-8.11418,18.9343 -8.00316,14.8288 -6.35906,30.7347 1.09843,10.6252 4.77638,15.5988 2.12008,26.4969 -2.29252,9.39686 -7.24607,17.8122 -9.53859,27.5551"/>
   <path id="_229058688" class="fil0 str2" d="M316.631 139.462c-27.9107,16.9169 -18.3756,8.34922 -29.6752,22.2567 -5.79567,7.13268 -8.85355,11.6528 -18.0165,14.8382 -6.66851,2.31969 -12.5646,3.33189 -18.0177,7.41851"/>
   <path id="_229058904" class="fil0 str2" d="M279.538 170.198c-4.56851,23.824 -1.35354,27.3331 -19.0772,33.9154 -7.18465,2.66811 -15.1429,5.22638 -22.2567,8.47796 -2.91142,1.32992 -20.8051,10.011 -21.1973,10.5992"/>
   <path id="_229059264" class="fil0 str2" d="M297.554 169.139c-5.91378,21.0295 -6.38859,41.9067 -12.7181,60.4111 -4.11851,12.0425 -12.0284,23.3599 -15.8965,34.9748"/>
   <path id="_229059120" class="fil0 str2" d="M254.101 228.489c-19.1315,8.98583 -18.5516,11.4189 -32.8548,12.7181 -10.6784,0.969686 -30.4677,9.51024 -32.8559,19.0772"/>
   <path id="_229059096" class="fil0 str2" d="M233.965 252.866c-0.843308,17.713 -0.840946,22.6335 1.05945,37.0937 1.46811,11.1662 -1.23543,34.004 -11.6587,39.215"/>
   <path id="_229058760" class="fil0 str2" d="M210.647 278.302c-2.9504,22.9595 -4.33229,31.9949 1.06063,50.8725 3.15355,11.0374 -4.24016,25.063 -4.24016,36.0343"/>
   <path id="_229059192" class="fil0 str2" d="M206.408 294.2c-10.1811,0 -38.0067,-3.39213 -49.813,4.23898 -5.85119,3.78189 -6.62481,4.03701 -10.598,8.47914 -2.36929,2.64685 -9.03662,12.1973 -10.598,12.7181"/>
   <path id="_229058856" class="fil0 str2" d="M182.032 323.875c0.98504,22.6784 0.540945,33.9142 -4.23898,54.052 -3.19725,13.4669 -5.29961,24.091 -5.29961,38.1544"/>
   <path id="_229059000" class="fil0 str2" d="M164.015 348.252c-6.93426,15.6567 -14.2831,35.9599 -22.2567,50.8725 -5.22166,9.76182 -13.3063,18.9862 -23.3162,24.3756"/>
   <path id="_229058784" class="fil0 str2" d="M156.595 354.611c-27.339,15.1878 -52.4044,37.2437 -78.4276,56.1709"/>
   <path id="_229058808" class="fil2 str2" d="M567.814 466.954c-23.7969,-33.3154 -40.5532,-65.0658 -89.0268,-56.1721 -79.4068,14.5677 -37.6429,89.7709 -30.7359,133.54 5.21811,33.0567 -15.4795,59.8193 9.53859,87.9662 49.8119,56.0386 109.043,-26.2524 129.301,-66.7701 9.08977,-18.1784 -1.04764,-45.3827 -9.53859,-60.4099 -5.7,-10.0854 -5.65748,-34.037 -9.53859,-38.1544z"/>
   <path id="_229059216" class="fil2 str2" d="M486.206 425.62c-64.7882,14.7744 -14.837,86.367 -14.837,131.42 0,19.3028 -14.0587,92.0611 29.6752,72.0686 45.9945,-21.026 79.917,-72.9154 61.4705,-124 -4.40433,-12.1996 -20.3032,-57.1477 -29.6752,-63.5906 -8.59843,-5.90906 -47.1638,-15.3685 -46.6335,-15.8977z"/>
   <path id="_229058232" class="fil0 str2" d="M476.667 440.457c10.9949,-0.833859 76.565,-0.38504 28.6158,10.5992 -10.9453,2.50748 -41.6823,7.82835 -44.5134,18.0165 -3.94016,14.1921 38.1237,4.67717 43.454,4.24016 7.04528,-0.57756 16.474,-4.30158 23.3162,0 14.4484,9.08032 10.5154,14.9953 -4.23898,15.8977 -3.75827,0.229134 -49.3063,2.75433 -50.8725,6.35906 -4.07363,9.36851 29.5429,10.6217 29.6752,10.598 11.1862,-1.99016 28.5685,-4.93819 38.1544,-3.17953 9.13702,1.67717 13.4209,9.57993 2.12008,12.7181 -14.674,4.07599 -32.3599,3.17953 -47.693,3.17953 -7.56142,0 -11.0008,4.57678 -3.17953,7.41851 12.9969,4.72559 50.7189,-7.88386 56.1721,5.29961 7.28859,17.6209 -31.8756,12.0213 -40.2744,10.598 -11.4567,-1.94055 -30.7122,4.24843 -11.6587,10.598 12.8599,4.28622 26.8996,-0.0897639 39.215,6.35906 26.4508,13.8532 -43.5603,5.29961 -46.6335,5.29961 -21.9036,0 18.4866,11.8949 20.1366,12.7181 31.8166,15.9083 -11.0114,14.2996 -23.3162,18.0177 -7.85316,2.37402 12.8209,8.74725 15.8977,9.53859 12.9732,3.33307 -9.25631,12.9284 -13.7776,9.53859"/>
   <path id="_229058184" class="fil0 str2" d="M466.069 394.884c20.1437,-8.77914 55.7788,-16.624 74.1886,-2.1189 21.561,16.9843 36.9272,42.7028 51.9319,65.7095 5.23229,8.02323 5.67756,29.6752 15.8977,29.6752 5.21457,0 9.76654,-9.18072 4.24016,-11.6575 -5.81693,-2.60669 -13.0347,6.54686 -5.29961,8.47796"/>
   <path id="_229058064" class="fil0 str2" d="M611.267 457.415c-15.7016,-36.365 -61.7327,-88.7989 -99.6249,-99.6249 -25.5851,-7.31221 -40.5225,20.0445 -61.4705,24.3756 -7.55079,1.5626 -27.7772,11.974 -18.0177,-5.29843 8.07402,-14.2854 17.7603,4.23898 -1.05945,4.23898"/>
   <path id="_229058376" class="fil0 str2" d="M458.651 337.653c-19.1103,19.8177 -0.0401575,9.49843 -6.35906,3.17953 -3.82087,-3.81969 -5.2252,7.41969 1.05945,7.41969 10.6772,0 22.0323,-7.34528 34.9748,-9.53859 34.3559,-5.82284 43.9855,-1.58858 64.6501,19.0772 21.8327,21.8315 61.9016,41.8642 71.0091,71.0091 2.1815,6.97796 0.910631,18.0508 4.24016,24.3756 7.76103,14.7437 21.1736,12.8764 11.6575,2.12008 -2.0752,-2.34567 -11.3114,-3.41929 -9.53859,3.17953 2.31732,8.62442 14.0291,-2.69173 3.17953,-4.23898"/>
   <path id="_229058352" class="fil0 str2" d="M524.36 312.216c-21.626,4.15985 -41.341,9.92835 -63.5906,8.47914 -4.52008,-0.294095 -7.05119,-1.47047 -9.53859,-5.29961 -1.46693,-2.25709 5.29961,0 5.29961,1.06063"/>
   <path id="_229058088" class="fil2 str2" d="M329.349 577.177c-8.10946,-5.47323 -17.0433,-16.5638 -21.1961,-3.17953 -6.96851,22.4658 0.998032,34.3158 9.53859,55.1115 4.05237,9.86812 6.19371,23.8949 18.0165,25.4362 20.8335,2.71536 22.0606,-25.3618 13.7788,-40.2733 -4.27205,-7.68898 -17.3587,-35.1095 -20.1378,-37.0949z"/>
   <path id="_229057968" class="fil2 str2" d="M533.899 772.188c-29.8973,-11.6008 -52.3052,-26.8358 -82.6678,-10.598 -3.46299,1.85197 -2.31496,13.5177 -1.05945,15.8977 9.32717,17.6788 52.7386,12.6945 68.8902,21.1961 11.0374,5.80985 15.4311,-3.30827 19.0772,-10.598 3.14055,-6.28111 -4.05945,-12.1725 -4.24016,-15.8977z"/>
   <path id="_229058400" class="fil0 str2" d="M600.669 657.725c-24.5764,-6.78898 -38.8418,-11.9114 -56.1709,7.41969 -14.2347,15.8752 -10.6595,46.8378 3.17953,59.3504 15.6142,14.1165 27.2847,19.6795 46.6323,8.47914 19.1126,-11.0646 34.5425,-22.1528 28.6158,-47.693 -3.84803,-16.5768 -12.2339,-32.3622 -31.7953,-26.4957"/>
  </g>
 </g>
</svg>
