<?xml version="1.0" encoding="UTF-8"?>
<!DOCTYPE svg PUBLIC "-//W3C//DTD SVG 1.1//EN" "http://www.w3.org/Graphics/SVG/1.1/DTD/svg11.dtd">
<!-- Creator: CorelDRAW -->
<svg xmlns="http://www.w3.org/2000/svg" xml:space="preserve" width="1000px" height="1000px" style="shape-rendering:geometricPrecision; text-rendering:geometricPrecision; image-rendering:optimizeQuality; fill-rule:evenodd; clip-rule:evenodd"
viewBox="0 0 1000 1000"
 xmlns:xlink="http://www.w3.org/1999/xlink">
 <defs>
  <style type="text/css">
   <![CDATA[
    .str0 {stroke:#1F1A17;stroke-width:0.900001}
    .str2 {stroke:#1F1A17;stroke-width:8.33386}
    .str1 {stroke:#1F1A17;stroke-width:16.6665}
    .fil0 {fill:none}
    .fil1 {fill:white}
   ]]>
  </style>
 </defs>
 <g id="Warstwa_x0020_1">
  <metadata id="CorelCorpID_0Corel-Layer"/>
  <rect class="fil0 str0" x="-5324.47" y="7886.71" width="1002.45" height="1002.45"/>
  <g id="_282334072">
   <path id="_282337360" class="fil1 str1" d="M504.851 136.446l-88.7918 -1.1374 -63.7477 -46.6725 -25.0441 -2.84646c-4.58741,1.05827 -7.58505,1.40079 -10.8142,3.98386 -3.82323,3.0567 -5.25591,8.10119 -7.9689,10.8142 -1.69725,1.69843 -3.98386,14.2299 -3.98386,13.6606 -8.0504,2.68229 -22.9477,-16.3748 -42.1193,-11.9528 -17.9457,4.13859 -2.26181,21.8327 -22.7669,10.2449 -17.6646,-9.98269 -25.6311,-22.8248 -47.8111,-7.39843 -6.36851,4.42796 -14.2028,18.9579 -15.9366,25.6122 -3.27402,12.5622 2.08229,13.6323 5.12244,22.7669l46.1032 34.7209c0.937796,5.00433 0.569292,10.2661 0.569292,15.3673 0,2.52638 -0.146457,4.97008 0.569292,6.83032 0.861024,2.2441 2.36811,3.68622 2.84528,5.12244l72.1371 47.465 67.5875 1.13622c-1.8378,7.20119 -7.10552,12.5929 -7.10552,19.6996 0,4.85552 6.26103,13.0913 5.69174,13.0913l-33.0118 34.1504 -0.569292 9.67678c-35.0894,19.5862 5.29252,64.2319 30.4512,32.713 3.08386,-3.86221 15.1512,-11.6965 13.9146,-0.851575 -1.74567,15.3248 -4.44922,18.6898 8.23583,28.6819 7.47875,5.89134 27.9118,15.1252 31.8059,3.40748 1.60158,1.33347 0.90945,-2.68583 2.27126,0.851575 3.50315,9.1004 24.3473,10.2543 32.9422,5.96457 4.59685,-2.2937 9.53268,-5.83347 11.9268,-9.65552 1.42795,-2.28307 2.21929,-16.4386 5.96103,-16.9642l42.4276 -2.04921 1.69843 -39.4677c4.07126,0.27874 4.26969,-1.27205 6.99331,-3.99449 2.36929,-2.36929 4.51181,-5.27599 5.67874,-8.5193 0.840946,-2.33386 2.32205,-5.58308 2.84055,-7.66772l47.1402 24.7063 1.02756 114.649 -100.745 -14.2299 -190.675 36.9969 0.569292 40.9807 139.449 23.3362c-3.67796,12.2575 -11.3835,13.9547 -11.3835,27.3213 0,12.7146 25.8662,14.798 36.4264,14.798 7.813,0 14.6327,1.13858 22.7681,1.13858 5.74489,0 20.4898,-2.39173 20.4898,3.41457l1.70788 43.2579 -55.2107 0.569292c-8.06221,3.45236 -14.9173,4.10315 -21.0591,10.2449 -1.7315,1.73032 -2.61969,4.07599 -3.98504,6.26103 -1.45984,2.33504 0.809056,5.12244 -3.41457,5.12244 -7.97717,0 -10.8142,9.05198 -10.8142,17.6445 0,4.13622 5.59843,22.0441 1.13858,25.0441l-178.722 41.55 -0.569292 70.578 7.39961 4.55315 -0.285827 27.4252 270.349 84.6261 300.253 -91.5603 -1.13858 -30.1666 5.12244 -4.55433 1.70788 -67.1623 -79.1162 -61.4717 3.41575 -53.5028c15.1819,3.50315 19.7244,5.38111 30.7359,-2.27599 5.42953,-3.77599 13.6961,-15.0508 17.0528,-14.9764 25.1398,0.564567 34.1504,-9.59646 33.8681,-27.9473 -0.240945,-15.6697 -11.2996,-21.2658 -15.4831,-23.6303 -10.0311,-5.66575 -12.9461,2.47559 -12.9461,-11.6953 0,-26.8996 -28.0158,-39.0012 -52.089,-39.0012l-3.41575 -198.075 -202.627 -56.9174 75.1312 -6.83032 -3.41575 -45.5339 -96.7595 -61.4717z"/>
   <path id="_282337936" class="fil0 str2" d="M775.952 519.978c7.65355,8.49095 12.7677,17.5417 14.9421,31.1351m-8.37166 53.667c-8.14725,13.7669 -20.6362,22.5756 -34.6323,22.5756 -24.5433,0 -44.4473,-27.0839 -44.4473,-60.4796 0,-33.3969 19.904,-60.4808 44.4473,-60.4808 10.6406,0 20.4095,5.09292 28.0618,13.5827"/>
   <ellipse id="_282337432" class="fil0 str2" cx="795.451" cy="580.647" rx="22.6477" ry="27.6849"/>
   <line id="_282336592" class="fil0 str2" x1="374.407" y1="367.706" x2="414.724" y2= "325.153" />
   <line id="_282336568" class="fil0 str2" x1="421.553" y1="404.146" x2="427.887" y2= "326.025" />
   <line id="_282336472" class="fil0 str2" x1="469.434" y1="392.909" x2="480.887" y2= "334.357" />
   <path id="_282337192" class="fil0 str2" d="M531.583 327.159c2.06339,-12.8079 -47.0422,-38.0622 -57.5705,-43.5355 -21.5764,-11.2158 -40.291,-17.4484 -63.2977,-23.1992"/>
   <path id="_282336664" class="fil0 str2" d="M249.968 116.832c-14.6599,11.2949 -11.0563,57.6331 15.4701,43.9642 10.4055,-5.35985 20.4201,-15.3673 23.4921,-27.0107 1.06063,-4.01693 3.63662,-20.2878 -0.572835,-22.7008"/>
   <path id="_282337120" class="fil0 str2" d="M220.745 101.603c4.27323,18.2126 2.29961,23.8347 -6.8752,38.7922 -5.40591,8.81457 -16.063,18.3898 -25.7847,18.3898"/>
   <path id="_282336952" class="fil0 str2" d="M252.832 163.383c7.67363,7.14213 17.3882,14.0162 26.0717,19.8272 5.72363,3.82914 14.8571,8.21103 17.1898,15.2291"/>
   <path id="_282336688" class="fil0 str2" d="M299.817 113.385c8.39646,4.21063 16.3571,7.45158 23.2063,13.7929 4.23189,3.91654 9.00119,5.18504 13.1788,8.33268"/>
   <path id="_282336880" class="fil0 str2" d="M253.692 230.048c7.55434,-0.540945 16.7291,-1.35118 24.0662,-3.16181 6.52087,-1.60984 10.5591,-9.68623 15.4701,-10.9181"/>
   <path id="_282337096" class="fil0 str2" d="M374.019 147.579c0,8.97757 6.01654,18.0791 6.01654,27.8729 0,15.1642 -12.5327,29.8666 -23.4921,39.0792 -3.96614,3.33425 -28.9725,11.0268 -29.2229,11.7815"/>
   <polyline id="_195890128" class="fil0 str2" points="426.397,547.936 489.898,557.84 680.986,523.467 683.317,486.182 "/>
  </g>
 </g>
</svg>
