<?xml version="1.0" encoding="UTF-8"?>
<!DOCTYPE svg PUBLIC "-//W3C//DTD SVG 1.1//EN" "http://www.w3.org/Graphics/SVG/1.1/DTD/svg11.dtd">
<!-- Creator: CorelDRAW -->
<svg xmlns="http://www.w3.org/2000/svg" xml:space="preserve" width="1000px" height="1000px" style="shape-rendering:geometricPrecision; text-rendering:geometricPrecision; image-rendering:optimizeQuality; fill-rule:evenodd; clip-rule:evenodd"
viewBox="0 0 1000 1000"
 xmlns:xlink="http://www.w3.org/1999/xlink">
 <defs>
  <style type="text/css">
   <![CDATA[
    .str0 {stroke:#1F1A17;stroke-width:0.900001}
    .str1 {stroke:#1F1A17;stroke-width:16.6665}
    .fil0 {fill:none}
    .fil1 {fill:white}
    .fil2 {fill:#1F1A17;fill-rule:nonzero}
   ]]>
  </style>
 </defs>
 <g id="Warstwa_x0020_1">
  <metadata id="CorelCorpID_0Corel-Layer"/>
  <rect class="fil0 str0" x="-5324.47" y="7886.71" width="1002.45" height="1002.45"/>
  <g id="_246139264">
   <path id="_246144304" class="fil1 str1" d="M663.517 190.915c-191.112,-20.7213 -323.473,9.17363 -441.361,172.407 -265.32,367.38 406.082,710.378 655.145,231.024 86.5973,-166.665 -99.4064,-403.431 -213.784,-403.431z"/>
   <path id="_246144328" class="fil1 str1" d="M644.854 229.923c-167.426,-18.1524 -283.383,8.03741 -386.66,151.039 -232.436,321.848 355.754,622.336 573.949,202.393 75.8634,-146.01 -87.0875,-353.432 -187.289,-353.432z"/>
   <g>
    <path id="_246144640" class="fil2" d="M181.337 230.165l231.586 208.618 -5.56772 6.18426 -231.586 -208.618 5.56772 -6.18426zm-24.5327 -16.5l59.9835 20.4378 -1.60512 0.65315 -1.56969 0.686221 -1.53307 0.718111 -1.49764 0.751182 -1.45984 0.784253 -1.42559 0.816142 -1.3878 0.849213 -1.35236 0.882284 -1.31575 0.914174 -1.28032 0.947245 -1.24252 0.979135 -1.20709 1.01339 -1.17165 1.0441 -1.13504 1.07835 -1.09843 1.11024 -1.06181 1.14213 -1.02638 1.17638 -0.989765 1.20709 -0.954331 1.24134 -0.916536 1.27323 -0.881103 1.3063 -0.84567 1.33819 -0.809056 1.37126 -0.772442 1.40433 -0.735827 1.43622 -0.700394 1.46929 -0.66378 1.50236 -0.627166 1.53425 -0.591733 1.56732 -0.555119 1.59921 -0.518504 1.63228 -0.483071 1.66536 0 0 -26.5689 -57.5315z"/>
   </g>
   <g>
    <path class="fil2" d="M328.591 467.8l-206.958 -185.732 8.30079 -9.27639 206.958 185.732 -8.30079 9.27639zm36.7406 24.6095l-89.7898 -30.4051 2.4 -0.982678 2.34567 -1.02992 2.29134 -1.07953 2.23819 -1.12795 2.18268 -1.17638 2.12953 -1.22599 2.07402 -1.27441 2.01969 -1.32284 1.96654 -1.37126 1.91221 -1.42087 1.85669 -1.46929 1.80354 -1.51772 1.74803 -1.56614 1.69488 -1.61575 1.64055 -1.66299 1.58622 -1.7126 1.53189 -1.76221 1.47756 -1.80945 1.42205 -1.85906 1.3689 -1.90748 1.31575 -1.95591 1.26024 -2.00551 1.20591 -2.05394 1.15158 -2.10236 1.09724 -2.15079 1.04291 -2.19921 0.988583 -2.24882 0.935434 -2.29725 0.879922 -2.34567 0.826772 -2.39528 0.77126 -2.4437 0.71693 -2.49095 0 0 39.9071 85.989z"/>
   </g>
   <g>
    <path class="fil2" d="M719.47 431.912l-6.8693 4.68898 0 0 -4.27441 -5.75434 -4.63111 -5.35158 -4.97717 -4.92048 -5.27835 -4.52363 -5.57245 -4.12914 -5.82166 -3.70276 -6.06142 -3.31418 -6.2752 -2.90788 -6.46182 -2.5063 -6.62245 -2.10473 -6.75709 -1.72323 -6.86339 -1.31221 -6.96142 -0.917717 -7.00158 -0.525591 -7.06064 -0.135827 -7.04646 0.266929 -7.02402 0.65315 -6.97087 1.03583 -6.8941 1.41732 -6.79134 1.79528 -6.66024 2.17323 -6.50315 2.56299 -6.32126 2.91851 -6.11103 3.30709 -5.87481 3.65788 -5.63032 4.03937 -5.32441 4.3878 -5.02559 4.73268 -4.69961 5.10827 -4.33229 5.44961 -3.97087 5.82048 -3.54922 6.15827 -7.35827 -3.87402 3.8752 -6.71103 4.29685 -6.30945 4.72205 -5.93859 5.09174 -5.53111 5.44843 -5.15552 5.78032 -4.74685 6.05315 -4.33229 6.33071 -3.95079 6.56693 -3.53386 6.77717 -3.14764 6.95906 -2.72599 7.11615 -2.33386 7.24725 -1.92756 7.35001 -1.51417 7.42678 -1.09961 7.47756 -0.686221 7.50237 -0.266929 7.48583 0.135827 7.48819 0.558662 7.41733 0.981497 7.35237 1.40906 7.24607 1.82244 7.10906 2.26772 6.95079 2.7 6.76418 3.13701 6.5504 3.57402 6.30827 4.02874 6.02835 4.45512 5.73426 4.91339 5.4 5.37638 5.05394 5.80748 4.66654 6.27402 0 0zm16.9583 76.6123l-8.04095 -2.0504 0 0 0.445276 -1.95591 0.370866 -2.0126 0.284646 -2.06575 0.214961 -2.14725 0.15 -2.17559 0.0696851 -2.2441 -0.00826772 -2.29725 -0.0826772 -2.30788 -0.154725 -2.34921 -0.207874 -2.36811 -0.276378 -2.4 -0.341339 -2.39292 -0.419292 -2.41418 -0.445276 -2.43189 -0.520867 -2.41063 -0.575197 -2.41772 -0.627166 -2.40355 -0.661418 -2.38583 -0.725197 -2.36103 -0.752363 -2.33268 -0.797245 -2.30079 -0.851575 -2.26181 -0.872835 -2.21929 -0.908268 -2.17205 -0.940158 -2.12008 -0.955513 -2.06221 -0.996851 -2.00079 -1.00748 -1.93465 -1.02874 -1.86378 -1.03228 -1.77047 -1.06772 -1.68898 -1.06536 -1.60394 6.8693 -4.68898 1.19528 1.8 1.16457 1.88504 1.16221 1.96654 1.12795 2.02441 1.10433 2.09764 1.06299 2.16378 1.05236 2.2252 1.0063 2.28307 0.972048 2.33504 0.938977 2.38229 0.884646 2.42481 0.861024 2.46378 0.818505 2.49567 0.755906 2.52402 0.72756 2.54646 0.660237 2.56654 0.608268 2.58071 0.551575 2.60669 0.511418 2.59488 0.419292 2.61024 0.37441 2.61969 0.307087 2.59607 0.240945 2.59488 0.154725 2.57835 0.0826772 2.56772 0.00826772 2.52402 -0.0696851 2.5063 -0.15 2.49921 -0.248032 2.44016 -0.348425 2.42481 -0.437008 2.37166 -0.542126 2.3126 0 0zm-16.0311 48.5977l-6.99922 -4.45985 1.46575 -2.35512 1.36299 -2.26418 1.23543 -2.17441 1.14449 -2.07284 1.02638 -1.99134 0.930709 -1.91103 0.852757 -1.8189 0.751182 -1.76221 0.686221 -1.67599 0.608268 -1.60866 0.538583 -1.53071 0.470079 -1.48465 0.411024 -1.42677 0.35315 -1.37244 0.318898 -1.3063 0.257481 -1.28976 0.231496 -1.22835 0.212599 -1.20236 0.164173 -1.16575 0.140551 -1.15984 0.135827 -1.1126 0.119291 -1.11614 0.108662 -1.10433 0.103937 -1.09843 0.103937 -1.09488 0.10748 -1.09252 0.11811 -1.09488 0.148819 -1.1185 0.168898 -1.10906 0.194882 -1.13858 0.240945 -1.15276 0.276378 -1.15394 8.04095 2.0504 -0.210236 0.894095 -0.177165 0.892914 -0.161811 0.90945 -0.135827 0.946064 -0.11811 0.955513 -0.11811 0.998032 -0.10748 1.02874 -0.103937 1.06181 -0.103937 1.09843 -0.108662 1.1374 -0.119291 1.17992 -0.135827 1.24252 -0.17126 1.25906 -0.197244 1.32638 -0.212599 1.36536 -0.264567 1.42441 -0.32126 1.45276 -0.351969 1.53307 -0.419292 1.56851 -0.474804 1.62284 -0.536221 1.68071 -0.602363 1.75748 -0.67441 1.80473 -0.752363 1.86969 -0.848032 1.9252 -0.918898 2.01496 -1.02756 2.07402 -1.12323 2.15433 -1.21063 2.23583 -1.33228 2.30433 -1.42913 2.3941 -1.5626 2.48504zm-19.2024 22.3855l10.2543 -62.3705 0.907087 1.47284 0.933072 1.4315 0.959056 1.39016 0.98504 1.34882 1.01102 1.30866 1.03701 1.26732 1.06299 1.22717 1.09016 1.18465 1.11614 1.14449 1.14095 1.10315 1.16811 1.06299 1.19528 1.02165 1.22008 0.980316 1.24606 0.938977 1.27323 0.89882 1.29921 0.857481 1.32402 0.816142 1.35118 0.775985 1.37835 0.734646 1.40315 0.693308 1.42913 0.651969 1.4563 0.611812 1.48228 0.570473 1.50709 0.529134 1.53425 0.488977 1.56142 0.447638 1.58622 0.4063 1.61221 0.364961 1.63937 0.324803 1.66536 0.283465 1.69016 0.242126 1.71732 0.201969 0 0 -52.2367 35.5878z"/>
   </g>
   <g>
    <path class="fil2" d="M417.437 685.61l7.25906 -4.07008 0 0 4.56851 7.52008 4.87559 6.92953 5.19095 6.31772 5.45197 5.76142 5.70591 5.1815 5.91969 4.62638 6.14528 4.07953 6.32953 3.55748 6.5067 3.02599 6.64725 2.50512 6.77953 2.00669 6.88819 1.50236 6.97441 1.00394 7.05473 0.532678 7.11142 0.0519685 7.11142 -0.420473 7.12323 -0.884646 7.09371 -1.34055 7.05827 -1.80236 6.98504 -2.22638 6.90237 -2.6563 6.79725 -3.09449 6.65434 -3.50788 6.4878 -3.93189 6.31536 -4.31103 6.10158 -4.73268 5.88308 -5.09764 5.64095 -5.48504 5.35867 -5.85 5.05394 -6.20552 4.75985 -6.5693 4.40906 -6.92363 7.12914 4.26378 -4.6689 7.31575 -5.01969 6.95906 -5.37993 6.59528 -5.68465 6.20906 -5.96693 5.81103 -6.23977 5.42363 -6.49371 4.99252 -6.70512 4.60394 -6.91064 4.15866 -7.07717 3.73701 -7.22245 3.29055 -7.35827 2.85 -7.47166 2.38937 -7.54725 1.90158 -7.61575 1.4374 -7.64292 0.948426 -7.66418 0.453544 -7.63347 -0.0519685 -7.60749 -0.565748 -7.56024 -1.10079 -7.47402 -1.63228 -7.36536 -2.16969 -7.23308 -2.73189 -7.06182 -3.28819 -6.88229 -3.8504 -6.66497 -4.43622 -6.44174 -5.01851 -6.16182 -5.60434 -5.87481 -6.18426 -5.55 -6.8067 -5.23229 -7.38544 -4.86142 -8.0067 0 0zm-2.03268 -77.4426l7.87796 2.60551 0 0 -0.799607 2.46024 -0.768898 2.41536 -0.753544 2.37284 -0.702756 2.34685 -0.662599 2.32441 -0.622441 2.30315 -0.579922 2.26654 -0.533859 2.2311 -0.486615 2.23347 -0.434646 2.18504 -0.381496 2.18977 -0.324803 2.1626 -0.266929 2.13898 -0.204331 2.13189 -0.158268 2.12717 -0.090945 2.10709 -0.0212599 2.12244 0.0496063 2.10709 0.124016 2.09292 0.184252 2.09764 0.264567 2.10473 0.329528 2.11181 0.431103 2.13898 0.501969 2.13307 0.575197 2.14725 0.68504 2.16142 0.762993 2.19685 0.859843 2.21575 0.944883 2.23701 1.06417 2.27599 1.15276 2.30079 1.27677 2.32677 -7.25906 4.07008 -1.37599 -2.55591 -1.28268 -2.52756 -1.16102 -2.50512 -1.0748 -2.49685 -0.959056 -2.47559 -0.859843 -2.45669 -0.748819 -2.45669 -0.67441 -2.44016 -0.565748 -2.42599 -0.464174 -2.39882 -0.39567 -2.40473 -0.295276 -2.39764 -0.217323 -2.39055 -0.124016 -2.38583 -0.0496063 -2.36693 0.0212599 -2.35158 0.090945 -2.36693 0.158268 -2.35394 0.237402 -2.36103 0.297638 -2.36575 0.357874 -2.35866 0.414567 -2.35276 0.467717 -2.3811 0.517323 -2.36339 0.56693 -2.3941 0.612993 -2.39646 0.655512 -2.4 0.69567 -2.42126 0.733465 -2.44606 0.753544 -2.46969 0.801969 -2.4815 0.832678 -2.49331 0 0zm25.3146 -42.9697l7.22599 4.10079 -0.752363 1.31693 -0.79252 1.35827 -0.826772 1.37599 -0.857481 1.40906 -0.868111 1.43858 -0.908268 1.46339 -0.911812 1.48347 -0.947245 1.50118 -0.94252 1.49882 -0.95315 1.50945 -0.959056 1.51417 -0.961418 1.53425 -0.961418 1.51536 -0.957875 1.4941 -0.948426 1.50118 -0.938977 1.48819 -0.905906 1.45512 -0.904725 1.45158 -0.883465 1.41142 -0.842127 1.38307 -0.812599 1.35 -0.779528 1.30039 -0.744095 1.26024 -0.705119 1.21654 -0.661418 1.17047 -0.597638 1.10315 -0.550394 1.03228 -0.494882 0.97441 -0.421654 0.895276 -0.360237 0.798426 -0.297638 0.69567 -0.21378 0.574016 -7.87796 -2.60551 0.343701 -0.96378 0.394488 -0.988583 0.459449 -1.0252 0.518504 -1.05827 0.561024 -1.10433 0.614174 -1.16457 0.66378 -1.2 0.694489 -1.23425 0.735827 -1.28268 0.777166 -1.32638 0.812599 -1.36417 0.84567 -1.38307 0.872835 -1.41614 0.883465 -1.44213 0.904725 -1.45158 0.938977 -1.48819 0.938977 -1.48819 0.948426 -1.50118 0.957875 -1.52717 0.961418 -1.51536 0.961418 -1.50118 0.959056 -1.51417 0.95315 -1.50945 0.94252 -1.49882 0.914174 -1.46811 0.911812 -1.45276 0.87756 -1.43032 0.868111 -1.40551 0.82441 -1.37599 0.793701 -1.34528 0.759449 -1.29213 0.721654 -1.25079zm18.0484 -23.3669l-7.04882 62.8867 -0.982678 -1.42559 -1.00512 -1.38425 -1.0311 -1.34055 -1.05354 -1.29803 -1.07835 -1.25669 -1.10197 -1.21417 -1.12677 -1.17165 -1.15039 -1.12913 -1.17402 -1.08662 -1.19882 -1.0441 -1.22244 -1.00276 -1.24606 -0.960237 -1.27087 -0.917717 -1.29449 -0.875198 -1.31811 -0.832678 -1.34291 -0.790158 -1.36654 -0.748819 -1.39134 -0.705119 -1.41496 -0.66378 -1.43858 -0.62126 -1.46339 -0.578741 -1.48701 -0.537402 -1.51063 -0.493701 -1.53425 -0.452363 -1.56024 -0.408662 -1.58268 -0.367323 -1.60748 -0.324803 -1.6311 -0.283465 -1.65473 -0.239764 -1.67953 -0.198425 -1.70315 -0.154725 -1.72795 -0.113386 0 0 50.4 -38.2654z"/>
   </g>
   <circle class="fil1 str1" cx="492.506" cy="483.854" r="33.9809"/>
   <rect class="fil1 str1" transform="matrix(1.01926 0.614447 -0.614447 1.01926 654.821 576.645)" width="57.104" height="57.104"/>
  </g>
 </g>
</svg>
