<?xml version="1.0" encoding="UTF-8"?>
<!DOCTYPE svg PUBLIC "-//W3C//DTD SVG 1.1//EN" "http://www.w3.org/Graphics/SVG/1.1/DTD/svg11.dtd">
<!-- Creator: CorelDRAW -->
<svg xmlns="http://www.w3.org/2000/svg" xml:space="preserve" width="1000px" height="1000px" style="shape-rendering:geometricPrecision; text-rendering:geometricPrecision; image-rendering:optimizeQuality; fill-rule:evenodd; clip-rule:evenodd"
viewBox="0 0 1000 1000"
 xmlns:xlink="http://www.w3.org/1999/xlink">
 <defs>
  <style type="text/css">
   <![CDATA[
    .str0 {stroke:#1F1A17;stroke-width:0.900001}
    .str2 {stroke:#1F1A17;stroke-width:8.33386}
    .str1 {stroke:#1F1A17;stroke-width:16.6665}
    .fil0 {fill:none}
    .fil1 {fill:white}
   ]]>
  </style>
 </defs>
 <g id="Warstwa_x0020_1">
  <metadata id="CorelCorpID_0Corel-Layer"/>
  <rect class="fil0 str0" x="-5324.47" y="7886.71" width="1002.45" height="1002.45"/>
  <g id="_246328608">
   <path id="_246142816" class="fil1 str1" d="M86.7993 694.975c-16.2496,53.7508 19.337,84.9225 23.2299,126.475 2.41654,25.7929 -22.9299,72.7772 -11.185,73.9914 48.587,5.02323 50.0067,3.99449 60.2256,-43.0181 4.31339,-19.8437 13.7658,-97.3808 13.7658,-83.4568 0,28.8792 50.1886,14.4071 61.9477,18.9284 26.8524,10.3287 38.4685,31.5366 48.1807,56.7851 10.4906,27.2752 2.24528,30.4772 -22.3701,47.3197 -28.3536,19.402 9.15355,30.0945 28.3925,18.0673 19.1138,-11.9469 27.9414,-31.7988 33.554,-17.2063 4.09252,10.6406 14.9551,36.3851 33.554,21.5091 14.2358,-11.387 -16.3465,-91.7835 -16.3465,-118.732 0,-0.937796 -17.3091,-62.0091 -0.861024,-42.1583 6.47008,7.80709 16.3477,46.7563 16.3477,58.506 0,24.4925 12.0449,6.17599 12.0449,-10.3252 0,-77.1556 -58.9217,-108.013 -127.335,-123.893 -44.3032,-10.2827 -75.4902,-13.8201 -99.9213,-52.0607 -4.68426,-7.33229 -12.5776,-33.5339 -1.67953,-52.1079 6.39686,-10.9028 -16.0772,-14.5417 -27.4547,1.78465 -15.0295,21.5646 -31.7894,24.1831 -43.0181,1.72087 -3.37441,-6.74764 -18.1819,-20.2512 -18.2788,-14.2595 -0.164173,10.1138 -10.6193,14.8843 3.43937,26.7236 12.0768,10.1693 -18.2244,31.5638 0.21378,61.5272 10.0287,16.3016 33.554,28.7599 33.554,43.8792z"/>
   <path id="_246139408" class="fil0 str2" d="M104.867 876.513c8.2878,-13.9595 12.6744,-20.3811 15.4866,-36.1359 2.71418,-15.202 4.30276,-31.2059 4.30276,-46.4599 0,-9.6378 -5.67166,-33.3685 -10.3252,-39.5764"/>
   <path id="_246139480" class="fil0 str2" d="M177.998 740.575c0,10.9406 0.69567,17.5264 0,27.5315 -0.343701,4.92993 -2.61732,13.1102 -3.44173,18.0673"/>
   <path id="_199558352" class="fil0 str2" d="M265.757 741.435c-5.90788,8.46851 -17.1095,23.4213 -18.0685,32.6941 -0.916536,8.87953 5.05158,16.8543 9.46418,22.3701"/>
   <path id="_199558712" class="fil0 str2" d="M51.5245 634.75c-12.5894,-4.5378 -25.4764,-8.40355 -37.8567,-12.9059 -2.19803,-0.798426 -6.60119,-1.91811 -7.74331,-3.44173"/>
   <path id="_199558784" class="fil0 str2" d="M49.8036 640.772c-17.6646,1.11496 -25.1044,1.63583 -39.5776,3.44173"/>
   <path id="_199559096" class="fil0 str2" d="M61.8485 657.98c-16.1339,0.662599 -26.1307,0.629528 -38.7166,6.02245"/>
   <path id="_199555928" class="fil1 str1" d="M593.556 502.252c-22.298,-76.8119 67.3843,-113.306 49.0418,-166.051 -7.5815,-21.7984 11.2736,-49.8119 -1.72087,-62.8063 -18.7819,-18.7819 -9.06261,-37.6961 -33.554,-53.3433 -37.187,-23.7591 -47.0304,-101.969 7.74331,-61.9465 29.0988,21.2622 38.0374,58.2804 56.7839,85.1764 17.7189,25.4244 29.2524,-13.187 29.2524,-43.0181 0,-75.4205 132.636,-82.4835 72.2717,4.30158 -26.426,37.989 -59.726,41.7567 -43.0193,105.826 9.53859,36.58 -17.4638,56.8536 -5.16142,79.154 12.9177,23.4142 22.6087,43.0099 19.7882,73.1316 -1.49291,15.926 -3.59882,41.9504 0,58.5048 3.73347,17.1803 -58.3595,6.19843 -76.5733,-1.72087 -10.7315,-4.66536 -67.5142,-13.7457 -74.8524,-17.2075z"/>
   <path id="_199555760" class="fil0 str2" d="M640.016 352.549c17.6303,22.376 27.2138,29.2524 55.9241,29.2524 18.2103,0 38.2559,-12.6768 32.6941,-31.8343"/>
   <path id="_199555592" class="fil0 str2" d="M653.783 293.183c2.41181,3.56693 5.94686,6.0189 6.02245,10.324 0.0212599,1.29921 -4.19292,4.41142 -6.02245,2.58189 -0.775985,-0.775985 -1.39725,-1.53543 -1.72087,-2.58189 -0.692127,-2.23347 -1.44331,-4.02402 -0.861024,-6.88229 0.114567,-0.561024 0.466536,-0.445276 0.861024,-0.861024 2.67284,-2.81221 6.02245,1.8626 6.02245,4.30158 0,1.74921 -0.929528,2.75197 -2.58189,2.58189 -3.19843,-0.329528 -2.92205,-0.962599 -1.71969,-3.44173 0.890552,-1.84134 0.937796,-1.12441 1.71969,0 0.394488,0.568111 0.861024,1.02992 0.861024,1.72087 0,0.858662 -0.861024,2.58071 -0.861024,1.72087l0 -0.861024 -0.859843 0c-0.571654,0 0.180709,-1.17638 0,-1.72087 -1.37717,-4.13268 -4.54489,0.798426 -11.185,4.30276"/>
   <path id="_199555280" class="fil1 str2" d="M720.433 302.106c-1.52717,2.29134 -4.55788,3.5067 -3.44173,6.02363 0.279921,0.630709 1.3252,-0.292914 1.72087,-0.861024 0.394488,-0.568111 0.713386,-1.04528 0.859843,-1.72087 0.242126,-1.12087 0,-2.29488 0,-3.44173 0,-0.572835 0.290551,-1.22717 0,-1.72087 -0.605906,-1.0252 -0.940158,-1.67953 -1.72087,-2.58071 -0.37441,-0.431103 -1.14803,0 -1.72087,0l-0.859843 0 0 0.861024c0,0.862205 -1.70315,2.59961 -0.859843,3.44055l0.859843 0.861024c1.53071,1.52953 0.393307,1.72087 2.58071,1.72087l0.861024 0 0 -0.861024c0,-1.39725 1.10906,-1.01929 0.859843,-3.44173 -0.0637796,-0.630709 -0.891733,-2.58071 -1.72087,-2.58071 -0.827953,0 -1.65591,1.95 -1.72087,2.58071 -0.231496,2.24882 -0.146457,4.30276 2.58189,4.30276l0.859843 0c2.39764,0 -3.25276,-2.5252 0.861024,-2.58189z"/>
   <path id="_199555520" class="fil0 str2" d="M672.71 332.759c-41.452,-4.30512 -82.9749,-4.30158 -124.753,-4.30158"/>
   <path id="_200056336" class="fil0 str2" d="M663.247 345.665c-16.6488,3.13347 -33.3992,6.65197 -49.0418,12.0449 -4.35591,1.50236 -9.09095,3.10512 -13.7658,4.30276 -4.00158,1.0252 -9.65788,0.842127 -12.9059,3.44055"/>
   <path id="_200056432" class="fil0 str2" d="M667.549 361.152c-16.363,5.64922 -37.1988,13.0063 -52.4823,20.6492 -4.71024,2.35394 -29.2536,17.9929 -29.2536,18.9284"/>
   <path id="_200055568" class="fil0 str2" d="M730.355 331.038c30.4689,1.58386 59.6623,3.44173 90.339,3.44173"/>
   <path id="_246328560" class="fil0 str2" d="M800.045 374.918c-9.02127,-2.25236 -16.7421,-6.83623 -25.8107,-10.324 -14.4142,-5.5441 -30.117,-9.96143 -45.6,-14.6268 14.5051,35.674 4.63229,17.6693 18.9284,34.415 11.5016,13.474 22.4256,40.4611 37.8567,45.6"/>
   <path id="_246328824" class="fil0 str2" d="M320.116 886.5c13.4658,-25.4362 -3.19607,-42.7961 -5.16496,-63.9083 -0.916536,-9.83623 3.75,-18.2799 5.80985,-27.7583 2.50276,-11.5063 -1.37599,-20.3351 -3.87284,-30.3402"/>
   <path id="_246328320" class="fil0 str2" d="M700.021 379.092c3.78071,-4.03347 11.8784,-19.8945 5.13898,-23.4473 -5.57008,-2.93622 -19.2709,-9.44292 -19.2709,-16.3807"/>
   <path id="_246328752" class="fil0 str2" d="M706.766 355.002c2.11536,0 3.06969,0.32126 4.49646,-1.28504 1.74803,-1.96417 3.73347,-3.93662 5.13898,-6.42402 1.31575,-2.32914 2.89134,-3.04843 2.89134,-5.78032"/>
   <path id="_246328392" class="fil0 str2" d="M99.2457 632.015c18.6295,-42.0792 84.2398,-308.286 145.648,-150.897 49.2874,126.323 51.5457,337.402 190.26,115.469 21.9355,-35.0941 64.6064,-277.527 135.151,-128.59 75.8304,160.1 36.4607,351.899 198.134,97.0985 19.6689,-30.9992 48.0933,-151.275 89.2253,-125.966 18.3567,11.2949 38.8418,47.5004 48.5493,66.919 0.348425,0.698032 35.4284,85.0229 35.4284,70.8556"/>
   <path id="_246328584" class="fil0 str1" d="M162.18 618.885c18.6307,-28.6677 84.241,-210.034 145.648,-102.804 49.2874,86.0623 51.5469,229.87 190.262,78.6674 21.9343,-23.9091 64.6064,-189.077 135.15,-87.6072 75.8304,109.076 36.4607,239.747 198.134,66.1524 19.6689,-21.1193 48.0945,-103.063 89.2253,-85.8201 18.3579,7.69489 38.8429,32.3622 48.5493,45.5918 0.349607,0.475985 35.4284,57.926 35.4284,48.2741"/>
  </g>
 </g>
</svg>
