<?xml version="1.0" encoding="UTF-8"?>
<!DOCTYPE svg PUBLIC "-//W3C//DTD SVG 1.1//EN" "http://www.w3.org/Graphics/SVG/1.1/DTD/svg11.dtd">
<!-- Creator: CorelDRAW -->
<svg xmlns="http://www.w3.org/2000/svg" xml:space="preserve" width="1000px" height="1000px" style="shape-rendering:geometricPrecision; text-rendering:geometricPrecision; image-rendering:optimizeQuality; fill-rule:evenodd; clip-rule:evenodd"
viewBox="0 0 1000 1000"
 xmlns:xlink="http://www.w3.org/1999/xlink">
 <defs>
  <style type="text/css">
   <![CDATA[
    .str1 {stroke:#1F1A17;stroke-width:8.33386}
    .str0 {stroke:#1F1A17;stroke-width:16.6665}
    .fil2 {fill:none}
    .fil1 {fill:white}
    .fil0 {fill:#5FB250}
   ]]>
  </style>
 </defs>
 <g id="Warstwa_x0020_1">
  <metadata id="CorelCorpID_0Corel-Layer"/>
  <circle class="fil0" cx="498.146" cy="498.146" r="485.835"/>
  <g id="_229045536">
   <path id="_229047792" class="fil1 str0" d="M111.104 638.112c-15.0709,49.852 17.9351,78.7642 21.5457,117.302 2.24173,23.9221 -21.2669,67.5001 -10.3736,68.6256 45.0638,4.65945 46.3807,3.70512 55.8579,-39.8989 4.00158,-18.404 12.7677,-90.319 12.7677,-77.4036 0,26.7851 46.5485,13.3618 57.4548,17.5559 24.9047,9.57875 35.6799,29.2488 44.687,52.6666 9.72993,25.2981 2.08347,28.2662 -20.7473,43.8886 -26.2973,17.9953 8.48859,27.9118 26.3327,16.7575 17.7284,-11.0811 25.9158,-29.4933 31.1209,-15.9602 3.79607,9.87048 13.8709,33.7477 31.1209,19.95 13.2036,-10.5614 -15.1606,-85.128 -15.1606,-110.121 0,-0.870473 -16.0536,-57.5126 -0.798426,-39.1004 6,7.24016 15.1618,43.3654 15.1618,54.2622 0,22.7162 11.1709,5.72835 11.1709,-9.5752 0,-71.5619 -54.6485,-100.181 -118.1,-114.91 -41.0906,-9.53623 -70.0158,-12.8185 -92.6765,-48.2847 -4.3441,-6.80079 -11.6646,-31.102 -1.55788,-48.3296 5.93386,-10.1126 -14.9102,-13.487 -25.4622,1.65591 -13.9406,20.0008 -29.4851,22.4292 -39.8989,1.59567 -3.12992,-6.25867 -16.865,-18.7831 -16.9547,-13.226 -0.151181,9.38032 -9.84922,13.8047 3.19134,24.7866 11.2016,9.43111 -16.9028,29.2748 0.197244,57.065 9.30237,15.1193 31.1209,26.674 31.1209,40.6973z"/>
   <path id="_229047432" class="fil2 str1" d="M127.862 806.486c7.68662,-12.9484 11.7555,-18.9036 14.3634,-33.515 2.51811,-14.1 3.99095,-28.9441 3.99095,-43.0914 0,-8.93859 -5.26063,-30.9496 -9.57639,-36.7063"/>
   <path id="_229047408" class="fil2 str1" d="M195.69 680.405c0,10.148 0.646064,16.2555 0,25.5343 -0.318898,4.57323 -2.42717,12.1606 -3.19134,16.7575"/>
   <path id="_229047384" class="fil2 str1" d="M277.083 681.203c-5.47914,7.85434 -15.8681,21.7229 -16.7575,30.3236 -0.850394,8.23583 4.68544,15.6319 8.77796,20.7473"/>
   <path id="_229047720" class="fil2 str1" d="M78.3875 582.253c-11.6764,-4.20827 -23.6292,-7.7941 -35.1107,-11.9693 -2.03858,-0.740552 -6.12402,-1.77992 -7.18229,-3.19134"/>
   <path id="_229047360" class="fil2 str1" d="M76.7918 587.84c-16.3843,1.03347 -23.2843,1.51654 -36.7075,3.19134"/>
   <path id="_229046688" class="fil2 str1" d="M87.9627 603.799c-14.9634,0.614174 -24.2351,0.584646 -35.9091,5.58544"/>
   <path id="_229046592" class="fil1 str0" d="M581.113 459.365c-20.6811,-71.2418 62.4969,-105.089 45.4843,-154.01 -7.03111,-20.2181 10.4563,-46.1989 -1.59567,-58.252 -17.4201,-17.4201 -8.40591,-34.963 -31.1221,-49.4752 -34.4894,-22.0347 -43.6181,-94.5745 7.18229,-57.4536 26.9882,19.7197 35.2796,54.0544 52.6666,78.9993 16.4339,23.5807 27.1311,-12.2303 27.1311,-39.8989 0,-69.9497 123.018,-76.5012 67.03,3.98977 -24.5091,35.2347 -55.3949,38.7296 -39.8989,98.152 8.84646,33.9272 -16.1977,52.7304 -4.78819,73.4138 11.9823,21.7158 20.9705,39.8906 18.3543,67.8272 -1.38425,14.7709 -3.3378,38.9091 0,54.2622 3.46181,15.9343 -54.1276,5.74961 -71.0209,-1.59567 -9.95316,-4.32638 -62.6174,-12.7488 -69.4229,-15.9591z"/>
   <path id="_229046496" class="fil2 str1" d="M624.204 320.517c16.3512,20.7532 25.239,27.1311 51.8682,27.1311 16.8898,0 35.4815,-11.7567 30.3236,-29.5252"/>
   <path id="_229046400" class="fil2 str1" d="M636.971 265.457c2.23701,3.30827 5.51693,5.58308 5.58544,9.57639 0.0212599,1.20354 -3.88819,4.09134 -5.58544,2.39292 -0.719292,-0.718111 -1.29567,-1.42205 -1.59567,-2.39292 -0.64252,-2.07166 -1.33819,-3.73229 -0.798426,-6.38386 0.105118,-0.519685 0.432284,-0.413386 0.798426,-0.798426 2.47795,-2.60906 5.58544,1.72677 5.58544,3.98977 0,1.62165 -0.861024,2.55236 -2.3941,2.3941 -2.96693,-0.305906 -2.71063,-0.892914 -1.59567,-3.19134 0.826772,-1.70788 0.870473,-1.0441 1.59567,0 0.364961,0.525591 0.798426,0.954331 0.798426,1.59567 0,0.797245 -0.798426,2.3941 -0.798426,1.59567l0 -0.798426 -0.797245 0c-0.531496,0 0.166536,-1.09134 0,-1.59567 -1.27795,-3.83386 -4.21654,0.740552 -10.3748,3.98977"/>
   <path id="_229046640" class="fil1 str1" d="M698.788 273.734c-1.41614,2.12362 -4.22717,3.25276 -3.19252,5.58544 0.259843,0.584646 1.22953,-0.271654 1.59567,-0.798426 0.367323,-0.525591 0.662599,-0.969686 0.798426,-1.59567 0.22441,-1.03937 0,-2.12835 0,-3.19134 0,-0.531496 0.269292,-1.13858 0,-1.59567 -0.562205,-0.951969 -0.871654,-1.55788 -1.59567,-2.3941 -0.348425,-0.400394 -1.06536,0 -1.59567,0l-0.798426 0 0 0.797245c0,0.800788 -1.57914,2.41181 -0.798426,3.19252l0.798426 0.797245c1.41969,1.41969 0.364961,1.59685 2.3941,1.59685l0.797245 0 0 -0.798426c0,-1.29567 1.02992,-0.944883 0.798426,-3.19134 -0.0590552,-0.587008 -0.826772,-2.3941 -1.59567,-2.3941 -0.768898,0 -1.53662,1.80709 -1.59567,2.3941 -0.214961,2.08465 -0.135827,3.98977 2.39292,3.98977l0.798426 0c2.22402,0 -3.01654,-2.34213 0.798426,-2.3941z"/>
   <path id="_229047024" class="fil2 str1" d="M654.527 302.164c-38.4473,-3.99449 -76.9595,-3.98977 -115.707,-3.98977"/>
   <path id="_229046520" class="fil2 str1" d="M645.749 314.133c-15.4417,2.90551 -30.9768,6.17008 -45.4855,11.1721 -4.03937,1.39252 -8.4319,2.87953 -12.7677,3.98977 -3.71103,0.950788 -8.95749,0.780709 -11.9693,3.19134"/>
   <path id="_197931120" class="fil2 str1" d="M649.739 328.497c-15.176,5.23937 -34.5012,12.0638 -48.6768,19.1516 -4.36772,2.18268 -27.1311,16.6878 -27.1311,17.5559"/>
   <path id="_197934192" class="fil2 str1" d="M707.991 300.567c28.2591,1.46811 55.3347,3.19252 83.7875,3.19252"/>
   <path id="_229057920" class="fil2 str1" d="M772.627 341.264c-8.36694,-2.08937 -15.528,-6.34016 -23.9386,-9.5752 -13.3701,-5.14134 -27.9331,-9.23977 -42.2929,-13.5662 13.4516,33.0874 4.29567,16.3878 17.5547,31.9193 10.6677,12.4973 20.7992,37.526 35.1118,42.2929"/>
   <path id="_229058592" class="fil2 str1" d="M327.501 815.748c12.489,-23.5925 -2.96457,-39.6933 -4.79055,-59.2748 -0.850394,-9.12284 3.47835,-16.9547 5.38937,-25.7445 2.31969,-10.6724 -1.27677,-18.861 -3.59292,-28.141"/>
   <path id="_229059600" class="fil2 str1" d="M679.857 345.135c3.50551,-3.74055 11.0162,-18.4512 4.76575,-21.7465 -5.16615,-2.72244 -17.8736,-8.75788 -17.8736,-15.1925"/>
   <path id="_229058136" class="fil2 str1" d="M686.112 322.793c1.96181,0 2.84764,0.297638 4.17048,-1.19173 1.62047,-1.82244 3.46299,-3.65079 4.76693,-5.95867 1.22008,-2.16024 2.6811,-2.82756 2.6811,-5.36221"/>
   <path id="_229046328" class="fil2 str1" d="M122.648 579.719c17.2795,-39.0284 78.1312,-285.93 135.086,-139.954 45.7122,117.162 47.8075,312.933 176.463,107.094 20.3445,-32.5488 59.9221,-257.4 125.349,-119.264 70.3323,148.489 33.8173,326.38 183.765,90.0568 18.2433,-28.7504 44.6067,-140.304 82.7552,-116.831 17.0268,10.4752 36.0248,44.0563 45.0284,62.067 0.323622,0.646064 32.8595,78.8564 32.8595,65.7166"/>
   <path id="_229058496" class="fil2 str0" d="M181.018 567.54c17.2795,-26.5902 78.1323,-194.803 135.086,-95.3505 45.7134,79.8225 47.8075,213.201 176.463,72.9638 20.3445,-22.1752 59.9221,-175.367 125.35,-81.2552 70.3312,101.166 33.8162,222.362 183.764,61.356 18.2433,-19.5874 44.6067,-95.5891 82.7564,-79.5969 17.0256,7.13741 36.0248,30.0154 45.0284,42.2859 0.322441,0.440552 32.8583,53.7248 32.8583,44.7733"/>
  </g>
 </g>
</svg>
