<?xml version="1.0" encoding="UTF-8"?>
<!DOCTYPE svg PUBLIC "-//W3C//DTD SVG 1.1//EN" "http://www.w3.org/Graphics/SVG/1.1/DTD/svg11.dtd">
<!-- Creator: CorelDRAW -->
<svg xmlns="http://www.w3.org/2000/svg" xml:space="preserve" width="1000px" height="1000px" style="shape-rendering:geometricPrecision; text-rendering:geometricPrecision; image-rendering:optimizeQuality; fill-rule:evenodd; clip-rule:evenodd"
viewBox="0 0 1000 1000"
 xmlns:xlink="http://www.w3.org/1999/xlink">
 <defs>
  <style type="text/css">
   <![CDATA[
    .str2 {stroke:#1F1A17;stroke-width:4.16693}
    .str0 {stroke:#1F1A17;stroke-width:8.33386}
    .str1 {stroke:#1F1A17;stroke-width:16.6665}
    .fil2 {fill:none}
    .fil3 {fill:#1F1A17}
    .fil1 {fill:white}
    .fil0 {fill:#5FB250}
   ]]>
  </style>
 </defs>
 <g id="Warstwa_x0020_1">
  <metadata id="CorelCorpID_0Corel-Layer"/>
  <circle class="fil0" cx="498.146" cy="498.146" r="485.835"/>
  <g id="_229060152">
   <path id="_197935488" class="fil1 str0" d="M276.272 302.938c47.5087,-30.541 82.3323,8.50394 134.656,-6.02953 43.8567,-12.1807 32.341,-23.4792 62.3044,-42.2055 35.5902,-22.2437 25.787,47.8949 30.1477,52.2556 46.2178,46.2178 60.1158,-45.0343 56.2737,-78.3827 -1.8248,-15.841 -1.91339,-61.3028 4.20827,-78.3886 6.51615,-18.1914 19.4043,-6.77127 21.9201,20.1047 3.68622,39.378 -2.03622,158.492 40.1953,140.686 75.1902,-31.7032 116.875,-1.8 176.863,6.02953 38.1626,-8.89961 -24.5457,128.612 0,190.931 15.1524,38.4697 12.9626,127.723 -14.0693,154.755 -39.5315,39.5315 -89.354,-7.70197 -136.667,30.1465 -25.6666,20.5335 -47.6091,81.7182 -88.4304,86.4213 -35.7969,4.12559 -217.092,46.2048 -233.138,36.1772 -26.6988,-16.6878 -142.696,-46.3122 -142.696,-78.3827 0,-86.7261 163.59,-145.86 128.628,-196.961 -16.1173,-23.5583 -59.2843,-81.4075 -44.2158,-120.588 5.98819,-15.5717 18.1051,-50.7367 16.0784,-68.3339 -1.22126,-10.5969 -6.75709,-51.1004 -12.0591,-48.2351z"/>
   <path id="_197931384" class="fil2 str0" d="M189.487 746.606c-15.7417,5.50867 -33.6744,14.0599 -50.2146,14.0599 -13.3299,0 -16.3512,-2.85827 -25.1067,-10.0429 -7.02756,-5.76497 -26.3693,-19.2969 -34.1457,-21.0898 -7.62757,-1.75866 -22.4256,2.22992 -29.1248,0"/>
   <path id="_197930616" class="fil2 str0" d="M786.034 667.267c17.1496,11.0976 29.1697,24.7406 44.1886,33.1418 5.77205,3.22796 16.363,7.45867 23.0977,8.03386 2.43307,0.207874 20.3776,-4.88859 21.091,-7.02993 13.9878,0 28.2378,-10.0429 44.1886,-10.0429 6.75827,0 38.6209,5.66339 41.1756,-2.00788"/>
   <path id="_197930376" class="fil1 str0" d="M453.615 469.422c-65.693,-32.8453 -101.531,62.615 -82.3524,112.48 8.98347,23.3587 13.5236,27.3756 33.1418,40.1717 93.1205,60.7205 157.009,-98.7603 49.2107,-152.652z"/>
   <path id="_197930184" class="fil1 str0" d="M403.4 380.041c-16.3642,-6.90237 -18.6933,-8.34449 -30.1288,-14.061 -3.40748,-1.70315 -29.9953,-12.4583 -32.1366,-6.02481 -2.62677,0 -4.35591,0.343701 -5.02205,3.01299 -3.75827,1.87795 -2.81221,6.09095 -5.02087,9.0378 0.960237,1.9252 1.00394,2.58898 1.00394,5.02205 1.58977,0.527953 1.50354,3.76418 4.01693,5.02087 0.559843,2.2441 1.8815,3.16299 4.01693,4.01693 1.22362,4.89922 12.8811,6.50315 14.0599,10.0429 1.91811,0.478347 5.52874,1.51654 6.02599,3.01299 2.18032,0 4.44449,0.276378 5.02205,2.00906 6.09922,0 11.237,0.485433 17.0728,0 6.59528,-0.548032 12.4004,-1.00512 19.0807,-1.00512 1.02047,-1.52953 1.8437,-1.00394 4.01693,-1.00394 0.302362,-0.910631 5.11536,-5.72363 6.02599,-6.02599l0 -8.03386c-1.54961,-0.516142 -1.00394,0.034252 -1.00394,-2.00906l-1.00394 -1.00394 -2.00906 0c-0.516142,-1.54961 0.034252,-1.00394 -2.00906,-1.00394 -0.575197,-1.73032 -2.13425,-0.597638 -2.00788,-1.00394z"/>
   <path id="_197930256" class="fil1 str0" d="M689.621 420.212c-3.61181,4.35945 -9.43702,10.0358 -11.0469,14.061 -3.1441,1.04646 -6.06733,10.7268 -10.0429,12.0508 0,2.04449 -3.49016,8.27245 -5.02205,9.03898 0,3.09095 -1.00394,6.33544 -1.00394,10.0429 1.55079,0.516142 1.00394,-0.034252 1.00394,2.00788l1.00512 2.00906c1.2189,0.405118 2.59488,2.34213 3.01299,4.01693 2.11654,0.422835 2.15433,0.291733 3.01299,2.00906 2.18032,0 4.44449,0.276378 5.02087,2.00788 4.36654,0 11.5878,0.392126 13.0559,-4.01693 4.50945,-1.12559 16.0689,-24.0709 16.0689,-30.1288 4.39843,-1.46457 1.00394,-14.2299 1.00394,-18.0768 -1.67835,-0.558662 -1.00394,-2.03386 -1.00394,-4.01693 -1.44803,-0.48189 -2.56181,-4.21654 -3.01299,-6.02599 -4.82953,-1.20591 -3.62835,-2.35512 -9.03898,-1.00394 -0.322441,1.28858 -0.682678,1.72323 -1.00394,3.01181 -1.96063,0.65315 -0.0484252,0.351969 -2.00906,1.00512 -0.32126,1.28976 -0.681497,1.72323 -1.00394,3.01299 -1.96063,0.651969 -0.0484252,0.350788 1.00394,-1.00512z"/>
   <path id="_197929488" class="fil1 str0" d="M630.369 617.052c0.810237,-13.2413 3.0378,-26.2524 -7.02993,-33.1406 -2.51339,-1.71969 -11.961,-5.02205 -15.065,-5.02205 -12.2787,0 -13.4764,16.9394 -11.0469,28.1197 1.92402,8.85237 0,17.7473 0,25.1079 0,14.6516 17.1142,19.2532 24.1028,9.0378 1.02638,-1.49882 3.34252,-6.27638 4.01693,-8.03386 1.48228,-3.85512 -1.08307,-6.95079 2.00906,-10.0429 0.661418,-0.661418 6.37441,-4.9063 3.01299,-6.02599z"/>
   <path id="_197929992" class="fil2 str0" d="M334.103 706.434c-1.76811,-0.408662 -17.9374,-1.58858 -19.0807,-5.02205 -10.6724,0 -19.7421,-6.02599 -30.1288,-6.02599 -0.650788,-1.95473 -7.29331,-1.00394 -10.0429,-1.00394l-2.00906 1.00394c-0.486615,1.46457 -0.347244,0.764174 -2.00788,2.00906 0,4.43032 0.290551,7.76812 1.00394,12.052 1.86851,0.62126 3.56103,5.64213 7.02993,7.02993 1.44331,4.33465 18.0272,10.1787 23.0988,11.0469 10.0394,1.71969 18.913,3.01299 29.1248,3.01299 0.379134,-1.14213 10.7032,-2.00906 13.0547,-2.00906 0.446457,-1.34055 1.32874,-1.5874 3.01299,-2.00788 0.461811,-1.84725 0.162992,-1.54843 2.00906,-2.00906 0,-3.77126 -0.197244,-5.80276 -1.00394,-9.03898 -0.977954,-0.323622 -2.68937,-2.03504 -3.01299,-3.01299l-2.00906 0c-0.418111,-1.25433 -3.15709,-2.00788 -5.02087,-2.00788 -0.612993,-1.8378 -6.4441,-2.00906 -9.03898,-2.00906 -0.539764,-1.61929 -1.08425,-1.00394 -3.01299,-1.00394l0 0"/>
   <path id="_229047264" class="fil2 str0" d="M457.631 643.164c4.20945,33.2173 2.23229,64.878 -16.0689,90.3863 -4.48465,6.25158 -11.0374,14.0504 -17.0728,20.0858 -12.8717,12.8705 -10.0429,30.3461 -10.0429,50.2134"/>
   <path id="_229058400" class="fil2 str0" d="M472.695 637.138c6.52796,32.6386 4.00512,25.4398 6.02599,26.1118 0,17.7874 5.32914,33.111 -4.01693,48.2055 -5.59371,9.03662 -24.1028,27.3496 -24.1028,37.1587 -10.2839,3.4252 -3.79016,43.1469 -3.01299,52.2237"/>
   <path id="_229057968" class="fil2 str0" d="M493.785 634.125c6.3815,45.3874 26.3008,105.45 78.3355,105.45 2.15788,6.48308 26.3197,-7.58505 28.1197,-8.03386 0.681497,-2.73189 5.92087,-5.62087 8.03386,-7.02993l-2.00788 0"/>
   <path id="_229058088" class="fil2 str0" d="M494.79 481.473c3.23859,-5.74725 8.07048,-15.5055 12.0508,-22.0937 1.18701,-1.96181 3.82087,-7.63465 5.02205,-8.03386 0,-2.70236 1.24252,-8.45079 3.01299,-9.03898 0,-17.9705 8.76733,-38.4792 5.02087,-57.2445 -3.64488,-18.248 11.6646,-31.5744 15.065,-45.1926 1.77756,-0.444095 10.9134,-11.3504 12.0508,-13.0559"/>
   <path id="_229058352" class="fil2 str0" d="M514.876 502.564c10.7587,-27.3886 21.9638,-42.0721 42.1796,-61.2615 17.2772,-16.3984 49.9394,-27 53.2276,-52.2237 1.52008,-11.6705 5.58071,-21.8835 11.0469,-31.1327 3.70394,-6.2693 22.0949,-21.0898 21.0898,-20.0858"/>
   <path id="_229058376" class="fil2 str0" d="M530.944 517.628c13.5508,-28.552 22.3701,-40.9772 47.2016,-57.2445 6.48898,-4.25197 31.3063,-27.1158 36.1548,-27.1158 1.65709,-6.63544 13.3441,-12.4547 16.0689,-22.0937 1.27441,-4.51536 2.29961,-26.2099 5.02087,-27.1158 0,-2.31969 1.00512,-3.7063 1.00512,-6.02599 4.06418,-1.35354 16.6914,-17.3339 22.0937,-21.0898 29.9504,-20.8335 49.4953,-18.078 87.3733,-18.078"/>
   <path id="_229058064" class="fil2 str0" d="M440.559 501.559c-34.0288,-9.7878 -17.0327,-9.55749 -34.1457,-1.00394 0,6.68268 4.61339,14.4992 11.0469,17.0728 0.453544,1.8189 1.59213,2.93268 2.00906,5.02205 -1.44921,1.73858 -3.56103,3.65079 -4.01811,5.02087 -7.96182,1.9878 -13.8933,3.82914 -12.0508,13.0559 1.84606,0.46063 1.54725,0.161811 2.00788,2.00788 8.27953,3.54803 11.7673,4.86496 9.03898,13.0559 -2.90315,0.724016 -4.31339,3.33898 -7.02993,4.01811 -0.627166,0.940158 -7.53308,11.5488 -9.03898,12.0508 0,2.1626 -0.0212599,1.72323 -1.00394,4.01693 1.48228,0.493701 1.05,0.774804 2.00906,3.01299 8.16733,2.03977 10.9618,17.4378 3.01299,20.0858"/>
   <path id="_229058184" class="fil2 str0" d="M470.687 517.628c-18.7701,0.721654 -11.2063,2.66575 -21.091,-1.00394 -3.14292,-1.16811 -10.3228,0.32126 -13.0547,1.00394 -0.739371,2.21811 -1.20945,2.93504 -3.01299,4.01693 -1.1941,4.78111 -2.03504,5.89134 -1.00512,11.048 1.73268,0.431103 4.5815,1.69134 5.02205,3.01181 2.41418,0 3.34016,1.00512 6.02599,1.00512 0.447638,1.3441 3.12402,1.62992 5.02087,2.00788l1.00394 1.00512c2.49921,6.24567 2.49921,4.80118 0,11.0469 -1.94528,0.485433 -4.56024,2.63268 -5.02087,4.01693l-1.00394 1.00394c-2.06811,0.827953 -2.89843,2.48386 -5.02205,3.01299 -0.788977,1.9748 -1.03819,2.22402 -3.01299,3.01299 -0.459449,1.84252 -0.690945,1.82008 -1.00394,4.01693 -3.34016,1.1126 -1.62638,4.53662 -1.00394,7.02993 2.07874,0.692127 1.45158,2.97638 3.01299,4.01811 0,2.06339 0.624804,6.3 0,8.03386 -0.961418,2.66693 -4.33111,3.94961 -5.02205,6.02599 -1.28976,0.32126 -1.72323,0.681497 -3.01299,1.00394 -0.517323,2.07402 -6.39095,6.90945 -3.01299,8.03386"/>
   <path id="_229058232" class="fil2 str0" d="M485.751 532.693l-20.0858 2.00788c-2.86772,7.1693 -2.87362,5.56654 -1.00394,13.0559 1.09488,0.364961 4.62402,3.43111 5.02087,5.02087 2.19449,0.878741 2.54528,2.52284 4.01811,3.01299 1.57795,4.73622 2.00788,5.01969 2.00788,10.0429 -0.964961,0.32126 -3.22559,5.48622 -6.02599,7.02993 -3.13701,1.7315 -6.63898,4.17284 -10.0429,5.02205 0,2.04331 0.546851,1.49173 -1.00394,2.00788l0 9.03898c1.63228,1.08898 3.01299,9.82442 3.01299,13.0559l-2.00906 1.00394c-1.06654,2.13543 -4.45512,2.49921 -7.02993,3.01299 -0.766536,2.30315 -4.12087,2.52402 -5.02087,7.02993l-1.00394 1.00394"/>
   <path id="_229059216" class="fil2 str1" d="M95.0835 280.616c65.9008,47.4508 97.3772,-71.2583 150.643,-11.0469 34.5071,39.0059 69.8717,23.0929 123.528,28.1197 55.6583,5.21575 70.9595,-25.4575 114.489,-41.1756 40.9583,-14.7886 -1.4315,55.8745 39.1666,66.2835 81.182,20.8169 15.8764,-169.266 42.1796,-178.764 26.5264,-9.57875 22.1091,97.4824 27.1158,120.515 16.6583,76.6288 108.712,22.1788 171.734,43.1835 34.9607,11.6539 62.0138,7.02993 98.4202,7.02993 18.9898,0 26.0717,-11.628 50.2146,-6.02481 8.53938,1.98071 50.863,19.1563 56.2394,3.01181l-2.00788 1.00512"/>
   <circle id="_229058808" class="fil3 str2" cx="320.371" cy="423.272" r="7.03001"/>
   <circle id="_229058784" class="fil3 str2" cx="398.427" cy="345.215" r="7.03001"/>
   <circle id="_229059000" class="fil3 str2" cx="451.377" cy="395.707" r="7.03001"/>
   <circle id="_229058856" class="fil3 str2" cx="551.528" cy="402.011" r="7.03001"/>
   <circle id="_229059192" class="fil3 str2" cx="612.512" cy="474.597" r="7.03001"/>
   <circle id="_229058760" class="fil3 str2" cx="697.598" cy="526.094" r="7.03001"/>
   <circle id="_229059096" class="fil3 str2" cx="701.337" cy="594.663" r="7.03001"/>
   <circle id="_229059120" class="fil3 str2" cx="759.308" cy="456.349" r="7.03001"/>
   <circle id="_229059264" class="fil3 str2" cx="754.009" cy="384.318" r="7.03001"/>
   <circle id="_229058904" class="fil3 str2" cx="575.972" cy="550.304" r="7.03001"/>
   <circle id="_229058688" class="fil3 str2" cx="397.936" cy="716.289" r="7.03001"/>
   <circle id="_229058928" class="fil3 str2" cx="363.512" cy="645.262" r="7.03001"/>
   <circle id="_229059288" class="fil3 str2" cx="307.999" cy="619.429" r="7.03001"/>
   <circle id="_229058952" class="fil3 str2" cx="234.408" cy="711.097" r="7.03001"/>
   <circle id="_229059024" class="fil3 str2" cx="340.584" cy="768.619" r="7.03001"/>
   <circle id="_229059912" class="fil3 str2" cx="500.993" cy="742.785" r="7.03001"/>
   <circle id="_229060128" class="fil3 str2" cx="572.019" cy="680.797" r="7.03001"/>
   <circle id="_229059792" class="fil3 str2" cx="761.552" cy="623.831" r="7.03001"/>
   <circle id="_229059432" class="fil3 str2" cx="436.889" cy="436.307" r="7.03001"/>
   <circle id="_229060032" class="fil3 str2" cx="212.655" cy="388.379" r="7.03001"/>
   <circle id="_229059480" class="fil3 str2" cx="232.463" cy="520.218" r="7.03001"/>
   <circle id="_229059960" class="fil3 str2" cx="873.925" cy="471.286" r="7.03001"/>
  </g>
 </g>
</svg>
