<?xml version="1.0" encoding="UTF-8"?>
<!DOCTYPE svg PUBLIC "-//W3C//DTD SVG 1.1//EN" "http://www.w3.org/Graphics/SVG/1.1/DTD/svg11.dtd">
<!-- Creator: CorelDRAW -->
<svg xmlns="http://www.w3.org/2000/svg" xml:space="preserve" width="1000px" height="1000px" style="shape-rendering:geometricPrecision; text-rendering:geometricPrecision; image-rendering:optimizeQuality; fill-rule:evenodd; clip-rule:evenodd"
viewBox="0 0 1000 1000"
 xmlns:xlink="http://www.w3.org/1999/xlink">
 <defs>
  <style type="text/css">
   <![CDATA[
    .str0 {stroke:#1F1A17;stroke-width:0.900001}
    .str2 {stroke:#1F1A17;stroke-width:8.33386}
    .str3 {stroke:#1F1A17;stroke-width:16.6665}
    .str1 {stroke:#1F1A17;stroke-width:25.0004}
    .fil0 {fill:none}
    .fil2 {fill:#1F1A17}
    .fil1 {fill:white}
   ]]>
  </style>
 </defs>
 <g id="Warstwa_x0020_1">
  <metadata id="CorelCorpID_0Corel-Layer"/>
  <rect class="fil0 str0" x="-5324.47" y="7886.71" width="1002.45" height="1002.45"/>
  <g id="_195889504">
   <path id="_282340000" class="fil1 str1" d="M352.307 854.877l0 9.5882c69.2386,150.01 340.468,56.315 357.157,-71.902 3.96614,-30.4713 88.8261,57.6804 107.87,-43.1563 0.409843,-2.16732 52.917,-21.3662 60.7252,-27.1666 13.9217,-10.3394 30.3839,-21.1229 14.048,-26.7284 -5.81811,-1.99725 -19.1823,2.39055 -18.8421,-10.0264 0.242126,-8.81575 18.313,-21.815 19.4835,-34.024 2.23347,-23.3091 -11.5913,-45.867 -9.11221,-45.867 11.1921,0 31.2673,-72.0048 23.1874,-86.3044 -11.0457,-19.5484 29.7484,1.90394 -3.19607,-51.137 -15.6921,-25.2662 -22.9488,-74.843 -43.6961,-73.5792 -21.8162,1.32992 25.8355,-47.4933 9.92481,-73.4634 -9.06733,-14.7992 -35.8618,-15.3721 -50.8607,-32.6882 -11.8677,-13.7008 -19.3016,-44.4272 -41.6126,-58.376 -48.1831,-30.1252 -91.3808,-72.6343 -151.813,-95.882 -6.89056,-2.6504 -153.411,-69.3166 -153.411,-30.3626 -45.0248,-20.7815 -103.566,2.18977 -153.027,39.8575 -29.6776,22.6016 -52.9961,53.5902 -76.8237,74.9292 -19.4516,17.4201 -44.7886,19.226 -54.5989,29.0362 -23.4862,23.4862 -9.08505,69.8103 -39.9508,100.676 -34.4599,34.4599 -18.7914,69.9284 -38.3528,89.4898 -1.19646,1.19646 -40.8355,25.5685 -12.7843,25.5685 75.6237,0 -33.9319,44.8122 7.99016,111.862 10.1858,16.2933 26.1201,33.9603 14.3823,52.7351 -13.1788,21.0768 23.5583,-1.71142 30.3626,15.9803 3.00236,7.80591 -0.73819,23.9858 15.4831,34.5036 9.44528,6.12402 34.9028,-7.44922 15.7134,17.9185 -11.7331,15.5126 31.8343,37.6607 55.5449,53.9587 19.0335,13.0843 19.6854,21.8303 10.7386,24.6579 -17.0788,5.39882 -36.7607,15.1288 -1.59803,19.1764 32.0799,3.69331 42.0449,-19.7953 59.1272,14.3823 5.48386,10.9713 35.3422,46.3429 47.941,46.3429z"/>
   <path id="_282339904" class="fil2 str2" d="M286.575 487.839c-5.74371,-16.0843 44.4615,-47.5252 58.8024,-47.5252 20.0835,0 37.5792,0.125197 51.5528,8.86064 30.1512,18.8469 -21.0012,33.8646 -37.0536,41.8866 -14.0728,7.03111 -70.0926,9.62717 -73.3016,-3.22205z"/>
   <path id="_282339784" class="fil2 str2" d="M526.617 474.146c6.03071,-19.6028 45.9815,-39.0721 70.0796,-29.804 18.3496,7.05827 30.9,16.7504 50.7473,19.3323 38.3929,4.9937 -30.665,27.3874 -47.5252,27.3874 -26.0398,0 -65.7107,3.44292 -73.3016,-16.9158z"/>
   <path id="_282339760" class="fil2 str2" d="M386.842 755.46c-0.885827,-17.6008 25.4658,-43.8378 46.3359,-43.6878 18.6532,0.133465 32.3776,10.3441 47.5252,-2.41654 23.5784,-19.865 69.8882,10.0264 83.7733,27.3874 12.8362,16.0477 42.0756,43.4977 1.61102,43.4977 -25.1504,0 -33.0449,-6.88465 -50.7473,-13.6937 -28.1563,-10.8295 -55.48,-5.27835 -77.3292,5.63859 -9.36379,4.67953 -29.4874,3.74764 -40.2756,0.805512 -12.1476,-3.31418 -7.67835,-9.99213 -10.8933,-17.5311z"/>
   <path id="_282339736" class="fil0 str2" d="M568.642 166.918c-19.3618,0 -39.0355,-6.60709 -50.4178,9.75828 -17.5606,25.2449 -21.1394,56.3079 -37.4067,79.6926 -7.6004,10.9276 -56.6422,38.263 -65.0552,13.011"/>
   <path id="_282340024" class="fil0 str2" d="M540.994 240.105c-13.1244,17.061 -16.6099,32.9233 -27.6484,48.7914 -24.0248,34.539 -80.9918,36.7819 -94.33,-3.25276"/>
   <path id="_282339592" class="fil0 str2" d="M471.059 150.654c-19.8331,0 -44.2642,18.2421 -55.2969,29.2748 -8.91497,8.91497 -14.3256,14.1532 -19.5166,27.6484 -8.72363,22.6843 10.8284,46.2059 22.7693,53.6705 23.5725,14.7331 22.5567,-42.2859 43.9122,-42.2859"/>
   <path id="_282339952" class="fil0 str2" d="M368.598 230.347c-24.6284,0 -37.8674,-11.6917 -55.2969,9.75828 -13.2567,16.3169 -15.8374,56.7969 -32.5276,61.8024 -24.0378,7.20827 -58.3796,15.3449 -66.6815,-17.8902"/>
   <path id="_282339712" class="fil0 str2" d="M349.081 271.007c-41.589,7.92166 -42.8126,40.924 -68.3079,53.6705 -6.77481,3.3874 -25.2189,10.5673 -35.7803,6.50552 -7.47875,-2.87481 -35.3445,-12.1193 -27.6484,-17.8902"/>
   <path id="_282339880" class="fil0 str2" d="M246.619 355.578c-8.6693,18.7831 -19.0937,50.876 -42.2859,56.9233 -5.91969,1.5437 -44.1213,12.1854 -47.165,0"/>
   <path id="_282340192" class="fil0 str2" d="M225.476 350.699c-6.28347,8.16733 -10.9347,14.9906 -17.8902,21.1429 -6.6567,5.89016 -17.1177,10.213 -24.3957,13.011 -7.9193,3.04607 -20.1272,3.25276 -29.2748,3.25276"/>
   <path id="_282339808" class="fil0 str2" d="M262.883 331.183c13.6465,36.3945 0.537402,94.8745 -30.9012,110.594 -46.7055,23.3516 -87.1583,64.0949 -43.9122,107.341 15.4902,15.4902 17.1307,41.3788 0,55.2969 -9.77245,7.94056 -13.8969,13.7788 -19.5166,22.7693 -14.726,23.5618 15.3768,35.7803 -16.2638,35.7803"/>
   <path id="_282339640" class="fil0 str2" d="M202.707 432.018c-28.5886,16.6748 -76.4339,63.4406 -56.9233,102.462 6.50434,13.011 21.1429,19.7043 21.1429,40.6595 0,28.5685 -10.8106,49.1705 -37.4067,61.8024"/>
   <path id="_282340144" class="fil0 str2" d="M254.751 482.436c0,57.3485 -4.87914,120.958 -4.87914,177.275 0,25.3666 23.4331,36.0969 26.0221,58.5497 1.41969,12.313 4.52835,23.2004 1.62638,35.7803 -4.72205,20.4744 -22.5685,24.9355 1.62638,35.7803"/>
   <path id="_282339688" class="fil0 str2" d="M235.234 485.689c-18.039,13.8768 -35.5536,44.2063 -19.5166,65.0552 5.06811,6.58819 12.0626,16.1634 13.011,24.3957 1.00039,8.67284 0.569292,32.5276 -13.011,32.5276"/>
   <path id="_282339136" class="fil0 str2" d="M238.487 659.711c-16.3748,8.81694 -20.6894,15.4075 -26.0221,29.2748 -5.64449,14.674 24.541,23.9398 32.5276,26.0221 7.63347,1.98898 15.4099,9.71457 16.2638,16.2638 2.32441,17.8358 4.93819,16.6914 -13.011,30.9012"/>
   <path id="_282338800" class="fil0 str2" d="M568.642 238.479c7.07953,-13.148 15.2953,-28.3063 24.3957,-37.4067 8.76851,-8.76851 30.0579,5.47087 39.0331,6.50552 6.88465,0.79252 13.5449,2.50276 21.1429,1.62638 5.54882,-0.638977 17.8902,-7.84725 17.8902,-13.011 -8.42363,38.8843 -7.23071,24.8032 -17.8902,48.7914 -18.2374,41.0363 38.3126,66.2304 -17.8902,94.33 -21.215,10.6075 -32.5276,-9.48308 -32.5276,-29.2748 0,-9.58465 2.52402,-18.7878 8.1319,-24.3957 1.58504,-1.58504 16.9961,-14.0705 19.5166,-6.50552"/>
   <path id="_282338776" class="fil0 str2" d="M536.115 301.908c4.72796,-4.36418 7.13741,-7.63465 11.3847,-9.75828 8.21221,-4.10433 18.0354,-12.5539 26.0221,-14.6374 4.89922,-1.27677 11.0622,-6.04016 14.6374,-6.50552 16.9618,-2.20984 7.72442,-7.18701 32.5276,8.1319"/>
   <path id="_282339496" class="fil0 str2" d="M690.621 218.962c-9.55749,17.752 -24.2445,47.5571 -16.2638,68.3079 9.53387,24.7855 12.4713,38.6634 -4.87914,61.8024"/>
   <path id="_282339472" class="fil0 str2" d="M711.764 246.611c-10.3158,22.3512 -2.75551,43.5756 4.87914,63.4288 8.77914,22.8248 -20.5063,64.3772 -27.6484,82.9453 -12.4488,32.3681 17.8902,52.93 17.8902,71.5607"/>
   <path id="_282339376" class="fil0 str2" d="M749.17 417.381c-28.1244,15.1429 -35.7803,68.2111 -35.7803,99.2091 0,17.7106 20.2984,17.8524 30.9012,30.9012 18.1843,22.3819 -22.7693,28.2792 -22.7693,14.6374"/>
   <path id="_282338920" class="fil0 str2" d="M737.786 256.369c18.2752,31.3323 20.1957,50.0587 14.6374,86.1981 -2.03858,13.2626 -11.3917,32.4142 -17.8902,43.9122 -13.3571,23.6339 -13.35,36.2717 -43.9122,43.9122"/>
   <path id="_282339184" class="fil0 str2" d="M789.83 288.897c5.59725,16.7941 12.6721,20.3351 8.1319,42.2859 -4.53071,21.9106 -29.2748,38.0174 -29.2748,60.176 0,20.7024 43.9122,31.5343 43.9122,16.2638"/>
   <path id="_282338944" class="fil0 str2" d="M773.566 435.271c0,24.1784 -10.663,39.0863 -13.011,61.8024 -2.3811,23.0244 40.3134,52.9819 26.0221,71.5607 -9.19489,11.9516 -16.6677,20.5335 -30.9012,27.6484 -3.68268,1.84134 -14.5984,5.71063 -19.5166,3.25276 -19.3158,-9.65788 -2.36339,-23.3634 6.50552,-32.5276"/>
   <path id="_282339352" class="fil0 str2" d="M825.61 581.645c-36.2174,27.861 15.6425,87.0898 -11.3847,120.352 -12.085,14.8748 -32.8335,24.3957 -55.2969,24.3957 -15.2882,0 -48.1335,-23.6421 -14.6374,-52.0441 -6.15827,2.05158 -2.38347,10.4528 -1.62638,16.2638 0.969686,7.45158 11.0008,3.85866 16.2638,3.25276 21.4606,-2.47559 2.84528,-25.2 1.62638,-35.7803 -1.41851,-12.3036 -9.51379,-16.9488 -17.8902,-26.0221"/>
   <path id="_282339280" class="fil0 str2" d="M820.731 477.557c5.14489,9.55631 15.9189,23.1567 22.7693,30.9012 5.83347,6.59292 8.5689,11.0315 14.6374,17.8902 8.56182,9.67914 25.6878,43.8118 14.6374,58.5497"/>
   <path id="_282339256" class="fil0 str2" d="M832.116 412.502c10.0984,18.7547 19.5201,33.5079 32.5276,50.4178 3.77126,4.90158 8.9882,12.8398 9.75828,19.5166 2.51457,21.8126 -4.42796,20.8051 -24.3957,35.7803"/>
   <path id="_282339520" class="fil0 str2" d="M832.116 326.303c27.2705,6.29174 1.69961,43.813 0,58.5497 -1.48583,12.8906 2.76142,15.7725 8.1319,21.1429 8.50985,8.50985 11.2311,4.87914 22.7693,4.87914"/>
   <path id="_282339088" class="fil0 str2" d="M836.995 609.293c14.6303,4.50118 21.1429,11.237 21.1429,27.6484 0,15.7843 -7.58859,35.8866 -14.6374,47.165 -5.42481,8.67757 5.1437,14.5748 8.1319,16.2638 13.3394,7.5378 14.6043,-1.43386 27.6484,-6.50552"/>
   <path id="_282339400" class="fil0 str2" d="M731.28 705.25c2.05512,35.6386 -10.3323,64.0843 26.0221,78.0662 24.0012,9.2315 52.5697,-3.70748 58.5497,-27.6484"/>
   <path id="_282338056" class="fil0 str2" d="M488.95 575.139c17.2772,14.3976 35.6114,19.3477 48.7914,32.5276 11.3504,11.3504 12.4158,22.9453 16.2638,35.7803 5.82993,19.4398 36.2079,15.7347 39.0331,37.4067 2.58307,19.8189 18.0992,36.3981 24.3957,55.2969"/>
   <path id="_282338536" class="fil0 str2" d="M422.268 550.744c-9.9378,21.5315 -17.524,31.187 -30.9012,50.4178 -6.28347,9.03426 -14.5039,12.7441 -21.1429,26.0221 -6.47481,12.9496 -7.27796,39.3579 -16.2638,50.4178 -9.26221,11.3976 -22.7693,30.417 -22.7693,48.7914"/>
   <path id="_282338440" class="fil0 str3" d="M417.389 630.436c-6.90119,-1.14921 -7.36536,-3.34488 -6.50552,3.25276 0.367323,2.82638 2.12244,1.8626 3.25276,3.25276 0.229134,0.283465 2.26181,5.87008 4.87914,3.25276 0.183071,-0.183071 0,-4.38898 0,-4.87914 0,-1.52244 0.193701,-3.38386 0,-4.87914 -0.15,-1.15276 -10.1681,-14.2276 -14.6374,-9.75828 -1.65827,1.65827 -3.25276,6.21142 -3.25276,8.1319l0 14.6374c0,1.02756 -0.333071,4.01339 0,4.87914 3.40276,8.85001 22.6654,14.7414 32.5276,4.87914"/>
   <path id="_282338224" class="fil0 str3" d="M445.037 669.469c5.69528,6.17008 8.1319,7.80119 8.1319,14.6374 0,1.44449 1.85669,7.90158 3.25276,6.50552 2.12717,-2.12717 -0.486615,-1.13858 1.62638,-4.87914 1.10315,-1.95118 1.80827,-3.61654 3.25276,-6.50552 4.0252,-8.05394 5.00315,-24.2717 0,-29.2748 -2.25236,-2.25236 -4.89922,-6.91654 -6.50552,-9.75828 -1.82953,-3.23859 -3.51614,-3.20197 -4.87914,-4.87914 -1.98898,-2.44961 -0.399213,-5.55473 26.0221,-11.3847 2.75551,-2.12008 5.07638,-4.84843 8.1319,-6.50552 2.72481,-1.47874 4.49882,1.98071 4.87914,3.25276 0.488977,1.62992 2.83819,2.45315 1.62638,4.87914 -2.07756,4.15512 -10.3642,6.50552 -14.6374,6.50552 -5.27126,0 -8.1319,0.579922 -8.1319,-4.87914 0,-4.68189 -0.487796,-1.78228 1.62638,-3.25276 1.54252,-1.07126 3.03544,-4.70315 3.25276,-4.87914 0.687402,-0.559843 4.063,0.510237 4.87914,0 2.5878,-1.61575 -2.30197,-0.903544 3.25276,-1.62638 1.07362,-0.13937 0.707481,-1.05354 1.62638,-1.62638 0.246851,-0.154725 7.88505,-0.154725 8.1319,0 0.918898,0.572835 0.589371,1.31575 1.62638,1.62638 4.48347,1.34291 3.25276,5.88071 3.25276,11.3847 0,0.692127 0.522048,4.87914 0,4.87914l-1.62638 0c-0.16063,0 -1.46575,3.25276 -1.62638,3.25276l-1.62638 0 0 1.62638c0,3.03425 -0.651969,1.62638 -3.25276,3.25276 -0.861024,0.537402 -3.82559,-0.405118 -4.87914,0 -2.86181,1.09961 -1.4374,1.23071 -4.87914,1.62638 -2.85827,0.329528 -3.16536,1.62638 -6.50552,1.62638 -3.8563,0 -4.84725,-0.806694 -8.1319,-1.62638"/>
   <path id="_282338344" class="fil0 str2" d="M402.751 802.833c22.7858,5.25709 25.9618,3.75591 43.9122,-1.62638 7.45158,-2.23465 15.5799,-10.2354 24.3957,-11.3847 21.4606,-2.79685 78.8623,17.6977 89.4509,9.75828"/>
   <path id="_282338080" class="fil0 str2" d="M466.18 822.349l43.9122 0c19.5756,0 41.7508,1.69843 53.6705,11.3847 6.40158,5.2004 31.6134,28.1551 34.154,35.7803"/>
   <path id="_282338488" class="fil0 str3" d="M427.147 521.469c0,-22.4327 3.25276,-44.5205 3.25276,-66.6815 0,-22.6689 -8.22284,-29.3032 -19.5166,-45.5386 -17.6374,-25.3583 -19.3217,-21.9118 -42.2859,-3.25276 -25.8567,21.0083 -44.3528,11.8169 -58.5497,52.0441"/>
   <path id="_282338152" class="fil0 str3" d="M495.455 508.458c-8.30788,-36.0095 -32.4638,-112.22 19.5166,-112.22 24.6981,0 34.9075,15.3106 52.0441,26.0221 2.93622,1.83425 25.65,6.50552 30.9012,6.50552 4.27323,0 10.3654,3.25276 14.6374,3.25276 19.2154,0 14.7213,2.42953 8.1319,24.3957"/>
   <path id="_282338512" class="fil0 str2" d="M293.784 350.699c11.452,-7.92757 25.2189,-3.44528 37.4067,-8.1319 8.62324,-3.31654 15.8646,-11.3563 24.3957,-14.6374 15.5457,-5.97756 73.1906,-3.65433 84.5717,4.87914"/>
   <path id="_282335632" class="fil0 str2" d="M311.674 292.149c9.82678,29.4827 5.98583,20.2004 26.0221,17.8902 29.224,-3.37087 53.7437,-9.75828 84.5717,-9.75828"/>
   <path id="_195890320" class="fil0 str2" d="M487.323 331.183c7.24843,0 14.4709,0.0377953 21.1429,1.62638 12.3378,2.93622 25.5898,2.84764 37.4067,6.50552 7.71142,2.38583 17.902,6.50552 24.3957,6.50552"/>
   <path id="_282336160" class="fil0 str2" d="M511.719 310.04c15.8185,3.64961 30.4394,3.25276 47.165,3.25276 4.21063,0 14.3209,-1.37244 17.8902,0 18.2858,7.03229 13.5768,8.68111 27.6484,-16.2638"/>
  </g>
 </g>
</svg>
