<?xml version="1.0" encoding="UTF-8"?>
<!DOCTYPE svg PUBLIC "-//W3C//DTD SVG 1.1//EN" "http://www.w3.org/Graphics/SVG/1.1/DTD/svg11.dtd">
<!-- Creator: CorelDRAW -->
<svg xmlns="http://www.w3.org/2000/svg" xml:space="preserve" width="1000px" height="1000px" style="shape-rendering:geometricPrecision; text-rendering:geometricPrecision; image-rendering:optimizeQuality; fill-rule:evenodd; clip-rule:evenodd"
viewBox="0 0 1000 1000"
 xmlns:xlink="http://www.w3.org/1999/xlink">
 <defs>
  <style type="text/css">
   <![CDATA[
    .str2 {stroke:#1F1A17;stroke-width:4.16693}
    .str1 {stroke:#1F1A17;stroke-width:8.33386}
    .str0 {stroke:#1F1A17;stroke-width:16.6665}
    .fil2 {fill:none}
    .fil1 {fill:white}
    .fil0 {fill:#EEC2C6}
   ]]>
  </style>
 </defs>
 <g id="Warstwa_x0020_1">
  <metadata id="CorelCorpID_0Corel-Layer"/>
  <circle class="fil0" cx="505.447" cy="499.474" r="485.835"/>
  <g id="_229188024">
   <polygon id="_231195184" class="fil1 str0" points="392.177,128.526 265.366,424.624 265.366,424.624 285.965,412.865 301.478,413.423 301.239,428.684 291.378,444.988 269.19,477.028 252.453,490.541 225.742,548.131 202.258,571.974 147.213,700.502 607.839,829.43 622.838,782.612 619.756,771.924 611.574,713.469 604.205,642.068 610.379,575.624 632.543,527.41 651.206,496.559 664.41,476.441 679.677,478.14 686.339,494.4 666.632,572.493 668.568,578.754 684.771,565.518 693.917,560.757 801.232,225.809 "/>
   <path id="_231194704" class="fil2 str1" d="M167.138 480.15c-4.89095,-22.8284 38.8488,-61.389 44.5394,-83.217 3.60237,-13.8177 22.8366,-31.0524 36.3343,-38.6788 11.2075,-6.33426 27.2445,-9.37678 43.3666,-9.37678 10.0122,0 -14.8311,44.1378 -21.0969,48.0555 -8.87717,5.54882 -19.063,3.35906 -22.2697,14.0646 -0.648426,2.1626 -13.1374,25.4764 -14.0646,25.7858"/>
   <path id="_231194584" class="fil2 str1" d="M218.71 462.57c6.43938,-19.3205 45.8658,-37.6985 62.1201,-46.8839 29.6044,-16.7303 23.9162,15.9343 10.5484,29.302 -10.298,10.2992 -14.3185,28.4339 -26.9575,36.3343 -16.6323,10.3996 -8.66457,4.96181 -18.7536,21.098 -7.88623,12.6154 -11.5819,30.9449 -19.9252,45.7111 -7.8567,13.9028 -36.3343,28.6819 -36.3343,44.5394"/>
   <path id="_231194416" class="fil2 str1" d="M626.566 797.699c-12.5894,-54.5575 -26.5394,-152.837 -19.898,-203.857 5.12008,-39.3402 26.7213,-68.7827 44.5382,-97.2828 6.77717,-10.839 3.96142,-24.5929 23.4414,-18.7536 23.0162,6.89764 0.368504,56.1449 -1.17165,67.9808 -2.02559,15.5705 -17.4213,46.7233 2.34449,26.9575 9.08741,-9.08741 23.5795,-14.2028 31.6453,-22.2685 10.9051,-10.9051 19.0677,-27.3496 36.3355,-33.991 20.9421,-8.05631 -14.0658,-9.75355 -14.0658,-32.8181"/>
   <path id="_231194296" class="fil2 str2" d="M715.671 516.485c0.656693,2.84764 1.11024,5.79804 2.34449,7.03229 0.644882,0.646064 1.49055,0.636615 2.34331,2.34449 0.421654,0.843308 1.17284,1.40315 1.17284,2.34449l0 1.17165 1.17165 0 0 1.17284c0,1.54606 1.69961,0.408662 2.34449,2.34331"/>
   <path id="_231194248" class="fil2 str1" d="M742.628 429.752c28.0264,34.4929 55.0878,35.8548 55.0878,84.3898 0,12.0697 -5.98111,35.3965 -11.7213,46.8827 -3.29528,6.59292 -18.1665,45.7111 -19.9252,44.5382"/>
   <path id="_231194848" class="fil2 str1" d="M797.716 514.141c0.543308,24.4654 0.0543308,13.7102 8.20512,26.9575 8.32796,13.5343 1.17165,39.0851 1.17165,55.0878 0,10.6618 -2.97284,14.7591 -5.86063,22.2685 -1.53425,3.98977 -12.8929,22.3795 -12.8929,19.9264"/>
   <path id="_231194224" class="fil2 str1" d="M807.093 596.187c0.518504,7.77284 15.9532,25.0689 5.86063,35.1614 -10.6311,10.6311 -12.8929,35.537 -12.8929,52.7445 0,17.5854 -14.4921,43.0489 -23.4414,60.9473"/>
   <line id="_229607384" class="fil2 str2" x1="366.391" y1="246.321" x2="621.318" y2= "296.72" />
   <line id="_228855632" class="fil2 str2" x1="361.116" y1="255.111" x2="617.216" y2= "308.442" />
   <line id="_229610600" class="fil2 str2" x1="357.014" y1="266.832" x2="610.77" y2= "317.231" />
   <line id="_228855896" class="fil2 str2" x1="346.466" y1="298.479" x2="595.532" y2= "350.049" />
   <line id="_228855416" class="fil2 str2" x1="338.848" y1="309.027" x2="593.188" y2= "361.771" />
   <line id="_228855800" class="fil2 str2" x1="332.987" y1="321.335" x2="587.914" y2= "371.148" />
   <line id="_231198208" class="fil2 str2" x1="328.298" y1="352.98" x2="578.537" y2= "401.035" />
   <line id="_228855824" class="fil2 str2" x1="321.266" y1="362.357" x2="575.021" y2= "413.928" />
   <line id="_231198952" class="fil2 str2" x1="314.82" y1="372.319" x2="571.505" y2= "425.648" />
   <line id="_229186200" class="fil2 str2" x1="303.685" y1="403.38" x2="558.026" y2= "454.95" />
   <line id="_229186656" class="fil2 str2" x1="301.478" y1="413.423" x2="552.752" y2= "463.155" />
   <line id="_229186872" class="fil2 str2" x1="301.239" y1="428.684" x2="550.407" y2= "478.979" />
   <line id="_229186896" class="fil2 str2" x1="291.378" y1="455.537" x2="540.445" y2= "507.108" />
   <line id="_229186536" class="fil2 str2" x1="287.276" y1="466.086" x2="533.998" y2= "518.243" />
   <line id="_229186344" class="fil2 str2" x1="528.724" y1="531.722" x2="279.658" y2= "476.634" />
   <line id="_229186248" class="fil2 str2" x1="265.592" y1="507.108" x2="518.176" y2= "557.508" />
   <line id="_229186392" class="fil2 str2" x1="511.73" y1="572.158" x2="257.974" y2= "518.243" />
   <line id="_229186584" class="fil2 str2" x1="252.699" y1="529.378" x2="508.212" y2= "582.707" />
   <line id="_229186416" class="fil2 str2" x1="496.492" y1="609.08" x2="244.495" y2= "558.094" />
   <line id="_229186464" class="fil2 str2" x1="239.221" y1="569.815" x2="496.492" y2= "620.214" />
   <line id="_229186752" class="fil2 str2" x1="485.944" y1="631.348" x2="231.603" y2= "577.433" />
   <polygon id="_229187616" class="fil2 str2" points="631.906,299.1 660.492,306.892 651.257,331.005 622.523,323.066 "/>
   <polygon id="_229187424" class="fil2 str2" points="609.215,351.682 637.802,359.475 628.567,383.588 599.833,375.649 "/>
   <polygon id="_229187064" class="fil2 str2" points="590.806,405.391 619.521,412.699 610.695,436.965 581.83,429.513 "/>
   <polygon id="_229187256" class="fil2 str2" points="567.912,458.712 596.627,466.02 587.801,490.285 558.937,482.834 "/>
   <polygon id="_229187088" class="fil2 str2" points="550.632,507.011 579.347,514.319 570.52,538.584 541.656,531.133 "/>
   <polygon id="_229187496" class="fil2 str2" points="527.737,561.513 556.452,568.821 547.627,593.087 518.762,585.635 "/>
   <polygon id="_229187136" class="fil2 str2" points="507.502,610.699 536.217,618.006 527.391,642.272 498.527,634.821 "/>
   <polygon id="_229187160" class="fil2 str2" points="670.909,309.278 699.495,317.07 690.26,341.184 661.527,333.244 "/>
   <polygon id="_229187184" class="fil2 str2" points="648.219,361.859 676.805,369.652 667.57,393.766 638.836,385.826 "/>
   <polygon id="_229187208" class="fil2 str2" points="629.977,414.907 658.691,422.215 649.865,446.481 621,439.029 "/>
   <polygon id="_229187376" class="fil2 str2" points="607.082,468.228 635.797,475.536 626.972,499.802 598.107,492.35 "/>
   <polygon id="_229186992" class="fil2 str2" points="589.802,516.527 618.517,523.835 609.69,548.1 580.826,540.649 "/>
   <polygon id="_229187568" class="fil2 str2" points="566.908,571.029 595.622,578.337 586.797,602.604 557.932,595.151 "/>
   <polygon id="_229187592" class="fil2 str2" points="546.672,620.215 575.387,627.523 566.562,651.788 537.697,644.337 "/>
   <polygon id="_229186920" class="fil2 str2" points="710.497,320.626 739.085,328.418 729.85,352.532 701.115,344.592 "/>
   <polygon id="_229186968" class="fil2 str2" points="687.807,373.207 716.395,381 707.16,405.114 678.425,397.174 "/>
   <polygon id="_229188000" class="fil2 str2" points="669.752,425.583 698.467,432.891 689.64,457.158 660.777,449.705 "/>
   <polyline id="_229188096" class="fil2 str2" points="646.453,505.238 637.882,503.026 646.857,478.904 657.641,481.648 "/>
   <polyline id="_229187712" class="fil2 str2" points="606.163,608.01 597.708,605.828 606.683,581.706 610.819,582.759 "/>
   <polyline id="_229188240" class="fil2 str2" points="606.337,662.465 577.472,655.013 586.448,630.891 605.448,635.726 "/>
  </g>
 </g>
</svg>
