<?xml version="1.0" encoding="UTF-8"?>
<!DOCTYPE svg PUBLIC "-//W3C//DTD SVG 1.1//EN" "http://www.w3.org/Graphics/SVG/1.1/DTD/svg11.dtd">
<!-- Creator: CorelDRAW -->
<svg xmlns="http://www.w3.org/2000/svg" xml:space="preserve" width="1000px" height="1000px" style="shape-rendering:geometricPrecision; text-rendering:geometricPrecision; image-rendering:optimizeQuality; fill-rule:evenodd; clip-rule:evenodd"
viewBox="0 0 1000 1000"
 xmlns:xlink="http://www.w3.org/1999/xlink">
 <defs>
  <style type="text/css">
   <![CDATA[
    .str1 {stroke:#1F1A17;stroke-width:4.16693}
    .str2 {stroke:white;stroke-width:4.16693}
    .str0 {stroke:#1F1A17;stroke-width:16.6665}
    .fil2 {fill:none}
    .fil1 {fill:white}
    .fil0 {fill:#A5A3B4}
   ]]>
  </style>
 </defs>
 <g id="Warstwa_x0020_1">
  <metadata id="CorelCorpID_0Corel-Layer"/>
  <circle class="fil0" cx="500.68" cy="498.622" r="485.835"/>
  <g id="_296240704">
   <path id="_295549056" class="fil1 str0" d="M574.303 867.68c8.57481,-2.85355 0,-75.6036 0,-81.9497 0,-18.0886 9.98032,-51.0591 3.15827,-66.176 -16.6618,-72.228 56.4768,-98.8891 85.8816,-146.674 41.3433,-67.1894 69.2764,-162.424 45.3532,-242.205 -13.6264,-45.4418 -71.4071,17.0528 -71.4071,-67.5473 0,-60.7961 -57.5918,-45.3532 -89.7414,-45.3532 -0.259843,1.04291 -10.7787,18.0685 -11.5795,18.3343 0,-28.2567 -71.4071,-10.291 -71.4071,27.0189l-1.92992 0.964961c-30.2929,-40.4067 -46.0512,7.41851 -66.5823,12.5445 0,46.089 -74.302,26.9067 -74.302,97.4611 2.61969,-0.373229 11.4709,-3.96851 18.6543,-0.608268l52.5697 83.1981 -5.79449 8.42835 -84.2835 32.6599c-1.83662,7.96064 8.62205,43.0784 11.589,52.6772 9.82087,31.7729 5.67638,66.1205 21.5977,97.9796 6.93662,13.8791 20.0173,39.0827 20.0173,53.204 -5.43544,3.62362 2.81103,36.0331 3.16063,42.1418 2.14606,37.4504 -10.5732,87.3296 1.05354,122.211l213.992 1.69016z"/>
   <path id="_295548624" class="fil1 str0" d="M327.173 371.836l-2.78622 0.986221c-24.0874,8.02914 -46.0548,13.2 -73.7292,16.3843 -39.613,4.55788 -36.1229,8.51221 -63.1276,-6.74646 -91.095,-51.4701 -232.906,71.0906 -92.5229,54.9355 40.8721,-4.70315 55.4174,-2.25945 55.4174,41.9244 0,37.7516 0.172441,57.3449 -40.4788,57.3449 -89.9883,0 -41.6185,66.2871 8.19213,72.7654 119.518,15.5433 91.7989,-79.767 185.046,-112.762l62.6457 -22.1669c37.8922,-13.4079 33.5729,-18.711 5.78268,-50.1166 -12.4205,-14.0362 -27.3366,-64.7646 -44.439,-52.5485z"/>
   <path id="_295548528" class="fil1 str0" d="M630.869 277.89c25.9536,-5.98819 54.1678,-16.5473 78.5481,-27.9496 14.6043,-6.8315 57.906,-24.3319 62.6457,-38.5512 14.1957,-46.1386 48.2244,-77.5843 101.197,-77.5843 24.1547,0 80.1993,29.2677 86.7402,46.2615 12.2894,31.9311 -39.8847,31.3229 -60.7182,31.3229 -55.9654,0 -45.2445,104.57 11.0835,104.57 17.8311,0 37.774,-5.78268 55.4174,-5.78268 57.2717,0 -43.6949,46.839 -60.2363,51.0804 -28.037,7.18819 -66.0071,7.84725 -91.5591,-0.96378 -15.7465,-5.43071 -68.2642,-0.322441 -82.4032,6.74646 -34.0146,17.0067 0.10748,-46.0359 -42.4063,-48.189 -15.228,-0.77126 -31.5862,-6.92599 -44.8158,-10.6016 -7.9252,-2.20276 -11.5654,0.0354331 -11.5654,-10.6016 0,-3.7937 -1.26969,-18.3118 -1.92756,-19.7575z"/>
   <path id="_295548504" class="fil2 str1" d="M348.766 700.255c12.4028,5.72481 33.1063,-2.26772 40.5284,-12.5445 6.28938,-8.70946 34.7386,-11.6681 34.7386,-23.1591"/>
   <path id="_295548816" class="fil2 str1" d="M370.96 700.255c-8.60906,6.34371 -7.51654,3.85985 0,3.85985 5.60552,0 10.6004,1.92992 16.4043,1.92992l24.124 0c3.58465,0 7.4693,0.396851 9.64961,-0.964961 1.06417,-0.664961 4.72559,0.664961 5.78977,0 1.21417,-0.758268 1.58386,-1.92992 3.85985,-1.92992"/>
   <path id="_295549200" class="fil2 str1" d="M658.518 541.036c-13.2343,17.2028 -24.3992,35.0611 -37.6335,53.0729 -8.68701,11.8252 -38.0008,36.6685 -52.1079,36.6685"/>
   <path id="_295548048" class="fil2 str1" d="M580.356 657.797c-18.0295,13.8697 -46.7989,18.1016 -68.5123,10.6146 -8.79922,-3.03425 -17.1071,-5.70473 -25.089,-10.6146 -6.3567,-3.91181 -15.6106,-14.5335 -21.2292,-16.4043l3.85985 0"/>
   <path id="_295548000" class="fil2 str1" d="M560.092 686.745c-13.9288,9.64253 -45.1063,15.5067 -62.7225,10.6146 -15.3378,-4.26024 -36.502,-4.94528 -49.213,-14.4744l1.92992 1.92992"/>
   <path id="_295547976" class="fil2 str1" d="M635.359 305.586c-14.3138,2.20158 -19.265,-13.5425 -29.9138,-22.1941 -13.5071,-10.976 -38.6681,-18.4713 -52.1079,-1.92992 -11.1449,13.7162 -9.83859,23.7461 -0.964961,41.4933 14.211,28.4233 15.2835,36.4205 40.5284,56.9327 18.1228,14.726 41.6693,11.5795 69.4772,11.5795 -2.29134,-1.71732 -3.10748,-1.00512 -5.78977,0"/>
   <path id="_295548072" class="fil2 str1" d="M626.675 391.467c-8.98347,2.61969 -9.64961,3.75355 -9.64961,12.5445 0,6.09686 0.269292,3.83859 3.85985,6.75473 1.71142,1.39134 4.4563,2.89488 7.71969,2.89488 2.32677,0 3.40394,1.40197 6.75473,0.964961 3.82205,-0.497244 -8.22875,-3.85985 -9.64961,-3.85985 -5.46851,0 -16.5638,6.69095 -13.5095,11.5795 3.69213,5.9067 13.4492,7.71969 20.2642,7.71969 -13.3701,-3.3378 -23.928,0.452363 -28.9488,13.5095 -3.49725,9.09213 4.11851,11.9008 7.71969,16.4043 3.1004,3.8752 14.211,10.6146 8.68465,10.6146"/>
   <path id="_295547952" class="fil2 str1" d="M561.057 282.427c0,19.2579 12.5291,31.7114 25.089,39.5634 7.33819,4.58622 11.6693,5.78977 23.1591,5.78977 12.4063,0 13.311,-6.36969 20.2642,-8.68465l-3.85985 2.89488"/>
   <path id="_295559040" class="fil2 str1" d="M463.596 264.092c0.764174,-2.55 0.739371,-3.40866 1.92992,-5.78977 0,49.2166 10.9772,103.029 38.5985,137.025 7.69134,9.46536 14.4284,50.6918 33.7736,38.5985 5.56418,-3.47717 56.6658,-19.2626 42.4583,-29.9138"/>
   <path id="_295547280" class="fil2 str1" d="M403.768 328.745c5.78268,8.99764 23.1591,47.9764 23.1591,57.8977 2.04213,0.679134 2.89488,11.3457 2.89488,14.4744 0.774804,0.257481 6.75473,21.9662 6.75473,25.089 1.20591,0.401575 1.92992,3.03307 1.92992,4.82481 1.07244,0.356693 3.46772,4.21654 3.85985,5.78977 1.88386,0.627166 0.046063,0.337796 1.92992,0.964961 0.628347,2.51929 3.2315,3.27048 3.85985,5.78977l0.964961 0.964961c1.75866,0.438189 2.10118,1.49173 3.85985,1.92992 0.490158,1.96654 1.89331,3.36969 3.85985,3.85985 0.42874,1.28858 1.27677,1.52599 2.89488,1.92992 0.54567,1.64055 3.31418,2.21929 3.85985,3.85985l1.92992 0c0.507874,1.52717 1.87087,1.92992 3.85985,1.92992 5.47441,16.4398 47.9493,-2.09882 55.0028,-3.85985l0 -4.82481"/>
   <path id="_295547304" class="fil2 str1" d="M433.682 413.661c14.2358,1.06654 13.4917,0.956694 23.1591,5.78977 5.44489,2.72244 14.4803,3.45591 21.2292,2.89488 3.84213,-0.320079 20.524,-9.7193 21.2292,-12.5445"/>
   <path id="_295547328" class="fil2 str1" d="M512.809 385.677c4.92402,1.13504 7.91812,3.04607 12.5445,4.82481 6.33308,2.43543 32.204,-2.03977 33.7736,-6.75473 1.90158,0 2.20394,-0.551575 3.85985,-0.964961l0 -1.92992 -1.92992 0"/>
   <path id="_295547568" class="fil2 str1" d="M389.294 415.591c8.22166,5.28426 20.6929,9.64961 30.8788,9.64961 6.3756,0 24.0933,-3.63425 25.089,-10.6146"/>
   <path id="_295547592" class="fil2 str1" d="M389.294 456.12c14.5914,7.85552 16.141,21.2292 34.7386,21.2292 8.02323,0 24.124,-17.2996 24.124,-26.054l0.964961 -6.75473"/>
   <path id="_295548024" class="fil1 str2" d="M363.221 860.385c0,24.8705 10.7847,6.38741 21.5256,12.7559 11.113,6.59056 12.3402,4.72087 26.3091,3.45473 13.8024,-1.25197 21.2528,0.581103 33.2185,5.31496 15.2114,6.0189 29.7189,-11.2961 45.4429,-8.76969 9.57639,1.5378 24.0933,12.7559 31.624,12.7559 6.09922,0 48.476,-13.1043 49.9536,-17.2087 6.3626,-17.661 -40.6819,-6.94253 -51.8138,-9.6319 -9.9945,-2.41536 -21.6543,-8.13072 -31.624,-9.03544 -12.5185,-1.13504 -25.5319,6.06969 -38.7992,5.84646 -22.0158,-0.372048 -27.8953,-7.93465 -50.7579,1.86024 -11.6728,4.99961 -12.7583,-1.9937 -23.3858,-3.98622 -8.12717,-1.52244 -8.15552,5.29134 -11.6929,6.64371z"/>
   <path id="_295548480" class="fil2 str1" d="M521.494 710.869c4.19292,-2.09528 46.9524,-14.8571 36.6685,-6.75473 -9.43229,7.43032 -20.6882,12.5669 -28.9488,21.2292 -0.948426,0.993308 -12.8232,13.8898 -5.78977,14.4744 8.4319,0.701575 19.454,-10.0181 27.0189,-13.5095 28.7811,-13.2815 17.4343,-0.622441 0,11.5795 -1.42441,0.996851 -43.2591,31.4634 -19.2992,23.1591 2.90079,-1.00512 35.3185,-19.9394 28.9488,-9.64961 -6.26221,10.1173 -18.1228,17.2087 -26.054,26.054 -4.87205,5.43544 47.2075,-27.8906 31.8437,-8.68465 -3.94961,4.93701 -34.2626,32.8087 -23.1591,32.8087 15.8752,0 -12.502,19.4103 -7.71969,31.8437 3.12874,8.1378 6.60709,0.178347 1.92992,11.5795 -1.23189,3.00591 -3.66614,15.698 -5.78977,16.4043"/>
  </g>
 </g>
</svg>
