<?xml version="1.0" encoding="UTF-8"?>
<!DOCTYPE svg PUBLIC "-//W3C//DTD SVG 1.1//EN" "http://www.w3.org/Graphics/SVG/1.1/DTD/svg11.dtd">
<!-- Creator: CorelDRAW -->
<svg xmlns="http://www.w3.org/2000/svg" xml:space="preserve" width="1000px" height="1000px" style="shape-rendering:geometricPrecision; text-rendering:geometricPrecision; image-rendering:optimizeQuality; fill-rule:evenodd; clip-rule:evenodd"
viewBox="0 0 1000 1000"
 xmlns:xlink="http://www.w3.org/1999/xlink">
 <defs>
  <style type="text/css">
   <![CDATA[
    .fil1 {fill:black}
    .fil2 {fill:white}
    .fil0 {fill:#A5A3B4}
   ]]>
  </style>
 </defs>
 <g id="Warstwa_x0020_1">
  <metadata id="CorelCorpID_0Corel-Layer"/>
  <circle class="fil0" cx="500.68" cy="498.622" r="485.835"/>
  <g id="_199443024">
   <path id="_294241232" class="fil1" d="M477.457 931.94c-16.7232,-1.85788 -27.7748,-7.62875 -27.7748,-27.1878 -4.10788,-4.10788 -12.2256,-44.3044 -12.2256,-50.2701 -7.52953,-4.79174 -7.52953,-4.79174 -22.3961,-11.5394 -26.3079,-3.52087 -48.9,22.4929 -75.306,25.9169 -14.7673,-3.52087 -25.9169,-21.2232 -25.9169,-36.0886 7.13977,-10.6606 52.226,-59.6575 40.7835,-71.9812 -4.89095,-39.3154 -67.2863,-26.4059 -71.1012,-64.9382 1.76103,-10.0736 2.25,-22.6902 10.5626,-29.5359 23.4721,-2.15197 46.7481,-2.64095 70.3182,-3.03189 9.77954,-4.10788 15.5504,-11.9315 22.2,-20.1473 4.20591,-23.0799 -18.1902,-66.0142 -7.52953,-84.1075 13.1043,-8.01969 27.3839,-18.5823 42.0532,-10.1717 13.5945,16.2354 27.189,32.5677 40.7823,48.9 9.87875,7.13977 23.4721,7.82481 34.6217,3.42284 14.6705,-16.8213 29.3398,-33.5445 44.1083,-50.2689 14.5713,-8.3126 38.3374,-0.879922 43.8142,15.9414 -0.294095,15.9414 -1.66299,17.3114 -1.66299,20.0492 -1.3689,1.3689 -8.11772,42.1524 -9.48662,43.4233 1.27087,14.2784 6.94371,26.6988 20.3421,33.3496 22.298,1.3689 44.5973,2.83583 66.8953,4.30276 16.2343,6.16182 21.8091,34.6217 9.19371,47.2382 -20.2453,10.2685 -42.6414,19.4622 -60.8315,32.9587 -4.49882,8.50867 -5.77087,17.9941 -5.77087,27.5788 12.7146,23.0811 32.6658,40.0004 41.7603,65.4284 -7.52953,15.6484 -16.7232,28.9488 -35.5985,28.2638 -19.5603,-9.0945 -39.0225,-18.1902 -58.4847,-27.1878 -12.2244,1.85788 -20.2441,7.33465 -30.0248,14.1803 -4.40079,21.1252 -11.2465,49.878 -20.048,69.2434 -9.29174,5.28071 -12.6165,6.25867 -23.2772,6.25867z"/>
   <path id="_294241256" class="fil2" d="M470.71 916.977c-11.7366,-9.38859 -5.47678,-31.9807 -14.2795,-40.7823 0,-9.87757 -7.82363,-26.504 -12.8114,-34.7197 -14.5725,-7.52953 -23.276,-12.6154 -39.5114,-14.1803 -1.27087,1.3689 -4.00985,1.3689 -44.7922,20.4402 -17.8973,0 -14.8654,14.5725 -28.2638,-5.86772 -0.488977,-2.54292 -0.879922,-4.9878 -1.27205,-7.43268 12.7146,-17.6043 25.526,-35.1107 38.3386,-52.617 4.79174,-16.3323 -0.0980316,-33.1536 -8.11772,-47.5311 -9.48662,-6.16063 -9.48662,-6.16063 -59.7556,-33.2516 -5.18386,-10.4646 0.0980316,-18.0933 7.43268,-24.45 18.8752,-0.390945 37.7504,-0.78189 56.7237,-1.07599 20.4402,-4.00985 27.091,-14.7673 37.7504,-31.5886 -1.46693,-24.6461 -7.82363,-48.0201 -10.5626,-72.3721 4.20591,-8.50867 11.8347,-10.4646 20.7343,-10.4646 13.5945,16.0394 27.1878,32.1756 40.8803,48.313 14.2784,10.5626 41.1733,10.3665 55.5497,-0.0980316 12.9106,-14.9634 25.8201,-29.9268 38.7296,-44.7922 8.50867,-4.00985 17.5063,-1.3689 22.689,7.04174 -0.977954,23.961 -9.58347,46.552 -11.1484,70.3182 4.9878,14.4744 14.2784,24.254 25.8189,34.0347 11.4425,1.66181 63.4725,2.93386 70.6111,4.00985 4.9878,6.64961 9.9756,16.4303 4.69489,23.863 -19.8532,10.6595 -39.7075,21.4181 -59.4626,32.1756 -9.58465,13.2036 -11.2465,26.3079 -12.5185,42.4453 22.5921,33.4477 34.7197,48.9 40.7823,58.4847 0,8.89961 -8.21457,18.1902 -17.2122,17.7012 -37.5555,-16.9193 -75.1099,-45.0851 -105.037,-1.46693 0,17.6043 -13.5945,36.7725 -13.5945,54.3768 -7.43268,11.3445 -8.99764,9.48662 -22.3961,9.48662z"/>
   <path id="_294241376" class="fil1" d="M709.732 785.24c-7.82363,-4.30276 -42.7382,-20.3421 -26.4059,-36.6744 0,-19.6583 16.0394,-39.5114 13.8874,-59.4626 -3.81378,-6.55276 -7.52953,-13.1055 -11.2465,-19.5603 -20.5382,-14.7673 -53.8878,-8.50867 -77.3599,-19.4622 -7.92166,-11.9315 -7.23662,-29.1437 -3.32481,-42.3473 21.8091,-15.4524 53.3989,-10.3665 75.7949,-24.1559 12.5185,-22.0051 13.9854,-28.4599 2.24882,-52.3229 0,-17.1154 -21.2221,-33.3496 -10.9536,-50.465 9.29174,-5.86772 18.5823,-11.7366 27.8729,-17.5063 25.526,4.79174 40.6855,37.7504 62.4945,53.0079 9.9756,-0.196063 22.5921,1.66181 31.2957,-3.42284 14.6705,-17.7024 29.3398,-35.4036 44.1083,-53.0079 12.7134,-5.08583 33.4477,7.43268 40.7823,17.7012 0.587008,7.2378 -1.07599,30.2209 -6.84567,35.9906 0,14.6705 -10.1717,26.602 -8.31379,42.2492 3.913,6.55276 7.82481,13.2036 11.7366,19.8543 22.4941,12.5185 53.2028,6.0626 76.7729,17.7992 7.23662,13.6913 4.6937,25.8189 4.00985,40.9784 -28.6559,25.8189 -96.5292,1.85788 -85.7705,61.2225 8.41064,18.2882 18.0933,41.3693 20.2441,61.3205 -3.71575,9.29056 -23.863,20.8311 -33.7406,23.0811 -2.93386,-0.783071 -5.86772,-1.56496 -8.70473,-2.34803 -25.1339,-27.0898 -25.1339,-27.0898 -47.53,-48.9 -10.2697,-4.40079 -25.428,-4.1067 -34.6217,2.73898 -42.8363,51.6378 -42.8363,51.6378 -45.4772,53.0079 -3.71575,0.194882 -7.33465,0.390945 -10.9536,0.683859z"/>
   <path id="_294241088" class="fil2" d="M711.786 769.593c-8.01969,-2.93386 -23.4721,-11.7366 -13.5933,-22.3961 0,-16.6264 13.5933,-34.7197 13.5933,-51.639 0.390945,-0.488977 0.879922,-0.977954 1.37008,-1.3689 -3.22796,-13.9854 -10.0736,-24.7429 -18.9732,-35.9906 -19.6583,-16.8213 -50.954,-6.74764 -73.7422,-18.9732 -2.05276,-4.49882 -4.1067,-16.0394 -3.71575,-19.7551 11.4425,-8.21575 30.2197,-11.0516 44.1071,-13.5945 1.37008,-1.27087 16.3335,-4.00985 17.7024,-5.37874 16.7232,0 27.3839,-31.5898 29.2418,-44.7922 -1.3689,-1.37008 -5.47678,-13.5945 -5.47678,-16.3335 -7.33465,-14.5713 -16.9193,-35.3055 -15.6473,-51.6378 6.55276,-3.81378 10.9536,-8.80158 18.6791,-7.13977 13.3016,11.9315 24.841,25.526 47.9221,47.2382 15.1595,5.86772 31.9807,2.15079 47.5311,-1.07599 14.4744,-17.3114 28.9488,-34.6217 43.4233,-51.9319 10.4646,0 18.8752,3.12992 21.124,14.2784 -4.59685,4.59685 -2.15079,15.6484 -6.84567,20.3421 0,16.1374 -11.6386,30.0248 -9.87757,47.1402 6.84567,13.3984 13.4965,28.1658 26.8949,35.7945 59.7556,10.1717 59.7556,10.1717 64.5473,12.0295 4.00985,6.25867 5.37993,17.1154 0.68504,22.5921 -19.9512,5.18268 -39.9024,10.3665 -59.8536,15.5492 -11.1496,5.96575 -36.7725,37.2626 -26.4059,47.6292 4.69489,19.6571 19.7551,42.5433 20.6362,62.0056 -4.30394,7.13859 -11.1496,9.48662 -18.6803,11.3445 -17.3102,-16.6264 -33.7406,-35.8925 -52.9099,-50.2689 -13.3984,-0.587008 -26.015,0.683859 -39.4134,1.95591 -18.7772,14.9634 -31.2957,45.6721 -52.3229,54.3768z"/>
   <path id="_294240992" class="fil1" d="M474.818 763.529c-24.1571,-5.28189 -31.6878,-29.7319 -21.1252,-50.2689 21.3201,-21.3213 44.2052,-17.3114 57.4087,11.1484 1.27087,25.037 -12.1276,39.1205 -36.2835,39.1205z"/>
   <path id="_294241040" class="fil1" d="M777.018 648.712c-35.9894,-4.49882 -27.5788,-60.6355 12.9106,-52.3229 3.81378,2.73898 7.62757,5.47678 11.5394,8.21575 10.5626,23.178 2.54292,42.1512 -24.45,44.1071z"/>
   <path id="_294241112" class="fil1" d="M328.118 620.839c-6.84567,-1.3689 -8.21575,-2.73898 -14.2795,-4.69489 -13.1043,-14.2784 -20.2441,-48.5079 -25.5248,-68.3611 -6.84686,-9.68268 -18.1914,-13.2036 -29.5359,-13.2036 -20.4402,11.5406 -40.7823,23.0811 -61.1256,34.6217 -17.2122,-0.881103 -22.591,-9.68268 -34.6205,-21.7122 0,-31.1977 49.291,-79.9028 8.80158,-101.223 -20.4402,-3.42284 -40.7823,-6.84567 -61.1245,-10.1705 -21.3201,-11.3457 -23.961,-38.9244 -4.00985,-52.9099 17.6043,-8.89961 35.2075,-17.7024 52.9099,-26.504 7.92166,-7.92166 7.33465,-20.4402 6.25867,-30.8067 -12.3225,-16.2354 -38.1414,-45.2823 -44.8902,-55.4528 1.17402,-14.5725 5.96575,-30.1229 19.6583,-37.3595 24.5481,0 49.487,8.70355 73.3501,14.2784 1.3689,-1.3689 1.3689,-1.3689 8.11654,-3.42284 4.30394,-3.6189 8.6067,-7.23662 12.9106,-10.8555 7.7256,-24.2551 -1.66299,-52.8119 4.40079,-77.1638 7.7256,-12.4217 29.0457,-20.3433 42.6402,-13.1055 13.9854,17.7992 27.9709,35.6965 41.9563,53.5937 8.50867,5.67284 19.4622,6.55276 29.2418,4.10788 15.5504,-18.1902 31.1988,-36.2835 46.8461,-54.3768 14.3776,-9.9756 34.2307,-0.0980316 44.1083,12.9095 -2.05394,54.9638 -3.12992,60.0497 -3.12992,72.9591 5.37874,7.53071 11.7366,12.7134 18.7784,18.6791 26.8949,4.59685 58.4835,-18.1902 83.5205,-7.62757 11.2465,18.5823 20.8311,25.2319 8.11772,43.7162 -42.0544,44.5973 -42.0544,44.5973 -44.1083,48.215 1.27205,8.99764 1.3689,19.3654 6.16182,27.091 19.9512,14.6705 44.6941,22.3961 63.3745,38.7284 1.95591,13.7906 0.0980316,22.6902 -4.30394,36.6756 -3.22677,2.24882 -6.45473,4.49882 -9.58347,6.84567 -41.4674,5.57481 -102.69,1.46693 -73.9371,58.3867 0,2.7378 4.00985,10.8555 4.00985,13.5945 7.13977,14.2784 14.1803,30.3177 4.10788,44.1071 -13.9854,10.8555 -16.1374,12.9095 -31.9807,12.9095 -19.0713,-12.2244 -38.0445,-24.45 -57.0178,-36.6744 -14.9634,2.54292 -33.2516,5.08583 -33.2516,24.45 -13.3984,20.1461 -7.92166,50.465 -33.9366,59.0705 -4.30276,0.196063 -8.6067,0.392126 -12.9095,0.68504z"/>
   <path id="_294236552" class="fil2" d="M325.379 605.875c-10.0736,-9.29056 -17.5063,-37.2614 -19.6571,-51.541 -1.37008,-1.3689 -4.10788,-11.5394 -8.21575,-19.7551 -10.7575,-8.6067 -22.102,-12.8114 -35.4036,-15.2563 -10.2685,1.17284 -88.6064,63.3733 -82.9335,15.7453 10.5614,-24.5481 23.863,-46.2591 23.276,-73.154 -5.96575,-9.9756 -11.0516,-21.6142 -21.0272,-27.8729 -14.8654,-2.83701 -29.7307,-5.67284 -44.5973,-8.50867 -21.4181,-0.587008 -27.7748,-3.52087 -28.6547,-24.2551 0.587008,-1.0748 1.17402,-2.15079 1.85788,-3.22677 22.0051,-11.2476 45.2811,-21.3201 65.2323,-35.9906 5.77087,-12.9095 5.47678,-28.1658 5.47678,-41.3693 -14.9634,-18.1902 -29.9268,-36.2835 -44.8902,-54.3768 0.881103,-7.62875 3.12992,-14.3764 10.2697,-18.2882 25.7209,2.15079 50.1709,11.3445 75.9898,12.9095 11.3457,-8.70473 20.6362,-15.7465 29.2429,-27.189 0,-2.7378 1.3689,-4.1067 1.3689,-31.2957 -3.91181,-3.91181 -1.56496,-29.0469 -1.56496,-35.5016 4.30394,-9.48662 14.6705,-16.1362 24.6461,-10.8555 23.0799,31.3937 23.0799,31.3937 40.0973,52.5189 13.0075,8.99764 31.9807,7.13977 46.8461,2.7378 36.6756,-43.5201 36.6756,-43.5201 46.8461,-53.6918 8.99764,0 15.6484,1.95591 21.0272,9.48662 -1.17284,24.939 -2.44488,49.6819 -1.3689,74.719 6.74764,9.19371 16.1374,15.3543 25.1351,22.3961 25.3299,1.85788 51.3449,-5.18268 76.0879,-10.1705 7.33465,3.61772 11.4425,12.0284 11.8335,20.048 -14.2784,20.1473 -34.9146,34.9146 -47.8241,56.0398 -4.10788,29.2418 4.30276,39.0225 26.504,53.6918 13.9854,7.53071 27.9709,15.0614 42.0544,22.6902 3.91181,6.64961 0.0968505,20.5382 -6.74882,24.1559 -21.2221,3.03189 -42.4453,6.06378 -63.5693,9.09568 -17.3114,7.04174 -26.4059,25.8189 -26.7981,43.8142 7.92284,20.7343 17.8984,41.6634 22.1032,63.4725 -3.52087,8.11772 -8.99764,10.5626 -17.3102,12.6165 -20.5382,-13.0075 -40.3914,-27.678 -62.8855,-37.0666 -14.3764,0.488977 -43.7162,7.13977 -43.7162,26.2099 -12.7146,12.7146 -8.70473,47.4331 -25.1351,57.0178 -4.59685,0 -9.09568,0 -13.5945,0z"/>
   <path id="_199443168" class="fil1" d="M330.759 413.014c-28.4599,-4.88977 -37.0666,-34.1327 -26.7981,-58.2886 23.0811,-27.3839 56.8217,-22.1032 69.9272,11.0516 0.977954,22.689 -3.42284,31.0996 -21.3201,44.4981 -2.73898,0 -4.10788,1.37008 -21.8091,2.73898z"/>
  </g>
 </g>
</svg>
