<?xml version="1.0" encoding="UTF-8"?>
<!DOCTYPE svg PUBLIC "-//W3C//DTD SVG 1.1//EN" "http://www.w3.org/Graphics/SVG/1.1/DTD/svg11.dtd">
<!-- Creator: CorelDRAW -->
<svg xmlns="http://www.w3.org/2000/svg" xml:space="preserve" width="1000px" height="1000px" style="shape-rendering:geometricPrecision; text-rendering:geometricPrecision; image-rendering:optimizeQuality; fill-rule:evenodd; clip-rule:evenodd"
viewBox="0 0 1000 1000"
 xmlns:xlink="http://www.w3.org/1999/xlink">
 <defs>
  <style type="text/css">
   <![CDATA[
    .str2 {stroke:#1F1A17;stroke-width:6.2504}
    .str1 {stroke:#1F1A17;stroke-width:8.33386}
    .str3 {stroke:#1F1A17;stroke-width:12.4996}
    .str0 {stroke:#1F1A17;stroke-width:16.6665}
    .fil1 {fill:none}
    .fil2 {fill:white}
    .fil0 {fill:#A5A3B4}
   ]]>
  </style>
 </defs>
 <g id="Warstwa_x0020_1">
  <metadata id="CorelCorpID_0Corel-Layer"/>
  <circle class="fil0" cx="500.68" cy="498.622" r="485.835"/>
  <g id="_295559064">
   <path id="_295547184" class="fil1 str0" d="M480.737 547.907c-8.72599,122.166 26.6799,204.226 44.0138,317.13 7.43623,48.4382 16.337,70.5839 34.5496,130.466"/>
   <path id="_295547016" class="fil1 str0" d="M577.795 611.106c-21.5953,70.1871 -39.9213,187.48 -14.6717,260.701 13.2555,38.4378 19.4953,93.8765 42.6142,127.107"/>
   <path id="_295547712" class="fil2 str1" d="M580.791 613.332c-24.7004,0 -13.8921,-29.5477 -18.065,-34.6855 -18.1689,-22.3736 7.94883,-36.4394 7.94883,-17.3433 -4.33583,-17.3646 -21.4559,-80.5595 7.94883,-37.5768 0.938977,1.37244 -12.1878,-17.5937 -5.05867,-36.1299 1.48701,-3.86811 6.35906,-43.0914 14.452,-18.789 0,-9.02835 -13.6665,-17.5146 -7.94883,-33.2398l11.5618 -31.7953c6.63189,26.5607 -1.1126,-14.3469 0.722835,-20.9563 2.96575,-10.6807 5.55237,-34.4859 11.5618,-14.4532 0.433465,1.44567 5.86063,-69.2233 15.1748,-50.5831 6.34843,12.7028 0.722835,-4.31693 0.722835,-12.2847 0,-12.4736 7.26497,-38.4898 13.7303,-21.678 5.69056,14.7957 -0.722835,-14.3976 -0.722835,-20.2335 0,-7.30276 5.49685,-18.7654 8.67166,-23.8465 6.47717,-10.3642 0.848032,-6.18071 4.33583,2.89016 2.76851,7.19882 1.49291,-14.8973 2.89016,-20.9563 2.21693,-9.60709 11.5689,-14.4673 13.7303,-20.9563 0,14.7295 8.67048,29.1378 8.67048,46.9713 0,3.78425 -8.67048,16.8366 -8.67048,16.6205 0,-6.62717 9.35906,-9.88583 11.5618,-1.44567 2.7,10.3547 3.40512,26.5488 0,35.4083 -2.67992,6.96733 -20.9563,26.7992 -20.9563,26.7366 0,-2.83583 10.5165,-8.27009 10.839,-7.94883 10.5177,10.5177 -6.67205,43.0418 -10.1161,49.1386 -0.938977,1.66063 5.05867,-3.22087 5.05867,8.67166 0,11.2146 -5.36693,21.5669 -9.3945,29.6268 -10.676,21.3638 -2.16851,-1.21536 -2.16851,8.67166 0,14.4319 -2.76614,26.1118 -4.33583,39.7441 -0.544489,4.73386 -7.56615,15.4488 -10.839,20.2335 -2.24528,3.28229 9.50434,-6.82914 10.1173,-8.67166 0,22.3536 -4.60394,38.8855 -21.6792,52.7516 -19.2803,15.6579 5.05867,-1.78937 5.05867,19.5106 0,13.826 -24.5988,47.0516 -19.5106,45.5256 10.9677,-3.28937 -4.4941,16.2118 -5.7815,18.7878 -5.0067,10.0193 -19.1492,13.0075 -19.5106,12.2847z"/>
   <path id="_295547448" class="fil2 str1" d="M482.501 556.408c-28.0288,9.61891 -24.463,-27.1252 -30.7099,-31.1587 -27.2032,-17.5606 -1.70669,-43.2201 3.91418,-22.1917 -10.0299,-17.4331 -48.0603,-80.3516 -2.04095,-44.4721 1.46929,1.14449 -19.0087,-14.6268 -16.3748,-37.8154 0.548032,-4.83662 -5.46851,-49.9241 10.8697,-26.3162 -2.65866,-9.94135 -20.6658,-13.9642 -18.8055,-33.5067l3.76063 -39.5126c15.3437,26.6646 -5.48622,-15.365 -5.34804,-23.3575 0.220866,-12.9142 -3.85158,-40.1351 8.86536,-20.4166 0.916536,1.42323 -13.7268,-78.5068 2.33032,-61.6087 10.9429,11.5158 -0.451181,-5.03504 -2.79685,-13.8083 -3.67087,-13.7351 -3.08504,-45.2103 9.19961,-29.217 10.813,14.0752 -5.05867,-15.5717 -6.77599,-21.998 -2.14961,-8.04095 0.713386,-22.8036 2.82047,-29.6351 4.29922,-13.9335 -0.857481,-7.13623 5.77087,1.4941 5.26063,6.84804 -2.69173,-16.9854 -2.88898,-24.2008 -0.312992,-11.4425 8.87009,-20.4354 9.41103,-28.4221 4.33583,16.2189 18.4169,28.7067 23.6658,48.3437 1.11496,4.16693 -4.88386,21.9154 -4.94764,21.678 -1.95,-7.29686 7.71142,-14.5311 12.6945,-6.09449 6.11339,10.3512 11.6811,27.9083 10.4232,38.9894 -0.989765,8.71536 -15.8917,37.6701 -15.9095,37.6016 -0.83504,-3.12284 9.49961,-13.2024 9.96024,-12.9732 15.0295,7.48465 5.09882,49.9926 2.98465,58.0465 -0.576378,2.19449 4.79174,-5.51575 8.29253,7.57914 3.30118,12.3484 0.259843,25.8378 -1.93937,36.2823 -5.8252,27.6815 -2.81811,-0.494882 0.0933072,10.3925 4.24725,15.8917 4.54607,29.8288 6.77835,45.4512 0.774804,5.42481 -4.03819,19.9583 -6.34371,26.5016 -1.5815,4.48701 8.77442,-11.2217 8.92796,-13.4882 6.57993,24.613 6.22205,44.6103 -9.07205,66.528 -17.2701,24.75 5.21339,-3.94016 11.4827,19.5142 4.07008,15.2232 -14.0634,61.389 -8.73898,57.7264 11.478,-7.89213 -0.327166,19.6016 -1.02992,22.9394 -2.73189,12.9827 -17.8996,21.7795 -18.5232,21.1252z"/>
   <path id="_295547208" class="fil1 str1" d="M647.862 233.681c0.961418,0.0448819 1.64173,-0.0177165 2.52638,0.360237 0,5.12835 -1.30276,11.4165 0.360237,16.239 0.37441,1.08307 0.294095,2.49213 0.721654,3.60827 0.728741,1.89331 1.03465,3.64134 2.16496,5.413 0.967324,1.51536 3.60945,5.53229 3.60945,7.21654"/>
   <path id="_295547112" class="fil1 str1" d="M446.856 112.245c1.10315,-0.324803 1.85788,-0.659056 2.97166,-0.587008 1.50945,5.64804 1.88268,13.0784 5.18977,17.7402 0.742914,1.04764 1.06654,2.63032 1.8815,3.69213 1.38307,1.80236 2.24528,3.60709 4.05,5.11772 1.5437,1.29095 5.72363,4.68662 6.21851,6.54095"/>
   <path id="_295547664" class="fil1 str1" d="M634.871 278.066c-3.61536,5.62441 0,14.1496 0,20.2075 0,2.91142 0.360237,7.57087 1.08307,10.4646 0.980316,3.92835 4.71615,6.97796 5.413,10.4646"/>
   <path id="_295547616" class="fil1 str1" d="M445.18 166.177c-2.44843,7.60158 4.16457,15.5811 5.94804,22.252 0.8563,3.20551 2.63622,8.19568 4.30866,11.1012 2.2689,3.9437 7.40552,5.84646 9.22205,9.41457"/>
   <path id="_295547640" class="fil1 str1" d="M621.16 316.676c0,7.31575 -0.122835,5.04804 1.80354,9.74292 4.3252,10.5413 5.44843,22.0819 3.96969,33.9201"/>
   <path id="_295547424" class="fil1 str1" d="M440.985 214.032c2.15315,8.05512 1.34646,5.60552 4.91575,10.0252 8.01024,9.92363 12.6827,22.1929 14.4886,35.8051"/>
   <path id="_295547136" class="fil1 str1" d="M602.396 366.114c6.72048,6.72048 13.5933,14.5488 15.8764,23.4543 1.87087,7.29331 1.08307,16.0854 1.08307,23.8169"/>
   <path id="_295547496" class="fil1 str1" d="M434.244 275.776c9.60473,4.78347 19.7079,10.7268 24.9213,19.6441 4.26969,7.30158 5.96339,17.2902 8.23938,25.8036"/>
   <path id="_295563144" class="fil1 str1" d="M655.801 361.783c-2.79567,1.50591 -4.80473,4.20827 -6.85512,6.49607 -1.6748,1.86614 -3.59055,3.95079 -5.413,5.77323 -1.49764,1.49764 -2.77795,3.33071 -3.96969,5.05158 -2.12835,3.07559 -4.83544,5.2063 -6.8563,8.29961 -1.06417,1.6311 -3.60827,5.72008 -3.60827,7.57796l-0.361418 0.361418"/>
   <path id="_295563192" class="fil1 str1" d="M493.572 250.21c-2.73071,2.74725 -4.21418,6.50552 -5.86772,9.82205 -1.35118,2.70709 -2.91142,5.74961 -4.44331,8.46615 -1.25788,2.23229 -2.17087,4.74804 -3.01654,7.10788 -1.51063,4.21536 -3.95551,7.61575 -5.33741,11.8087 -0.72756,2.21103 -2.41063,7.70316 -1.86378,9.75001l-0.303544 0.537402"/>
   <path id="_295563168" class="fil1 str1" d="M664.1 312.346c-6.49725,4.72559 -13.0417,9.12639 -18.0425,15.5173 -1.69606,2.16614 -3.7063,5.52638 -5.05158,7.9382 -0.713386,1.2815 -4.28504,6.81142 -3.96969,6.49489"/>
   <path id="_295562688" class="fil1 str1" d="M488.438 192.542c-5.98347,7.73268 -12.1134,15.1276 -15.9059,24.1122 -1.2874,3.04607 -2.57953,7.52835 -3.39685,10.7079 -0.432284,1.68898 -2.85709,9.1689 -2.59134,8.69883"/>
   <path id="_295562928" class="fil1 str1" d="M667.71 257.858c-0.0484252,0.719292 0.00944883,1.18583 -0.361418,1.80354 -6.58701,0 -13.2886,14.6669 -15.8776,19.8473 -2.57599,5.15079 -2.35984,9.65434 -3.24685,15.1559 -1.01457,6.2941 -2.16614,12.5102 -3.60945,18.7642"/>
   <path id="_295562328" class="fil1 str1" d="M476.494 131.138c0.157087,0.811418 0.360237,1.30158 0.121654,2.12717 -7.4752,2.56536 -10.7622,21.3248 -12.1748,28.037 -1.40669,6.6756 0.162992,11.55 0.775985,17.9528 0.701575,7.32638 1.2248,14.6197 1.42913,22.0677"/>
   <path id="_295562496" class="fil1 str1" d="M644.976 412.663c0.602363,-1.81063 1.17402,-3.16299 1.44331,-5.05276 -1.4811,0 -6.41575,3.77008 -7.57796,4.69134 -6.21615,4.93111 -11.4685,9.94253 -15.5162,16.9606 -2.07402,3.59292 -4.3878,5.8193 -5.77441,9.74292 -1.03228,2.92087 -2.21221,5.86654 -3.60827,8.65985"/>
   <path id="_295562904" class="fil1 str1" d="M496.265 310.451c0.151181,-2.22756 0.400394,-3.93898 0.15,-6.12402 -1.68071,0.576378 -6.17008,6.64843 -7.21772,8.11654 -5.60197,7.85079 -10.0866,15.4122 -12.6154,24.7169 -1.29567,4.76457 -3.26457,8.11654 -3.68268,12.9768 -0.312992,3.6189 -0.783071,7.32284 -1.54606,10.9417"/>
   <path id="_295562832" class="fil1 str1" d="M595.539 408.332c0.432284,2.02323 1.00158,3.49961 1.80354,5.413 2.62323,6.25394 3.34134,13.3913 5.05276,19.8473 0.316536,1.1941 0.720473,2.52166 1.08189,3.60827 0.680315,2.04567 0.48189,3.42992 1.80473,5.413 0.916536,1.37599 2.06575,2.42599 3.24685,3.60827"/>
   <path id="_295562472" class="fil1 str1" d="M438.892 324.935c1.08662,2.05866 2.16732,3.46299 3.64134,5.25827 4.81654,5.86536 7.73268,13.4433 11.5748,19.8862 0.709843,1.19173 1.56024,2.49685 2.29016,3.55158 1.37362,1.9878 1.55551,3.58937 3.64016,5.25709 1.44567,1.15866 3.05906,1.86851 4.74804,2.70945"/>
   <path id="_295562736" class="fil1 str1" d="M583.992 459.573c3.17717,6.3567 6.28347,11.524 8.29961,18.0425 1.60039,5.17678 2.16496,10.1138 2.16496,15.8776"/>
   <path id="_295562568" class="fil1 str1" d="M440.873 385.855c5.47678,5.76142 10.5224,10.2413 14.7284,16.6347 3.34016,5.07756 5.43426,10.2933 7.13032,16.6406"/>
   <path id="_295562808" class="fil1 str1" d="M637.036 469.678c-6.40276,-1.19173 -3.99803,-1.25551 -7.9382,0.360237 -15.7701,6.47008 -28.7622,20.5063 -32.837,36.8067"/>
   <path id="_295562880" class="fil1 str1" d="M504.039 376.323c-7.61694,1.1811 -4.90748,0.174803 -8.90198,3.48898 -15.991,13.265 -26.602,33.7796 -26.4284,53.3162"/>
   <path id="_295562856" class="fil1 str1" d="M572.806 514.422c1.15984,2.70709 2.05984,6.17008 3.96969,8.29961 2.58189,2.87835 2.90197,8.95513 3.60827,12.6295 0.977954,5.09056 0.197244,10.5307 1.44331,15.5173"/>
   <path id="_295562376" class="fil1 str1" d="M444.324 450.606c2.11299,2.52992 4.15394,5.99292 6.94725,7.59331 3.77717,2.16378 5.93032,8.73072 7.813,12.502 2.60788,5.22284 3.32244,11.5181 6.20552,16.5236"/>
   <path id="_295563000" class="fil1 str1" d="M621.52 521.279c-9.53268,6.52205 -19.9016,11.4083 -26.3421,21.6508 -3.51851,5.59843 -6.1004,11.7721 -7.57796,17.6823"/>
   <path id="_295562784" class="fil1 str1" d="M501.622 439.185c-8.89843,10.8945 -19.2248,20.3126 -23.5181,34.0996 -2.34567,7.53426 -3.45827,15.3378 -3.39449,22.4209"/>
   <path id="_295562616" class="fil1 str1" d="M585.075 597.779c5.47205,-0.389764 10.6028,-7.17993 14.4331,-10.4646 2.9126,-2.49685 5.73308,-7.25316 8.29961,-10.4646 1.81063,-2.26181 3.96969,-5.38229 3.96969,-8.29961"/>
   <path id="_295561920" class="fil1 str1" d="M482.783 537.615c6.09567,-2.56063 9.91891,-12.0354 13.2992,-17.1437 2.57008,-3.88347 4.3689,-10.2189 6.33662,-14.7543 1.3878,-3.19607 2.91969,-7.47284 2.06103,-10.6854"/>
   <path id="_295561872" class="fil1 str1" d="M576.414 607.162c1.1941,-6.7689 4.08898,-14.1543 8.66103,-19.4858 3.4878,-4.07008 4.69016,-12.7961 4.69016,-18.0425"/>
   <path id="_295562016" class="fil1 str1" d="M475.718 551.319c-0.637796,-7.91812 0.473622,-17.178 4.09134,-24.8292 2.76024,-5.83937 1.55669,-15.9165 0.011811,-21.6945"/>
   <path id="_295562184" class="fil1 str2" d="M556.945 558.413c3.45,-0.635434 5.53347,-0.6 8.67166,-2.16851 -4.67126,-1.55551 -12.2575,-15.1181 -14.452,-19.5106 -6.81497,-13.6382 -11.8051,-28.4067 -13.0075,-44.08 -0.787796,-10.2602 1.95,-35.2134 -3.61299,-42.6343"/>
   <path id="_295561848" class="fil1 str2" d="M439.275 505.222c3.72874,-2.04331 6.10276,-2.81457 9.20198,-5.76378 -5.75788,0.105118 -18.3591,-11.8736 -22.1433,-15.8563 -11.7473,-12.3638 -21.7571,-26.6823 -27.7347,-43.4717 -3.91418,-10.9913 -8.15316,-39.5351 -16.65,-45.5398"/>
   <path id="_295561728" class="fil1 str2" d="M551.164 382.816c0,23.9516 4.33465,48.3048 4.33465,72.9851 1.16693,0.387402 0.722835,0.779528 0.722835,2.16732 2.2878,0.761812 15.8977,43.5437 15.8977,48.4158"/>
   <path id="_295562160" class="fil1 str2" d="M381.026 314.118c7.05001,26.374 19.1386,51.502 26.4036,78.6768 1.4374,-0.0271654 1.05,0.57756 1.45866,2.10591 2.81929,-0.0519685 30.8575,41.7567 32.2914,47.1213"/>
   <path id="_295561632" class="fil1 str2" d="M571.397 301.882c8.10355,21.6083 5.05867,55.578 5.05867,79.4883 0,11.2571 -3.57402,24.2882 -0.722835,35.4083 2.66575,10.3961 -0.0389764,27.2114 5.05867,36.1311"/>
   <path id="_295561776" class="fil1 str2" d="M380.162 217.12c15.5551,20.6386 22.1008,59.23 29.139,85.5579 3.31299,12.3957 3.09331,28.1362 9.60237,39.2705 6.08386,10.4091 7.96536,29.9776 16.376,37.8142"/>
   <path id="_295561944" class="fil1 str2" d="M666.784 402.326c-4.63465,10.2992 -7.96772,21.1961 -13.0075,31.7953 -4.61575,9.70749 -9.41339,20.7449 -15.1748,29.628"/>
   <path id="_295561584" class="fil1 str2" d="M517.968 290.576c-2.22638,13.1469 -2.80158,26.4425 -5.4,40.076 -2.37992,12.4878 -4.57559,26.5099 -8.49922,38.5335"/>
   <path id="_295562112" class="fil1 str2" d="M681.958 386.429c-7.33465,25.6725 -14.3551,53.3811 -27.4595,77.3209 -3.88347,7.09134 -7.12323,13.5744 -11.563,20.2323 -4.5626,6.84567 -17.3693,18.1914 -18.7878,25.2921"/>
   <path id="_295561560" class="fil1 str2" d="M530.509 267.162c-0.766536,31.1256 -0.576378,64.3689 -8.40001,95.8335 -2.31851,9.32009 -4.08662,17.7213 -7.16457,26.7815 -3.16299,9.31418 -14.3551,26.7945 -13.8744,35.1662"/>
   <path id="_295561680" class="fil1 str2" d="M648.717 492.654c-2.20158,7.70906 -4.08662,15.3957 -7.22599,22.402 -3.19134,7.12087 -5.85473,17.7071 -10.839,23.8465 -2.04921,2.52047 -3.27638,5.51457 -5.05867,8.67048 -0.526772,0.93189 -1.50827,2.07874 -2.16851,2.89134 -4.26496,5.25473 3.39213,1.04528 -6.50315,10.1161"/>
   <path id="_295562256" class="fil1 str2" d="M524.058 397.074c-0.230315,9.34607 -0.106299,18.5433 -1.6063,27.4807 -1.5248,9.08505 -1.4315,21.7784 -5.28071,30.4796 -1.5815,3.57402 -2.0941,7.34882 -3.1878,11.5181 -0.322441,1.23071 -1.09843,2.87599 -1.60866,4.02756 -3.2941,7.44686 4.15748,-0.170079 -4.40197,13.6725"/>
   <path id="_295562088" class="fil1 str2" d="M670.397 470.976c-4.76339,22.2378 -17.6929,42.1418 -29.628,61.4221 -3.71575,6.00237 -10.441,13.9866 -15.1748,19.5106 -4.24252,4.95 -14.2382,14.3882 -15.1748,20.9563"/>
   <path id="_295561488" class="fil1 str2" d="M542.276 364.761c1.14095,26.3421 -7.67245,53.2937 -15.5398,79.1717 -2.44961,8.05631 -7.73032,19.4669 -11.4768,27.3933 -3.35788,7.10316 -11.9209,21.3874 -11.0516,28.9855"/>
   <path id="_295561416" class="fil1 str2" d="M700.746 283.094l-10.1161 39.0213c-4.26496,16.448 -13.2532,33.8835 -19.5118,49.1386 -2.1874,5.33268 -6.87402,12.1973 -10.839,16.6205 -6.20197,6.91418 -6.5563,16.5827 -14.452,22.4008"/>
   <path id="_295561368" class="fil1 str2" d="M521.411 146.06l0.00590552 46.9075c0.00354331,19.7717 -5.06457,42.4713 -7.67481,61.7056 -0.912993,6.7252 -4.21063,16.1091 -7.40788,22.5225 -5.00197,10.0287 -2.55945,20.8134 -9.80552,30.2941"/>
   <path id="_295560984" class="fil1 str2" d="M687.739 256.357c-2.03504,4.94292 -4.46103,8.74607 -5.78032,13.7291 -0.421654,1.59213 -0.960237,2.75551 -1.44567,4.33583 -0.298819,0.97441 -0.337796,1.94646 -0.722835,2.89016 -0.53504,1.31339 -0.800788,2.35748 -1.44449,3.61299 -1.57205,3.06733 -0.362599,5.87126 -2.16851,0"/>
   <path id="_295561272" class="fil1 str2" d="M498.781 121.684c-0.855119,6.23623 -2.4874,11.3693 -2.51929,17.3693 -0.00944883,1.91693 -0.277559,3.40866 -0.36378,5.33741 -0.0519685,1.18937 0.190158,2.27599 0.0307087,3.46418 -0.219685,1.65354 -0.214961,2.9067 -0.576378,4.54134 -0.879922,3.98859 1.31811,6.60591 -2.45906,0.844489"/>
   <path id="_295561296" class="fil1 str2" d="M635.71 176.146c-12.5445,23.2996 -9.76654,45.9367 -15.1748,70.8166 -2.06221,9.49371 -2.19449,22.0181 -2.89016,31.7953 -0.876379,12.3024 -0.722835,25.0122 -0.722835,37.5756l4.33583 0"/>
   <path id="_295560840" class="fil1 str2" d="M416.13 53.6233c-7.37717,30.541 2.43898,54.3863 3.62599,83.8879 0.453544,11.2571 3.99095,25.0996 6.07914,36.137 2.62677,13.8886 6.54331,27.8233 10.2413,41.6575l4.9193 -1.68898"/>
   <path id="_295561152" class="fil1 str2" d="M615.476 203.606c-7.89922,13.428 -11.4449,33.7028 -12.2847,49.1374 -1.14567,21.0792 -4.33465,40.7422 -4.33465,62.8689 0,10.1752 -0.722835,20.0551 -0.722835,30.3496 0,4.60748 0.578741,9.22324 1.44449,13.7303 1.64055,8.5382 8.66694,15.6945 -3.61299,7.22599"/>
   <path id="_295561056" class="fil1 str2" d="M401.253 91.7398c-5.01024,17.8618 -3.06614,41.5689 0.525591,58.891 4.90394,23.6563 7.07245,46.5508 13.5851,70.9146 2.99528,11.2039 5.08347,22.3654 8.11418,33.7004 1.35591,5.07284 3.37205,9.92954 5.68111,14.5559 4.37481,8.76261 14.4543,13.9075 -1.97244,9.36379"/>
   <path id="_295561512" class="fil1 str2" d="M663.892 142.182c-6.99213,9.78898 -10.3547,23.9339 -13.7291,35.4083 -2.01496,6.85158 -1.91575,15.2114 -2.16851,22.402 -0.187795,5.33741 -1.01457,11.3752 -2.16732,16.6205 -1.81654,8.27009 -1.52244,7.99253 2.16732,17.3421"/>
   <path id="_295561224" class="fil1 str2" d="M438.113 5.25c-5.05276,13.5024 -4.70552,30.3874 -5.1567,44.3363 -0.269292,8.32914 2.30315,17.4957 4.13386,25.5107 1.35827,5.95158 2.19567,12.9213 2.43189,19.1457 0.37441,9.81497 0.624804,9.3945 7.56497,18.2528"/>
   <path id="_295560864" class="fil1 str2" d="M663.892 169.642c-2.01969,8.08229 -4.09134,15.5634 -5.78032,23.8465 -0.993308,4.86851 -2.49567,9.29646 -2.89134,14.4532 -0.218504,2.85591 -0.908268,5.26418 -1.44449,7.94883 -1.46102,7.31221 -0.291733,5.48268 -8.67166,9.39331"/>
   <path id="_295561032" class="fil1 str2" d="M446.196 35.4874c0.0862205,9.68505 -0.0625985,18.7299 0.459449,28.5095 0.305906,5.74725 -0.0956694,11.2075 0.973229,17.0386 0.592914,3.2315 0.519685,6.15119 0.700394,9.31654 0.494882,8.62087 1.28268,6.15119 -7.07481,13.7209"/>
   <path id="_295561200" class="fil1 str2" d="M679.79 176.146c0,11.9126 -0.797245,21.965 -3.61299,33.2398 -1.82362,7.29922 -3.8315,13.441 -7.22599,20.2335 -0.765355,1.53071 -1.10551,4.11851 -2.16732,5.7815 -1.08307,1.69606 -3.11339,2.3315 -3.61418,4.33583"/>
   <path id="_295561080" class="fil1 str2" d="M466.15 36.4571c3.5067,13.1185 5.56182,24.4984 5.68465,38.0091 0.0791339,8.74725 -0.390945,16.2921 -2.2441,25.0937 -0.416929,1.98307 -0.0413386,4.96536 -0.758268,7.21064 -0.728741,2.28898 -2.84646,3.77953 -2.82284,6.18071"/>
   <path id="_295561176" class="fil1 str2" d="M691.352 166.029c0,22.128 -4.36418,39.4229 -10.839,59.2548 -2.57244,7.87678 -4.72205,16.3335 -7.22599,23.8465 -1.05236,3.16063 -2.34331,6.83268 -2.89016,10.1173 -0.355512,2.1378 -1.55906,3.62362 -2.16851,5.78032 -2.2311,7.90276 0.416929,6.84567 -10.839,2.89134"/>
   <path id="_295560264" class="fil1 str2" d="M476.292 20.8146c6.51378,24.3662 6.65197,45.1099 5.14252,69.469 -0.6,9.67442 -0.551575,19.8236 -1.1811,29.0717 -0.263386,3.89055 -0.648426,8.43662 -0.301181,12.2658 0.225591,2.49331 -0.701575,4.59804 -0.758268,7.20945 -0.206693,9.57166 2.4874,7.37599 -11.4496,7.40434"/>
   <path id="_295560216" class="fil1 str3" d="M650.886 252.021c-4.51181,12.0307 -2.64567,30.8032 -5.7815,44.08 -12.8256,54.2894 -31.4717,110.577 -36.854,166.202 -4.09843,42.3579 -23.8465,87.1383 -23.8465,130.071 -0.783071,0.261024 -5.05867,21.7028 -5.05867,25.2921"/>
   <path id="_295560168" class="fil1 str3" d="M455.685 131.262c-1.57795,15.0047 6.06615,34.9488 6.41457,50.7886 1.42677,64.7764 -3.16181,134.016 7.10434,197.364 7.81772,48.2374 -1.40906,105.237 11.2276,152.512 -0.811418,0.591733 0.648426,25.8673 1.70551,29.8193"/>
   <path id="_295560648" class="fil1 str1" d="M516.478 822.17c-6.29292,-2.90433 -5.80867,-2.89134 -11.5618,-2.89134l0 2.89134c-0.912993,0.303544 -1.32047,0.491339 -1.44567,1.44449 -0.17126,1.32874 0,2.98229 0,4.33583 0,2.84882 0.826772,3.30118 1.44567,5.7815l1.44567 1.44449c2.82166,0.940158 0.068504,0.505512 2.89016,1.44567 0.699213,2.79685 1.53898,3.63662 4.33583,4.33583 0.940158,2.82166 0.505512,0.068504 1.44567,2.89016l2.89016 0c0.643701,1.93228 1.91221,2.28543 4.33583,2.89016 0.701575,2.10827 0.498426,1.09724 2.89016,2.89134 2.0563,-2.74134 1.07717,-2.57835 1.44567,-5.7815 0.258662,-2.24764 1.18583,-2.08701 1.44449,-4.33583 0.220866,-1.92874 -1.26732,-5.95867 0,-7.22599l1.44567 -1.44567c1.0748,-1.0748 0,-5.54882 0,-7.22599l-1.44567 -1.44449 -1.44449 -1.44567 -7.22717 0c-1.05473,4.22244 -2.31969,1.43858 -4.33465,4.33583 -0.865749,1.24488 -2.49213,4.18465 -2.89134,5.78032"/>
   <path id="_295560072" class="fil2 str1" d="M508.027 814.822c14.1165,-15.2917 10.5756,-54.0733 13.0063,-75.1524 2.09055,-18.1205 6.65434,-34.5296 8.67166,-52.0288 1.36654,-11.8453 4.22008,-26.0504 7.22599,-37.5756 6.40512,-24.5599 35.0705,-5.41063 49.1386,0 11.9658,4.60158 45.5599,17.3421 53.4745,17.3421l0 2.89134c-33.0933,8.27245 -92.4957,-41.7024 -92.4957,27.4595 0,21.587 -2.89016,46.2414 -10.1173,65.0351 -4.12205,10.7209 -4.6937,22.8992 -8.67048,33.241 -1.73268,4.50709 -2.00079,10.5272 -1.44567,15.8977 0.451181,4.37126 6.32245,32.517 1.44567,26.015l-20.2335 -23.1248z"/>
   <path id="_295560024" class="fil1 str1" d="M555.499 648.74c-13.7752,14.2854 -14.6788,14.7236 -15.8977,31.7953 -0.970867,13.6099 -8.28898,28.0807 -13.0063,40.467 -6.66733,17.4992 -8.52166,43.2981 -13.0075,62.1449 -2.32205,9.75709 -0.720473,21.6355 -1.44567,31.7953 -0.288189,4.05 -1.59685,10.5709 -2.89016,14.4532 -1.53425,4.60512 -9.51969,11.3055 -2.89016,5.78032"/>
   <path id="_295560408" class="fil1 str1" d="M533.821 700.769c7.48111,12.1571 3.5067,1.26378 2.89016,8.67166 -1.65,19.8236 -2.79921,40.7138 -4.33583,60.7004 -0.689764,8.97639 -4.93937,15.6496 -7.22599,24.5693 -1.39134,5.43189 -2.12835,8.08229 -4.33583,13.0063 -3.84567,8.58308 0.511418,8.72835 -10.1161,11.5618"/>
   <path id="_295560552" class="fil1 str1" d="M555.499 648.74c-18.9555,12.9709 -19.441,46.3878 -24.5681,67.9264 -3.5941,15.0945 -8.67166,35.2075 -8.67166,50.5831 -4.86969,1.62284 -9.62954,61.9548 -11.5618,72.2623"/>
  </g>
 </g>
</svg>
