<?xml version="1.0" encoding="UTF-8"?>
<!DOCTYPE svg PUBLIC "-//W3C//DTD SVG 1.1//EN" "http://www.w3.org/Graphics/SVG/1.1/DTD/svg11.dtd">
<!-- Creator: CorelDRAW -->
<svg xmlns="http://www.w3.org/2000/svg" xml:space="preserve" width="1000px" height="1000px" style="shape-rendering:geometricPrecision; text-rendering:geometricPrecision; image-rendering:optimizeQuality; fill-rule:evenodd; clip-rule:evenodd"
viewBox="0 0 1000 1000"
 xmlns:xlink="http://www.w3.org/1999/xlink">
 <defs>
  <style type="text/css">
   <![CDATA[
    .str0 {stroke:#1F1A17;stroke-width:0.900001}
    .str2 {stroke:#1F1A17;stroke-width:8.33386}
    .str1 {stroke:#1F1A17;stroke-width:25.0004}
    .fil0 {fill:none}
    .fil2 {fill:#1F1A17}
    .fil1 {fill:white}
   ]]>
  </style>
 </defs>
 <g id="Warstwa_x0020_1">
  <metadata id="CorelCorpID_0Corel-Layer"/>
  <rect class="fil0 str0" x="-5324.47" y="7886.71" width="1002.45" height="1002.45"/>
  <g id="_282334768">
   <path id="_282347080" class="fil1 str1" d="M531.817 144.897c-71.7379,-22.0736 -94.6442,0 -166.391,0 -72.7489,0 -196.323,84.3485 -230.26,139.5 -9.78662,15.9024 -18.4441,25.1669 -31.9335,38.6563 -1.53189,1.53189 -12.3024,11.5772 -10.0843,15.1264 18.0248,28.839 -27.6225,3.57992 -43.6985,45.3792 -15.1677,39.4335 22.3524,58.3217 20.1685,60.5067 -33.1276,33.1276 39.404,68.8371 50.4213,97.4812 15.3791,39.9886 68.5146,12.1488 97.4824,30.254 11.1756,6.98623 29.0327,-7.66772 36.9756,5.04213 25.8272,41.3197 22.3807,87.0827 75.6331,107.565 50.2867,19.3417 136.139,-31.0925 134.458,-31.9335 7.77166,33.6827 96.3414,157.869 121.011,188.242 11.8004,14.5252 21.3083,68.8276 45.3804,53.7827 36.8965,-23.0634 -43.8603,-131.329 -3.36142,-126.054 60.978,7.94056 100.429,-6.8563 141.181,-31.9335 53.2808,-32.7862 15.3591,-72.2717 52.102,-72.2717 72.2008,0 112.609,-99.8587 112.609,-173.114 0,-56.9575 -49.0713,-81.6367 -42.0177,-142.862 4.363,-37.8815 -136.995,-144.973 -159.67,-156.307 -39.8363,-19.911 -72.8304,-38.5855 -102.523,-57.1453 -2.68819,-1.68071 -113.275,-11.1945 -97.4824,10.0854z"/>
   <path id="_228396520" class="fil0 str2" d="M301.425 641.672c-41.6906,-127.859 64.2414,-168.371 170.451,-168.371 53.6374,0 85.2249,-34.9193 85.2249,-87.3036 0,-47.5843 -97.6973,-57.6934 -97.6973,-27.0225"/>
   <path id="_228399616" class="fil0 str2" d="M711.681 201.606c-22.2142,-1.84961 -63.9319,-42.0792 -91.4611,-14.5512 -32.0256,32.0256 -0.733465,36.6827 -37.4162,0 -37.4457,-37.4457 -88.1091,60.7867 -103.932,70.6749 -28.474,17.7957 -69.2245,2.70827 -95.6186,29.1012 -38.6551,38.6551 -57.052,101.367 -10.3925,139.27 13.9205,11.3079 57.1973,13.8225 81.0674,8.31497 17.3669,-4.0063 58.2863,-50.9115 29.1012,-58.2024"/>
   <path id="_228395224" class="fil0 str2" d="M825.258 566.842c-24.2788,20.2323 -45.6792,32.0977 -81.0674,22.865 -23.4095,-6.1063 -23.5583,-26.0504 -33.2587,-41.5737 -9.42166,-15.0756 -64.7457,-15.5232 -83.1461,-27.0225 -28.1693,-17.6055 -56.1237,-19.2591 -56.1237,-62.3599"/>
   <path id="_228393952" class="fil0 str2" d="M856.438 396.392c-23.9882,-1.71142 -40.2544,-14.5512 -60.2811,-14.5512 -30.561,0 -31.3335,39.0709 -51.9662,51.9662 -10.285,6.42756 -6.73111,0.764174 -14.5512,10.3937 -2.46969,3.04134 -48.4146,27.2882 -51.9662,16.6288"/>
   <path id="_228398872" class="fil0 str2" d="M615.313 435.886c22.1091,-37.904 -4.96654,-42.0083 16.6299,-68.5949 47.7626,-58.7989 9.5882,-74.1957 -27.0225,-103.934 -44.804,-36.3945 -55.9713,15.2917 -81.0686,24.9437 -56.0067,21.5398 -116.405,2.85118 -116.405,87.3036 0,25.3158 30.1441,45.3307 56.1248,35.3374 9.93898,-3.82205 22.865,-19.1705 22.865,-29.1012 0,-15.215 -21.3579,-27.3933 -24.9437,-16.6288"/>
   <path id="_195889576" class="fil0 str2" d="M116.437 444.201c0,-36.0922 12.7205,-57.8918 35.3362,-70.6749 13.8933,-7.84961 4.15748,2.14725 4.15748,14.5512 0,14.1142 31.911,28.1233 43.6524,20.7862 12.3284,-7.70552 14.9929,9.57875 29.1012,16.6299 9.56576,4.78111 20.7378,0.416929 29.1012,6.23504 11.8854,8.2689 32.9032,11.3268 43.6512,14.5512 5.25945,1.57677 39.3378,19.6571 41.5737,6.23623"/>
   <path id="_195889696" class="fil0 str2" d="M440.706 186.448c-18.3083,-8.45079 -35.4626,-8.31497 -56.1237,-8.31497 -21.2504,0 -18.5764,9.91064 -29.1012,22.865 -12.2929,15.1347 -51.3508,-5.45552 -56.1237,31.1799 -0.334252,2.5689 -18.2421,-0.465355 -22.865,4.15748 -27.2079,27.2079 2.66103,57.352 -6.23623,91.4611 -3.25866,12.4902 -17.3209,31.3217 -8.31497,45.73 5.30197,8.48386 27.1925,25.4481 29.1012,31.1799"/>
   <path id="_195894856" class="fil0 str2" d="M353.403 620.887c18.6213,0 45.1689,-14.8323 49.8886,-12.4725 12.4099,6.20315 28.3512,14.1992 43.6512,8.31497 7.81536,-3.00591 27.0225,-8.80631 27.0225,-20.7862 0,-5.85827 37.4162,-0.480709 37.4162,-37.4162 0,-11.6445 -11.2512,-35.8359 -18.7087,-41.5737 -4.95473,-3.81142 3.56339,15.8965 4.15748,16.6299 13.8366,17.0303 23.8477,31.2744 43.6524,43.6512 22.7173,14.1992 52.878,-23.4721 51.9662,-22.865"/>
   <path id="_282333640" class="fil0 str2" d="M779.528 660.381c-23.5441,-7.24371 -36.7146,-23.7142 -56.1237,-31.1788 -27.3402,-10.5142 -80.3469,18.1181 -106.012,2.07756 -23.9008,-14.9362 -49.3819,1.35473 -74.8312,-14.55 -22.8886,-14.3055 -27.7925,28.5803 -24.9437,39.4949 8.15788,31.2733 34.9122,47.7756 43.6512,76.9099 7.89568,26.315 50.5619,31.1799 78.9886,31.1799"/>
   <path id="_282333712" class="fil0 str2" d="M579.976 625.045c-19.4374,18.6898 -21.3815,20.7543 2.07874,31.1799 31.3217,13.9193 69.3497,10.3925 106.012,10.3925 35.6422,0 50.2512,12.228 72.7524,29.1012"/>
   <path id="_282333784" class="fil0 str2" d="M565.426 641.673c-13.3051,19.5662 -13.5756,19.6831 0,33.2587 18.0354,18.0354 74.3753,18.7075 101.854,18.7075 37.5532,0 56.8973,7.00985 83.1473,33.2587"/>
   <path id="_282333928" class="fil0 str2" d="M538.404 695.718c37.2107,-9.02009 16.9465,-1.40315 39.4949,12.4725 10.428,6.41575 32.8252,16.6288 45.73,16.6288 22.6524,0 44.3752,2.07874 66.5174,2.07874 12.6709,0 16.6831,8.3693 22.865,14.5512 17.3008,17.2996 23.8914,14.3008 -12.4725,24.9437"/>
   <path id="_282333952" class="fil0 str2" d="M470.875 376.864c-19.0134,35.3126 -56.6634,-8.36339 -39.9402,-30.0851 10.7835,-14.0091 25.4575,-19.7114 43.0536,-19.7114 12.4736,0 28.7705,-2.71772 39.9402,-8.29961 4.7941,-2.39646 10.937,-4.26378 15.0425,-7.77993 1.6311,-1.39843 13.5307,-9.49607 12.4488,-9.85631"/>
   <path id="_282334024" class="fil0 str2" d="M455.833 374.27c-22.448,-6.90709 16.7303,-31.9087 38.9044,-22.8236 22.0677,9.04371 38.5548,50.1449 17.1165,71.5819 -34.7469,34.7481 -85.4705,21.763 -129.677,30.6047"/>
   <path id="_282333520" class="fil0 str2" d="M461.539 373.233c26.6339,-32.7803 44.2607,6.96497 28.011,26.9729 -37.8555,46.604 -103.515,11.5228 -99.593,-43.5721 2.2689,-31.8544 26.139,-60.593 58.0961,-66.3945 14.876,-2.70236 32.4378,-5.9693 46.6843,-10.3748 5.41536,-1.6748 29.5536,-15.561 28.0099,-15.561"/>
   <path id="_282333832" class="fil2 str2" d="M464.19 353.877c-3.5504,2.55591 -11.4591,2.61851 -13.2272,7.2626 -2.91733,7.66182 -4.03465,12.1618 -0.259843,19.7114 5.53229,11.0658 20.3551,-0.895276 22.8236,-8.29961 1.72677,-5.18504 -1.52599,-8.26654 -3.89055,-11.6717 -1.21772,-1.75158 -2.47441,-2.73307 -3.63071,-3.89055 -1.91221,-1.91103 -6.09686,-2.66929 -1.81536,-3.11221z"/>
   <path id="_282333976" class="fil1 str2" d="M423.922 365.055c3.64252,-22.6264 40.4681,-26.5843 58.4067,-26.0858 12.1701,0.337796 28.467,11.641 35.1355,21.3603 10.7138,15.6142 -42.0508,29.5075 -55.2898,28.8107 -14.8961,-0.786615 -29.7744,-15.2386 -38.2524,-24.0851z"/>
   <circle id="_282333424" class="fil2 str2" cx="469.287" cy="362.65" r="13.0593"/>
  </g>
 </g>
</svg>
