<?xml version="1.0" encoding="UTF-8"?>
<!DOCTYPE svg PUBLIC "-//W3C//DTD SVG 1.1//EN" "http://www.w3.org/Graphics/SVG/1.1/DTD/svg11.dtd">
<!-- Creator: CorelDRAW -->
<svg xmlns="http://www.w3.org/2000/svg" xml:space="preserve" width="2480px" height="2480px" style="shape-rendering:geometricPrecision; text-rendering:geometricPrecision; image-rendering:optimizeQuality; fill-rule:evenodd; clip-rule:evenodd"
viewBox="0 0 2480 2480"
 xmlns:xlink="http://www.w3.org/1999/xlink">
 <defs>
  <style type="text/css">
   <![CDATA[
    .str0 {stroke:#0093DD;stroke-width:0.899886}
    .fil0 {fill:#0093DD}
    .fil1 {fill:black}
    .fil6 {fill:#8C8C8C}
    .fil3 {fill:#ADADAD}
    .fil4 {fill:#BDBDBD}
    .fil5 {fill:#D6D6D6}
    .fil2 {fill:#E6E6E6}
   ]]>
  </style>
 </defs>
 <g id="Kontur">
  <metadata id="CorelCorpID_0Corel-Layer"/>
  <circle class="fil0 str0" cx="1223.76" cy="1232.8" r="1209.41"/>
  <path class="fil1" d="M38.851 1256.76c0,-33.6855 0,-67.371 0,-101.056 17.6647,-128.58 51.3502,-216.491 157.336,-300.294 67.371,-35.7392 123.239,-50.5282 199.237,-51.3502 103.11,12.3244 193.075,66.5502 241.961,160.623 5.34027,74.7661 -52.9929,96.1272 -108.452,53.8148 -39.4367,-42.7233 -75.1759,-80.1052 -135.153,-89.554 -89.554,1.6427 -135.563,28.3452 -190.61,97.7699 -57.5112,115.435 -59.9758,274.413 7.8061,386.151 28.344,33.6855 63.2624,54.2246 104.342,69.8356 33.2757,7.80491 110.916,23.4147 135.564,-1.23291 82.982,0 185.681,-196.773 266.197,-107.219 10.2707,19.3086 9.03783,32.8647 9.03783,55.0477 -48.0636,82.5698 -205.4,186.502 -308.099,186.502 -20.9513,0 -41.9014,0 -62.8526,0 -58.3331,-8.62686 -112.559,-21.3611 -163.087,-52.5819 -31.2208,-25.0586 -57.1002,-48.8843 -83.8027,-77.6405 -46.0087,-76.4088 -58.3331,-142.547 -69.4246,-228.815z"/>
  <path class="fil1" d="M1047.47 1616.03c-2.87562,-2.87562 -60.388,-13.5573 -63.2636,-16.433 -56.6893,-13.9671 -83.8027,-25.4684 -140.903,-12.3232 -54.6368,2.05368 -73.5332,-7.39394 -81.7491,-62.4417 1.6427,-8.21589 3.69638,-16.4318 5.75124,-24.6477 196.362,-320.012 196.362,-320.012 284.272,-459.274 0.410971,-4.51832 0.821943,-9.03665 1.23291,-13.5562 -26.2915,-14.3781 -62.4417,-12.3232 -92.0186,-15.1989 -36.5611,-9.4488 -39.4367,-12.3244 -61.2088,-17.6647 -17.2537,-6.98415 -33.2757,-18.0757 -52.1721,-18.0757 -6.98297,8.21589 -6.98297,8.21589 -14.3781,25.8806 -42.3123,47.6526 -107.219,36.9721 -117.899,-32.0416 0.410971,-56.6904 -11.9134,-128.17 51.3502,-155.282 19.7184,-0.410971 36.5611,-1.23291 56.2795,1.23173 41.9014,20.9513 83.8027,41.9026 126.115,63.2636 23.4159,4.10735 96.5381,34.5074 112.148,18.8964 52.9929,-4.9293 99.8247,-20.5391 153.229,-16.4318 75.1759,47.6526 21.772,104.343 -17.6647,161.444 -82.571,133.92 -165.141,268.251 -247.301,402.582 0,4.5195 0.410971,9.03783 0.821943,13.9671 46.0087,13.1464 85.8564,27.5233 133.509,32.0428 57.9222,-16.8427 170.594,-87.2736 194.832,8.44263 -12.7354,94.0723 -152.931,113.154 -230.982,115.619z"/>
  <path class="fil2" d="M1574.66 1592.34c38.205,0 76.4088,0 115.024,0 0,2.46465 -115.024,2.46465 -115.024,0z"/>
  <path class="fil2" d="M1760.75 1592.34c20.9501,0 41.9014,0 62.8515,0 0,2.46465 -62.8515,2.46465 -62.8515,0z"/>
  <path class="fil1" d="M2098.83 1393.51c0.410971,-76.4088 0.821943,-152.407 1.64389,-228.404 -0.821943,-22.594 -1.23291,-45.1868 -1.64389,-67.371 -5.75006,-75.5869 -7.80491,-124.471 -78.0515,-163.087 -38.2038,-11.9123 -38.2038,-11.9123 -41.0794,-14.7879 -69.8356,-6.57318 -108.041,12.7342 -157.336,56.6904 -42.7233,64.9051 -44.777,149.941 -46.4209,225.528 0,24.6477 0,49.2965 0,73.9442 0.821943,45.5989 2.05486,91.1967 3.28659,137.207 4.93048,55.4575 -0.410971,90.3759 39.0258,126.937 29.1672,13.5562 48.8855,13.5562 53.4038,45.188 -13.5562,4.10735 -13.5562,4.10735 -48.0636,6.98297 -20.9501,0 -41.9014,0 -62.8515,0 -23.8269,0 -47.6526,0 -71.0685,0 -38.6148,0 -76.8186,0 -115.024,0 -46.8307,-2.87562 -46.8307,-2.87562 -61.6197,-6.98297 -0.821943,-4.10853 -1.23173,-8.21589 -1.6427,-12.3244 23.8257,-29.9879 70.6564,-18.4854 92.0186,-55.0466 20.9501,-102.289 13.5562,-214.848 13.9671,-318.369 -5.34027,-166.784 -5.34027,-166.784 -8.21589,-180.752 -16.8427,-33.6855 -55.0477,-24.2367 -77.2307,-49.7063 0,-28.7562 64.4954,-50.1173 86.6784,-62.4417 39.4367,-26.2904 76.4088,-54.6356 113.381,-84.2137 83.8027,-38.6148 17.6647,109.683 69.8356,109.683 16.4318,-11.0915 53.4038,-45.5978 94.4845,-75.5869 17.6635,-9.85859 35.3282,-19.3074 53.4038,-28.755 134.331,-29.9891 262.911,-1.23291 304.401,145.833 3.28659,27.9342 6.98415,56.2795 10.6805,84.6235 0,71.0685 0,142.137 0,213.615 0.410971,21.3622 0.821943,42.7233 1.23291,64.0856 1.6427,62.0295 3.28659,124.06 12.3244,185.27 19.3074,25.8794 50.5282,28.755 78.0515,43.5441 0.820762,4.51832 2.05368,9.4488 3.28659,14.3781 -18.4866,18.4854 -84.2137,13.5562 -103.111,14.3781 -49.2953,0 -98.5918,0 -147.887,0 -7.80491,0 -99.8235,4.9293 -109.683,-16.4318 10.6805,-18.4866 38.6148,-23.4159 57.5124,-29.9891 30.3989,-21.772 36.1501,-33.6855 41.4904,-70.6564 0,-27.9354 0.410971,-55.4587 0.820762,-82.982z"/>
  <path class="fil3" d="M2098.83 1393.51c-0.40979,-76.4088 -0.820762,-152.407 -1.23173,-228.404 0.821943,0 1.6427,0 2.87562,0 -0.821943,75.9978 -1.23291,151.996 -1.64389,228.404z"/>
  <path class="fil4" d="M2266.03 1336c-0.410971,-21.3622 -0.821943,-42.7233 -1.23291,-64.0856 0.821943,0 1.64389,0 2.46465,0 -0.40979,21.3622 -0.820762,42.7233 -1.23173,64.0856z"/>
  <path class="fil5" d="M2264.8 1271.92c0,-71.4783 0,-142.547 0,-213.615 0.821943,71.0685 1.64389,142.137 2.46465,213.615 -0.820762,0 -1.6427,0 -2.46465,0z"/>
  <path class="fil6" d="M2097.6 1165.11c0.410971,-22.594 0.821943,-45.1868 1.23173,-67.371 0.410971,22.1842 0.821943,44.777 1.64389,67.371 -1.23291,0 -2.05368,0 -2.87562,0z"/>
 </g>
</svg>
