<?xml version="1.0" encoding="UTF-8"?>
<!DOCTYPE svg PUBLIC "-//W3C//DTD SVG 1.1//EN" "http://www.w3.org/Graphics/SVG/1.1/DTD/svg11.dtd">
<!-- Creator: CorelDRAW -->
<svg xmlns="http://www.w3.org/2000/svg" xml:space="preserve" width="1181px" height="1181px" style="shape-rendering:geometricPrecision; text-rendering:geometricPrecision; image-rendering:optimizeQuality; fill-rule:evenodd; clip-rule:evenodd"
viewBox="0 0 1181 1181"
 xmlns:xlink="http://www.w3.org/1999/xlink">
 <defs>
  <style type="text/css">
   <![CDATA[
    .fil0 {fill:#0093DD}
    .fil2 {fill:black}
    .fil4 {fill:#6C878C}
    .fil3 {fill:#9FE0F4}
    .fil1 {fill:white}
   ]]>
  </style>
 </defs>
 <g id="Kontur">
  <metadata id="CorelCorpID_0Corel-Layer"/>
  <path class="fil0" d="M152.071 780.171c-2.7163,0 0.824338,-5.42079 5.42079,-5.42079 10.0054,4.99681 22.9397,-9.59326 6.25694,-11.2656 -7.08836,5.20821 -6.25694,4.37206 -3.55245,-2.29232 6.68092,-7.92451 7.92451,-10.4294 6.46834,-19.1901 5.84595,0 2.5049,4.58346 3.96462,8.34849 10.0054,2.29232 20.2223,4.37324 29.6077,8.33786 3.34105,0 4.38505,-9.59326 5.00862,-12.0982 -34.8277,-13.97 -53.1698,-45.0457 -61.0955,-81.1182 1.45617,-10.8416 -2.30413,-33.7801 -7.08836,-43.5895 1.86834,-19.3908 7.92569,-39.2009 11.2526,-58.5918 -1.03574,0.21258 -6.25576,17.7185 -9.1681,21.0584 -7.51352,21.0584 -13.1339,44.6347 -16.0628,66.7289 -2.29232,0 0.21258,-1.03574 -2.91589,-1.03574 1.45617,-24.1999 11.6777,-44.8343 18.1425,-67.7729 -0.624749,0 -1.24359,0 -2.07974,0.199589 1.24359,-4.15948 1.24359,-4.15948 14.3763,-33.3562 -15.0141,-23.7747 -22.5146,-46.7133 -15.6376,-74.2412 2.29232,-7.30094 5.42079,-14.8015 6.25694,-22.3185 -9.16928,-12.2978 -13.97,-17.7185 -14.8015,-32.7361 8.33668,-14.8015 20.6462,-18.5677 36.0725,-22.9397 0,-9.80466 -11.0542,-11.053 1.45617,-18.5665 0,-4.99563 -1.86834,-19.1783 7.30094,-13.5449 13.3453,14.5889 7.71311,1.24359 7.71311,-11.8903 4.79604,-18.1413 11.2656,-1.66757 13.9819,6.45298 3.12847,4.17247 20.6344,20.2341 25.6431,10.0172 0,-18.7661 4.58464,-11.053 14.1814,-11.053 1.45617,-2.29232 3.75204,-3.34105 6.25694,-4.58464 1.66875,-7.92569 4.79722,-6.46952 11.0542,-5.84477 1.04755,-6.6821 3.75204,-6.46952 10.2168,-8.33786 2.50372,-5.63219 4.17247,-10.0172 10.8416,-6.68092 15.6506,26.2796 24.8234,-36.0725 26.491,-45.8819 -1.66757,-0.836148 -3.55245,-1.66875 -5.42079,-2.5049 -1.04755,8.56225 -13.3453,15.6506 -21.695,13.5579 -4.58464,13.7705 -13.1327,4.79722 -13.9689,-4.99563 -16.8989,0 -8.33786,-3.55245 -13.7705,-17.519 0.836148,-12.3096 0,-7.51234 -8.12528,-7.51234 -6.68092,-6.66438 -0.623568,-15.0141 -1.26013,-24.1869 1.04873,-0.412169 2.09273,-0.836148 3.34105,-1.45617 -0.836148,-2.5049 -0.836148,-2.5049 -3.54064,-7.08954 -3.12847,2.70449 -5.00862,5.20939 -1.66875,8.54926 -6.05735,0 -0.623568,-10.0043 -4.38387,-13.7705 -0.836148,-7.50053 -5.42079,-12.5092 -9.59326,-18.5535 -14.1826,0 -26.6918,25.8556 -30.4403,37.1212 0,6.04436 8.13709,-3.12847 9.38186,-4.17247 9.18582,-4.58464 19.4026,-12.0852 29.8191,-13.7575 0,2.49073 -16.8859,9.1681 -20.0097,10.8404 -4.38505,3.75322 -12.3096,10.4294 -17.3064,12.9343 -15.2255,-2.7163 7.71311,-31.7004 11.6777,-36.4964 -15.6376,0 0.21258,-15.2266 5.20821,-19.6034 10.0172,-3.96462 21.695,-6.68092 30.6517,-12.3096 11.0542,-14.3775 23.5763,-18.3421 41.0811,-18.7661 2.09273,0.21258 24.8234,3.34105 20.4348,0.423979 0,-6.68092 -2.91589,-17.3229 4.59645,-22.739 10.629,0 24.3995,-1.45617 33.1566,3.34105 14.1826,1.88015 15.4262,7.92451 22.7272,20.8588 0,5.42079 0.410988,19.3897 7.08836,9.79285 14.8015,-11.2537 18.7661,-5.63337 23.7759,-26.2666 6.6632,-13.3465 21.0584,-21.271 33.5676,-28.1609 -1.45617,-3.12847 -2.71748,-5.42079 -6.6821,-4.79604 -15.8372,11.053 -34.1911,24.3995 -37.5322,44.6335 -0.21258,0.412169 -0.410988,0.836148 -0.836148,1.24359 -8.54926,15.0141 1.88015,-12.5092 2.5049,-14.8015 9.79285,-12.7217 20.6462,-22.3185 33.1554,-32.324 0,-4.58464 -7.30094,-10.2168 -8.34967,-16.0628 8.56225,1.26131 14.8145,8.76184 22.7402,10.642 29.3951,-6.25694 52.5462,3.34105 76.3209,19.1912 0.21258,0 0.624749,0 1.03574,-0.21258 0,-5.63219 -7.08836,-60.2723 14.1826,-47.5506 3.14146,5.42079 1.26013,8.97442 8.76066,8.13827 9.80584,-3.12847 18.3551,2.07974 28.3594,0.410988 2.71748,0.624749 2.71748,0.624749 4.79722,1.88015 10.4294,-11.477 18.1425,-11.053 33.368,-10.4294 0.412169,13.7705 2.91707,22.5323 -7.71193,31.913 -0.42516,1.65576 -1.04873,3.54064 -1.66875,5.42079 9.38068,0 -8.54926,14.1814 -1.66757,14.1814 2.91589,-5.42079 6.46834,-10.4294 13.3453,-10.4294 -1.66875,1.66875 -7.50053,2.29232 -5.63337,4.17247 12.7217,-5.00862 -3.75204,2.29232 -3.75204,7.28913 -3.34105,0 -12.0982,6.25576 -6.87696,1.04755 0,-2.07974 3.12847,-9.79285 1.86834,-9.1681 -3.54064,7.28795 -8.76184,10.629 -15.0141,15.2136 0,5.84477 -7.28795,14.394 -11.8903,17.3052 0,2.09273 11.4781,12.9343 13.3583,12.0982 14.8027,-15.6376 11.8738,-10.2168 -1.26013,-17.3064 0,-3.12847 13.1339,2.91589 15.6376,4.79722 8.13709,9.80466 18.3551,18.1413 27.9484,26.2796 5.20821,6.4518 9.79285,12.084 16.0498,17.0938 -8.96143,-15.2266 -25.2321,-26.6918 -36.2721,-41.2937 -2.71748,-5.42079 -5.43378,-10.8416 -8.34967,-16.2624 -0.412169,0.412169 -0.412169,0.412169 -0.21258,3.54064 -1.03574,-0.199589 -4.58464,-2.70449 -6.25694,-3.12847 -7.50053,1.47271 5.2212,-2.29232 5.42079,-2.70449 13.7705,-10.0043 5.2212,-10.6408 13.7705,3.75322 11.8891,-3.96462 18.1425,-18.3551 32.1114,-20.6474 2.09273,-3.12847 9.38186,-20.0097 11.6777,-24.1869 12.9343,-15.425 16.8989,-33.9915 31.4878,-48.5863 2.5049,-7.51234 9.80584,-6.88877 16.2754,-7.30094 -0.21258,1.04873 -0.21258,1.04873 -1.04873,1.66875 0.836148,0.623568 0.836148,0.623568 6.68092,0.836148 13.3453,7.50053 18.1425,21.682 23.7747,35.2399 6.87696,0 16.475,-2.50372 23.9755,-3.33987 0,-16.8859 7.08836,-30.4403 11.6777,-46.2905 0,-15.0129 -10.218,-17.9299 -19.8148,-25.8545 2.92888,-12.9343 7.30094,-4.38505 12.5221,2.91589 3.53946,2.29232 8.96025,14.8015 11.053,14.8015 8.74885,-13.9689 19.3908,-13.9689 34.4037,-16.2612 0,5.84477 -16.2612,22.3185 -21.8946,25.8545 0.199589,1.45617 4.79722,9.59326 8.76184,18.3551 1.86716,8.76066 3.96462,17.5178 6.04436,26.4792 -0.21258,0.211399 -0.623568,0.423979 -1.04873,0.623568 0,0 -1.45617,-9.38068 -2.07974,-5.42079 0.623568,5.42079 0.623568,5.42079 1.66875,9.18582 0,2.5049 -1.88133,3.12847 1.03574,3.96462 0,0 0,0.199589 0,0.412169 -1.45617,1.45617 -1.86834,10.8416 -0.412169,12.3096 0.21258,-3.12847 0.412169,-6.26993 0.836148,-9.59326 0.21258,0.199589 0.412169,0.412169 0.836148,0.624749 0,23.5621 21.6832,35.2399 23.1511,60.0598 4.99681,2.50372 14.8015,-4.38505 19.6022,-6.46952 30.2277,-7.92569 69.4452,-35.241 98.0041,-6.68092 2.71748,4.38387 5.42079,8.76066 8.34967,13.3453 1.03574,9.18582 5.83296,3.14146 13.5579,3.96462 8.12528,-1.86834 -6.88877,11.4781 -10.2168,13.9819 0,1.24359 1.65576,3.75322 2.91589,9.38186 0,7.92451 -8.97324,23.5621 -1.04873,26.6906 0,0 0,0.21258 0,0.412169 -1.86716,0.21258 -3.75204,0.423979 -5.63219,0.836148 11.053,3.12847 26.067,16.8989 31.2882,26.4922 -10.642,-6.46952 -19.1912,-21.271 -31.913,-23.9873 0,6.46834 -3.75204,11.6765 -3.75204,17.7304 5.42079,4.99563 36.696,41.4933 39.2009,41.4933 3.12847,-15.6388 4.38505,-19.3908 -2.07974,-34.4049 0.836148,0.412169 1.86716,1.03574 2.91589,1.66875 13.1339,13.1327 -2.07974,26.9032 2.07974,39.6119 -12.0852,-12.0852 -23.3507,-25.6431 -35.2399,-37.9443 -2.70449,-2.30413 -27.1158,-22.9386 -27.7405,-21.695 5.42079,12.9343 7.71311,23.7747 8.76184,37.5322 13.7705,18.7791 33.7801,45.2583 15.2255,66.9533 -52.1341,34.6163 -138.886,-35.8729 -172.882,-67.1528 -19.1913,-24.3983 -39.4135,-62.7761 2.91589,-74.2412 19.8148,-1.45617 15.6506,0.412169 20.0227,-18.7661 0,-4.17247 0,-8.56225 0.21258,-12.9343 -13.9819,-3.53946 -28.7845,-7.08836 -43.3781,-6.46834 -0.423979,4.17247 -4.79604,20.6462 -8.13709,23.9873 -4.79604,24.1869 2.29232,58.391 -14.5889,79.4494 1.65576,10.642 15.6376,21.8946 22.5146,29.1955 25.2309,21.4836 53.3824,51.3026 85.7064,61.9281 20.2353,10.642 43.3781,5.00862 64.237,11.2656 18.1425,1.88015 34.6163,4.79722 52.7588,2.91589 13.5579,1.26131 30.2442,4.59763 43.5895,2.5049 10.8416,-19.1783 4.99681,-33.5676 -1.04873,-53.3824 0,-0.21258 0.21258,-0.624749 0.412169,-1.04873 7.30094,20.8588 11.2656,33.1566 5.63337,54.4264 4.17247,1.04873 4.17247,1.04873 9.80466,1.66875 51.0912,13.5579 52.3466,12.7217 59.2283,65.4805 3.33987,3.33987 1.03574,4.38505 7.30094,5.63219 11.6777,6.87696 -3.34105,7.30094 -10.2298,8.13709 -0.412169,0.836148 -0.412169,0.836148 -0.199589,13.97 -3.75322,19.8148 -19.4038,24.612 -31.2882,38.7888 -4.37206,9.79285 -8.12528,19.3908 -14.1826,28.3594 -10.629,10.629 -13.5449,21.271 -20.6333,33.7801 -6.46952,8.33786 -6.46952,8.33786 -7.51352,10.4306 6.25694,20.8458 22.5311,32.1114 33.7801,49.4178 5.63219,17.0938 0.836148,31.9118 -8.96143,46.5019 -6.68092,21.8946 6.04554,47.749 22.5146,62.7631 1.26131,1.66875 18.1425,25.2309 12.7217,23.5763 0.836148,11.053 5.00862,21.2698 5.63337,32.5236 2.91589,1.26013 11.8891,2.7163 13.1327,5.42079 -1.04755,8.13709 9.59326,10.6408 12.9343,17.3052 -5.2212,5.2212 -20.8588,-2.49073 -26.6918,-5.41961 -5.63219,0 -14.394,2.7163 -17.3052,7.72492 -4.59763,3.54064 -12.7217,15.4262 -2.30531,14.1814 13.3583,-3.55245 26.7036,-7.92451 39.4135,-13.1457 15.849,11.8903 -41.9054,23.7747 -49.8299,24.612 -4.58464,4.58346 5.42079,10.2168 -6.25694,13.5579 0.410988,2.29114 4.79604,10.8404 6.04436,15.6376 0,36.4964 -35.8729,38.7888 -65.268,36.696 0,3.12847 7.08836,21.695 -1.45617,20.2353 -4.38505,-5.42079 -2.29232,10.4294 -5.43378,12.7217 -8.54808,0 -12.084,-10.0184 -18.7661,-12.0982 -16.4738,8.76184 -10.4294,1.45617 -11.4651,-10.642 -8.13709,-1.86716 -13.5579,-3.12847 -8.97324,-11.4651 -4.58464,0.624749 -9.38068,1.45617 -14.1814,2.29232 -2.5049,16.0628 -14.5901,23.3637 -17.519,37.9573 -2.29232,3.96462 -6.04436,7.08836 -9.38068,10.2168 -3.96462,17.0938 -14.3775,30.6517 -18.3421,47.7502 5.62038,2.5049 26.8914,13.7705 25.2309,20.6462 -10.0172,5.0098 -21.4824,-1.03574 -29.8321,-6.46834 -0.623568,5.4326 -7.92569,38.1687 -13.97,32.1244 -1.88015,-18.5665 -5.20821,-25.656 1.66875,-43.3781 -15.2266,0 -25.2309,14.1826 -39.4135,16.2624 -2.7163,1.04873 -5.42079,2.07974 -8.13709,3.12847 -10.4164,6.25694 -23.1382,5.00862 -33.3562,-1.24359 -6.88877,0 -10.8534,10.4294 -12.5221,15.8502 -9.1681,1.86716 -2.70331,-23.9873 6.05735,-27.3283 -2.7163,-10.0054 -8.34967,-19.6022 -12.5092,-28.9829 -4.17247,-3.34105 -16.4738,-9.38186 -20.8588,-5.84595 -3.96462,6.6821 -1.86716,13.983 -7.08836,20.2353 -10.0054,4.99563 -1.04873,10.0054 -4.79722,19.3908 -9.59326,13.7693 -8.96025,31.6992 -21.0584,43.7974 0,10.0054 -3.55245,15.6376 -13.7705,16.4738 -0.410988,11.2656 -6.4518,12.0852 -16.8859,12.2978 -2.91589,2.09273 -4.58346,4.17247 -8.76066,6.87578 -9.16928,-1.24359 -17.9299,6.88995 -27.3153,8.34967 -10.0184,-1.26013 -21.4836,2.5049 -30.0316,-3.75204 -10.642,3.75204 -19.1913,12.9213 -28.7845,1.86716 -2.5049,-1.86716 -16.4738,-14.1814 -12.5092,-2.07974 8.33668,2.5049 15.2255,8.97442 23.5621,13.3465 29.6207,9.59326 29.6207,9.59326 34.2053,11.4651 18.5535,11.053 42.5408,20.8588 64.224,14.1814 9.38068,-0.199589 28.9959,-5.20821 17.5178,8.56225 -7.50053,4.37206 -17.9299,5.83178 -26.6906,6.25694 2.50372,3.12847 32.735,33.355 14.1814,21.8946 -8.33668,-7.92569 -22.3197,-21.0584 -33.5676,-24.1869 1.24359,3.53946 3.75204,6.87578 5.42079,10.2168 0.199589,11.4651 3.75204,19.6022 -5.63337,11.2526 -3.34105,-6.66438 -4.38505,-13.9689 -8.76184,-20.0097 -1.88015,-3.76503 -3.75204,-7.51352 -5.84477,-11.2656 -12.0852,-6.46952 -22.1071,-10.4294 -35.6473,-11.6777 -2.09273,-1.66757 -4.79722,-5.42079 -8.13709,-7.92451 -12.9343,-5.42079 -26.4922,-11.2656 -39.4135,-16.475 0,-4.58346 11.8891,3.75322 13.5579,2.91707 -5.2212,-3.54064 -13.1457,-9.38186 -20.0227,-6.04436 0.412169,1.24359 7.08836,6.6632 1.24359,5.20821 -3.54064,-3.54064 -2.91589,1.45499 1.88015,1.88015 -2.91589,6.04436 -7.30094,-5.63337 -7.92451,-7.51352 -6.66438,-0.836148 -13.3453,-4.15948 -18.1425,-8.96025 0,8.96025 15.8502,36.0725 11.6777,43.1656 -11.6777,1.04755 -31.4878,-37.9573 -35.0285,-47.3392 0,-0.623568 1.45617,-21.695 -0.423979,-22.5311 -2.08092,5.63337 -13.3465,39.6261 -24.1869,28.7845 -3.34105,-13.7705 1.04755,-18.5547 11.4651,-25.6431 6.05735,-10.642 10.4294,-22.5311 1.47271,-33.1566 -3.96462,-11.8891 5.83178,-24.3983 5.83178,-35.8729 -2.50372,-5.63219 -5.00862,-11.2656 -7.71193,-17.0938 -7.30094,4.37206 -15.2266,5.83296 -13.1339,14.8015 -2.7163,0 -3.55245,-3.33987 -6.46952,-3.33987 -1.26013,1.26013 -9.80466,5.84477 -17.9299,11.4781 -28.5719,12.084 -54.0189,31.4878 -85.2942,35.2399 -32.1256,1.04873 -38.5774,1.66875 -62.5647,-19.3897 -3.34105,-5.84595 -4.79722,-12.7217 -6.66438,-19.1912 -1.04873,0.21258 -2.09273,0.412169 -3.34105,0.623568 0,10.8416 -3.12847,42.1298 -15.8502,44.6217 -2.50372,-5.62038 -5.2212,-11.2526 -7.92451,-16.8859 0,-10.8416 4.17247,-21.8946 8.33668,-31.9118 5.63337,-6.66438 8.76184,-10.218 8.76184,-18.3421 -14.5901,-14.6066 -23.7759,-35.2529 -44.4091,-42.1298 -0.837329,0 -1.66875,0 -2.5049,0 -3.76503,7.71311 -10.0184,1.45617 -11.8903,-4.37206 -4.17247,-42.3424 -13.5579,-83.003 -7.30094,-125.753 0,-2.91589 0,-6.04436 0.21258,-9.1681 -3.12847,-0.624749 -41.0811,-12.3107 -46.2893,-7.08954l0.003543 0.012991z"/>
  <path class="fil1" d="M207.955 924.897c-14.1826,-49.6303 -12.0982,-116.358 1.86716,-165.789 1.88015,-16.8859 12.5092,-35.0285 20.8588,-50.0425 6.66438,-13.3453 14.5901,-24.8234 21.8946,-37.5452 -0.211399,-2.91589 -1.66757,-6.04436 -1.66757,-8.54926 10.4294,-6.87696 21.0584,-15.8502 30.2442,-24.1869 18.9787,-14.1814 33.355,-35.2399 50.0413,-51.9227 0,-7.92451 -10.4164,7.30094 -10.629,7.30094 -1.88015,-17.3229 -5.63219,-33.9915 -3.96462,-51.7231 5.63337,-13.3453 10.4294,-27.9342 16.2624,-41.0811 0.836148,-6.87578 19.8148,-13.1327 14.8015,-5.41961 -1.65576,5.84477 -4.37206,36.4964 2.30531,36.4964 12.5092,-10.4294 14.8015,-27.5279 15.8372,-42.7534 16.6863,-3.54064 18.3539,-18.7673 17.5178,-33.7801 -2.07974,-2.08092 -17.5178,17.0938 -20.0097,21.682 -1.04873,7.08836 -9.18582,1.47271 -15.2266,0.423979 -2.91589,0 -6.04436,0 -9.1681,0 1.86716,-12.3096 3.32806,-26.9032 4.15948,-30.8631 6.6821,-9.59326 13.1469,-19.8148 20.6474,-28.7845 12.097,-2.07974 15.8502,-5.62038 17.0938,7.08836 2.29232,4.59763 25.6549,2.30531 29.8321,1.04873 10.2168,-8.13709 5.42079,-25.2309 24.3995,-22.726 14.1814,7.08836 24.8104,6.04436 30.4391,-9.59326 4.17247,-2.08092 10.8416,-0.836148 15.6376,-1.04873 0,3.76503 -7.71193,14.1814 -0.211399,16.6863 0.836148,-3.32806 12.9331,-18.7661 14.8145,-12.9213 20.2223,-3.34105 39.1998,-21.4836 45.2453,-40.0501 9.38068,-3.75204 21.2698,1.47271 31.2882,1.88015 16.6734,6.6821 10.0043,24.3995 31.6874,20.2223 -1.45617,-7.50053 22.3185,16.2754 27.9472,20.0239 23.5633,20.8588 63.813,40.8732 95.7248,30.2442 16.475,-2.09273 32.5236,-7.92569 48.9938,-10.642 0.636559,-0.624749 2.92888,-1.24359 3.76503,-1.03574 10.4164,32.944 17.0938,69.4322 39.8245,96.1358 6.25694,9.16928 11.4781,16.2624 20.2223,23.1393 0,0.423979 -8.33668,7.92451 -2.91589,10.6408 4.58464,16.2624 10.4294,31.9 17.0938,47.338 -2.29232,11.4651 0,23.5633 -2.70331,35.8611 0,15.6376 -15.2266,18.7661 -21.271,31.0757 0,26.4792 -11.6777,45.2453 -27.9484,65.8927 -3.96462,6.46834 -7.71193,12.9331 -10.8404,19.8136 -15.0141,-1.45499 -26.6918,-3.33987 -41.4933,0.624749 -10.642,6.88877 -22.1071,13.9819 -31.4878,22.5311 -7.7261,-5.00862 -16.0628,-9.38068 -24.3995,-13.3453 0,-8.54926 -9.59326,-22.3197 -17.5178,-24.1999 2.70331,6.46952 5.63219,12.7217 6.87578,19.6152 -3.33987,-1.04873 -31.7004,-8.56225 -30.4391,-4.79722 4.37206,4.37324 6.25694,8.12528 12.9213,8.74885 16.8977,-4.58464 34.8289,3.14146 47.9616,14.1826 10.0184,2.50372 -8.74885,6.68092 -10.629,7.51234 -6.68092,5.20939 -18.9787,5.84595 -20.2223,13.97 -1.04873,2.09273 -1.88015,3.96462 -1.88015,6.25694 -3.12847,0 -26.2796,0.423979 -15.2266,7.7261 -10.0043,6.6632 -18.7661,8.33668 -30.4391,11.4651 -5.42079,4.17247 -5.63337,-1.88133 -7.51352,-7.30212 -10.0043,-13.1327 -16.0498,-35.4524 -33.355,-39.1998 -18.3551,-12.2978 -38.1699,10.4294 -41.9184,25.8545 -6.68092,6.6821 3.12847,31.913 10.629,35.665 9.59326,12.5092 -0.198408,7.30094 -11.053,6.04436 -5.20821,0 -10.629,0 -16.0498,-0.199589 -2.50372,0.824338 -8.34967,4.78423 -10.8416,5.42079 -6.46834,-4.59645 -10.6408,-8.76066 -18.5665,-6.46834 -4.17247,2.50372 -7.08836,5.00862 -8.54926,5.41961 0.412169,-6.87578 0.412169,-6.87578 1.66875,-13.3453 17.3064,-16.2612 -26.9032,-32.7491 -33.1566,-16.0628 -4.17247,0 1.45617,-16.4738 -1.66757,-20.6462 -10.218,-6.87696 -19.6022,-12.5092 -31.913,-13.3453 -2.91589,-6.87696 -31.2752,-39.6131 -34.1911,-38.777 0,4.37206 40.6606,42.1168 26.9032,42.1168 -8.76184,-13.5579 -5.2212,-17.7174 -21.695,-16.6863 -1.45617,-3.12847 -3.12847,-6.25694 -4.79722,-9.38068 -5.42079,-4.79604 -15.0141,-7.71311 -10.4164,-15.425 3.96462,0 13.97,11.6765 18.9657,13.3453 -2.07974,-3.12847 -17.506,-18.1425 -18.9657,-13.5579 -2.09273,0 -5.2212,2.29232 -6.68092,0.836148 0.211399,-1.66875 5.20821,-12.0982 6.04436,-12.0982 1.88015,-11.2526 0.211399,-19.1771 -3.96462,-29.3951 1.45617,-7.30094 3.33987,-18.3539 1.04873,-25.4435 -7.30212,0 -2.71748,-19.8148 -2.71748,-24.3983 -1.03574,-4.79722 -7.08836,-12.9343 -1.86716,-14.1826 6.04436,-7.71311 2.70331,-13.3453 -3.34105,-19.4026 1.88015,-6.87696 1.24359,-41.4933 -13.5579,-29.1955 -2.70331,6.68092 -8.76066,2.50372 -13.7575,7.51234 -0.623568,1.88133 -1.26013,3.96462 -1.88015,6.04554 -3.75204,-1.24359 -6.25694,-1.86834 -10.218,-2.08092 -12.7206,-2.7163 -28.5708,36.285 -36.2839,46.7145 -15.6376,0 -26.9032,-2.09273 -29.6077,17.506 -6.05735,6.05735 -22.9386,37.7578 -17.9429,18.9787 0,-0.199589 -0.199589,-0.412169 -0.412169,-0.836148 0,-2.49191 3.9658,-6.04554 3.12847,-7.92569 -2.91589,3.76503 -16.8977,12.0982 -10.0043,15.438 3.12847,-3.75204 3.12847,-3.75204 4.79604,-5.00862 -0.423979,1.88133 -2.92888,6.46952 -2.7163,7.30094 6.04436,-1.88015 -2.07974,5.20939 -3.12847,6.25694 -4.37206,7.51352 -8.97324,15.0141 -13.5579,22.5146 -1.86716,-2.91589 8.13709,-14.1814 2.91589,-12.5092 0,-3.32806 4.38505,-10.0054 2.92888,-10.629 -0.836148,2.5049 -11.4781,14.5889 -4.79604,14.5889 -1.45617,3.76503 -1.45617,3.76503 -3.12847,6.05735 2.07974,-10.8534 -6.87696,7.08954 -6.46952,8.76184 2.07974,-2.09273 3.75204,-4.79722 4.37206,-5.00862 0.21258,0.623568 0.636559,1.45499 1.04873,2.29232 0.836148,-0.21258 0.836148,-0.21258 2.5049,-2.71748 -2.5049,11.6907 -10.0054,22.1071 -13.97,33.5806 -2.7163,14.394 -2.7163,14.394 -3.76503,16.8859 -0.623568,-0.836148 -0.412169,-4.15948 -0.836148,-5.42079 0,-0.836148 2.09273,-9.59326 0,-8.54808 -0.199589,2.7163 -0.412169,5.63219 -0.823157,8.54808 0,6.46952 -2.5049,7.08954 -4.79722,11.6777 -2.09273,1.04873 -3.12847,9.59326 -1.04873,9.59326 0.624749,-2.91589 3.12847,-15.425 7.50053,-15.425 -4.78305,24.1869 -6.87578,48.1742 -6.25694,72.9811 -0.836148,9.18582 -1.03574,25.6549 -1.45499,26.6906 -1.24477,-3.53946 -1.24477,-3.53946 -2.29232,-4.99563 -0.624749,-3.34105 -0.21258,-21.695 -2.70449,-21.695 0,2.92888 -0.836148,18.5665 2.29232,21.695 0,4.17247 -3.55245,21.682 1.45617,13.9689 0.21258,0 0.410988,0 0.623568,0 0,11.8903 -4.17247,29.6207 3.12847,40.6736 -0.21258,1.24477 -0.412169,2.49191 -0.623568,3.54064 -0.21258,0 -0.42516,0 -0.624749,0l0.009448 -0.021258z"/>
  <path class="fil2" d="M756.405 722.618c-6.46834,-2.7163 -8.97324,-6.46834 -8.13709,-13.5579 6.25694,-11.053 6.68092,-9.80466 -4.15948,-10.4294 -48.7989,-15.0129 -21.4836,-92.7947 26.9032,-68.6078 4.15948,3.96462 13.3453,16.0616 7.50053,21.8946 -12.2966,2.92888 -31.2752,-3.54064 -42.3294,1.88015 -3.96462,13.7575 3.96462,29.1955 17.3064,32.944 11.6777,0 13.7575,-0.836148 22.7272,-7.08836 10.8404,0 -12.9343,18.3539 -14.1826,19.6022 -12.5092,17.7304 6.46952,11.053 7.08954,18.5665 -4.79722,3.54064 -6.6821,4.37206 -12.7217,4.79604l0.003543 0z"/>
  <path class="fil2" d="M511.373 699.467c-20.0227,-5.00862 -12.7217,-21.4824 -1.04755,-31.4878 20.2223,-10.8404 23.3625,-9.80466 20.8588,-33.5806 -10.642,-17.7174 -20.2353,16.2754 -29.6207,17.1115 -14.5889,-3.55363 8.13709,-21.271 12.7217,-23.9873 43.1656,-14.3952 32.5366,27.3272 32.324,55.8861 4.38505,8.76184 11.4781,-3.32688 13.1339,5.42079 -7.92569,11.0542 -19.6022,12.0982 -27.7228,1.26131 -3.34105,0 -7.30094,4.58464 -9.59326,6.46834 -8.76184,2.70449 -8.76184,2.70449 -11.0542,2.91707l0 -0.009448z"/>
  <path class="fil2" d="M618.563 634.199c0,11.4651 0,22.9397 0.21258,34.6163 0.199589,16.0498 1.65576,17.7185 17.0938,17.7185 15.4262,-3.75322 9.79285,-38.5774 8.54926,-49.4178 -1.24359,-4.17365 -14.394,-3.96462 -7.08954,-8.76184 7.08954,0 14.1826,0 21.4836,-0.21258 10.4294,7.92569 -2.7163,46.0944 3.96462,59.4409 20.0097,4.37206 -7.51352,9.59326 -14.1814,11.4651 -5.84595,-1.86834 -2.5049,-8.33668 -5.63337,-9.79285 -12.0982,7.92451 -28.5719,16.8859 -38.1687,-0.21258 -1.86834,-5.42079 -1.86834,-5.42079 -2.29232,-8.13709 -0.412169,-43.3781 -0.412169,-43.3781 -0.836148,-44.4091 -3.96462,-1.88015 -16.2624,-2.09273 -20.4348,0 -0.623568,4.37206 -0.623568,4.37206 -0.836148,42.7534 1.88015,15.8372 26.9032,2.29232 15.2255,13.97 -39.6249,23.1511 -31.0757,-30.0328 -31.2752,-53.8075 -2.92888,-2.91589 -9.18582,-2.07974 -5.42079,-7.08836 4.78423,-3.75322 17.0938,-20.6474 22.302,-15.4262 0.21258,3.54064 0.42516,7.08954 0.836148,10.8416 11.0542,0 22.3197,0 33.5806,-0.21258 2.49191,1.26131 2.70449,3.96462 2.91707,6.6821l0.003543 -0.009448z"/>
  <path class="fil3" d="M422.33 697.388c7.71311,0 15.6376,0 23.5633,0 0,0.412169 -23.5633,0.412169 -23.5633,0z"/>
  <path class="fil3" d="M675.494 697.388c10.218,0 20.4348,0 30.6517,0 0,0.412169 -30.6517,0.412169 -30.6517,0z"/>
  <path class="fil2" d="M445.894 697.388c-7.92569,0 -15.8502,0 -23.5633,0 -7.71311,-1.47271 1.45617,-5.4326 3.53946,-6.68092 3.34105,-11.8903 3.34105,-34.6163 1.04873,-46.0779 -14.6066,-7.51234 4.17247,-12.7217 12.7217,-18.7791 6.46952,0 2.07974,9.38186 6.66438,9.38186 18.3551,-15.2136 38.1699,-12.2978 41.7058,13.1457 0,11.6777 0,23.3507 0.211399,35.0285 0.836148,6.46834 0.836148,6.46834 1.45617,7.51352 19.6022,8.33668 -16.0498,7.71193 -24.5979,6.04436 -4.17365,-2.07974 3.75204,-6.04436 4.99563,-6.87696 0.836148,-2.91589 0.836148,-2.91589 1.45617,-9.18582 0.423979,0 0.423979,-25.6431 0,-25.6431 -0.624749,-12.2966 -2.07974,-18.5535 -16.2624,-18.5535 -9.38068,4.58464 -10.2168,9.58027 -11.2656,19.6022 -0.412169,0 -0.412169,0 -0.199589,21.6832 0.199589,3.33987 0,9.18582 1.86834,12.097 4.38387,2.70449 9.80466,7.30094 0.211399,7.30094l0.009448 0z"/>
  <path class="fil2" d="M706.151 697.388c-10.2168,0 -20.4348,0 -30.6517,0 -9.59326,0 4.79604,-8.97324 4.79604,-8.97324 0.624749,-12.7217 7.08954,-39.8375 -6.05735,-47.1254 0,-3.76503 16.475,-18.1425 22.1071,-14.394 1.26131,11.8891 2.92888,7.50053 10.0184,1.04755 23.1382,-9.80466 22.5146,22.7272 4.37206,15.6388 -21.0584,-15.8502 -13.3465,36.0725 -13.1339,43.5895 2.07974,2.70331 16.6734,8.33668 8.54926,10.2168z"/>
  <path class="fil1" d="M518.878 689.663c-13.97,-5.42079 2.5049,-27.104 11.6777,-24.8116 0,10.629 1.04873,22.5146 -11.6777,24.8116z"/>
  <path class="fil4" d="M471.54 680.901c0,-8.54926 0,-17.0938 0,-25.6431 0.423979,0 0.423979,25.6431 0,25.6431z"/>
  <path class="fil3" d="M443.813 677.985c-0.211399,-21.682 -0.211399,-21.682 0.199589,-21.682 0,7.08836 0,14.3763 -0.199589,21.682z"/>
  <path class="fil1" d="M743.471 646.497c-17.0938,-2.29232 15.0129,-30.6517 20.8588,-7.08954 -1.88133,7.71311 -14.5901,6.87696 -20.8588,7.08954z"/>
  <path class="fil2" d="M714.912 613.341c-15.8502,-9.38068 9.38068,-18.9787 17.5048,-20.6462 5.43378,0.211399 10.8546,0.423979 16.4868,0.636559 16.2624,2.70331 37.7448,11.8726 31.0638,-15.0141 -18.7661,-1.47271 -28.148,3.54064 -36.0725,-17.3064 0,-18.5665 -1.26013,-39.4123 2.70449,-57.3553 21.0702,-21.0584 10.6408,49.4308 10.6408,52.7588 1.66875,10.642 13.3465,11.6895 21.271,6.05735 0.836148,-7.51352 0.836148,-7.51352 1.04873,-27.1158 0,-1.45617 2.5049,-55.6747 16.4738,-32.3252 -2.29232,28.5719 -3.12847,55.0511 -1.88015,83.6231 0,40.4622 -42.7534,15.2266 -65.268,20.8588 -4.58464,2.29232 -8.97324,4.37206 -13.97,5.83296l-0.003543 -0.004724z"/>
  <path class="fil2" d="M498.032 592.69c7.50053,0 15.0141,0 22.5146,0 6.46834,0 20.0227,2.7163 24.6109,-1.86716 0,-4.17247 0,-8.34967 0,-12.5103 -14.1814,1.03574 -31.7004,4.16066 -35.8729,-13.5579 0,-3.12847 -2.91589,-81.9543 15.8502,-56.7222 -0.199589,18.1413 -1.86834,36.696 -2.29232,54.8386 4.17247,6.25694 15.8502,2.09273 21.695,0.836148 -0.211399,-19.6034 -0.836148,-39.4135 -0.211399,-59.0158 4.17247,-7.08954 10.0043,-4.58464 12.9331,1.45617 0,8.13709 0,16.4738 0,24.8234 1.45617,35.6473 1.45617,35.6473 1.66875,62.9756 -5.84595,20.8458 -41.5062,11.053 -56.0999,11.4651 -10.2168,2.29232 -19.4026,6.87696 -20.8588,-5.42079 4.79722,-4.79604 9.16928,-6.46834 16.0628,-7.30094z"/>
  <path class="fil2" d="M682.376 554.113c-0.21258,6.25694 -0.42516,12.5092 -0.624749,18.9787 -1.66757,8.97324 -10.2168,7.08836 -13.1457,0 0,-4.79722 0.21258,-9.59326 0.423979,-14.5901 0,-13.9819 0,-27.9472 0.21258,-41.9172 1.24359,-15.0141 11.4651,-14.8015 14.3775,-1.45617 8.54926,-3.12847 10.642,-4.38505 18.3539,1.45617 9.59326,0 11.0542,-9.80584 23.7759,-6.25694 15.8502,10.629 14.1814,57.7674 6.04436,68.8216 -17.9299,5.83178 -9.16928,-28.3605 -8.76184,-36.4976 0,-16.4738 0.42516,-23.9873 -13.9689,-11.6777 0.211399,10.4176 7.92451,50.6661 -9.79285,45.6705 -10.4294,-10.4294 3.9469,-38.1699 -6.88995,-49.0068 -11.8891,2.91707 -9.79285,17.0938 -10.0043,26.4792l0 -0.003543z"/>
  <path class="fil2" d="M410.232 577.676c-30.6517,-8.54808 -36.696,-38.9884 -23.5621,-65.4805 14.8015,-20.0097 38.7888,-20.2223 53.3824,0.21258 0,16.0628 -11.6777,6.25694 -18.5547,0.21258 -31.2882,-10.8416 -38.7888,44.8331 -10.2168,51.0901 14.394,0 18.3421,-8.13709 30.2277,-13.1327 7.30094,0 9.39722,6.66438 5.2212,12.084 -12.3107,10.4306 -20.4348,14.1826 -36.4976,15.0141z"/>
  <path class="fil2" d="M485.93 576.839c-8.33668,-1.24359 -16.0616,-3.96462 -24.8104,-2.91589 -22.9386,-6.04436 24.3995,-44.4091 20.8458,-55.4621 -6.25576,0 -13.3453,-4.38505 -18.5535,-3.14146 -7.51352,15.2255 -24.1999,-13.97 -4.59763,-18.7661 5.43378,1.88015 13.7705,6.05735 18.5677,7.72492 8.97324,1.45617 32.324,-6.68092 24.8104,11.0412 -8.96025,14.394 -17.9299,28.7833 -27.1028,43.1785 0,9.1681 20.4337,0.623568 24.1869,0.623568 14.1814,8.54926 -6.04436,16.6863 -13.3465,17.7174z"/>
  <path class="fil2" d="M625.227 576.021c-33.9797,-9.3984 -28.1468,-67.1528 6.25694,-70.9143 21.9076,4.38505 22.5311,7.08836 17.3229,32.5365 0,5.63337 -3.33987,18.1425 1.03574,22.5311 25.656,0 6.6821,22.302 -10.0043,10.218 -1.26131,0.410988 -1.26131,0.410988 -4.79722,4.37206 -3.33987,0.623568 -6.46834,1.04755 -9.80584,1.26013l-0.008267 -0.003543z"/>
  <path class="fil2" d="M582.279 573.928c-28.5719,-8.54926 -12.7217,-56.7234 -15.2266,-76.7461 -4.58464,-4.58464 -13.3453,-0.199589 -17.7174,-8.96143 0,-12.5092 10.629,-6.87696 18.1425,-6.04436 0.198408,-6.88995 -1.66875,-35.2529 13.3453,-23.3637 2.07974,6.46952 0.199589,17.0938 0.199589,23.9873 2.30413,4.58464 35.4654,0.412169 22.9386,16.0498 -5.83178,1.88015 -15.8502,0 -22.302,-0.410988 -0.423979,0.410988 -8.76184,60.4707 4.58464,61.3069 4.58346,-1.45617 8.33668,-3.12847 12.9213,-0.836148 8.76066,10.8416 -9.79285,14.1826 -16.8859,15.0141l0 0.004724z"/>
  <path class="fil1" d="M626.9 562.463c-21.8946,-8.76184 -4.79604,-56.9313 10.0184,-39.2139 -1.26131,12.9343 -2.7163,25.656 -2.7163,38.5939 -2.29232,0.199589 -4.79722,0.410988 -7.30212,0.623568l0 -0.003543z"/>
  <path class="fil1" d="M772.255 326.392c0,0 0,0.21258 0,0.42516 -3.75204,3.75204 10.8416,76.3209 15.2266,85.2824 3.96462,17.1103 8.96025,33.792 13.5449,50.8905 8.13709,19.3897 8.13709,19.3897 11.2656,28.7715 5.2212,9.18582 33.9927,40.8862 32.7491,44.6335 -10.642,-4.17247 -26.9044,-30.0316 -33.9927,-38.7888 -11.6777,-27.1158 -19.8148,-56.7234 -28.1598,-84.8702 -12.9213,-29.8332 -15.2136,-39.2139 -15.2136,-73.2066 -0.836148,-13.1327 -0.836148,-13.1327 -0.623568,-18.9657 2.70331,2.07974 3.53946,3.32806 5.20821,5.83296l-0.004724 -0.004724z"/>
  <path class="fil3" d="M557.256 530.974c0,-8.34849 0,-16.6863 0,-24.8234 0.410988,0 0.410988,24.8234 0,24.8234z"/>
 </g>
</svg>
