<?xml version="1.0" encoding="UTF-8"?>
<!DOCTYPE svg PUBLIC "-//W3C//DTD SVG 1.1//EN" "http://www.w3.org/Graphics/SVG/1.1/DTD/svg11.dtd">
<!-- Creator: CorelDRAW -->
<svg xmlns="http://www.w3.org/2000/svg" xml:space="preserve" width="1000px" height="1000px" style="shape-rendering:geometricPrecision; text-rendering:geometricPrecision; image-rendering:optimizeQuality; fill-rule:evenodd; clip-rule:evenodd"
viewBox="0 0 1000 1000"
 xmlns:xlink="http://www.w3.org/1999/xlink">
 <defs>
  <style type="text/css">
   <![CDATA[
    .str1 {stroke:#1F1A17;stroke-width:8.33386}
    .str0 {stroke:#1F1A17;stroke-width:29.5276}
    .fil2 {fill:none}
    .fil1 {fill:white}
    .fil0 {fill:#D1B2CE}
    .fil3 {fill:#1F1A17;fill-rule:nonzero}
   ]]>
  </style>
 </defs>
 <g id="Warstwa_x0020_1">
  <metadata id="CorelCorpID_0Corel-Layer"/>
  <circle class="fil0" cx="498.037" cy="497.483" r="485.835"/>
  <g id="_229055688">
   <polygon id="_229154472" class="fil1" points="505.167,91.9524 435.6,175.621 332.19,294.072 341.592,467.99 421.365,509.17 442.459,485.412 457.282,483.904 468.654,490.98 469.305,526.389 482.715,538.622 506.796,553.5 517.7,505.682 533.552,467.391 551.19,456.711 571.999,466.987 581.154,487.287 571.607,529.337 564.931,564.528 568.366,590.452 764.632,393.722 737.37,216.045 "/>
   <path id="_229154328" class="fil2 str0" d="M466.17 533.326c6.99804,1.34528 17.1614,9.67087 25.5213,15.2421 5.15433,3.43583 9.20079,8.2441 15.9898,10.8366m57.4382 31.265c4.56733,1.44803 5.0315,2.75906 8.37166,4.39489 38.2075,-38.9953 64.6252,-65.8772 96.4371,-97.2981 17.5358,-17.3197 31.3736,-33.0957 47.3575,-49.0796 8.91142,-8.91142 41.1957,-48.4618 43.0524,-49.0796 -4.93701,-10.6984 -4.30512,-37.213 -4.30512,-49.9418 0,-21.1725 -11.1933,-39.8729 -11.1933,-63.717 0,-20.5784 -8.61024,-36.8221 -8.61024,-57.6898 -1.29095,-12.9284 -132.292,-72.6296 -146.674,-84.1926 -15.3567,-12.3461 -85.8792,-55.793 -90.3355,-51.4418 -25.4398,13.6973 -73.8627,86.5324 -91.9111,111.524 -13.3004,18.4158 -29.4709,31.7209 -42.1914,50.8016 -4.27914,6.4193 -23.7945,27.8433 -35.3032,39.6048 -6.64134,12.8138 2.58307,37.6607 2.58307,54.2493 0,13.2721 0.982678,108.938 7.74922,117.964 19.5626,15.4441 46.6914,22.3772 66.3012,34.4422 5.94686,3.65906 12.4961,3.86575 18.6697,7.19056"/>
   <path id="_229492296" class="fil2 str1" d="M509.772 99.1017c0,31.787 4.30512,61.5709 4.30512,92.993"/>
   <path id="_229490496" class="fil2 str1" d="M338.424 457.297c-0.151181,0.20315 27.4276,-30.2776 32.7201,-37.8863 9.78898,-14.074 29.7709,-34.7008 45.6355,-46.4965m212.665 -39c14.2677,7.13386 74.8796,34.6725 90.4241,42.4441 7.31457,3.6567 13.7976,4.87441 21.5268,6.88819 3.06496,0.799607 15.1524,11.798 14.6374,12.0555"/>
   <path id="_229154400" class="fil2 str1" d="M202.379 874.906c20.7437,-38.5288 50.3634,-76.356 63.717,-111.076 5.37284,-13.9713 16.5662,-18.3732 22.0843,-29.9776 4.29213,-9.02481 2.77677,-25.6394 7.74804,-33.6992 16.0831,-26.0752 37.0855,-48.1796 71.7721,-73.2296 19.05,-13.7575 51.3957,-36.75 48.2185,-61.1339 -3.57402,-27.417 10.7717,-68.028 22.3807,-75.769 19.4445,-18.1063 40.9429,-2.0563 27.7807,38.9433 -9.0567,28.2142 18.3626,57.8445 14.6339,89.3446 -3.32126,28.0677 21.9036,65.2571 22.1705,92.1367"/>
   <path id="_229162272" class="fil2 str1" d="M492.552 663.088c11.602,16.7599 -4.30512,-41.4036 -4.30512,-49.9406 0,-21.4819 15.8516,-31.9713 18.0815,-49.0796 3.47126,-26.6386 9.99568,-63.0438 21.5268,-86.1048 12.5126,-25.0264 28.6973,-25.5484 45.6355,-8.61142 18.7984,18.7996 -12.1701,69.9945 -8.61024,97.2993 4.48229,34.3796 -10.3335,68.8808 -10.3335,105.908"/>
   <path id="_229488624" class="fil2 str1" d="M669.928 504.655l-22.3866 66.3012c-12.1606,36.013 -37.1362,75.9934 -55.1079,111.936 -13.8957,27.7949 -1.10787,68.315 -36.1642,81.7997 -45.58,17.5323 -89.0505,27.3059 -130.879,48.2185 -16.3961,8.19922 -41.6008,18.8599 -50.8016,33.5811 -7.3193,11.7095 -33.1725,68.9882 -26.6929,70.6064"/>
   <path id="_197931144" class="fil2 str1" d="M415.918 564.068c0,29.9114 11.1933,55.0524 11.1933,80.0764 0,18.026 -9.87166,17.9717 -13.7764,30.9981 -1.46575,4.88977 -8.61024,8.36457 -8.61024,13.7776 0,4.33583 -0.861024,16.9406 -0.861024,16.3595"/>
   <path id="_229492248" class="fil2 str1" d="M408.169 682.03c-0.478347,7.19174 -3.19607,3.08504 -8.61024,5.16733 -4.95473,1.90512 -11.0906,1.41732 -16.3606,3.4441 -6.56812,2.5252 -13.1693,5.1626 -20.6646,6.02717 -5.51103,0.634252 -19.2,3.85276 -23.2488,6.88819"/>
   <path id="_229492344" class="fil2 str1" d="M383.198 616.591c6.38859,1.47284 11.374,1.72205 18.0827,1.72205l7.74922 0c3.49843,0 6.02717,-1.36299 6.02717,2.58307"/>
   <path id="_229054392" class="fil2 str1" d="M364.256 631.229c8.29489,0 15.4288,1.72205 23.2477,1.72205 5.34922,0 15.9189,0.392126 17.2217,4.30512"/>
   <path id="_229054176" class="fil2 str1" d="M497.534 551.463c-3.68622,8.95158 -5.61733,21.1642 -10.5354,29.0244 -1.84961,2.95512 -7.73977,15.887 -7.73977,15.2646"/>
   <path id="_229044624" class="fil2 str1" d="M481.855 637.441c2.5937,1.30039 5.25591,2.70945 7.86497,3.78307 0.780709,0.32126 1.50354,0.914174 2.26299,1.18819 1.31102,0.468898 1.89803,1.60748 1.61575,-0.432284"/>
   <path id="_229055832" class="fil3" d="M489.101 269.27l11.6291 -35.3953c6.04371,-3.70748 12.2894,-6.45001 18.6898,-8.27835 6.34725,-1.82835 12.9484,-2.74252 19.7032,-2.74252 17.4189,0 31.2827,4.62166 41.491,13.813 10.2071,9.24331 15.3366,21.0248 15.3366,35.4473 0,5.84056 -0.915355,11.426 -2.74252,16.8095 -1.82835,5.3315 -4.57087,10.3595 -8.1756,15.0319 -3.65788,4.62166 -11.4272,12.4937 -23.3114,23.5134 -10.0039,9.19135 -16.0984,15.1323 -18.2811,17.824 -3.70748,4.36772 -6.24686,8.43072 -7.77048,12.189 -1.06654,2.58898 -1.6252,5.28071 -1.6252,8.07402 0,4.72323 2.28543,9.85158 6.8563,15.2858l-6.39804 4.77402c-5.07993,-3.75827 -8.58308,-7.51654 -10.5638,-11.3256 -1.98071,-3.75709 -2.99646,-8.02323 -2.99646,-12.7961 0,-4.72323 1.16811,-9.49725 3.45355,-14.2713 2.28543,-4.77284 7.82008,-12.2374 16.6571,-22.4457 11.6811,-13.4079 19.0949,-23.2087 22.1421,-29.4555 3.09685,-6.24567 4.62166,-12.2374 4.62166,-18.0284 0,-9.3945 -3.50433,-17.3669 -10.5638,-23.8677 -7.05945,-6.50079 -15.9969,-9.75119 -26.915,-9.75119 -3.09803,0 -6.24686,0.407481 -9.44646,1.27087 -3.2504,0.862205 -6.60119,2.13307 -10.0547,3.80788 -5.33268,7.51654 -9.75001,15.287 -13.2543,23.361l-7.56733 -1.06654 -0.914174 -1.77756zm46.4174 136.455c4.87441,0 8.98701,1.67717 12.391,5.12953 3.35079,3.40394 5.02678,7.51654 5.02678,12.2398 0,4.77284 -1.67599,8.88662 -5.02678,12.2894 -3.40394,3.40158 -7.51654,5.12953 -12.391,5.12953 -4.72441,0 -8.78741,-1.72795 -12.189,-5.12953 -3.35079,-3.40276 -5.02678,-7.51654 -5.02678,-12.2894 0,-4.72323 1.67599,-8.83583 5.02678,-12.2398 3.40158,-3.45236 7.46457,-5.12953 12.189,-5.12953z"/>
  </g>
 </g>
</svg>
