<?xml version="1.0" encoding="UTF-8"?>
<!DOCTYPE svg PUBLIC "-//W3C//DTD SVG 1.1//EN" "http://www.w3.org/Graphics/SVG/1.1/DTD/svg11.dtd">
<!-- Creator: CorelDRAW -->
<svg xmlns="http://www.w3.org/2000/svg" xml:space="preserve" width="1000px" height="1000px" style="shape-rendering:geometricPrecision; text-rendering:geometricPrecision; image-rendering:optimizeQuality; fill-rule:evenodd; clip-rule:evenodd"
viewBox="0 0 1000 1000"
 xmlns:xlink="http://www.w3.org/1999/xlink">
 <defs>
  <style type="text/css">
   <![CDATA[
    .str1 {stroke:#1F1A17;stroke-width:8.33386}
    .str0 {stroke:#1F1A17;stroke-width:16.6665}
    .fil2 {fill:none}
    .fil1 {fill:white}
    .fil0 {fill:#D1B2CE}
   ]]>
  </style>
 </defs>
 <g id="Warstwa_x0020_1">
  <metadata id="CorelCorpID_0Corel-Layer"/>
  <circle class="fil0" cx="498.037" cy="497.483" r="485.835"/>
  <g id="_229492104">
   <path id="_229488408" class="fil1 str0" d="M503.002 175.798l-80.7308 -1.03465 -57.9603 -42.4359 -22.7705 -2.5878c-4.17048,0.962599 -6.89528,1.27323 -9.8315,3.62244 -3.47717,2.77914 -4.77874,7.36654 -7.24607,9.83268 -1.5437,1.5437 -3.62244,12.9378 -3.62244,12.4205 -7.3193,2.43898 -20.8642,-14.8878 -38.2949,-10.8673 -16.3158,3.76181 -2.0563,19.8496 -20.7,9.31418 -16.0606,-9.07678 -23.3043,-20.7532 -43.4705,-6.72638 -5.78977,4.0252 -12.913,17.237 -14.4898,23.2866 -2.97638,11.4224 1.89449,12.3945 4.65709,20.7l41.9185 31.5685c0.851575,4.54961 0.517323,9.33426 0.517323,13.9725 0,2.29725 -0.133465,4.5189 0.517323,6.21024 0.783071,2.03977 2.15315,3.35197 2.5878,4.65709l65.5878 43.1552 61.4504 1.03347c-1.67126,6.54804 -6.46064,11.4496 -6.46064,17.9114 0,4.41496 5.69292,11.9032 5.17559,11.9032l-30.0154 31.05 -0.517323 8.79686c-31.904,17.8087 4.81181,58.4008 27.6862,29.7437 2.80394,-3.51142 13.7752,-10.6347 12.652,-0.774804 -1.5874,13.9347 -4.04528,16.9937 7.48819,26.0788 6.79961,5.3563 25.3772,13.7516 28.9181,3.09803 1.45512,1.21181 0.825591,-2.44252 2.06457,0.774804 3.18544,8.27363 22.1362,9.32245 29.9516,5.42126 4.17992,-2.08465 8.66812,-5.30315 10.8437,-8.77796 1.29921,-2.0752 2.01851,-14.9457 5.42008,-15.424l38.576 -1.8626 1.5437 -35.8855c3.70158,0.253937 3.88229,-1.1563 6.35788,-3.63189 2.15433,-2.15433 4.10315,-4.79646 5.16378,-7.74568 0.765355,-2.12244 2.11181,-5.07638 2.58189,-6.97087l42.8611 22.4634 0.934253 104.239 -91.5981 -12.9378 -173.364 33.6378 0.518504 37.2603 126.788 21.2173c-3.3437,11.1449 -10.35,12.6874 -10.35,24.8398 0,11.5618 23.5181,13.4551 33.1193,13.4551 7.10316,0 13.3039,1.03465 20.7,1.03465 5.22402,0 18.6307,-2.17323 18.6307,3.10512l1.55197 39.3307 -50.1969 0.517323c-7.33111,3.13937 -13.5638,3.73111 -19.148,9.31536 -1.57323,1.57323 -2.3811,3.70512 -3.62244,5.69174 -1.32756,2.12362 0.734646,4.65827 -3.10512,4.65827 -7.25316,0 -9.83268,8.22993 -9.83268,16.0417 0,3.76181 5.09056,20.0433 1.03583,22.7705l-162.496 37.7776 -0.517323 64.1705 6.72756 4.13977 -0.259843 24.9355 245.804 76.943 272.993 -83.2477 -1.03583 -27.4276 4.65827 -4.14095 1.55197 -61.0642 -71.9327 -55.891 3.10512 -48.6449c13.8036,3.18425 17.9339,4.89213 27.9449,-2.07047 4.93701,-3.43229 12.4536,-13.6843 15.5055,-13.6169 22.8579,0.514961 31.05,-8.72363 30.7925,-25.4091 -0.218504,-14.2476 -10.2732,-19.3347 -14.0776,-21.4843 -9.12048,-5.15197 -11.7709,2.25 -11.7709,-10.6347 0,-24.4571 -25.4717,-35.4603 -47.3599,-35.4603l-3.10512 -180.091 -184.231 -51.75 68.3103 -6.21024 -3.10394 -41.4 -87.9757 -55.8898z"/>
   <path id="_229155432" class="fil2 str1" d="M749.49 524.509c6.95788,7.71969 11.6079,15.9496 13.5851,28.3087m-7.61103 48.7949c-7.40788,12.5162 -18.763,20.5252 -31.4894,20.5252 -22.3146,0 -40.4114,-24.6248 -40.4114,-54.9886 0,-30.365 18.0969,-54.9898 40.4114,-54.9898 9.6756,0 18.5575,4.63111 25.5154,12.3496"/>
   <ellipse id="_229154352" class="fil2 str1" cx="767.219" cy="579.67" rx="20.5915" ry="25.1714"/>
   <line id="_229161168" class="fil2 str1" x1="384.402" y1="386.061" x2="421.059" y2= "347.372" />
   <line id="_197929224" class="fil2 str1" x1="427.268" y1="419.194" x2="433.026" y2= "348.164" />
   <line id="_197929776" class="fil2 str1" x1="470.801" y1="408.976" x2="481.215" y2= "355.741" />
   <path id="_197929632" class="fil2 str1" d="M527.307 349.196c1.87559,-11.6457 -42.7713,-34.6063 -52.343,-39.5835 -19.6181,-10.1965 -36.6331,-15.8634 -57.5516,-21.0933"/>
   <path id="_197928456" class="fil2 str1" d="M271.259 157.964c-13.3288,10.2697 -10.0524,52.4008 14.0658,39.9733 9.46064,-4.87441 18.5658,-13.9725 21.3603,-24.5587 0.96378,-3.65315 3.30591,-18.4465 -0.520867,-20.6398"/>
   <path id="_197928360" class="fil2 str1" d="M244.689 144.118c3.88583,16.5591 2.09173,21.6709 -6.2504,35.2701 -4.91457,8.01379 -14.6043,16.7209 -23.4437,16.7209"/>
   <path id="_197934216" class="fil2 str1" d="M273.864 200.289c6.97678,6.49371 15.8102,12.7429 23.7047,18.0272 5.20394,3.48189 13.5083,7.46457 15.6284,13.8461"/>
   <path id="_197931024" class="fil2 str1" d="M316.584 154.83c7.63347,3.82796 14.8713,6.77481 21.0992,12.541 3.84685,3.56103 8.18268,4.71496 11.9823,7.5756"/>
   <path id="_229160952" class="fil2 str1" d="M274.645 260.902c6.8693,-0.49252 15.2102,-1.22953 21.8811,-2.87481 5.92914,-1.46339 9.60119,-8.80749 14.0658,-9.92835"/>
   <path id="_229492440" class="fil2 str1" d="M384.049 185.92c0,8.1626 5.46969,16.4374 5.46969,25.3418 0,13.787 -11.3953,27.1547 -21.3591,35.5311 -3.60591,3.03189 -26.3421,10.0252 -26.5689,10.7126"/>
   <polyline id="_229490640" class="fil2 str1" points="431.671,549.929 489.408,558.934 663.146,527.682 665.265,493.781 "/>
  </g>
 </g>
</svg>
