<?xml version="1.0" encoding="UTF-8"?>
<!DOCTYPE svg PUBLIC "-//W3C//DTD SVG 1.1//EN" "http://www.w3.org/Graphics/SVG/1.1/DTD/svg11.dtd">
<!-- Creator: CorelDRAW -->
<svg xmlns="http://www.w3.org/2000/svg" xml:space="preserve" width="1000px" height="1000px" style="shape-rendering:geometricPrecision; text-rendering:geometricPrecision; image-rendering:optimizeQuality; fill-rule:evenodd; clip-rule:evenodd"
viewBox="0 0 1000 1000"
 xmlns:xlink="http://www.w3.org/1999/xlink">
 <defs>
  <style type="text/css">
   <![CDATA[
    .str1 {stroke:#1F1A17;stroke-width:8.33386}
    .str0 {stroke:#1F1A17;stroke-width:25.0004}
    .fil2 {fill:none}
    .fil3 {fill:#1F1A17}
    .fil1 {fill:white}
    .fil0 {fill:#D1B2CE}
   ]]>
  </style>
 </defs>
 <g id="Warstwa_x0020_1">
  <metadata id="CorelCorpID_0Corel-Layer"/>
  <circle class="fil0" cx="498.037" cy="497.483" r="485.835"/>
  <g id="_229493424">
   <path id="_229159104" class="fil1 str0" d="M520.073 191.126c-61.8922,-19.0429 -81.6544,0 -143.554,0 -62.765,0 -169.377,72.7725 -198.656,120.353 -8.44371,13.7209 -15.9142,21.7134 -27.5516,33.352 -1.32165,1.32165 -10.6134,9.98741 -8.70001,13.05 15.5516,24.8811 -23.8311,3.08859 -37.7008,39.1512 -13.0854,34.0205 19.2851,50.3174 17.4,52.2012 -28.5803,28.5803 33.9957,59.3894 43.5012,84.1028 13.2685,34.4988 59.1107,10.4799 84.1028,26.1 9.64253,6.02717 25.0477,-6.61418 31.9004,4.35118 22.2827,35.6481 19.3099,75.1312 65.2524,92.8016 43.3855,16.6866 117.454,-26.8252 116.003,-27.5504 6.70512,29.0587 83.119,136.201 104.404,162.405 10.1799,12.5315 18.3827,59.3811 39.1512,46.4008 31.8331,-19.898 -37.8414,-113.304 -2.90079,-108.752 52.6087,6.8504 86.6457,-5.91615 121.804,-27.5516 45.9685,-28.2851 13.2508,-62.3516 44.9516,-62.3516 62.2914,0 97.1528,-86.1532 97.1528,-149.354 0,-49.141 -42.3366,-70.4327 -36.2516,-123.254 3.76536,-32.6823 -118.191,-125.075 -137.753,-134.854 -34.3689,-17.178 -62.8347,-33.2894 -88.4528,-49.3016 -2.31851,-1.45039 -97.728,-9.65906 -84.1028,8.70001z"/>
   <path id="_229489104" class="fil2 str1" d="M321.304 619.719c-35.9693,-110.31 55.4233,-145.262 147.054,-145.262 46.2768,0 73.5284,-30.1264 73.5284,-75.3213 0,-41.0528 -84.2883,-49.7741 -84.2883,-23.3138"/>
   <path id="_229490328" class="fil2 str1" d="M675.251 240.052c-19.1658,-1.59567 -55.1575,-36.3036 -78.9083,-12.5528 -27.6295,27.6295 -0.633071,31.6477 -32.2796,0 -32.3067,-32.3067 -76.017,52.4422 -89.6682,60.9745 -24.5669,15.3532 -59.7237,2.33622 -82.4942,25.1067 -33.3508,33.3496 -49.2225,87.4548 -8.96694,120.155 12.0106,9.75591 49.3477,11.9244 69.9402,7.17284 14.9835,-3.45591 50.2867,-43.9229 25.1079,-50.2134"/>
   <path id="_229489704" class="fil2 str1" d="M773.24 555.16c-20.9469,17.4543 -39.4111,27.6921 -69.9414,19.7268 -20.1969,-5.2689 -20.3244,-22.4752 -28.6937,-35.8677 -8.12835,-13.0063 -55.8603,-13.3925 -71.7343,-23.3138 -24.3036,-15.189 -48.4205,-16.6158 -48.4205,-53.8004"/>
   <path id="_229490136" class="fil2 str1" d="M800.14 408.104c-20.6953,-1.47638 -34.7292,-12.5539 -52.0075,-12.5539 -26.3658,0 -27.0331,33.7087 -44.8335,44.8347 -8.87363,5.5441 -5.8063,0.659056 -12.5539,8.96576 -2.13071,2.62441 -41.7697,23.5429 -44.8335,14.3469"/>
   <path id="_229489872" class="fil2 str1" d="M592.111 442.178c19.0736,-32.7012 -4.28622,-36.2422 14.3469,-59.1804 41.2075,-50.7296 8.27245,-64.0123 -23.3138,-89.6682 -38.6551,-31.3996 -48.2894,13.1929 -69.9414,21.5197 -48.3201,18.5835 -100.428,2.45906 -100.428,75.3213 0,21.841 26.0067,39.1087 48.4205,30.4866 8.57599,-3.29646 19.7268,-16.539 19.7268,-25.1067 0,-13.1268 -18.4252,-23.6339 -21.5197,-14.3469"/>
   <path id="_229490160" class="fil2 str1" d="M161.704 449.351c0,-31.1386 10.976,-49.9453 30.4878,-60.9733 11.9858,-6.77363 3.58701,1.85197 3.58701,12.5528 0,12.1772 27.5303,24.2634 37.6595,17.9339 10.637,-6.64843 12.9354,8.26418 25.1079,14.3469 8.25237,4.12559 17.8914,0.360237 25.1067,5.37993 10.2543,7.13386 28.3878,9.77245 37.6607,12.5539 4.5378,1.35945 33.939,16.9595 35.8666,5.37993"/>
   <path id="_229491024" class="fil2 str1" d="M441.468 226.975c-15.7961,-7.29095 -30.5953,-7.17402 -48.4205,-7.17402 -18.3343,0 -16.0276,8.55001 -25.1067,19.728 -10.6063,13.0559 -44.3032,-4.7067 -48.4205,26.8996 -0.28937,2.21575 -15.7394,-0.401575 -19.728,3.58701 -23.4732,23.4732 2.29606,49.48 -5.37993,78.9071 -2.81103,10.7764 -14.9433,27.0236 -7.17284,39.4548 4.57323,7.3193 23.4591,21.9543 25.1067,26.8996"/>
   <path id="_229493256" class="fil2 str1" d="M366.147 601.786c16.0665,0 38.9693,-12.7961 43.0406,-10.7599 10.7079,5.35158 24.4606,12.2492 37.6607,7.17402 6.74292,-2.5937 23.3138,-7.59804 23.3138,-17.9339 0,-5.05394 32.2807,-0.414567 32.2807,-32.2807 0,-10.0465 -9.70749,-30.9166 -16.141,-35.8666 -4.27559,-3.28937 3.07441,13.7138 3.58701,14.3469 11.9374,14.6929 20.5736,26.9823 37.6607,37.6595 19.5992,12.2504 45.6201,-20.2512 44.8335,-19.7268"/>
   <path id="_229490112" class="fil2 str1" d="M733.785 635.86c-20.3126,-6.24922 -31.6748,-20.4591 -48.4205,-26.8996 -23.5866,-9.07087 -69.319,15.6319 -91.4611,1.79291 -20.6209,-12.887 -42.6036,1.16811 -64.5615,-12.5528 -19.7457,-12.3425 -23.9764,24.6567 -21.5197,34.0736 7.03819,26.9811 30.1205,41.2181 37.6607,66.3544 6.81142,22.7032 43.6217,26.8996 68.1473,26.8996"/>
   <path id="_229491408" class="fil2 str1" d="M561.623 605.373c-16.7693,16.1244 -18.4465,17.9067 1.7941,26.9008 27.0213,12.0095 59.8311,8.96694 91.4611,8.96694 30.75,0 43.3536,10.5496 62.7674,25.1067"/>
   <path id="_229491768" class="fil2 str1" d="M549.07 619.72c-11.4791,16.8803 -11.713,16.9819 0,28.6937 15.5599,15.5599 64.167,16.141 87.8741,16.141 32.3988,0 49.0878,6.04607 71.7343,28.6937"/>
   <path id="_229491528" class="fil2 str1" d="M525.756 666.348c32.1036,-7.78229 14.6209,-1.21063 34.0736,10.7599 8.99764,5.53583 28.3205,14.3469 39.4536,14.3469 19.5437,0 38.2843,1.7941 57.3874,1.7941 10.9323,0 14.3941,7.22008 19.7268,12.5528 14.9268,14.9256 20.6126,12.339 -10.7599,21.5209"/>
   <path id="_229489992" class="fil2 str1" d="M467.496 391.256c-16.4043,30.4666 -48.8859,-7.21418 -34.4587,-25.9559 9.30355,-12.0862 21.9638,-17.0055 37.1445,-17.0055 10.7622,0 24.8221,-2.34449 34.4587,-7.15985 4.13622,-2.06811 9.43583,-3.67914 12.978,-6.71339 1.40669,-1.20591 11.674,-8.19213 10.7398,-8.50276"/>
   <path id="_229491672" class="fil2 str1" d="M454.518 389.019c-19.3666,-5.95985 14.4343,-27.5292 33.5646,-19.6914 19.0394,7.80237 33.2634,43.2626 14.7673,61.7575 -29.9776,29.9788 -73.7386,18.776 -111.879,26.4036"/>
   <path id="_229160472" class="fil2 str1" d="M459.441 388.124c22.9784,-28.2815 38.1863,6.00945 24.1666,23.2713 -32.6599,40.2071 -89.3079,9.94135 -85.9241,-37.5922 1.95709,-27.4819 22.552,-52.2756 50.1225,-57.2811 12.8339,-2.3315 27.9862,-5.15079 40.2768,-8.9504 4.67244,-1.44567 25.4977,-13.4256 24.1654,-13.4256"/>
   <path id="_195541336" class="fil3 str1" d="M461.729 371.425c-3.0626,2.20512 -9.88702,2.25827 -11.4118,6.26575 -2.51693,6.61064 -3.48071,10.4917 -0.22441,17.0055 4.77284,9.54686 17.5618,-0.772442 19.6914,-7.16103 1.48937,-4.47284 -1.31693,-7.1315 -3.3567,-10.0689 -1.05118,-1.51181 -2.13425,-2.35748 -3.13229,-3.3567 -1.65,-1.64882 -5.25945,-2.30315 -1.56614,-2.68465z"/>
   <path id="_195541384" class="fil1 str1" d="M426.987 381.069c3.14292,-19.5213 34.9146,-22.9358 50.3906,-22.5059 10.4988,0.291733 24.5599,10.0441 30.313,18.4288 9.24331,13.4717 -36.2788,25.4575 -47.7012,24.8563 -12.8516,-0.677953 -25.6878,-13.1469 -33.0024,-20.7792z"/>
   <circle id="_229161624" class="fil3 str1" cx="466.125" cy="378.993" r="11.2669"/>
  </g>
 </g>
</svg>
