<?xml version="1.0" encoding="UTF-8"?>
<!DOCTYPE svg PUBLIC "-//W3C//DTD SVG 1.1//EN" "http://www.w3.org/Graphics/SVG/1.1/DTD/svg11.dtd">
<!-- Creator: CorelDRAW -->
<svg xmlns="http://www.w3.org/2000/svg" xml:space="preserve" width="1000px" height="1000px" style="shape-rendering:geometricPrecision; text-rendering:geometricPrecision; image-rendering:optimizeQuality; fill-rule:evenodd; clip-rule:evenodd"
viewBox="0 0 1000 1000"
 xmlns:xlink="http://www.w3.org/1999/xlink">
 <defs>
  <style type="text/css">
   <![CDATA[
    .str0 {stroke:#1F1A17;stroke-width:0.900001}
    .str1 {stroke:#1F1A17;stroke-width:8.33386}
    .str2 {stroke:#1F1A17;stroke-width:16.6665}
    .fil0 {fill:none}
    .fil2 {fill:white}
    .fil1 {fill:#1F1A17;fill-rule:nonzero}
   ]]>
  </style>
 </defs>
 <g id="Warstwa_x0020_1">
  <metadata id="CorelCorpID_0Corel-Layer"/>
  <rect class="fil0 str0" x="-5324.47" y="7886.71" width="1002.45" height="1002.45"/>
  <g id="_282340144">
   <g>
    <path id="_228376096" class="fil1" d="M264.748 74.8005l6.99213 0.0011811 21.3189 32.8855 -6.99331 4.53307 -21.3177 -32.8855 6.99213 0.0011811 -6.99213 -4.53544zm0 0l3.49725 -5.39056 3.49488 5.39174 -6.99213 -0.0011811zm-17.8382 35.1532l-3.49607 -2.26772 21.3343 -32.8855 6.99213 4.53544 -21.3354 32.8855 -3.49488 -2.26772zm17.1673 814.385l0 -840.804 8.33386 0 0 840.804 -8.33386 0z"/>
   </g>
   <polygon class="fil2 str1" points="270.055,727.841 587.245,412.869 715.895,555.937 807.947,690.133 831.237,730.059 "/>
   <line class="fil0 str2" x1="26.354" y1="964.272" x2="807.545" y2= "194.177" />
   <path class="fil0 str2" d="M101.441 152.378c320.256,3.75945 784.769,500.202 781.01,770.278"/>
   <g>
    <path class="fil1" d="M931.537 733.196l-863.03 0 0 -8.33386 863.03 0 0 8.33386zm8.73426 -0.670867l-4.53544 -6.99213 0.0011811 6.99213 -32.8855 -21.3177 4.53307 -6.99331 32.8855 21.3189 0.0011811 6.99213zm0 0l-0.0011811 -6.99213 5.39174 3.49488 -5.39056 3.49725zm-35.1532 17.8382l-2.26772 -3.49488 32.8855 -21.3354 4.53544 6.99213 -32.8855 21.3343 -2.26772 -3.49607z"/>
   </g>
  </g>
 </g>
</svg>
