<?xml version="1.0" encoding="UTF-8"?>
<!DOCTYPE svg PUBLIC "-//W3C//DTD SVG 1.1//EN" "http://www.w3.org/Graphics/SVG/1.1/DTD/svg11.dtd">
<!-- Creator: CorelDRAW -->
<svg xmlns="http://www.w3.org/2000/svg" xml:space="preserve" width="1000px" height="1000px" style="shape-rendering:geometricPrecision; text-rendering:geometricPrecision; image-rendering:optimizeQuality; fill-rule:evenodd; clip-rule:evenodd"
viewBox="0 0 1000 1000"
 xmlns:xlink="http://www.w3.org/1999/xlink">
 <defs>
  <style type="text/css">
   <![CDATA[
    .str0 {stroke:#1F1A17;stroke-width:0.900001}
    .str1 {stroke:#1F1A17;stroke-width:8.33386}
    .str2 {stroke:#1F1A17;stroke-width:25.0004}
    .str3 {stroke:#1F1A17;stroke-width:8.33386;stroke-dasharray:16.668 8.334}
    .fil0 {fill:none}
    .fil1 {fill:white}
    .fil2 {fill:#1F1A17;fill-rule:nonzero}
   ]]>
  </style>
 </defs>
 <g id="Warstwa_x0020_1">
  <metadata id="CorelCorpID_0Corel-Layer"/>
  <rect class="fil0 str0" x="-5324.47" y="7886.71" width="1002.45" height="1002.45"/>
  <g id="_282339520">
   <path id="_282335968" class="fil1" d="M397.096 407.811l156.553 -90.1749c93.4926,-43.5532 181.693,-47.6126 260.459,18.7252l124.272 173.64c12.6437,23.8323 8.53938,39.6437 -3.74055,58.7788 -93.43,145.588 -219.124,124.172 -360.623,25.2839 -0.0519685,-0.0366142 -0.790158,-1.67008 1.52126,-3.2563l54.9095 -37.6595 26.6433 6.7063 56.1036 -0.0389764 73.656 -29.1567 24.9272 -28.0335 19.8461 -45.0603 -19.4528 -1.08425 -62.6658 22.2425 -64.3878 37.839 -55.004 36.117 0.201969 0.555119 -54.5918 37.4044 -5.05158 1.07599 -15.3213 13.6181 -125.974 74.9044c-114.611,49.3288 -205.402,37.4126 -272.377,-35.7496l-86.8194 -95.3316c-70.904,-98.3741 -5.00433,-186.932 71.7001,-212.684 109.135,-36.6378 138.187,-0.34252 243.562,62.4615l12.2102 7.27796 -45.1052 34.0512 -35.3339 -8.15079 -35.9859 -3.0626 -37.2697 9.72048 -41.0209 25.2721 -34.8 38.7674 -9.93308 28.9583 13.6665 0.425197 78.2587 -26.2902 71.4827 -41.6599 30.561 -23.6752 43.7067 -32.9977c0.677953,-0.511418 1.05591,0.151181 1.21536,0.240945z"/>
   <path id="_282336184" class="fil0 str1" d="M634.894 559.198c69.2812,-51.502 136.753,-91.2591 199.234,-98.5548 -6.83268,39.5965 -27.2953,66.1819 -59.0481,81.9875 -49.0678,26.5512 -95.654,30.7984 -140.186,16.5673z"/>
   <path id="_282335704" class="fil0 str1" d="M159.109 539.233c48.0036,-2.37166 111.582,-30.0532 195.836,-91.3335 -49.1717,-16.1256 -91.1576,-15.3095 -124.468,5.94686 -43.5485,25.2756 -62.9469,54.4477 -71.3682,85.3867z"/>
   <path id="_282337192" class="fil0 str2" d="M398.1 401.183l156.617 -90.2257c93.4938,-43.5532 181.693,-47.6115 260.46,18.7264l124.272 173.64c12.6425,23.8323 8.5382,39.6437 -3.74174,58.7788 -94.1658,146.736 -221.1,123.828 -363.966,22.9347l-15.3213 13.6181 -125.974 74.9032c-114.611,49.33 -205.403,37.4138 -272.377,-35.7485l-86.8205 -95.3328c-70.904,-98.3741 -5.00788,-186.928 71.7001,-212.682 113.576,-38.1319 138.249,4.59095 255.151,71.3882z"/>
   <path id="_282338080" class="fil0 str1" d="M159.053 538.522c-21.4441,181.219 149.882,181.461 266.103,149.171"/>
   <path id="_282338344" class="fil0 str1" d="M354.75 447.813c106.117,33.7571 178.819,79.2485 289.275,114.282"/>
   <path id="_282338224" class="fil0 str1" d="M834.835 461.078c27.3803,-126.099 -103.057,-202.203 -272.439,-140.046"/>
   <path id="_282338440" class="fil0 str2" d="M576.736 592.447c-73.467,-57.9898 -106.119,-123.634 -180.605,-187.748"/>
   <g>
    <path id="_282338536" class="fil2" d="M83.9068 255.745l89.3186 151.492 -7.16221 4.23307 -89.3186 -151.492 7.16221 -4.23307zm-18.4453 -23.0953l51.078 37.4906 -1.72677 0.141732 -1.70315 0.183071 -1.67835 0.225591 -1.65236 0.26811 -1.62874 0.309449 -1.60394 0.350788 -1.57914 0.393307 -1.55433 0.435827 -1.52953 0.477166 -1.50473 0.518504 -1.47992 0.562205 -1.45512 0.602363 -1.43032 0.646064 -1.40551 0.687402 -1.38071 0.728741 -1.35591 0.77126 -1.33228 0.81378 -1.3063 0.855119 -1.2815 0.897639 -1.25669 0.938977 -1.23307 0.981497 -1.20709 1.02284 -1.18347 1.06536 -1.15748 1.10669 -1.13386 1.14921 -1.10787 1.19173 -1.08425 1.23307 -1.05945 1.27559 -1.03347 1.31693 -1.00984 1.35945 -0.98504 1.40079 -0.960237 1.44331 0 0 -8.07757 -62.8441z"/>
   </g>
   <g>
    <path class="fil2" d="M919.565 734.125l-90.5398 -142.773 7.03229 -4.45985 90.5398 142.773 -7.03229 4.45985zm19.2036 22.5083l-52.3111 -35.8465 1.72323 -0.197244 1.69725 -0.238583 1.67126 -0.279921 1.64528 -0.32126 1.61811 -0.362599 1.59331 -0.402756 1.56732 -0.445276 1.54016 -0.485433 1.51417 -0.526772 1.48819 -0.569292 1.46221 -0.609449 1.43622 -0.649607 1.41024 -0.692127 1.38425 -0.733465 1.35709 -0.774804 1.33228 -0.814961 1.30512 -0.8563 1.27913 -0.89882 1.25315 -0.938977 1.22717 -0.980316 1.20118 -1.02165 1.17402 -1.06299 1.14921 -1.10315 1.12205 -1.14567 1.09724 -1.18583 1.07008 -1.22835 1.0441 -1.2685 1.01811 -1.30984 0.992127 -1.35118 0.964961 -1.39252 0.940158 -1.43386 0.912993 -1.47402 0 0 10.1197 62.602z"/>
   </g>
   <path class="fil0 str3" d="M886.17 503.837c-0.651969,76.076 -114.144,133.719 -172.113,104.692"/>
   <path class="fil0 str3" d="M114.212 490.877c0.603544,-70.4316 105.674,-123.797 159.341,-96.9237"/>
  </g>
 </g>
</svg>
