<?xml version="1.0" encoding="UTF-8"?>
<!DOCTYPE svg PUBLIC "-//W3C//DTD SVG 1.1//EN" "http://www.w3.org/Graphics/SVG/1.1/DTD/svg11.dtd">
<!-- Creator: CorelDRAW -->
<svg xmlns="http://www.w3.org/2000/svg" xml:space="preserve" width="1000px" height="1000px" style="shape-rendering:geometricPrecision; text-rendering:geometricPrecision; image-rendering:optimizeQuality; fill-rule:evenodd; clip-rule:evenodd"
viewBox="0 0 1000 1000"
 xmlns:xlink="http://www.w3.org/1999/xlink">
 <defs>
  <style type="text/css">
   <![CDATA[
    .str0 {stroke:#1F1A17;stroke-width:8.33386}
    .str1 {stroke:#1F1A17;stroke-width:25.0004}
    .str2 {stroke:#1F1A17;stroke-width:8.33386;stroke-dasharray:16.668 8.334}
    .fil2 {fill:none}
    .fil1 {fill:white}
    .fil0 {fill:#A8D6D3}
    .fil3 {fill:#1F1A17;fill-rule:nonzero}
   ]]>
  </style>
 </defs>
 <g id="Warstwa_x0020_1">
  <metadata id="CorelCorpID_0Corel-Layer"/>
  <circle class="fil0" cx="500.639" cy="499.714" r="485.835"/>
  <g id="_229491024">
   <path id="_229493256" class="fil1" d="M399.11 415.954l152.101 -87.6119c90.8339,-42.3142 176.525,-46.2579 253.054,18.1937l120.738 168.703c12.2835,23.1543 8.29607,38.5158 -3.63544,57.1063 -90.7725,141.449 -212.893,120.641 -350.367,24.5658 -0.0519685,-0.0366142 -0.768898,-1.62402 1.47638,-3.16418l53.3493 -36.5882 25.8862 6.51497 54.5079 -0.0377953 71.5607 -28.3276 24.2185 -27.2362 19.2827 -43.7788 -18.9 -1.05354 -60.8835 21.6095 -62.5571 36.763 -53.4402 35.0906 0.197244 0.538583 -53.0398 36.3414 -4.90867 1.04528 -14.8854 13.2319 -122.392 72.7737c-111.352,47.9268 -199.563,36.3496 -264.632,-34.7327l-84.3509 -92.6209c-68.8878,-95.5772 -4.86142,-181.617 69.6603,-206.635 106.034,-35.5973 134.258,-0.333071 236.638,60.6851l11.8642 7.07008 -43.8237 33.0839 -34.3288 -7.92048 -34.963 -2.9752 -36.2091 9.4441 -39.8551 24.554 -33.8103 37.6642 -9.6508 28.1351 13.278 0.413386 76.0335 -25.5414 69.4501 -40.4764 29.6918 -23.002 42.4642 -32.0599c0.659056,-0.496063 1.02638,0.146457 1.1811,0.23504z"/>
   <path id="_229490112" class="fil2 str0" d="M630.146 563.035c67.3111,-50.0374 132.865,-88.6642 193.569,-95.752 -6.6378,38.4697 -26.5181,64.3004 -57.3685,79.656 -47.6729,25.7965 -92.9339,29.9233 -136.2,16.0961z"/>
   <path id="_229491408" class="fil2 str0" d="M167.89 543.637c46.6382,-2.30315 108.409,-29.1981 190.267,-88.7363 -47.7733,-15.6662 -88.5662,-14.8736 -120.93,5.77796 -42.3095,24.5575 -61.1563,52.8993 -69.3378,82.9583z"/>
   <path id="_229491768" class="fil2 str1" d="M400.086 409.513l152.163 -87.6591c90.8351,-42.3154 176.527,-46.2579 253.055,18.1925l120.738 168.703c12.2835,23.1543 8.29607,38.517 -3.63544,57.1075 -91.4883,142.563 -214.813,120.307 -353.618,22.2827l-14.8854 13.2307 -122.392 72.7737c-111.352,47.928 -199.563,36.3496 -264.632,-34.7327l-84.3509 -92.6209c-68.889,-95.5772 -4.86615,-181.614 69.6603,-206.635 110.347,-37.0488 134.317,4.45985 247.897,69.3579z"/>
   <path id="_229491528" class="fil2 str0" d="M167.835 542.947c-20.8335,176.066 145.621,176.301 258.538,144.93"/>
   <path id="_229491672" class="fil2 str0" d="M357.968 454.818c103.101,32.7969 173.736,76.9949 281.049,111.032"/>
   <path id="_229491792" class="fil2 str0" d="M824.401 467.706c26.602,-122.515 -100.126,-196.454 -264.692,-136.064"/>
   <path id="_229490592" class="fil2 str1" d="M573.642 595.34c-71.3776,-56.341 -103.101,-120.119 -175.469,-182.41"/>
   <g>
    <path id="_229490568" class="fil3" d="M95.3505 268.868l86.3564 146.467 -7.16221 4.23307 -86.3564 -146.467 7.16221 -4.23307zm-18.4453 -23.0953l51.0792 37.4906 -1.72795 0.141732 -1.70315 0.183071 -1.67717 0.225591 -1.65354 0.26811 -1.62874 0.308268 -1.60394 0.351969 -1.57914 0.393307 -1.55433 0.435827 -1.52953 0.477166 -1.50473 0.518504 -1.47992 0.562205 -1.45512 0.602363 -1.43032 0.646064 -1.40551 0.687402 -1.38071 0.728741 -1.35591 0.77126 -1.33228 0.81378 -1.3063 0.855119 -1.2815 0.897639 -1.25669 0.938977 -1.23307 0.981497 -1.20709 1.02284 -1.18347 1.06536 -1.15748 1.10669 -1.13386 1.14921 -1.10787 1.19173 -1.08425 1.23307 -1.05945 1.27559 -1.03347 1.31693 -1.00984 1.35945 -0.98504 1.40079 -0.960237 1.44331 0 0 -8.07757 -62.8441z"/>
   </g>
   <g>
    <path class="fil3" d="M906.177 732.349l-87.5198 -138.011 7.03229 -4.45985 87.5198 138.011 -7.03229 4.45985zm19.2036 22.5083l-52.3111 -35.8465 1.72323 -0.197244 1.69725 -0.238583 1.67126 -0.279921 1.64528 -0.32126 1.61811 -0.362599 1.59331 -0.402756 1.56732 -0.445276 1.54016 -0.485433 1.51417 -0.526772 1.48819 -0.569292 1.46221 -0.609449 1.43622 -0.650788 1.41024 -0.690945 1.38425 -0.733465 1.35709 -0.774804 1.33228 -0.814961 1.30512 -0.8563 1.27913 -0.89882 1.25315 -0.938977 1.22717 -0.980316 1.20118 -1.02165 1.17402 -1.06299 1.14921 -1.10315 1.12205 -1.14567 1.09724 -1.18583 1.07008 -1.22835 1.0441 -1.2685 1.01811 -1.30984 0.992127 -1.35118 0.964961 -1.39252 0.940158 -1.43386 0.912993 -1.47402 0 0 10.1197 62.602z"/>
   </g>
   <path class="fil2 str2" d="M874.277 509.248c-0.633071,73.9146 -110.899,129.918 -167.219,101.715"/>
   <path class="fil2 str2" d="M124.269 496.657c0.585827,-68.4296 102.67,-120.278 154.811,-94.1682"/>
  </g>
 </g>
</svg>
