<?xml version="1.0" encoding="UTF-8"?>
<!DOCTYPE svg PUBLIC "-//W3C//DTD SVG 1.1//EN" "http://www.w3.org/Graphics/SVG/1.1/DTD/svg11.dtd">
<!-- Creator: CorelDRAW -->
<svg xmlns="http://www.w3.org/2000/svg" xml:space="preserve" width="1000px" height="1000px" style="shape-rendering:geometricPrecision; text-rendering:geometricPrecision; image-rendering:optimizeQuality; fill-rule:evenodd; clip-rule:evenodd"
viewBox="0 0 1000 1000"
 xmlns:xlink="http://www.w3.org/1999/xlink">
 <defs>
  <style type="text/css">
   <![CDATA[
    .str0 {stroke:#1F1A17;stroke-width:0.900001}
    .str4 {stroke:#1F1A17;stroke-width:4.16693}
    .str3 {stroke:#1F1A17;stroke-width:8.33386}
    .str2 {stroke:#1F1A17;stroke-width:8.33386;stroke-linejoin:round}
    .str1 {stroke:#1F1A17;stroke-width:16.6665}
    .fil0 {fill:none}
    .fil1 {fill:white}
   ]]>
  </style>
 </defs>
 <g id="Warstwa_x0020_1">
  <metadata id="CorelCorpID_0Corel-Layer"/>
  <rect class="fil0 str0" x="-5324.47" y="7886.71" width="1002.45" height="1002.45"/>
  <g id="_282339496">
   <polygon id="_282333712" class="fil0 str1" points="73.9229,251.224 97.6572,541.979 359.931,874.269 912.957,664.214 943.813,350.912 590.161,134.922 "/>
   <path id="_282339280" class="fil1 str2" d="M356.37 625.052c-11.1024,118.402 -35.0481,202.389 -45.0992,191.067 -31.4528,-37.8402 -76.8355,-281.371 -109.179,-293.129 -39.7418,14.4189 -47.9611,95.5087 -61.7103,80.6989 -19.5461,-42.0366 -37.8166,-170.717 -55.7776,-320.423l313.303 51.0307c96.7702,-39.1477 172.982,-103.996 250.405,-167.333 31.637,100.955 64.4623,192.781 105.621,220.736l118.675 -83.0729c38.9422,32.2996 36.9839,181.969 51.0307,272.953l-315.677 23.7355 -251.592 23.7355z"/>
   <line id="_282341992" class="fil0 str3" x1="147.266" y1="601.792" x2="217.805" y2= "545.48" />
   <path id="_282333424" class="fil0 str3" d="M319.17 814.005c81.9898,-81.1288 179.812,-152.619 298.164,-211.619"/>
   <polyline id="_233796224" class="fil0 str4" points="98.0658,397.287 390.894,331.488 77.3186,335.046 "/>
   <line id="_282336664" class="fil0 str4" x1="108.143" y1="455.971" x2="437.131" y2= "319.041" />
   <line id="_282337120" class="fil0 str4" x1="117.034" y1="508.134" x2="469.733" y2= "297.701" />
   <line id="_282336952" class="fil0 str4" x1="121.776" y1="546.665" x2="465.584" y2= "301.85" />
   <line id="_282336688" class="fil0 str4" x1="128.297" y1="575.711" x2="494.037" y2= "285.846" />
   <line id="_282336880" class="fil0 str4" x1="538.495" y1="255.021" x2="229.661" y2= "516.434" />
   <line id="_282337096" class="fil0 str4" x1="201.208" y1="522.954" x2="712.177" y2= "336.231" />
   <line id="_195890128" class="fil0 str4" x1="261.078" y1="499.243" x2="645.786" y2= "176.183" />
   <line id="_195893440" class="fil0 str4" x1="658.235" y1="189.816" x2="281.231" y2= "493.315" />
   <line id="_282336016" class="fil0 str4" x1="291.308" y1="490.352" x2="662.977" y2= "206.414" />
   <line id="_282336088" class="fil0 str4" x1="671.868" y1="231.311" x2="299.015" y2= "487.388" />
   <polyline id="_282333976" class="fil0 str4" points="688.828,284.036 302.571,485.017 678.389,252.65 "/>
   <line id="_282333832" class="fil0 str4" x1="699.728" y1="301.85" x2="316.798" y2= "480.867" />
   <line id="_282333520" class="fil0 str4" x1="705.063" y1="318.448" x2="309.685" y2= "481.46" />
   <line id="_282334024" class="fil0 str4" x1="760.784" y1="382.467" x2="440.094" y2= "617.797" />
   <polyline id="_282333952" class="fil0 str4" points="730.553,360.534 207.728,525.325 722.847,349.272 "/>
   <line id="_282333928" class="fil0 str4" x1="738.851" y1="372.983" x2="209.506" y2= "531.846" />
   <line id="_282335992" class="fil0 str4" x1="745.965" y1="380.096" x2="216.027" y2= "536.588" />
   <line id="_282339256" class="fil0 str4" x1="749.521" y1="386.024" x2="223.14" y2= "546.665" />
   <line id="_233799224" class="fil0 str4" x1="225.512" y1="562.076" x2="745.372" y2= "394.915" />
   <line id="_282337432" class="fil0 str4" x1="232.624" y1="577.489" x2="738.851" y2= "400.843" />
   <line id="_195894544" class="fil0 str4" x1="237.959" y1="598.236" x2="730.553" y2= "403.214" />
   <line id="_282335056" class="fil0 str4" x1="245.073" y1="620.762" x2="721.661" y2= "409.142" />
   <line id="_282336472" class="fil0 str4" x1="253.371" y1="648.622" x2="718.105" y2= "412.699" />
   <line id="_282336064" class="fil0 str4" x1="259.892" y1="677.075" x2="727.589" y2= "405.585" />
   <line id="_282336160" class="fil0 str4" x1="269.377" y1="705.527" x2="356.514" y2= "649.215" />
   <line id="_195890320" class="fil0 str4" x1="402.75" y1="618.983" x2="721.661" y2= "411.513" />
   <line id="_282335632" class="fil0 str4" x1="277.675" y1="735.166" x2="351.772" y2= "681.224" />
   <line id="_282338512" class="fil0 str4" x1="288.345" y1="761.248" x2="346.14" y2= "714.42" />
   <line id="_282338152" class="fil0 str4" x1="294.866" y1="783.181" x2="339.027" y2= "750.578" />
   <line id="_282338488" class="fil0 str4" x1="307.314" y1="799.185" x2="331.321" y2= "781.995" />
   <line id="_228373480" class="fil0 str4" x1="473.289" y1="614.241" x2="772.047" y2= "377.725" />
   <line id="_282340000" class="fil0 str4" x1="504.707" y1="611.869" x2="802.279" y2= "358.164" />
   <line id="_228372832" class="fil0 str4" x1="529.01" y1="609.499" x2="869.261" y2= "308.964" />
   <line id="_228373984" class="fil0 str4" x1="549.758" y1="607.127" x2="881.709" y2= "312.52" />
   <line id="_228397840" class="fil0 str4" x1="565.17" y1="605.943" x2="891.193" y2= "332.081" />
   <line id="_228374680" class="fil0 str4" x1="582.952" y1="605.943" x2="900.086" y2= "360.534" />
   <line id="_228401056" class="fil0 str4" x1="595.401" y1="604.164" x2="907.198" y2= "403.214" />
   <line id="_228374344" class="fil0 str4" x1="614.37" y1="601.2" x2="913.719" y2= "455.971" />
   <line id="_195889504" class="fil0 str4" x1="643.415" y1="597.643" x2="919.647" y2= "518.804" />
  </g>
 </g>
</svg>
