<?xml version="1.0" encoding="UTF-8"?>
<!DOCTYPE svg PUBLIC "-//W3C//DTD SVG 1.1//EN" "http://www.w3.org/Graphics/SVG/1.1/DTD/svg11.dtd">
<!-- Creator: CorelDRAW -->
<svg xmlns="http://www.w3.org/2000/svg" xml:space="preserve" width="1000px" height="1000px" style="shape-rendering:geometricPrecision; text-rendering:geometricPrecision; image-rendering:optimizeQuality; fill-rule:evenodd; clip-rule:evenodd"
viewBox="0 0 1000 1000"
 xmlns:xlink="http://www.w3.org/1999/xlink">
 <defs>
  <style type="text/css">
   <![CDATA[
    .str2 {stroke:#1F1A17;stroke-width:4.16693}
    .str1 {stroke:#1F1A17;stroke-width:12.4996}
    .str0 {stroke:#1F1A17;stroke-width:16.6665}
    .fil3 {fill:none}
    .fil1 {fill:white}
    .fil0 {fill:#E47E71}
    .fil2 {fill:#1F1A17;fill-rule:nonzero}
   ]]>
  </style>
 </defs>
 <g id="Warstwa_x0020_1">
  <metadata id="CorelCorpID_0Corel-Layer"/>
  <circle class="fil0" cx="499.745" cy="501.557" r="485.835"/>
  <g id="_229154808">
   <polygon id="_197929416" class="fil1 str0" points="100.913,714.126 855.17,714.126 855.17,316.762 "/>
   <circle id="_229488144" class="fil1 str1" cx="498.226" cy="357.182" r="127.48"/>
   <g>
    <path id="_229155576" class="fil2" d="M498.267 612.315l0 -257.257 4.16693 0 0 257.257 -4.16693 0zm2.08347 14.7756l-12.6 -29.4 0.787796 0.381496 0.786615 0.356693 0.787796 0.33189 0.787796 0.308268 0.787796 0.282284 0.786615 0.258662 0.787796 0.233858 0.787796 0.209055 0.787796 0.185433 0.786615 0.159449 0.787796 0.135827 0.787796 0.109843 0.787796 0.0862205 0.786615 0.0614174 0.787796 0.0377953 0.787796 0.011811 0.787796 -0.011811 0.786615 -0.0377953 0.787796 -0.0614174 0.787796 -0.0862205 0.787796 -0.109843 0.786615 -0.135827 0.787796 -0.159449 0.787796 -0.185433 0.787796 -0.209055 0.786615 -0.233858 0.787796 -0.258662 0.787796 -0.282284 0.787796 -0.308268 0.786615 -0.33189 0.787796 -0.356693 0.787796 -0.381496 0 0 -12.6 29.4z"/>
   </g>
   <g>
    <path class="fil2" d="M288.793 465.807l211.102 -112.054 1.95354 3.67796 -211.102 112.054 -1.95354 -3.67796zm-12.0732 8.76615l20.061 -24.913 0.0318898 0.874016 0.0543308 0.863387 0.0755906 0.850394 0.0980316 0.839764 0.119291 0.829135 0.140551 0.816142 0.162992 0.805512 0.184252 0.793701 0.206693 0.78189 0.227953 0.770079 0.249213 0.759449 0.271654 0.747638 0.292914 0.735827 0.314173 0.724016 0.336614 0.713386 0.359055 0.701575 0.380315 0.689764 0.401575 0.677953 0.424016 0.667323 0.445276 0.654331 0.466536 0.643701 0.488977 0.633071 0.510237 0.620079 0.532678 0.609449 0.553937 0.597638 0.575197 0.585827 0.597638 0.574016 0.618898 0.563386 0.641339 0.550394 0.662599 0.539764 0.683859 0.529134 0.7063 0.516142 0 0 -31.8756 2.65512z"/>
   </g>
   <path class="fil3 str2" d="M261.383 406.778c3.57048,10.239 5.65276,18.0366 7.32048,28.3689 1.04646,6.48308 3.94488,13.0736 4.57559,19.2177 0.517323,5.03622 11.1496,-21.5575 11.8973,-24.2516 1.29803,-4.67835 1.37244,-7.51536 1.37244,-12.3543 0,-1.41024 0.283465,-7.23662 0.458268,-8.69292"/>
   <path class="fil3 str2" d="M254.858 399.323c14.2689,-1.25788 25.7858,0.531496 37.6677,0.531496"/>
   <path class="fil3 str2" d="M549.063 592.146c-39.4784,-23.641 -36.6792,41.2536 -10.7209,32.5937 6.97678,-2.32677 9.48544,-10.4622 9.78898,-18.1665 1.08662,-27.5693 1.1374,8.32323 0.465355,17.0988 -0.767717,10.0595 4.15748,71.4957 -14.4484,52.3642 -19.5319,-20.0858 28.5331,-44.8158 32.1603,-61.4481"/>
   <path class="fil3 str2" d="M523.889 562.317c14.2087,1.27205 29.2902,2.67166 43.2803,2.67166"/>
   <path class="fil3 str2" d="M268.223 622.81c30.776,20.6693 41.0929,49.3146 24.2599,88.5497"/>
   <path class="fil3 str2" d="M348.707 646.023c-9.10158,-10.3748 -12.2717,-6.36378 -16.9465,5.44725 -2.03032,5.13071 -15.7181,37.2685 -23.302,18.763 -2.7815,-6.7878 0.837402,-19.1776 8.17087,-21.4866 9.33544,-2.93977 16.8744,13.187 19.9725,19.6701 2.34213,4.90276 12.0213,13.6913 14.5264,3.63189"/>
  </g>
 </g>
</svg>
