<?xml version="1.0" encoding="UTF-8"?>
<!DOCTYPE svg PUBLIC "-//W3C//DTD SVG 1.1//EN" "http://www.w3.org/Graphics/SVG/1.1/DTD/svg11.dtd">
<!-- Creator: CorelDRAW -->
<svg xmlns="http://www.w3.org/2000/svg" xml:space="preserve" width="1000px" height="1000px" style="shape-rendering:geometricPrecision; text-rendering:geometricPrecision; image-rendering:optimizeQuality; fill-rule:evenodd; clip-rule:evenodd"
viewBox="0 0 1000 1000"
 xmlns:xlink="http://www.w3.org/1999/xlink">
 <defs>
  <style type="text/css">
   <![CDATA[
    .str1 {stroke:#1F1A17;stroke-width:4.16693}
    .str0 {stroke:#1F1A17;stroke-width:8.33386}
    .fil3 {fill:none}
    .fil2 {fill:#1F1A17}
    .fil1 {fill:white}
    .fil0 {fill:#E47E71}
   ]]>
  </style>
 </defs>
 <g id="Warstwa_x0020_1">
  <metadata id="CorelCorpID_0Corel-Layer"/>
  <circle class="fil0" cx="499.745" cy="501.557" r="485.835"/>
  <g id="_229154448">
   <circle id="_229154520" class="fil1 str0" transform="matrix(0.583939 -0.0767479 0.0767479 0.583939 358.083 431.336)" r="55.6158"/>
   <circle id="_229154640" class="fil2 str0" transform="matrix(0.328533 -0.0431795 0.0431795 0.328533 211.565 342.255)" r="55.6158"/>
   <circle id="_229154064" class="fil2 str0" transform="matrix(0.328533 -0.0431795 0.0431795 0.328533 239.744 588.115)" r="55.6158"/>
   <circle id="_197929512" class="fil2 str0" transform="matrix(0.328533 -0.0431795 0.0431795 0.328533 277.963 826.834)" r="55.6158"/>
   <circle id="_229154616" class="fil2 str0" transform="matrix(0.328533 -0.0431795 0.0431795 0.328533 458.192 301.321)" r="55.6158"/>
   <circle id="_229157280" class="fil2 str0" transform="matrix(0.328533 -0.0431795 0.0431795 0.328533 506.044 540.918)" r="55.6158"/>
   <circle id="_229493472" class="fil2 str0" transform="matrix(0.328533 -0.0431795 0.0431795 0.328533 524.925 787.679)" r="55.6158"/>
   <circle id="_229486512" class="fil2 str0" transform="matrix(0.328533 -0.0431795 0.0431795 0.328533 707.502 253.846)" r="55.6158"/>
   <circle id="_229490352" class="fil2 str0" transform="matrix(0.328533 -0.0431795 0.0431795 0.328533 739.694 501.185)" r="55.6158"/>
   <circle id="_229489728" class="fil2 str0" transform="matrix(0.328533 -0.0431795 0.0431795 0.328533 771.887 748.525)" r="55.6158"/>
   <circle id="_229489392" class="fil1 str0" transform="matrix(0.583939 -0.0767479 0.0767479 0.583939 637.063 652.367)" r="55.6158"/>
   <circle id="_229488624" class="fil1 str0" transform="matrix(0.583939 -0.0767479 0.0767479 0.583939 161.71 728.014)" r="55.6158"/>
   <circle id="_229490856" class="fil1 str0" transform="matrix(0.583939 -0.0767479 0.0767479 0.583939 562.161 171.388)" r="55.6158"/>
   <circle id="_229488264" class="fil1 str0" transform="matrix(0.583939 -0.0767479 0.0767479 0.583939 830.038 371.391)" r="55.6158"/>
   <circle id="_229055832" class="fil1 str0" transform="matrix(0.176405 -0.0231851 0.0231851 0.176405 608.868 355.42)" r="55.6158"/>
   <circle id="_229044624" class="fil1 str0" transform="matrix(0.991473 -0.130311 0.130311 0.991473 874.08 588.494)" r="55.6158"/>
   <line id="_229054176" class="fil3 str1" x1="111.288" y1="482.65" x2="312.896" y2= "201.095" />
   <line id="_229493424" class="fil3 str1" x1="103.178" y1="495.395" x2="396.319" y2= "692.367" />
   <polyline id="_229054392" class="fil3 str1" points="311.152,200.515 604.294,399.805 400.369,692.946 "/>
   <circle id="_229155144" class="fil1 str0" transform="matrix(0.991473 -0.130311 0.130311 0.991473 307.671 204.205)" r="55.6158"/>
   <circle id="_229154760" class="fil1 str0" transform="matrix(0.991473 -0.130311 0.130311 0.991473 110.77 495.678)" r="55.6158"/>
   <circle id="_229154256" class="fil1 str0" transform="matrix(0.991473 -0.130311 0.130311 0.991473 590.875 396.35)" r="55.6158"/>
   <circle id="_229154232" class="fil1 str0" transform="matrix(0.991473 -0.130311 0.130311 0.991473 393.974 687.823)" r="55.6158"/>
  </g>
 </g>
</svg>
