<?xml version="1.0" encoding="UTF-8"?>
<!DOCTYPE svg PUBLIC "-//W3C//DTD SVG 1.1//EN" "http://www.w3.org/Graphics/SVG/1.1/DTD/svg11.dtd">
<!-- Creator: CorelDRAW -->
<svg xmlns="http://www.w3.org/2000/svg" xml:space="preserve" width="1000px" height="1000px" style="shape-rendering:geometricPrecision; text-rendering:geometricPrecision; image-rendering:optimizeQuality; fill-rule:evenodd; clip-rule:evenodd"
viewBox="0 0 1000 1000"
 xmlns:xlink="http://www.w3.org/1999/xlink">
 <defs>
  <style type="text/css">
   <![CDATA[
    .str0 {stroke:#1F1A17;stroke-width:0.900001}
    .str2 {stroke:#1F1A17;stroke-width:8.33386}
    .str1 {stroke:#1F1A17;stroke-width:29.5276}
    .fil0 {fill:none}
    .fil1 {fill:white}
    .fil2 {fill:#1F1A17;fill-rule:nonzero}
   ]]>
  </style>
 </defs>
 <g id="Warstwa_x0020_1">
  <metadata id="CorelCorpID_0Corel-Layer"/>
  <rect class="fil0 str0" x="-5324.47" y="7886.71" width="1002.45" height="1002.45"/>
  <g id="_195893440">
   <polygon id="_282336016" class="fil1" points="491.131,49.2166 413.169,142.982 297.279,275.729 307.814,470.634 397.214,516.785 420.855,490.16 437.466,488.469 450.211,496.4 450.942,536.083 465.969,549.791 492.957,566.465 505.177,512.876 522.941,469.963 542.709,457.995 566.028,469.511 576.287,492.26 565.589,539.386 558.108,578.824 561.957,607.876 781.909,387.404 751.356,188.284 "/>
   <path id="_282336088" class="fil0 str1" d="M447.427 543.856c7.84371,1.50827 19.2331,10.8378 28.6016,17.0823 5.77678,3.8504 10.311,9.23859 17.9197,12.1441m64.3701 35.0386c5.11772,1.62284 5.63859,3.09095 9.3815,4.9252 42.8185,-43.702 72.4241,-73.8284 108.076,-109.041 19.6524,-19.4103 35.1603,-37.0902 53.0729,-55.0028 9.98623,-9.98623 46.167,-54.3095 48.2481,-55.0028 -5.53347,-11.9894 -4.82481,-41.7036 -4.82481,-55.9678 0,-23.7284 -12.5445,-44.6859 -12.5445,-71.4071 0,-23.0622 -9.64961,-41.2654 -9.64961,-64.6524 -1.44685,-14.4874 -148.257,-81.3946 -164.374,-94.3524 -17.2099,-13.8366 -96.2434,-62.5264 -101.238,-57.6497 -28.5095,15.3496 -82.7764,96.9745 -103.003,124.983 -14.9055,20.6386 -33.0272,35.5488 -47.2831,56.9327 -4.79528,7.1941 -26.6658,31.2036 -39.5634,44.3847 -7.44331,14.3599 2.89488,42.2044 2.89488,60.7961 0,14.8736 1.10079,122.084 8.68465,132.2 21.9236,17.3079 52.3252,25.0772 74.302,38.5985 6.66497,4.10079 14.0043,4.33229 20.9232,8.05867"/>
   <path id="_282335992" class="fil0 str2" d="M496.293 57.228c0,35.6244 4.82481,69.0024 4.82481,104.216"/>
   <path id="_282335968" class="fil0 str2" d="M304.265 458.652c-0.170079,0.227953 30.737,-33.9319 36.6685,-42.4583 10.9701,-15.7725 33.3638,-38.889 51.143,-52.1079m238.329 -43.7067c15.9898,7.99489 83.9162,38.8571 101.337,47.5666 8.19686,4.09725 15.463,5.4626 24.124,7.71969 3.43465,0.895276 16.9807,13.2213 16.4043,13.5095"/>
   <path id="_282336184" class="fil0 str2" d="M151.801 926.658c23.2477,-43.1788 56.4414,-85.5709 71.4071,-124.48 6.02126,-15.6579 18.5646,-20.5914 24.7488,-33.5953 4.80945,-10.115 3.11221,-28.7339 8.68347,-37.767 18.0236,-29.2217 41.5607,-53.993 80.4331,-82.0666 21.3496,-15.4181 57.5989,-41.1851 54.0378,-68.5123 -4.00512,-30.7252 12.0721,-76.2379 25.0819,-84.9119 21.7902,-20.2925 45.8835,-2.30433 31.1327,43.6429 -10.1492,31.6181 20.5795,64.8249 16.4008,100.127 -3.72284,31.4551 24.5469,73.1327 24.8457,103.256"/>
   <path id="_282335704" class="fil0 str2" d="M476.993 689.278c13.0028,18.7831 -4.82481,-46.3996 -4.82481,-55.9678 0,-24.0744 17.765,-35.8288 20.2642,-55.0028 3.89055,-29.8524 11.2016,-70.6512 24.124,-96.4961 14.0232,-28.0465 32.1614,-28.6311 51.143,-9.64961 21.0673,21.0673 -13.6382,78.4406 -9.64961,109.041 5.02323,38.5288 -11.5795,77.1934 -11.5795,118.69"/>
   <path id="_282335056" class="fil0 str2" d="M675.775 511.725l-25.089 74.302c-13.6276,40.3595 -41.6174,85.1646 -61.7575,125.445 -15.5728,31.1481 -1.24134,76.5591 -40.5284,91.6713 -51.0815,19.6477 -99.7973,30.6012 -146.674,54.0378 -18.3756,9.1878 -46.6217,21.1358 -56.9327,37.6335 -8.20276,13.1221 -37.1752,77.3138 -29.9138,79.1268"/>
   <path id="_282335200" class="fil0 str2" d="M391.112 578.307c0,33.5221 12.5445,61.6973 12.5445,89.7414 0,20.2004 -11.0634,20.1402 -15.4394,34.7386 -1.64291,5.47914 -9.64961,9.37324 -9.64961,15.4394 0,4.85906 -0.964961,18.9862 -0.964961,18.3343"/>
   <path id="_282335080" class="fil0 str2" d="M382.427 710.507c-0.536221,8.05867 -3.58111,3.45709 -9.64961,5.78977 -5.55237,2.13543 -12.4287,1.58858 -18.3343,3.85985 -7.36064,2.82992 -14.7591,5.78623 -23.1591,6.75473 -6.17599,0.711024 -21.5162,4.31811 -26.054,7.71969"/>
   <path id="_282335512" class="fil0 str2" d="M354.443 637.17c7.15985,1.65118 12.7465,1.92992 20.2642,1.92992l8.68465 0c3.92126,0 6.75473,-1.52717 6.75473,2.89488"/>
   <path id="_282335224" class="fil0 str2" d="M333.214 653.574c9.29646,0 17.2914,1.92992 26.054,1.92992 5.9941,0 17.8394,0.43937 19.2992,4.82481"/>
   <path id="_282335152" class="fil0 str2" d="M482.576 564.181c-4.13032,10.0323 -6.29528,23.7189 -11.8063,32.5276 -2.07284,3.31181 -8.67402,17.804 -8.67402,17.1071"/>
   <path id="_195891208" class="fil0 str2" d="M465.005 660.537c2.9067,1.45748 5.89016,3.03544 8.81457,4.23898 0.875198,0.360237 1.68425,1.0252 2.53583,1.3311 1.46929,0.526772 2.12717,1.80236 1.81063,-0.484252"/>
   <path id="_195892960" class="fil2" d="M473.126 247.934l13.0323 -39.6674c6.77245,-4.15512 13.7728,-7.22835 20.9445,-9.27757 7.11379,-2.04803 14.5122,-3.07323 22.0819,-3.07323 19.5201,0 35.0575,5.17914 46.4977,15.4807 11.439,10.3583 17.1874,23.5618 17.1874,39.724 0,6.54567 -1.0252,12.8055 -3.07323,18.8386 -2.04921,5.9752 -5.12244,11.6102 -9.163,16.8461 -4.09843,5.17914 -12.8055,14.0008 -26.1236,26.3504 -11.211,10.3016 -18.0414,16.9595 -20.4874,19.976 -4.15512,4.89449 -7.0004,9.44765 -8.70827,13.6595 -1.19528,2.90197 -1.82126,5.91851 -1.82126,9.04843 0,5.2937 2.56063,11.041 7.68308,17.1307l-7.17048 5.3504c-5.69174,-4.21181 -9.61891,-8.42363 -11.8382,-12.6921 -2.21929,-4.21063 -3.35788,-8.99174 -3.35788,-14.341 0,-5.2937 1.30866,-10.6429 3.87048,-15.9933 2.56063,-5.34922 8.76379,-13.715 18.6673,-25.1551 13.0902,-15.0248 21.3992,-26.0091 24.8138,-33.0095 3.47126,-6.99922 5.17914,-13.715 5.17914,-20.204 0,-10.5284 -3.92717,-19.4634 -11.8382,-26.7484 -7.91103,-7.28505 -17.9268,-10.9276 -30.163,-10.9276 -3.47244,0 -7.0004,0.455906 -10.5862,1.42323 -3.64252,0.967324 -7.39843,2.39055 -11.2689,4.26851 -5.9752,8.42245 -10.9264,17.1307 -14.8536,26.1792l-8.48032 -1.1941 -1.02402 -1.99252zm52.0182 152.923c5.4626,0 10.0724,1.87914 13.8862,5.74843 3.75591,3.81378 5.63386,8.42363 5.63386,13.7162 0,5.34922 -1.87795,9.95906 -5.63386,13.7728 -3.81378,3.8126 -8.42363,5.74843 -13.8862,5.74843 -5.2937,0 -9.84686,-1.93583 -13.6595,-5.74843 -3.75591,-3.81378 -5.63386,-8.42363 -5.63386,-13.7728 0,-5.29252 1.87795,-9.90237 5.63386,-13.7162 3.8126,-3.86929 8.36575,-5.74843 13.6595,-5.74843z"/>
  </g>
 </g>
</svg>
