<?xml version="1.0" encoding="UTF-8"?>
<!DOCTYPE svg PUBLIC "-//W3C//DTD SVG 1.1//EN" "http://www.w3.org/Graphics/SVG/1.1/DTD/svg11.dtd">
<!-- Creator: CorelDRAW -->
<svg xmlns="http://www.w3.org/2000/svg" xml:space="preserve" width="1000px" height="1000px" style="shape-rendering:geometricPrecision; text-rendering:geometricPrecision; image-rendering:optimizeQuality; fill-rule:evenodd; clip-rule:evenodd"
viewBox="0 0 1000 1000"
 xmlns:xlink="http://www.w3.org/1999/xlink">
 <defs>
  <style type="text/css">
   <![CDATA[
    .str0 {stroke:#1F1A17;stroke-width:8.33386}
    .str1 {stroke:#1F1A17;stroke-width:16.6665}
    .str2 {stroke:#1F1A17;stroke-width:8.33386;stroke-dasharray:16.668 8.334}
    .fil2 {fill:none}
    .fil1 {fill:white}
    .fil0 {fill:#F1D851}
   ]]>
  </style>
 </defs>
 <g id="Warstwa_x0020_1">
  <metadata id="CorelCorpID_0Corel-Layer"/>
  <circle class="fil0" cx="499.235" cy="501.716" r="485.835"/>
  <g id="_229493184">
   <circle id="_229492536" class="fil1 str0" cx="692.389" cy="534.86" r="57.198"/>
   <circle id="_229492440" class="fil1 str0" cx="223.366" cy="557.739" r="32.6845"/>
   <path id="_229492104" class="fil2 str1" d="M554.145 399.177c-67.5815,116.965 -35.0563,235.514 53.0965,321.407 61.0642,59.4969 183.787,0.434646 229.975,-44.5689 182.849,-178.159 -147.325,-525.541 -283.071,-276.838z"/>
   <path id="_229492560" class="fil2 str2" d="M488.111 444.977c-13.8118,161.145 -54.3237,310.542 150.349,341.554 228.084,34.5591 343.962,-218.437 256.573,-416.727 -61.167,-138.793 -388.764,-175.515 -406.922,75.1737z"/>
   <path id="_229491216" class="fil2 str1" d="M149.826 629.645c16.9122,21.3532 103.465,40.7575 132.372,27.7819 74.3528,-33.3733 60.4937,-173.522 6.53623,-215.718 -110.108,-86.1095 -205.508,103.852 -138.908,187.936z"/>
   <path id="_229491600" class="fil2 str2" d="M86.0906 446.612c-26.7874,142.872 -4.95,238.647 116.03,302.332 53.8607,28.3512 161.682,-36.5469 173.228,-86.6138 19.8059,-85.8839 24.9792,-254.027 -68.6375,-290.893 -59.25,-23.3339 -220.621,12.8221 -220.621,75.1749z"/>
   <path id="_229491912" class="fil2 str0" d="M204.423 261.269c-9.5067,0.791339 -20.9232,2.49685 -30.2327,3.26811 -6.01182,0.497244 -9.80552,-2.10473 -9.80552,4.90276 0,22.9819 5.72008,46.4292 5.72008,70.2721 0,14.7921 10.0347,3.75237 19.6099,2.45079 5.41418,-0.734646 17.048,-2.52992 21.9248,-3.52441"/>
   <path id="_229489728" class="fil2 str0" d="M228.937 267.807c2.47677,15.7677 5.36811,29.2158 8.17087,44.1237 0.33189,1.76575 1.47165,7.80827 1.48228,14.9221"/>
   <path id="_229490352" class="fil2 str0" d="M204.423 302.125c11.7461,0 43.8059,-2.16024 55.6748,-4.91221"/>
   <path id="_229486512" class="fil2 str0" d="M260.804 258.818c1.44095,-0.115748 29.5949,-3.4063 35.1355,0 1.27323,0.784253 3.17126,26.191 4.08544,31.0512 1.45158,7.71969 11.6681,32.5736 4.90276,35.9528 -7.24371,3.62008 -32.1414,10.0677 -39.2209,11.439"/>
   <path id="_229493472" class="fil2 str0" d="M634.226 169.422c-17.5252,-0.88819 -40.0406,-11.113 -40.0406,10.1362 0,18.7937 -0.0307087,39.5941 1.63465,58.0146 0.337796,3.74174 31.7422,2.1437 34.3949,2.1437"/>
   <path id="_229493424" class="fil2 str0" d="M630.14 208.974c4.78819,0 38.6492,0.741733 46.0382,-1.5378"/>
   <path id="_229493256" class="fil2 str0" d="M680.801 173.021c1.72441,0 31.9618,-2.27599 33.5008,3.26811 1.81299,6.5256 -0.297638,28.4705 -1.63347,35.954 -1.10669,6.20197 2.59134,28.9229 -0.817323,30.2327 -4.08898,1.57205 -29.7626,0.0531496 -36.2681,0.102756"/>
  </g>
 </g>
</svg>
