<?xml version="1.0" encoding="UTF-8"?>
<!DOCTYPE svg PUBLIC "-//W3C//DTD SVG 1.1//EN" "http://www.w3.org/Graphics/SVG/1.1/DTD/svg11.dtd">
<!-- Creator: CorelDRAW -->
<svg xmlns="http://www.w3.org/2000/svg" xml:space="preserve" width="1000px" height="1000px" style="shape-rendering:geometricPrecision; text-rendering:geometricPrecision; image-rendering:optimizeQuality; fill-rule:evenodd; clip-rule:evenodd"
viewBox="0 0 1000 1000"
 xmlns:xlink="http://www.w3.org/1999/xlink">
 <defs>
  <style type="text/css">
   <![CDATA[
    .str0 {stroke:#1F1A17;stroke-width:0.900001}
    .str1 {stroke:#1F1A17;stroke-width:8.33386}
    .str2 {stroke:#1F1A17;stroke-width:8.33386;stroke-dasharray:8.334 8.334}
    .fil0 {fill:none}
    .fil2 {fill:#1F1A17}
    .fil1 {fill:white}
   ]]>
  </style>
 </defs>
 <g id="Warstwa_x0020_1">
  <metadata id="CorelCorpID_0Corel-Layer"/>
  <rect class="fil0 str0" x="-5324.47" y="7886.71" width="1002.45" height="1002.45"/>
  <g id="_246324408">
   <polygon id="_246326592" class="fil1 str1" points="199.862,433.544 231.98,452.087 264.098,470.631 264.098,507.717 264.098,544.804 231.98,563.348 199.862,581.892 167.744,563.348 135.625,544.804 135.625,507.717 135.625,470.631 167.744,452.087 "/>
   <polygon id="_246325824" class="fil1 str1" points="371.06,649.082 394.146,678.108 417.231,707.135 403.635,741.64 390.039,776.145 353.359,781.623 316.679,787.103 293.594,758.076 270.509,729.049 284.105,694.544 297.701,660.039 334.381,654.56 "/>
   <polygon id="_246325416" class="fil1 str1" points="441.557,432.783 473.676,451.326 505.793,469.87 505.793,506.957 505.793,544.043 473.676,562.587 441.557,581.131 409.438,562.587 377.32,544.043 377.32,506.957 377.32,469.87 409.438,451.326 "/>
   <polygon id="_246325368" class="fil1 str1" points="614.287,317.89 648.415,332.406 682.543,346.922 687.036,383.736 691.529,420.55 661.893,442.848 632.258,465.146 598.13,450.63 564,436.113 559.509,399.299 555.016,362.485 584.651,340.187 "/>
   <polygon id="_246325272" class="fil1 str1" points="755.717,304.989 783.89,335.496 812.06,366.003 791.753,402.222 771.445,438.441 730.721,430.32 689.999,422.198 685.138,380.96 680.28,339.721 717.999,322.354 "/>
   <line id="_246325800" class="fil0 str1" x1="137.401" y1="545.26" x2="66.4701" y2= "586.242" />
   <polyline id="_246325224" class="fil0 str1" points="261.924,472.753 321.296,438.602 381.192,471.176 "/>
   <polyline id="_246325320" class="fil0 str1" points="505.715,542.633 568.765,578.361 568.239,648.766 637.068,684.494 "/>
   <line id="_246325200" class="fil0 str1" x1="502.563" y1="471.176" x2="565.087" y2= "435.974" />
   <polyline id="_246325296" class="fil0 str1" points="768.947,435.974 792.59,499.549 860.369,517.413 872.978,583.089 "/>
   <polyline id="_246325176" class="fil0 str1" points="552.513,754.093 489.431,694.278 413.726,707.846 "/>
   <path id="_246325704" class="fil0 str1" d="M772.625 228.962l-14.7118 70.9312c-0.788977,2.68347 -1.20945,3.20906 -1.57559,5.77914"/>
   <circle id="_246325248" class="fil1 str1" cx="557.053" cy="363.053" r="24.1986"/>
   <circle id="_246325656" class="fil1 str1" cx="861.714" cy="513.853" r="24.1986"/>
   <circle id="_246325464" class="fil2 str1" cx="563.075" cy="574.818" r="24.1986"/>
   <circle id="_246325512" class="fil1 str1" cx="688.37" cy="422.581" r="24.1986"/>
   <line id="_246325872" class="fil0 str2" x1="568.345" y1="648.572" x2="489.315" y2= "695.548" />
   <circle id="_246324432" class="fil1 str1" transform="matrix(-1.03233 0.35082 -0.35082 -1.03233 490.312 695.256)" r="22.1941"/>
  </g>
 </g>
</svg>
