<?xml version="1.0" encoding="UTF-8"?>
<!DOCTYPE svg PUBLIC "-//W3C//DTD SVG 1.1//EN" "http://www.w3.org/Graphics/SVG/1.1/DTD/svg11.dtd">
<!-- Creator: CorelDRAW -->
<svg xmlns="http://www.w3.org/2000/svg" xml:space="preserve" width="1000px" height="1000px" style="shape-rendering:geometricPrecision; text-rendering:geometricPrecision; image-rendering:optimizeQuality; fill-rule:evenodd; clip-rule:evenodd"
viewBox="0 0 1000 1000"
 xmlns:xlink="http://www.w3.org/1999/xlink">
 <defs>
  <style type="text/css">
   <![CDATA[
    .str0 {stroke:#1F1A17;stroke-width:16.6665}
    .fil1 {fill:white}
    .fil0 {fill:#5FB250}
    .fil2 {fill:#1F1A17;fill-rule:nonzero}
   ]]>
  </style>
 </defs>
 <g id="Warstwa_x0020_1">
  <metadata id="CorelCorpID_0Corel-Layer"/>
  <circle class="fil0" cx="498.146" cy="498.146" r="485.835"/>
  <g id="_229058016">
   <path id="_229046280" class="fil1 str0" d="M634.316 182.738c-194.597,-21.0992 -329.373,9.34016 -449.41,175.551 -270.158,374.079 413.488,723.334 667.093,235.238 88.1764,-169.706 -101.219,-410.789 -217.683,-410.789z"/>
   <path id="_229045632" class="fil1 str0" d="M615.313 222.458c-170.479,-18.4843 -288.552,8.18268 -393.711,153.794 -236.675,327.717 362.241,633.686 584.415,206.082 77.2477,-148.673 -88.6749,-359.876 -190.703,-359.876z"/>
   <g>
    <path id="_229045944" class="fil2" d="M142.896 222.404l236.205 212.78 -5.56772 6.18426 -236.205 -212.78 5.56772 -6.18426zm-24.5327 -16.5l59.9835 20.4378 -1.60512 0.65315 -1.56969 0.686221 -1.53307 0.718111 -1.49764 0.751182 -1.46102 0.784253 -1.42441 0.816142 -1.3878 0.849213 -1.35236 0.882284 -1.31575 0.914174 -1.28032 0.947245 -1.24252 0.979135 -1.20827 1.01339 -1.17047 1.0441 -1.13504 1.07835 -1.09843 1.11024 -1.06181 1.14213 -1.02638 1.17638 -0.989765 1.20709 -0.954331 1.24134 -0.916536 1.27323 -0.881103 1.3063 -0.84567 1.33819 -0.809056 1.37126 -0.772442 1.40433 -0.735827 1.43622 -0.700394 1.46929 -0.66378 1.50236 -0.627166 1.53425 -0.591733 1.56732 -0.555119 1.59921 -0.519685 1.63228 -0.48189 1.66536 0 0 -26.5689 -57.5315z"/>
   </g>
   <g>
    <path class="fil2" d="M293.952 465.121l-211.325 -189.652 8.30079 -9.27639 211.325 189.652 -8.30079 9.27639zm36.7406 24.6095l-89.7898 -30.4051 2.4 -0.982678 2.34567 -1.02992 2.29134 -1.07953 2.23819 -1.12795 2.18268 -1.17638 2.12953 -1.22599 2.07402 -1.27441 2.01969 -1.32284 1.96654 -1.37126 1.91221 -1.42087 1.85669 -1.46929 1.80354 -1.51772 1.74803 -1.56614 1.69488 -1.61575 1.64055 -1.66299 1.58622 -1.7126 1.53189 -1.76221 1.47756 -1.80945 1.42205 -1.85906 1.3689 -1.90748 1.31575 -1.95591 1.26024 -2.00551 1.20591 -2.05394 1.15158 -2.10236 1.09724 -2.15079 1.04291 -2.19921 0.988583 -2.24882 0.935434 -2.29725 0.879922 -2.34567 0.826772 -2.39528 0.77126 -2.4437 0.71693 -2.49095 0 0 39.9071 85.989z"/>
   </g>
   <g>
    <path class="fil2" d="M691.228 428.172l-6.8693 4.68898 0 0 -4.35591 -5.86418 -4.73622 -5.45315 -5.05394 -5.01496 -5.37993 -4.60985 -5.67756 -4.20591 -5.93386 -3.77363 -6.17599 -3.37677 -6.39331 -2.96221 -6.58347 -2.55473 -6.74882 -2.14488 -6.88347 -1.75512 -6.99449 -1.33701 -7.09253 -0.935434 -7.13268 -0.53504 -7.19292 -0.13937 -7.17993 0.272835 -7.15512 0.664961 -7.10316 1.05591 -7.02402 1.44449 -6.9189 1.82835 -6.78544 2.21457 -6.62717 2.61142 -6.43938 2.97402 -6.22678 3.36969 -5.98701 3.72638 -5.73662 4.11614 -5.42481 4.47048 -5.12126 4.82363 -4.78937 5.20512 -4.41496 5.55355 -4.04646 5.9315 -3.61654 6.2752 -7.35827 -3.87402 3.94252 -6.82796 4.37244 -6.42048 4.80473 -6.04252 5.1815 -5.62796 5.5441 -5.24646 5.88071 -4.82953 6.15945 -4.40906 6.44292 -4.01929 6.68268 -3.59646 6.89528 -3.20315 7.08308 -2.77441 7.24134 -2.3752 7.37481 -1.96063 7.47993 -1.54134 7.55906 -1.11969 7.60867 -0.698032 7.63583 -0.272835 7.61812 0.13937 7.6193 0.568111 7.54843 0.999213 7.48347 1.43386 7.37245 1.85433 7.23544 2.30788 7.07245 2.74843 6.88229 3.19134 6.66497 3.63662 6.42048 4.09961 6.13347 4.53189 5.83583 4.99961 5.50985 5.47087 5.12599 5.90906 4.74804 6.38386 0 0zm17.2559 77.9481l-8.04095 -2.0504 0 0 0.454725 -1.99488 0.377953 -2.05276 0.290551 -2.10709 0.219685 -2.18858 0.152362 -2.21811 0.0708662 -2.2878 -0.00826772 -2.33977 -0.0838583 -2.35394 -0.157087 -2.39292 -0.212599 -2.41418 -0.282284 -2.44488 -0.346063 -2.43898 -0.411024 -2.46024 -0.47126 -2.47677 -0.530315 -2.45669 -0.585827 -2.4626 -0.638977 -2.44961 -0.673229 -2.43071 -0.739371 -2.40591 -0.767717 -2.37756 -0.811418 -2.34331 -0.868111 -2.30433 -0.88819 -2.26181 -0.925985 -2.21339 -0.957875 -2.17559 -0.973229 -2.08583 -1.01693 -2.03858 -1.02638 -1.97126 -1.04764 -1.89921 -1.07008 -1.80473 -1.07008 -1.72205 -1.08662 -1.63465 6.8693 -4.68898 1.21654 1.83071 1.2 1.91811 1.16693 2.00079 1.14685 2.05984 1.12323 2.13425 1.08307 2.20158 1.07008 2.28189 1.02402 2.30551 0.989765 2.37638 0.954331 2.42481 0.901182 2.46732 0.875198 2.5063 0.833859 2.54055 0.770079 2.5689 0.739371 2.59134 0.672048 2.6126 0.618898 2.62559 0.561024 2.65276 0.504331 2.63977 0.444095 2.6563 0.379134 2.66575 0.312992 2.64095 0.245669 2.64095 0.157087 2.62205 0.0838583 2.61378 0.00826772 2.56654 -0.0708662 2.55 -0.152362 2.54173 -0.252756 2.4815 -0.354331 2.46614 -0.444095 2.41181 -0.551575 2.35158 0 0zm-16.3134 49.4622l-6.99922 -4.45985 1.49291 -2.39882 1.38898 -2.30669 1.25906 -2.21575 1.16575 -2.11181 1.04646 -2.02914 0.947245 -1.94764 0.870473 -1.85315 0.765355 -1.79528 0.698032 -1.70906 0.62126 -1.64055 0.548032 -1.56024 0.480709 -1.51299 0.418111 -1.45512 0.360237 -1.39961 0.324803 -1.3311 0.263386 -1.29803 0.23504 -1.26969 0.217323 -1.22599 0.167717 -1.18819 0.142913 -1.16575 0.138189 -1.15039 0.121654 -1.13622 0.111024 -1.12559 0.105118 -1.1185 0.106299 -1.11378 0.109843 -1.1126 0.120473 -1.11496 0.15 -1.13622 0.172441 -1.12913 0.198425 -1.15748 0.243307 -1.17047 0.281103 -1.17284 8.04095 2.0504 -0.214961 0.912993 -0.179528 0.910631 -0.165354 0.928347 -0.13937 0.966142 -0.119291 0.973229 -0.120473 1.01811 -0.109843 1.04882 -0.106299 1.08071 -0.105118 1.1185 -0.111024 1.15866 -0.121654 1.2 -0.138189 1.24725 -0.173622 1.29803 -0.200788 1.34882 -0.217323 1.38898 -0.26811 1.43268 -0.327166 1.4941 -0.357874 1.55788 -0.426378 1.59567 -0.48189 1.65118 -0.546851 1.70906 -0.611812 1.78701 -0.687402 1.83662 -0.764174 1.90276 -0.862205 1.95827 -0.936615 2.04921 -1.0441 2.11063 -1.14331 2.19213 -1.23189 2.2748 -1.35591 2.34567 -1.45512 2.43662 -1.58977 2.52874zm-19.2024 22.3855l10.2543 -62.3705 0.907087 1.47284 0.933072 1.4315 0.957875 1.39016 0.98504 1.34882 1.01221 1.30866 1.03701 1.26732 1.06299 1.22717 1.09016 1.18465 1.11496 1.14449 1.14213 1.10315 1.16811 1.06299 1.1941 1.02165 1.22126 0.980316 1.24606 0.938977 1.27323 0.89882 1.29803 0.857481 1.3252 0.816142 1.35118 0.775985 1.37835 0.734646 1.40315 0.693308 1.42913 0.651969 1.4563 0.611812 1.4811 0.570473 1.50827 0.529134 1.53425 0.488977 1.56142 0.446457 1.58622 0.407481 1.61221 0.364961 1.63937 0.324803 1.66536 0.283465 1.69016 0.242126 1.71732 0.201969 0 0 -52.2367 35.5878z"/>
   </g>
   <g>
    <path class="fil2" d="M383.815 686.418l7.25906 -4.07008 0 0 4.65473 7.66182 4.96772 7.06064 5.2878 6.43583 5.55591 5.87126 5.81339 5.28071 6.03308 4.71378 6.26221 4.15748 6.45001 3.62481 6.63071 3.08268 6.77363 2.55355 6.90827 2.04449 7.0193 1.53071 7.10788 1.02402 7.18819 0.542126 7.24489 0.0519685 7.24725 -0.427559 7.25788 -0.901182 7.22717 -1.36536 7.19174 -1.83662 7.11615 -2.26772 7.03229 -2.70709 6.92481 -3.15236 6.78071 -3.57402 6.61064 -4.00512 6.43347 -4.39252 6.21615 -4.82244 5.9941 -5.19213 5.74607 -5.58898 5.46024 -5.95985 5.14843 -6.32245 4.84961 -6.69213 4.49174 -7.05355 7.12914 4.26378 -4.75158 7.44568 -5.10945 7.0819 -5.47441 6.71221 -5.78623 6.3189 -6.07205 5.91497 -6.35079 5.51811 -6.60827 5.08229 -6.82323 4.68544 -7.03347 4.23189 -7.20355 3.80315 -7.35001 3.34843 -7.48819 2.90079 -7.60276 2.43071 -7.68071 1.93583 -7.74922 1.46221 -7.77757 0.964961 -7.80001 0.46063 -7.76694 -0.0519685 -7.74095 -0.575197 -7.69371 -1.12087 -7.60512 -1.66063 -7.4941 -2.20748 -7.35945 -2.78032 -7.18583 -3.34488 -7.00276 -3.91772 -6.7819 -4.51418 -6.55512 -5.10591 -6.2693 -5.70355 -5.97874 -6.2941 -5.64685 -6.92481 -5.32441 -7.51654 -4.94764 -8.14843 0 0zm-2.06457 -78.7938l7.87796 2.60551 0 0 -0.81378 2.5063 -0.784253 2.46024 -0.766536 2.41654 -0.715749 2.40709 -0.675591 2.3504 -0.634252 2.34567 -0.590552 2.30906 -0.543308 2.2748 -0.496063 2.2748 -0.442914 2.22638 -0.387402 2.2311 -0.33189 2.20512 -0.271654 2.17914 -0.209055 2.17205 -0.16063 2.16851 -0.0933072 2.14843 -0.0212599 2.1626 0.0507874 2.14843 0.126378 2.13425 0.187795 2.1378 0.270473 2.14488 0.351969 2.15315 0.422835 2.18032 0.511418 2.17559 0.587008 2.18858 0.696851 2.20394 0.778347 2.23937 0.876379 2.25827 0.96378 2.28071 1.08425 2.31851 1.1752 2.34449 1.30039 2.37166 -7.25906 4.07008 -1.39961 -2.60079 -1.30512 -2.57126 -1.1811 -2.54764 -1.0937 -2.54055 -0.975591 -2.51811 -0.875198 -2.49921 -0.760631 -2.49921 -0.686221 -2.4815 -0.575197 -2.46851 -0.488977 -2.44016 -0.38504 -2.44606 -0.301181 -2.4378 -0.220866 -2.43071 -0.126378 -2.42717 -0.0507874 -2.40827 0.0212599 -2.39173 0.0933072 -2.40827 0.16063 -2.39528 0.242126 -2.40118 0.302362 -2.40591 0.364961 -2.40118 0.420473 -2.3941 0.475985 -2.42244 0.526772 -2.40473 0.576378 -2.4378 0.623623 -2.43898 0.667323 -2.44252 0.708662 -2.48032 0.746457 -2.47323 0.766536 -2.51339 0.817323 -2.52638 0.846851 -2.53937 0 0zm25.7705 -43.7398l7.22599 4.10079 -0.766536 1.34055 -0.805512 1.38189 -0.842127 1.40079 -0.872835 1.43504 -0.883465 1.46457 -0.924804 1.48937 -0.928347 1.50945 -0.96378 1.52953 -0.960237 1.52599 -0.969686 1.53662 -0.976772 1.55906 -0.980316 1.54488 -0.977954 1.54252 -0.97441 1.52126 -0.967324 1.52835 -0.954331 1.51654 -0.923623 1.4811 -0.921261 1.47756 -0.900001 1.43858 -0.857481 1.40788 -0.826772 1.37599 -0.794883 1.32402 -0.757087 1.28386 -0.719292 1.23898 -0.673229 1.19291 -0.61063 1.12441 -0.559843 1.05118 -0.504331 0.993308 -0.447638 0.914174 -0.351969 0.814961 -0.303544 0.711024 -0.218504 0.588189 -7.87796 -2.60551 0.348425 -0.977954 0.400394 -1.00394 0.484252 -1.04173 0.511418 -1.07717 0.570473 -1.12323 0.623623 -1.18347 0.676772 -1.22126 0.7063 -1.25669 0.750001 -1.30512 0.790158 -1.35 0.827953 -1.3878 0.859843 -1.40906 0.88819 -1.44095 0.900001 -1.46929 0.921261 -1.47756 0.956694 -1.51417 0.954331 -1.51654 0.967324 -1.52835 0.97441 -1.55433 0.977954 -1.54252 0.980316 -1.54488 0.976772 -1.52599 0.969686 -1.53662 0.960237 -1.52599 0.930709 -1.49646 0.928347 -1.47874 0.894095 -1.4563 0.883465 -1.4315 0.839764 -1.40197 0.809056 -1.37008 0.772442 -1.31575 0.735827 -1.27441zm18.0484 -23.3669l-7.04882 62.8867 -0.981497 -1.42559 -1.0063 -1.38425 -1.02992 -1.34055 -1.05473 -1.29803 -1.07835 -1.25669 -1.10197 -1.21417 -1.12559 -1.17165 -1.15039 -1.12913 -1.1752 -1.08662 -1.19764 -1.0441 -1.22244 -1.00276 -1.24725 -0.960237 -1.26969 -0.916536 -1.29567 -0.876379 -1.31811 -0.832678 -1.34291 -0.790158 -1.36654 -0.748819 -1.39134 -0.705119 -1.41378 -0.66378 -1.43976 -0.62126 -1.46221 -0.578741 -1.48701 -0.536221 -1.51181 -0.494882 -1.53425 -0.451181 -1.55906 -0.409843 -1.58386 -0.367323 -1.6063 -0.324803 -1.6311 -0.282284 -1.65591 -0.240945 -1.67953 -0.197244 -1.70315 -0.155906 -1.72677 -0.113386 0 0 50.3989 -38.2654z"/>
   </g>
   <circle class="fil1 str0" cx="460.187" cy="481.02" r="34.6006"/>
   <rect class="fil1 str0" transform="matrix(1.03785 0.625653 -0.625653 1.03785 625.462 575.503)" width="57.104" height="57.104"/>
  </g>
 </g>
</svg>
