<?xml version="1.0" encoding="UTF-8"?>
<!DOCTYPE svg PUBLIC "-//W3C//DTD SVG 1.1//EN" "http://www.w3.org/Graphics/SVG/1.1/DTD/svg11.dtd">
<!-- Creator: CorelDRAW -->
<svg xmlns="http://www.w3.org/2000/svg" xml:space="preserve" width="1000px" height="1000px" style="shape-rendering:geometricPrecision; text-rendering:geometricPrecision; image-rendering:optimizeQuality; fill-rule:evenodd; clip-rule:evenodd"
viewBox="0 0 1000 1000"
 xmlns:xlink="http://www.w3.org/1999/xlink">
 <defs>
  <style type="text/css">
   <![CDATA[
    .str0 {stroke:#1F1A17;stroke-width:0.900001}
    .str2 {stroke:#1F1A17;stroke-width:8.33386}
    .str1 {stroke:#1F1A17;stroke-width:16.6665}
    .fil0 {fill:none}
    .fil2 {fill:#1F1A17}
    .fil1 {fill:white}
   ]]>
  </style>
 </defs>
 <g id="Warstwa_x0020_1">
  <metadata id="CorelCorpID_0Corel-Layer"/>
  <rect class="fil0 str0" x="-5324.47" y="7886.71" width="1002.45" height="1002.45"/>
  <g id="_246324000">
   <polyline id="_246139984" class="fil0 str1" points="484.056,871.856 484.056,712.573 194.45,638.723 210.378,272.371 "/>
   <polyline id="_246139696" class="fil0 str1" points="485.504,709.677 543.426,692.3 552.114,611.21 484.056,569.217 450.752,192.729 "/>
   <polyline id="_246141064" class="fil0 str1" points="556.458,608.314 691.125,579.354 708.501,462.063 647.684,438.894 615.827,214.449 "/>
   <polyline id="_246142624" class="fil0 str1" points="711.397,459.167 769.319,428.758 791.039,208.657 "/>
   <polygon id="_246143392" class="fil1 str2" points="333.454,905.768 454.373,905.768 393.547,769.653 "/>
   <polygon id="_246142720" class="fil1 str2" points="585.114,788.051 706.033,788.051 665.382,652.976 627.136,653.02 "/>
   <polygon id="_200508608" class="fil1 str2" points="870.811,525.929 749.892,525.929 790.543,661.003 828.788,660.96 "/>
   <polygon id="_246328272" class="fil1 str2" points="685.165,145.394 564.246,145.394 604.897,280.468 643.143,280.425 "/>
   <polygon id="_246328512" class="fil1 str2" points="851.391,160.172 730.472,160.172 771.123,229.537 809.369,229.514 "/>
   <polygon id="_246328488" class="fil1 str2" points="151.36,282.39 272.279,282.39 211.453,146.275 "/>
   <circle id="_246328416" class="fil1 str2" cx="211.094" cy="146.759" r="33.9733"/>
   <circle id="_246328848" class="fil2 str1" cx="484.056" cy="792.214" r="20.9894"/>
   <circle id="_246143152" class="fil2 str1" cx="549.644" cy="688.978" r="20.9894"/>
   <circle id="_246328344" class="fil2 str1" cx="699.942" cy="573.433" r="20.9894"/>
   <polygon id="_246669600" class="fil1 str2" points="390.78,282.985 511.699,282.985 471.048,147.911 432.802,147.954 "/>
   <line id="_246324072" class="fil0 str1" x1="828.05" y1="524.684" x2="840.338" y2= "478.061" />
   <line id="_246323952" class="fil0 str1" x1="643.96" y1="144.183" x2="664.426" y2= "66.5315" />
   <line id="_246323832" class="fil0 str1" x1="808.631" y1="158.927" x2="820.919" y2= "112.304" />
   <line id="_246324264" class="fil0 str1" x1="793.354" y1="526.491" x2="781.789" y2= "478.784" />
   <line id="_246324144" class="fil0 str1" x1="608.076" y1="138.945" x2="588.813" y2= "59.4863" />
   <line id="_246323616" class="fil0 str1" x1="773.934" y1="160.734" x2="762.369" y2= "113.027" />
  </g>
 </g>
</svg>
