<?xml version="1.0" encoding="UTF-8"?>
<!DOCTYPE svg PUBLIC "-//W3C//DTD SVG 1.1//EN" "http://www.w3.org/Graphics/SVG/1.1/DTD/svg11.dtd">
<!-- Creator: CorelDRAW -->
<svg xmlns="http://www.w3.org/2000/svg" xml:space="preserve" width="1000px" height="1000px" style="shape-rendering:geometricPrecision; text-rendering:geometricPrecision; image-rendering:optimizeQuality; fill-rule:evenodd; clip-rule:evenodd"
viewBox="0 0 1000 1000"
 xmlns:xlink="http://www.w3.org/1999/xlink">
 <defs>
  <style type="text/css">
   <![CDATA[
    .str0 {stroke:#1F1A17;stroke-width:0.900001}
    .str3 {stroke:#1F1A17;stroke-width:4.16693}
    .str1 {stroke:#1F1A17;stroke-width:8.33386}
    .str2 {stroke:#1F1A17;stroke-width:16.6665}
    .fil0 {fill:none}
    .fil2 {fill:#1F1A17}
    .fil1 {fill:white}
   ]]>
  </style>
 </defs>
 <g id="Warstwa_x0020_1">
  <metadata id="CorelCorpID_0Corel-Layer"/>
  <rect class="fil0 str0" x="-5324.47" y="7886.71" width="1002.45" height="1002.45"/>
  <g id="_246324528">
   <path id="_246655368" class="fil1 str1" d="M265.648 292.761c45.6485,-29.3457 79.1079,8.17087 129.384,-5.79331 42.1394,-11.7047 31.0736,-22.5603 59.8642,-40.5532 34.1965,-21.3732 24.7772,46.0193 28.9666,50.2087 44.4083,44.4083 57.7619,-43.2709 54.0709,-75.3131 -1.75394,-15.2209 -1.83898,-58.9016 4.04292,-75.319 6.26103,-17.4791 18.6449,-6.5067 21.0614,19.3169 3.54213,37.8366 -1.95591,152.287 38.6221,135.177 72.2457,-30.4618 112.298,-1.72914 169.937,5.79331 36.6685,-8.55119 -23.5843,123.575 0,183.455 14.5595,36.9638 12.4547,122.723 -13.5177,148.695 -37.9843,37.9843 -85.8556,-7.39961 -131.315,28.9666 -24.6614,19.7291 -45.7453,78.5186 -84.9686,83.0375 -34.3949,3.96378 -208.59,44.3953 -224.008,34.7599 -25.6536,-16.0335 -137.108,-44.4981 -137.108,-75.3131 0,-83.3304 157.184,-140.149 123.591,-189.248 -15.4854,-22.6358 -56.9622,-78.2197 -42.4843,-115.866 5.75434,-14.9622 17.3965,-48.75 15.4488,-65.6575 -1.17284,-10.1823 -6.49252,-49.0996 -11.5866,-46.3465z"/>
   <path id="_200056048" class="fil0 str1" d="M182.261 719.056c-15.1252,5.2937 -32.3551,13.5095 -48.2481,13.5095 -12.8079,0 -15.711,-2.74607 -24.124,-9.64961 -6.75237,-5.53937 -25.3358,-18.541 -32.8087,-20.2642 -7.32875,-1.68898 -21.5469,2.1437 -27.9839,0"/>
   <path id="_200055328" class="fil0 str1" d="M755.448 642.824c16.4788,10.663 28.0276,23.7721 42.4583,31.8437 5.54646,3.10158 15.7228,7.16693 22.1941,7.71969 2.3374,0.199606 19.5791,-4.69725 20.2642,-6.75473 13.441,0 27.1323,-9.64961 42.4583,-9.64961 6.49371,0 37.1091,5.44134 39.5634,-1.92992"/>
   <path id="_200059504" class="fil1 str1" d="M436.046 452.726c-63.1205,-31.5591 -97.5556,60.163 -79.1268,108.076 8.6315,22.4445 12.9933,26.3032 31.8437,38.5985 89.4745,58.343 150.86,-94.8934 47.2831,-146.674z"/>
   <path id="_246143368" class="fil1 str1" d="M387.798 366.845c-15.7228,-6.63189 -17.961,-8.01733 -28.9488,-13.5095 -3.27402,-1.63701 -28.8213,-11.9705 -30.8788,-5.78977 -2.52284,0 -4.18465,0.330709 -4.82481,2.89488 -3.61063,1.80473 -2.70236,5.85355 -4.82481,8.68465 0.923623,1.84961 0.964961,2.4874 0.964961,4.82481 1.52717,0.507874 1.44449,3.61772 3.85985,4.82481 0.537402,2.15551 1.80827,3.03898 3.85985,3.85985 1.1752,4.7067 12.3768,6.24804 13.5095,9.64961 1.84252,0.459449 5.31142,1.4563 5.78977,2.89488 2.09528,0 4.27087,0.265748 4.82481,1.92992 5.86063,0 10.7976,0.466536 16.4043,0 6.3378,-0.526772 11.915,-0.964961 18.3343,-0.964961 0.980316,-1.47047 1.77165,-0.964961 3.85985,-0.964961 0.290551,-0.875198 4.91457,-5.49922 5.78977,-5.78977l0 -7.71969c-1.48937,-0.496063 -0.964961,0.0330709 -0.964961,-1.92992l-0.964961 -0.964961 -1.92992 0c-0.496063,-1.48937 0.0330709,-0.964961 -1.92992,-0.964961 -0.552756,-1.66181 -2.05158,-0.574016 -1.92992,-0.964961z"/>
   <path id="_246137824" class="fil1 str1" d="M662.812 405.443c-3.47008,4.18819 -9.06733,9.64253 -10.6146,13.5095 -3.02126,1.0063 -5.82993,10.3075 -9.64961,11.5795 0,1.96417 -3.35315,7.94883 -4.82481,8.68465 0,2.97047 -0.964961,6.08741 -0.964961,9.64961 1.48937,0.496063 0.964961,-0.0330709 0.964961,1.92992l0.964961 1.92992c1.17165,0.389764 2.49331,2.25 2.89488,3.85985 2.03386,0.4063 2.07047,0.279921 2.89488,1.92992 2.09528,0 4.27087,0.265748 4.82481,1.92992 4.19528,0 11.1343,0.376772 12.5445,-3.85985 4.33347,-1.08189 15.4394,-23.1284 15.4394,-28.9488 4.22717,-1.40788 0.964961,-13.6725 0.964961,-17.3693 -1.61221,-0.536221 -0.964961,-1.95354 -0.964961,-3.85985 -1.39134,-0.462992 -2.46142,-4.05118 -2.89488,-5.78977 -4.64055,-1.15866 -3.48544,-2.26299 -8.68465,-0.964961 -0.309449,1.23898 -0.655512,1.65591 -0.964961,2.89488 -1.88386,0.627166 -0.046063,0.337796 -1.92992,0.964961 -0.309449,1.23898 -0.655512,1.65591 -0.964961,2.89488 -1.88386,0.627166 -0.046063,0.337796 0.964961,-0.964961z"/>
   <path id="_246138736" class="fil1 str1" d="M605.879 594.576c0.778347,-12.7228 2.91969,-25.2248 -6.75473,-31.8437 -2.41418,-1.65236 -11.4921,-4.82481 -14.4744,-4.82481 -11.798,0 -12.9484,16.2756 -10.6146,27.0189 1.84843,8.50512 0,17.0516 0,24.124 0,14.0776 16.4445,18.4996 23.1591,8.68465 0.986221,-1.44095 3.21142,-6.03071 3.85985,-7.71969 1.42441,-3.70394 -1.04055,-6.67914 1.92992,-9.64961 0.635434,-0.635434 6.1252,-4.71378 2.89488,-5.78977z"/>
   <path id="_246138520" class="fil0 str1" d="M321.215 680.457c-1.69961,-0.392126 -17.2358,-1.52599 -18.3343,-4.82481 -10.2543,0 -18.9685,-5.78977 -28.9488,-5.78977 -0.624804,-1.87914 -7.00749,-0.964961 -9.64961,-0.964961l-1.92992 0.964961c-0.467717,1.40669 -0.334252,0.733465 -1.92992,1.92992 0,4.2567 0.279921,7.46339 0.964961,11.5795 1.79528,0.597638 3.42166,5.42126 6.75473,6.75473 1.38662,4.16575 17.3209,9.78072 22.1941,10.6146 9.64607,1.65236 18.1725,2.89488 27.9839,2.89488 0.364961,-1.09724 10.285,-1.92992 12.5445,-1.92992 0.42874,-1.28858 1.27677,-1.52599 2.89488,-1.92992 0.442914,-1.77402 0.155906,-1.48701 1.92992,-1.92992 0,-3.62362 -0.188977,-5.57599 -0.964961,-8.68465 -0.938977,-0.311811 -2.58307,-1.95591 -2.89488,-2.89488l-1.92992 0c-0.401575,-1.20591 -3.03307,-1.92992 -4.82481,-1.92992 -0.588189,-1.76575 -6.19134,-1.92992 -8.68465,-1.92992 -0.518504,-1.55669 -1.04173,-0.964961 -2.89488,-0.964961l0 0"/>
   <path id="_246138544" class="fil0 str1" d="M439.905 619.665c4.04528,31.917 2.14488,62.3375 -15.4394,86.8465 -4.30866,6.00709 -10.6051,13.5 -16.4043,19.2992 -12.3673,12.3673 -9.64961,29.1579 -9.64961,48.2481"/>
   <path id="_246138232" class="fil0 str1" d="M454.38 613.875c6.27166,31.3607 3.84803,24.4429 5.78977,25.089 0,17.0906 5.12008,31.8142 -3.85985,46.3181 -5.37402,8.68229 -23.1591,26.2784 -23.1591,35.7036 -9.88111,3.29055 -3.64134,41.4567 -2.89488,50.178"/>
   <path id="_246670680" class="fil0 str1" d="M474.644 610.98c6.13111,43.6099 25.2709,101.321 75.267,101.321 2.07402,6.22914 25.2898,-7.28859 27.0189,-7.71969 0.655512,-2.62559 5.68937,-5.40119 7.71969,-6.75473l-1.92992 0"/>
   <path id="_246138448" class="fil0 str1" d="M475.609 464.306c3.11221,-5.52284 7.75512,-14.8984 11.5795,-21.2292 1.13976,-1.88504 3.67087,-7.33583 4.82481,-7.71969 0,-2.59607 1.1941,-8.1189 2.89488,-8.68465 0,-17.2665 8.42481,-36.9721 4.82481,-55.0028 -3.50197,-17.5335 11.2075,-30.3378 14.4744,-43.4233 1.70788,-0.426378 10.487,-10.9051 11.5795,-12.5445"/>
   <path id="_246669696" class="fil0 str1" d="M494.908 484.57c10.3382,-26.3162 21.104,-40.4244 40.5284,-58.8626 16.6004,-15.7559 47.9835,-25.9418 51.143,-50.178 1.46102,-11.2134 5.36221,-21.0272 10.6146,-29.9138 3.55866,-6.02363 21.2292,-20.2642 20.2642,-19.2992"/>
   <path id="_246142768" class="fil0 str1" d="M510.348 499.044c13.0193,-27.4335 21.4937,-39.3733 45.3532,-55.0028 6.23504,-4.08544 30.0803,-26.054 34.7386,-26.054 1.59213,-6.3756 12.8221,-11.9669 15.4394,-21.2292 1.2248,-4.33819 2.20984,-25.1835 4.82481,-26.054 0,-2.22874 0.964961,-3.56103 0.964961,-5.78977 3.90591,-1.30039 16.0382,-16.6547 21.2292,-20.2642 28.7776,-20.0173 47.5571,-17.3693 83.9516,-17.3693"/>
   <path id="_246143584" class="fil0 str1" d="M423.501 483.605c-32.6965,-9.40513 -16.3654,-9.18308 -32.8087,-0.964961 0,6.42048 4.43268,13.9311 10.6146,16.4043 0.435827,1.74803 1.52953,2.81811 1.92992,4.82481 -1.39252,1.67126 -3.42166,3.50788 -3.85985,4.82481 -7.65001,1.90984 -13.35,3.67914 -11.5795,12.5445 1.77402,0.442914 1.48701,0.155906 1.92992,1.92992 7.95473,3.40866 11.3055,4.67363 8.68465,12.5445 -2.78977,0.69567 -4.14449,3.20788 -6.75473,3.85985 -0.602363,0.903544 -7.2378,11.0976 -8.68465,11.5795 0,2.07756 -0.0212599,1.65591 -0.964961,3.85985 1.42441,0.473622 1.00866,0.744095 1.92992,2.89488 7.84843,1.95945 10.5331,16.7551 2.89488,19.2992"/>
   <path id="_246143728" class="fil0 str1" d="M452.45 499.044c-18.0343,0.693308 -10.7669,2.56181 -20.2642,-0.964961 -3.02008,-1.12205 -9.91891,0.309449 -12.5445,0.964961 -0.709843,2.13071 -1.16221,2.82047 -2.89488,3.85985 -1.14685,4.59331 -1.95473,5.65985 -0.964961,10.6146 1.66417,0.414567 4.40197,1.6252 4.82481,2.89488 2.31969,0 3.20906,0.964961 5.78977,0.964961 0.429922,1.29213 3.00236,1.56614 4.82481,1.92992l0.964961 0.964961c2.40118,6.00119 2.40118,4.61339 0,10.6146 -1.86969,0.466536 -4.38189,2.52992 -4.82481,3.85985l-0.964961 0.964961c-1.98662,0.794883 -2.78504,2.38583 -4.82481,2.89488 -0.758268,1.89685 -0.998032,2.13662 -2.89488,2.89488 -0.441733,1.77047 -0.66378,1.74921 -0.964961,3.85985 -3.20906,1.0689 -1.5626,4.35827 -0.964961,6.75473 1.99725,0.664961 1.39488,2.85945 2.89488,3.85985 0,1.98307 0.601182,6.05434 0,7.71969 -0.923623,2.56299 -4.16103,3.79488 -4.82481,5.78977 -1.23898,0.309449 -1.65591,0.655512 -2.89488,0.964961 -0.497244,1.99252 -6.14056,6.63898 -2.89488,7.71969"/>
   <path id="_246144160" class="fil0 str1" d="M466.924 513.519l-19.2992 1.92992c-2.75551,6.88819 -2.76142,5.34804 -0.964961,12.5445 1.05236,0.350788 4.44331,3.29646 4.82481,4.82481 2.10827,0.843308 2.44488,2.42362 3.85985,2.89488 1.51654,4.55079 1.92992,4.82244 1.92992,9.64961 -0.927166,0.308268 -3.09922,5.27126 -5.78977,6.75473 -3.01418,1.66299 -6.37914,4.00866 -9.64961,4.82481 0,1.96299 0.52441,1.43386 -0.964961,1.92992l0 8.68465c1.56851,1.04646 2.89488,9.43938 2.89488,12.5445l-1.92992 0.964961c-1.0252,2.05158 -4.2815,2.40118 -6.75473,2.89488 -0.737008,2.21339 -3.96024,2.42481 -4.82481,6.75473l-0.964961 0.964961"/>
   <path id="_246143800" class="fil0 str2" d="M91.5544 271.314c63.3201,45.5929 93.5646,-68.4686 144.744,-10.6146 33.1559,37.4788 67.1351,22.1882 118.69,27.0189 53.4792,5.01142 68.1815,-24.4606 110.006,-39.5634 39.3555,-14.2099 -1.3748,53.6859 37.6335,63.6875 78.0024,20.002 15.2551,-162.638 40.5284,-171.763 25.487,-9.20316 21.2433,93.665 26.054,115.795 16.0051,73.6288 104.454,21.3106 165.008,41.4933 33.5918,11.1969 59.5855,6.75473 94.5662,6.75473 18.2457,0 25.0512,-11.1732 48.2481,-5.78977 8.20512,1.90394 48.8717,18.4063 54.0378,2.89488l-1.92992 0.964961"/>
   <circle id="_246144400" class="fil2 str3" cx="308.02" cy="408.383" r="6.75473"/>
   <circle id="_246144424" class="fil2 str3" cx="383.02" cy="333.383" r="6.75473"/>
   <circle id="_246144544" class="fil2 str3" cx="433.896" cy="381.898" r="6.75473"/>
   <circle id="_246143320" class="fil2 str3" cx="530.125" cy="387.955" r="6.75473"/>
   <circle id="_246138904" class="fil2 str3" cx="588.721" cy="457.699" r="6.75473"/>
   <circle id="_246139216" class="fil2 str3" cx="670.476" cy="507.179" r="6.75473"/>
   <circle id="_246139288" class="fil2 str3" cx="674.069" cy="573.063" r="6.75473"/>
   <circle id="_246138880" class="fil2 str3" cx="729.769" cy="440.165" r="6.75473"/>
   <circle id="_246139072" class="fil2 str3" cx="724.678" cy="370.955" r="6.75473"/>
   <circle id="_246144376" class="fil2 str3" cx="553.613" cy="530.441" r="6.75473"/>
   <circle id="_246139120" class="fil2 str3" cx="382.548" cy="689.926" r="6.75473"/>
   <circle id="_246141424" class="fil2 str3" cx="349.472" cy="621.681" r="6.75473"/>
   <circle id="_200502584" class="fil2 str3" cx="296.132" cy="596.859" r="6.75473"/>
   <circle id="_200503136" class="fil2 str3" cx="225.423" cy="684.937" r="6.75473"/>
   <circle id="_200503232" class="fil2 str3" cx="327.442" cy="740.207" r="6.75473"/>
   <circle id="_200502512" class="fil2 str3" cx="481.569" cy="715.385" r="6.75473"/>
   <circle id="_200502560" class="fil2 str3" cx="549.814" cy="655.824" r="6.75473"/>
   <circle id="_200506184" class="fil2 str3" cx="731.925" cy="601.088" r="6.75473"/>
   <circle id="_200505896" class="fil2 str3" cx="419.976" cy="420.907" r="6.75473"/>
   <circle id="_200506232" class="fil2 str3" cx="204.522" cy="374.856" r="6.75473"/>
   <circle id="_200505608" class="fil2 str3" cx="223.555" cy="501.533" r="6.75473"/>
   <circle id="_246323592" class="fil2 str3" cx="839.898" cy="454.517" r="6.75473"/>
  </g>
 </g>
</svg>
