<?xml version="1.0" encoding="UTF-8"?>
<!DOCTYPE svg PUBLIC "-//W3C//DTD SVG 1.1//EN" "http://www.w3.org/Graphics/SVG/1.1/DTD/svg11.dtd">
<!-- Creator: CorelDRAW -->
<svg xmlns="http://www.w3.org/2000/svg" xml:space="preserve" width="1000px" height="1000px" style="shape-rendering:geometricPrecision; text-rendering:geometricPrecision; image-rendering:optimizeQuality; fill-rule:evenodd; clip-rule:evenodd"
viewBox="0 0 1000 1000"
 xmlns:xlink="http://www.w3.org/1999/xlink">
 <defs>
  <style type="text/css">
   <![CDATA[
    .str0 {stroke:#1F1A17;stroke-width:0.900001}
    .str1 {stroke:#1F1A17;stroke-width:8.33386}
    .fil0 {fill:none}
    .fil1 {fill:white}
   ]]>
  </style>
 </defs>
 <g id="Warstwa_x0020_1">
  <metadata id="CorelCorpID_0Corel-Layer"/>
  <rect class="fil0 str0" x="-5324.47" y="7886.71" width="1002.45" height="1002.45"/>
  <g id="_246325224">
   <path id="_246325248" class="fil1 str1" d="M618.834 337.943c6.84686,5.26063 16.3748,-10.9878 18.3614,-13.0665 102.006,-106.767 -55.6288,-213.679 -161.384,-198.357 -48.6142,7.04292 -125.588,43.9134 -119.392,140.535 3.45355,53.8595 44.6492,69.5233 79.5946,104.467 73.2071,73.2083 -141.553,66.1619 -156.703,88.3016 -30.0071,43.8555 -13.6795,282.368 -13.6795,338.277 -25.5697,120.543 15.4276,128.444 120.636,128.098 65.8052,-0.216142 84.267,-7.33583 74.2005,-35.4756 -1.4374,-4.01575 -16.5437,-16.9878 -18.4665,-21.4984 -8.63623,-20.2524 -25.3146,-56.2441 -22.6831,-69.828 3.21614,-16.611 26.0528,-23.3847 93.8032,-8.75788 43.8697,9.47127 81.7855,-37.0772 43.5284,-62.1827 -35.9729,-23.6091 -77.2713,5.10945 -105.351,-7.5756 -31.6418,-14.2937 -40.9016,-24.0449 -38.915,-73.2638 0.165354,-4.10197 4.9878,-27.3768 -3.95079,-37.141 -6.73347,-7.35709 -30.1819,-3.26811 -34.6937,-12.6591 -11.9055,-24.7725 -2.92441,-50.6563 37.4008,-55.9111 84.1087,-10.9606 64.6713,-61.0607 64.6713,-162.921 0,-39.1902 29.2772,-88.3005 72.1323,-88.3005 12.0425,0 70.8898,47.8819 70.8898,47.2595z"/>
   <path id="_246325704" class="fil1 str1" d="M706.929 906.369c15.1417,-53.589 -2.4874,-120.02 -2.4874,-177.845 0,-84.8103 58.8556,-255.761 -24.874,-289.775 -54.5256,-22.1504 -165.252,17.0587 -120.43,-62.2524 7.83544,-13.8614 53.4012,-21.1795 13.6807,-41.041 -62.6434,-31.3217 -69.4938,10.9784 -63.4276,69.6461 2.71299,26.2477 -17.9008,125.158 7.46221,134.316 24.3083,8.7756 98.9115,46.4563 37.0028,77.4119 -25.4646,12.7323 -86.9977,-24.0626 -108.202,-6.83386 -2.61378,2.12244 -2.4378,8.18505 -3.61063,10.7658 -29.6764,65.2701 26.4874,83.8442 93.769,71.3127 25.1634,-4.6878 49.4776,16.6937 63.1075,37.8957 10.2673,15.9732 13.8484,31.611 6.04843,43.7587 -25.8709,40.2839 -37.6028,64.5449 -109.887,41.7697 -63.0071,-19.852 -38.0575,33.0012 -10.565,47.8937 19.2047,10.402 3.37677,51.6863 18.6567,57.202 32.9859,11.9032 203.304,-12.6225 203.757,-14.2252z"/>
   <path id="_246325176" class="fil1 str1" d="M636.382 673.803c14.0173,-9.65788 39.6366,-52.4351 24.0662,-69.6981 -23.2878,-25.8189 -60.1182,11.9728 -70.9335,34.6583 -18.841,39.5363 14.4815,57.3567 46.8674,35.0398z"/>
   <circle id="_246325296" class="fil1 str1" cx="611.16" cy="239.869" r="20.6461"/>
   <path id="_246325200" class="fil1 str1" d="M543.591 166.043c-69.4323,-14.3634 -114.959,-15.2351 -158.913,46.2969 -20.0351,28.0512 -0.454725,86.7438 28.7799,101.354 58.9193,29.4449 72.7371,-45.9709 110.113,-76.3276 17.3764,-14.1118 56.3067,-16.5343 56.3067,-45.0461 0,-24.4217 -28.774,-17.5134 -36.287,-26.2772z"/>
   <path id="_246325320" class="fil0 str1" d="M583.693 658.289c-17.7839,-16.7173 -24.691,-13.937 -40.5284,1.9004 -31.6063,31.6063 -44.863,-6.53859 -69.9733,-15.1984 -8.15552,-2.81339 -14.7012,0.425197 -21.5315,3.48307 -1.7811,0.796064 -7.36064,2.5311 -14.2476,4.11614"/>
  </g>
 </g>
</svg>
