<?xml version="1.0" encoding="UTF-8"?>
<!DOCTYPE svg PUBLIC "-//W3C//DTD SVG 1.1//EN" "http://www.w3.org/Graphics/SVG/1.1/DTD/svg11.dtd">
<!-- Creator: CorelDRAW -->
<svg xmlns="http://www.w3.org/2000/svg" xml:space="preserve" width="1000px" height="1000px" style="shape-rendering:geometricPrecision; text-rendering:geometricPrecision; image-rendering:optimizeQuality; fill-rule:evenodd; clip-rule:evenodd"
viewBox="0 0 1000 1000"
 xmlns:xlink="http://www.w3.org/1999/xlink">
 <defs>
  <style type="text/css">
   <![CDATA[
    .str0 {stroke:#1F1A17;stroke-width:8.33386}
    .fil2 {fill:none}
    .fil1 {fill:white}
    .fil0 {fill:#5FB250}
   ]]>
  </style>
 </defs>
 <g id="Warstwa_x0020_1">
  <metadata id="CorelCorpID_0Corel-Layer"/>
  <circle class="fil0" cx="498.146" cy="498.146" r="485.835"/>
  <g id="_229058256">
   <path id="_229059456" class="fil1 str0" d="M629.671 299.348c6.78308,5.21103 16.2213,-10.8839 18.189,-12.9437 101.048,-105.764 -55.1067,-211.673 -159.867,-196.494 -48.1583,6.97796 -124.408,43.5012 -118.271,139.214 3.42166,53.354 44.2311,68.8713 78.8469,103.487 72.5197,72.5197 -140.223,65.5394 -155.23,87.4713 -29.726,43.4433 -13.552,279.715 -13.552,335.1 -25.3288,119.411 15.2835,127.237 119.503,126.894 65.1863,-0.21378 83.4745,-7.26733 73.5024,-35.1425 -1.42323,-3.97796 -16.3878,-16.8284 -18.2917,-21.2965 -8.55473,-20.0622 -25.0772,-55.715 -22.4705,-69.1725 3.18662,-16.4539 25.8083,-23.165 92.9221,-8.6752 43.4575,9.38268 81.0178,-36.7288 43.1197,-61.5993 -35.6351,-23.387 -76.5461,5.06221 -104.361,-7.50355 -31.3441,-14.1591 -40.5166,-23.8193 -38.5488,-72.5753 0.162992,-4.06418 4.93937,-27.1205 -3.91536,-36.7925 -6.66969,-7.28741 -29.8973,-3.2374 -34.3666,-12.5398 -11.7945,-24.5398 -2.89725,-50.1815 37.05,-55.3867 83.3174,-10.8567 64.063,-60.4867 64.063,-161.389 0,-38.8229 29.002,-87.4713 71.4544,-87.4713 11.9303,0 70.2237,47.4319 70.2237,46.8154z"/>
   <path id="_229059840" class="fil1 str0" d="M716.938 862.433c15,-53.0859 -2.46378,-118.892 -2.46378,-176.173 0,-84.0142 58.3028,-253.358 -24.639,-287.053 -54.0154,-21.9425 -163.701,16.898 -119.3,-61.6678 7.76103,-13.7303 52.9004,-20.9811 13.552,-40.6548 -62.0552,-31.0276 -68.8406,10.8744 -62.8312,68.9906 2.68701,26.002 -17.7331,123.983 7.39134,133.055 24.0803,8.69292 97.9831,46.0205 36.6555,76.6843 -25.2248,12.613 -86.1804,-23.8358 -107.186,-6.7689 -2.58898,2.10236 -2.41418,8.10827 -3.57638,10.6642 -29.3977,64.6571 26.2394,83.0575 92.889,70.643 24.926,-4.6441 49.0122,16.5366 62.5146,37.539 10.1705,15.8232 13.7173,31.3146 5.99056,43.3477 -25.6264,39.9059 -37.2485,63.9402 -108.854,41.3776 -62.4154,-19.6642 -37.7008,32.6906 -10.4658,47.4449 19.024,10.3039 3.34488,51.1996 18.4819,56.6634 32.6752,11.7921 201.393,-12.5043 201.841,-14.0917z"/>
   <path id="_197929344" class="fil1 str0" d="M647.054 632.052c13.8851,-9.56694 39.2634,-51.9414 23.8394,-69.0426 -23.0693,-25.5768 -59.5536,11.8606 -70.2674,34.3323 -18.6638,39.1654 14.3469,56.8182 46.428,34.7103z"/>
   <circle id="_229059768" class="fil1 str0" cx="622.069" cy="202.195" r="20.4522"/>
   <path id="_229059648" class="fil1 str0" d="M555.135 129.063c-68.7804,-14.2288 -113.88,-15.091 -157.42,45.8622 -19.8473,27.7866 -0.451181,85.9288 28.5095,100.402 58.3666,29.1673 72.0532,-45.5398 109.078,-75.6107 17.2122,-13.9795 55.7776,-16.3795 55.7776,-44.6233 0,-24.1925 -28.5036,-17.3492 -35.9457,-26.0303z"/>
   <path id="_229058520" class="fil2 str0" d="M594.86 616.685c-17.6173,-16.5602 -24.4583,-13.8071 -40.1469,1.8815 -31.3099,31.3099 -44.4426,-6.47599 -69.3178,-15.0543 -8.07757,-2.7874 -14.5618,0.420473 -21.3284,3.45 -1.76339,0.787796 -7.29213,2.50748 -14.1142,4.07717"/>
  </g>
 </g>
</svg>
