<?xml version="1.0" encoding="UTF-8"?>
<!DOCTYPE svg PUBLIC "-//W3C//DTD SVG 1.1//EN" "http://www.w3.org/Graphics/SVG/1.1/DTD/svg11.dtd">
<!-- Creator: CorelDRAW -->
<svg xmlns="http://www.w3.org/2000/svg" xml:space="preserve" width="1000px" height="1000px" style="shape-rendering:geometricPrecision; text-rendering:geometricPrecision; image-rendering:optimizeQuality; fill-rule:evenodd; clip-rule:evenodd"
viewBox="0 0 1000 1000"
 xmlns:xlink="http://www.w3.org/1999/xlink">
 <defs>
  <style type="text/css">
   <![CDATA[
    .str0 {stroke:#1F1A17;stroke-width:0.900001}
    .str2 {stroke:#1F1A17;stroke-width:4.16693}
    .str1 {stroke:#1F1A17;stroke-width:8.33386}
    .fil0 {fill:none}
    .fil2 {fill:white}
    .fil1 {fill:#5FB250}
   ]]>
  </style>
 </defs>
 <g id="Warstwa_x0020_1">
  <metadata id="CorelCorpID_0Corel-Layer"/>
  <rect class="fil0 str0" x="-5324.47" y="7886.71" width="1002.45" height="1002.45"/>
  <circle class="fil1" cx="498.146" cy="498.146" r="485.835"/>
  <g id="_197935488">
   <path id="_197931384" class="fil2 str1" d="M537.341 387.944c-87.5032,-48.1264 -368.494,-2.01732 -333.78,128.876 22.1941,83.6883 193.228,93.7619 276.295,86.2264 47.8465,-4.34055 60.0071,-37.7622 91.7894,-18.5433 32.3752,19.5791 82.9725,-1.42205 86.2264,0 69.6272,30.4323 107.548,-4.63583 171.526,-4.63583 38.5796,0 59.1532,-13.2319 81.5906,-39.8681 21.352,-25.3465 -1.81299,-30.6473 -20.3977,-7.41733 -3.54213,4.42914 -21.3248,-20.615 -21.3248,-26.8878 0,-67.6052 -27.1807,45.7524 -51.9213,25.9607 -33.502,-26.8028 -44.1449,-80.4697 -2.7815,-103.843 41.2146,-23.2902 15.7276,33.8799 16.689,37.0866 3.38268,11.2819 23.7839,-13.4055 25.9607,-13.9075 6.68386,-1.54016 17.3988,3.55276 19.4705,19.4705 0.682678,5.25355 42.5469,-42.1359 -30.5965,-71.3918 -46.7422,-18.6969 -104.199,-26.0906 -150.201,-34.3051 -47.954,-8.56182 -47.1178,28.0654 -75.1005,4.63583 -40.0902,-33.5693 -83.4449,18.5433 -83.4449,18.5433z"/>
   <path id="_197930616" class="fil0 str1" d="M201.706 491.787c43.5638,-2.90315 112.595,0.34252 152.055,-14.8347 17.9587,-6.90591 137.222,-9.73347 154.837,-0.927166 21.7347,10.8673 39.8681,12.9118 39.8681,42.6496 0,8.9504 -5.27599,65.7343 -8.34449,66.756"/>
   <path id="_197930376" class="fil0 str1" d="M478.002 470.462c25.7327,-6.64016 25.9937,-14.1095 45.4311,-25.9607 12.4642,-7.59804 14.8347,-17.1284 14.8347,-31.5236 0,-2.82402 -2.20984,-27.6248 -2.7815,-27.815"/>
   <path id="_197930184" class="fil0 str1" d="M564.228 377.745c-12.7488,28.8036 -10.9961,89.4024 -5.563,121.459 2.24292,13.239 -0.729922,77.3268 -7.41733,75.1005"/>
   <path id="_197930256" class="fil0 str1" d="M643.965 410.196c18.7288,38.2382 32.3752,58.0583 21.3248,101.061 -3.86221,15.0284 -10.1988,26.5583 -10.1988,43.5768 0,5.53701 2.25236,32.9362 0.927166,33.378"/>
   <path id="_197929992" class="fil2 str1" d="M333.364 383.308c-11.8618,-18.4512 -5.35276,-34.4528 -31.5236,-39.8681 -26.0977,-5.39882 -60.0768,-25.4599 -85.2993,-28.7421 -27.3095,-3.55512 -17.2417,-32.7567 8.34449,-18.5433 23.5595,13.089 91.4682,21.3862 104.77,38.0138 9.25513,11.5677 19.8,12.0095 27.815,25.0335 12.2232,19.865 -16.7622,22.4126 -24.1063,24.1063z"/>
   <path id="_197930160" class="fil2 str1" d="M396.411 275.757c-9.38623,-9.15709 -33.717,-43.904 -38.0138,-18.5433 -3.24803,19.1646 80.0646,93.9178 94.5709,105.697 4.40906,3.58111 31.526,13.9713 30.5965,2.7815 -1.21772,-14.6658 -24.1394,-36.0248 -36.1595,-45.4311 -7.34764,-5.75079 -45.5374,-42.6496 -50.9941,-44.504z"/>
   <path id="_197929920" class="fil2 str1" d="M552.175 370.328c4.10079,-7.17638 8.24646,-23.1 12.9803,-26.8878 26.2158,-20.9717 62.6552,-18.0945 86.2264,-38.941 5.01496,-4.43386 56.5571,-32.4154 56.5571,-5.563 0,29.2784 -12.0626,19.3311 -33.378,21.3248 -29.7,2.77677 -62.3138,-1.48347 -76.0276,25.9607 -4.95119,9.90709 -15.6213,20.7 -26.8878,25.0335 -2.82166,1.08425 -10.9854,8.89489 -14.8347,6.49016 -4.96063,-3.1004 -3.70866,-8.34449 -4.63583,-7.41733z"/>
   <path id="_197929872" class="fil2 str1" d="M545.685 587.285c2.69882,19.3453 17.0421,48.8989 30.5965,56.5571 15.9047,8.9882 29.661,5.28189 48.2126,7.41733 13.9228,1.60158 22.1941,22.1823 35.2323,26.8878 13.9996,5.05158 24.7075,6.90355 39.8681,10.1988 14.2347,3.09331 25.9607,5.96103 25.9607,-12.9803 0,-24.4914 -87.4607,-24.424 -109.406,-36.1595 -25.9134,-13.8591 -17.4414,-28.3453 -32.4508,-46.3583 -4.59922,-5.51811 -14.5973,-16.689 -24.1063,-16.689 -13.6122,0 -15.8469,13.0429 -13.9075,11.126z"/>
   <path id="_197930448" class="fil2 str1" d="M457.604 608.61c-4.86969,21.5693 3.30591,36.2233 -12.9803,49.1398 -20.0705,15.9165 -42.9154,37.0996 -57.4843,59.3386 -5.90906,9.02127 -14.0728,19.8047 1.85433,23.1792 10.9169,2.31378 73.4587,-71.6044 83.4449,-81.5906 7.72087,-7.72087 20.3977,-38.3433 20.3977,-48.2126 0,-18.6886 -39.1902,-5.05158 -35.2323,-1.85433z"/>
   <path id="_197930040" class="fil2 str1" d="M326.874 595.629c-13.0288,28.5414 -14.6953,36.3922 -33.378,58.4115 -25.9973,30.6378 -56.0941,17.7307 -84.3721,38.0138 -29.9386,21.4725 0.740552,34.1563 23.1792,18.5433 13.9382,-9.69922 29.6233,-23.7508 46.3583,-26.8878 20.687,-3.87756 55.4953,-36.7843 67.6831,-52.8485 2.53229,-3.33662 26.5087,-20.1272 14.8347,-25.9607 -9.77954,-4.88741 -26.8358,-4.29213 -34.3051,-9.27166z"/>
   <path id="_197930016" class="fil0 str1" d="M710.721 298.936c27.4276,3.6567 25.9559,-4.20118 43.5768,-19.4705 14.2193,-12.3236 26.4414,-23.8288 41.7225,-33.378 3.94134,-2.46378 18.8055,1.85433 23.1792,1.85433 12.411,0 7.41733,15.7618 7.41733,14.8347"/>
   <path id="_197930208" class="fil0 str1" d="M363.033 250.723c-15.4866,-17.3764 -19.4705,-28.0229 -19.4705,-49.1398 0,-16.9347 -17.3162,-43.1894 -30.5965,-52.8485 -5.4189,-3.94016 -14.2347,-8.34449 -21.3248,-8.34449 -5.85,0 -24.5185,2.84528 -17.6162,12.0532"/>
   <path id="_197930424" class="fil0 str1" d="M200.779 298.009c-36.3071,-27.2292 -35.8701,-65.0457 -62.1201,-97.3524 -2.86063,-3.52205 -27.7914,-19.8898 -31.5236,-21.3248 -13.1953,-5.07402 -30.3189,13.0748 -22.252,15.7618"/>
   <path id="_197930304" class="fil0 str1" d="M767.57 430.078c-2.32559,-13.5662 6.19843,-70.8544 6.19843,-83.856 0,-11.7177 -5.02441,-22.8614 -3.70866,-34.3051 0.768898,-6.68386 9.25276,-2.22047 17.6162,-4.63583 14.798,-4.27205 32.7402,-13.128 47.2855,-20.3977 13.435,-6.71575 43.591,-2.25473 27.815,14.8347"/>
   <path id="_197930592" class="fil0 str1" d="M771.049 540.859c8.74253,18.9437 24.4701,80.1591 29.6067,98.3469 3.64016,12.8917 -8.38347,18.9083 11.126,22.252 12.7252,2.1815 42.1571,12.1571 52.8485,19.4705 3.09449,2.11772 14.837,11.4083 17.6162,9.27166 3.30827,-2.54528 9.3945,-12.0307 0,-13.9075"/>
   <path id="_197930472" class="fil0 str1" d="M717.211 690.2c14.0209,14.3327 26.9114,27.8516 35.2323,44.504 8.05631,16.1197 19.5402,24.4807 28.7421,36.1595 3.48544,4.42205 27.4666,22.3807 31.5236,10.1988"/>
   <path id="_197929296" class="fil0 str1" d="M382.504 743.976c-19.1728,30.45 -39.6496,59.0504 -49.1398,91.7894 -9.06024,31.2591 -17.6551,33.5906 -44.504,26.8878"/>
   <path id="_197929248" class="fil0 str1" d="M202.634 716.161c-30.4477,31.2484 -37.3855,66.5575 -63.0473,97.3524 -17.7803,21.3354 -36.2469,9.27166 -59.3386,9.27166"/>
   <path id="_197929824" class="fil0 str2" d="M270.402 414.982c-9.02717,7.02166 -19.4469,16.0477 -29.6847,22.4445 -4.97835,3.11103 -11.8193,10.2165 -15.9284,11.5843"/>
   <path id="_197929128" class="fil0 str2" d="M299.362 401.95c-3.90709,4.18111 -38.7744,46.2626 -53.5772,49.9571"/>
   <path id="_197929680" class="fil0 str2" d="M333.391 383.125c-29.5028,41.5335 -9.11457,19.8473 -35.4768,44.165 -7.32638,6.75945 -18.9437,13.5732 -23.8925,20.9965"/>
   <path id="_197929704" class="fil0 str2" d="M353.664 377.333c-18.7441,30.8457 -12.1937,26.4638 -30.4087,39.8209"/>
   <path id="_197929608" class="fil0 str2" d="M378.28 383.849c-11.0728,8.95867 -29.752,21.8103 -39.0969,34.7528 -1.12795,1.56142 -3.60591,3.63425 -3.62008,3.62008"/>
   <path id="_197929560" class="fil0 str2" d="M400.725 380.229c-10.5602,10.0913 -20.3551,19.6311 -31.1327,28.9607 -4.38426,3.7937 -9.0378,7.22127 -12.3083,11.5843"/>
   <path id="_197929392" class="fil0 str2" d="M428.237 378.781c-14.5016,13.5874 -31.8225,31.7634 -48.5091,43.441"/>
   <path id="_197929200" class="fil0 str2" d="M455.75 377.333c-12.861,9.9378 -26.4449,21.6921 -39.8209,31.1327 -3.60827,2.54764 -10.1799,9.18662 -13.0323,10.1362"/>
   <path id="_197929752" class="fil0 str2" d="M468.782 369.369c-7.46575,10.9571 -14.6634,21.6142 -23.8925,31.1327 -2.77323,2.85945 -5.23701,5.37638 -7.96418,8.6882"/>
   <path id="_197929488" class="fil0 str2" d="M492.675 383.849c-12.189,8.82993 -25.0217,20.0965 -38.3729,27.5126"/>
   <path id="_197929344" class="fil0 str2" d="M520.187 384.573c-13.4894,10.0547 -28.6512,22.6795 -43.441,31.1327"/>
   <path id="_197929464" class="fil0 str2" d="M536.84 399.053c-8.00552,6.00355 -16.1811,12.8303 -24.6166,18.1004"/>
   <path id="_197929152" class="fil0 str2" d="M226.237 536.617c11.8169,14.1284 16.3949,20.1815 26.0646,30.4087 1.39134,1.47284 7.05709,9.96615 7.96418,7.24016"/>
   <path id="_197929848" class="fil0 str2" d="M247.957 540.237c11.2902,13.6028 20.7142,24.7323 32.5807,36.9248 1.76103,1.81063 3.35788,3.34843 5.06811,5.79213"/>
   <path id="_197928648" class="fil0 str2" d="M279.09 548.201c7.70788,13.076 15.3992,27.991 26.0646,39.0969 1.85906,1.93465 9.76536,10.6654 9.41221,10.1362"/>
   <path id="_197928600" class="fil0 str2" d="M301.534 556.889c12.5776,11.5713 21.9047,19.4634 34.7528,28.2366 5.53701,3.77953 8.47205,9.86812 7.96418,15.2043"/>
   <path id="_197928816" class="fil0 str2" d="M339.183 556.889c8.01024,14.3528 12.9815,24.7795 23.8925,35.4768 1.98189,1.9441 10.1362,11.1496 10.1362,5.79213"/>
   <path id="_197928768" class="fil0 str2" d="M350.044 540.237c18.6685,21.3354 21.1973,25.5933 38.3729,39.8209 1.73977,1.44213 15.3791,10.8602 15.2043,10.8602"/>
   <path id="_197928336" class="fil0 str2" d="M397.105 564.129c6.32126,9.41812 14.0055,22.4858 23.8925,28.9607 4.18819,2.7437 6.99804,7.77284 11.5843,8.6882"/>
   <path id="_197928384" class="fil0 str2" d="M418.825 549.649c8.92087,11.7756 18.8575,26.4272 29.6847,36.9248 4.6252,4.48583 8.69292,7.24489 13.0323,11.5843"/>
   <path id="_197928504" class="fil0 str2" d="M455.026 552.545c8.76379,14.9788 18.4925,33.1134 34.0288,41.9929"/>
   <path id="_197929056" class="fil0 str2" d="M485.435 559.061c3.39213,5.06103 11.811,20.0528 18.8244,26.7886 1.94173,1.86614 7.2189,6.53032 9.41221,5.06811"/>
   <path id="_197928552" class="fil0 str2" d="M508.603 560.509c3.29646,3.12638 15.2162,13.4823 19.5484,19.5484 0.0732284,0.103937 1.38898,2.04095 1.44803,2.17205 2.4378,5.3941 1.85906,2.3315 -3.62008,5.79213"/>
   <path id="_197928864" class="fil0 str2" d="M654.13 392.537c3.65551,23.1591 9.02835,41.4012 15.2043,62.2654 4.70906,15.9059 22.8166,44.3953 16.6524,62.2654 -7.7067,22.3465 -18.9626,34.4693 -15.2043,60.8174"/>
   <path id="_197928840" class="fil0 str2" d="M578.109 393.985c23.1166,-2.05866 23.7213,-3.42992 42.717,2.89607 2.50394,0.833859 11.8536,2.97756 12.3083,4.3441"/>
   <path id="_197928792" class="fil0 str2" d="M570.145 427.29c18.4087,1.06417 36.3591,2.5063 54.3012,5.06811"/>
   <path id="_197928408" class="fil0 str2" d="M574.489 459.147c22.1268,7.99489 35.1969,14.524 57.1973,10.8602"/>
   <path id="_197928936" class="fil0 str2" d="M570.869 497.52c19.089,6.56575 28.7209,13.4693 47.0611,10.1362 4.49174,-0.816142 10.5945,-0.305906 15.2043,-0.724016"/>
   <path id="_197928912" class="fil0 str2" d="M568.697 527.928c10.2803,4.47284 44.7697,24.1004 59.3693,11.5843"/>
   <path id="_197928984" class="fil0 str2" d="M558.56 537.341c7.38308,2.94449 70.0276,32.1095 84.7099,13.7563"/>
   <path id="_197936424" class="fil0 str2" d="M570.145 567.749c16.2414,5.95985 57.2126,22.4292 73.8497,5.79213"/>
   <path id="_197936352" class="fil0 str2" d="M564.352 375.885c21.6957,1.23898 36.9154,1.26142 57.1973,5.79213 7.26497,1.62165 23.1366,3.29055 28.2366,9.41221"/>
   <path id="_197936160" class="fil0 str2" d="M572.317 413.534c25.2886,-0.647245 45.0307,-1.9004 65.1615,13.7563"/>
   <path id="_197936064" class="fil0 str2" d="M552.044 388.917c-13.2449,28.3843 -14.4225,52.0973 -8.6882,82.5379 1.63819,8.69764 2.55945,41.5394 7.24016,47.7851"/>
   <path id="_197936040" class="fil0 str2" d="M533.944 443.218c0.165354,1.5189 6.5256,41.0114 2.89607,47.0611"/>
   <path id="_197936280" class="fil0 str2" d="M519.463 446.839c1.9441,15.7146 2.89607,16.226 2.89607,25.3406 0,2.2689 0.817323,1.96181 7.96418,3.62008 0.636615,-0.424016 0.26811,-4.57796 0,-6.51615 -1.2378,-8.91261 -2.1248,-17.8228 -2.89607,-26.7886"/>
   <path id="_197936208" class="fil0 str2" d="M520.911 459.147c-1.85906,4.72678 -6.68741,12.1689 -5.79213,16.6524 0.933072,4.66654 2.79567,1.19528 10.8602,-0.724016"/>
   <path id="_197936184" class="fil0 str2" d="M502.087 459.871c4.31929,8.63977 3.99213,5.47323 5.06811,12.3083 0.157087,0.99567 0.479528,1.19173 0.724016,2.17205"/>
   <path id="_197936016" class="fil0 str2" d="M880.748 549.649c19.1847,-7.15749 22.2768,-8.62914 32.5807,-23.1685 4.34764,-6.13347 7.65827,-10.2803 7.96418,-18.1004 0.109843,-2.80512 1.37008,-8.92205 0.724016,-7.24016 -3.00709,7.81418 -2.77914,15.0768 -7.24016,23.1685 -4.68662,8.49804 -13.0028,14.8772 -20.2725,21.7205"/>
   <path id="_197935416" class="fil0 str2" d="M821.378 561.957c11.2937,-4.0937 26.9551,-9.57875 36.2008,-18.8244 3.65079,-3.65079 6.30119,-7.67599 8.91733,-1.34528 6.04607,0.862205 13.5461,-4.21418 18.3721,-7.9441 1.33819,-1.03465 4.68426,-4.96418 0.992127,-1.49055 -1.35827,1.27913 -5.34449,3.56339 -7.44804,4.96536 -7.63583,5.08937 -13.9689,6.45473 -23.3362,9.43465"/>
   <path id="_197935800" class="fil0 str2" d="M800.382 548.201c26.6126,-2.70591 31.9925,-2.34803 49.9571,-15.9284 5.38111,-4.0689 11.5488,-11.4295 13.0323,-17.3764"/>
   <path id="_197935848" class="fil0 str2" d="M800.382 572.093c24.0378,-2.89252 29.654,-4.02048 49.2331,-10.8602 1.47047,-0.512599 23.0705,-7.66772 23.1685,-7.96418"/>
   <path id="_197935680" class="fil0 str2" d="M792.418 404.846c23.2666,0.509056 43.6926,-1.73504 62.9894,10.1362 7.29568,4.48701 4.74922,18.9815 0.724016,24.6166"/>
   <path id="_197935968" class="fil0 str2" d="M835.135 414.258c12.0484,9.96261 16.6524,12.7217 16.6524,27.5126 0,4.78701 -5.47323,15.6508 -7.24016,20.2725"/>
   <path id="_197935656" class="fil0 str2" d="M859.751 426.566c12.2469,1.16575 7.54371,-1.14449 13.7563,5.06811 7.14331,7.14331 10.7528,10.3949 11.5843,20.9965 0.291733,3.71575 -1.65945,17.4685 -2.17205,15.9284"/>
   <path id="_197935728" class="fil0 str2" d="M776.489 432.358c7.23426,-5.00197 21.1807,-17.1047 31.8567,-18.1004 13.6441,-1.27205 8.23111,6.24095 16.6524,-8.6882"/>
   <path id="_197935632" class="fil2 str2" d="M867.715 427.29c17.3599,5.35748 23.2181,5.68465 31.1327,20.2725 1.29685,2.38937 5.31142,12.1063 4.3441,15.2043 -1.17638,3.76418 -1.44803,9.71339 -1.44803,12.3083 0,0.724016 1.50473,-8.74135 2.17205,-12.3083 2.54646,-13.6134 -8.21221,-17.3681 -15.2043,-26.7886 -1.49055,-2.00788 -9.99686,-10.9984 -5.06811,-6.51615 7.88386,7.17166 15.841,16.141 19.5484,26.7886 1.77284,5.08937 1.44803,11.7366 1.44803,15.9284 0,4.12441 0.724016,-4.87323 0.724016,-5.06811 0,-16.6429 -14.9847,-26.5689 -25.3406,-36.9248 -0.72756,-0.72756 7.43386,4.76811 9.41221,7.24016 6.68741,8.36103 11.2169,18.3343 13.0323,28.9607 1.65118,9.66969 1.2378,-2.79803 0,-6.51615 -3.16181,-9.49725 -10.7421,-18.6201 -17.3764,-26.7886 -3.32835,-4.09725 -5.34449,-6.62481 -9.41221,-10.1362 -1.03347,-0.892914 -3.78307,-2.53819 -5.06811,-3.62008 -4.19055,-3.52677 -2.55827,-6.96615 -2.89607,7.96418z"/>
   <path id="_197935896" class="fil0 str2" d="M884.368 427.29c9.72639,4.8626 8.72009,3.6815 12.3083,10.8602 1.50945,3.02244 4.04174,8.02442 4.3441,11.5843 0.144095,1.69252 2.03268,12.926 0.724016,5.06811"/>
   <path id="_197935824" class="fil0 str2" d="M899.572 541.685c5.73426,-12.5114 5.24528,-14.5665 12.3083,-22.4445 3.46181,-3.86221 8.19686,-10.7894 9.41221,-15.9284 0.441733,-1.87205 3.52441,-9.6567 3.62008,-8.6882 1.04173,10.4835 -2.76142,17.6516 -9.41221,25.3406 -3.99685,4.62284 -13.4291,9.69213 -15.9284,13.7563 -3.08622,5.01615 2.29134,2.35984 4.3441,1.44803 14.3788,-6.38623 24.6166,-26.191 24.6166,-40.5449"/>
  </g>
 </g>
</svg>
