<?xml version="1.0" encoding="UTF-8"?>
<!DOCTYPE svg PUBLIC "-//W3C//DTD SVG 1.1//EN" "http://www.w3.org/Graphics/SVG/1.1/DTD/svg11.dtd">
<!-- Creator: CorelDRAW -->
<svg xmlns="http://www.w3.org/2000/svg" xml:space="preserve" width="1000px" height="1000px" style="shape-rendering:geometricPrecision; text-rendering:geometricPrecision; image-rendering:optimizeQuality; fill-rule:evenodd; clip-rule:evenodd"
viewBox="0 0 1000 1000"
 xmlns:xlink="http://www.w3.org/1999/xlink">
 <defs>
  <style type="text/css">
   <![CDATA[
    .str1 {stroke:#1F1A17;stroke-width:4.16693}
    .str0 {stroke:#1F1A17;stroke-width:8.33386}
    .fil2 {fill:none}
    .fil1 {fill:white}
    .fil0 {fill:#EEC2C6}
   ]]>
  </style>
 </defs>
 <g id="Warstwa_x0020_1">
  <metadata id="CorelCorpID_0Corel-Layer"/>
  <circle class="fil0" cx="505.447" cy="499.474" r="485.835"/>
  <g id="_229186176">
   <path id="_229187904" class="fil1 str0" d="M173.896 202.48c16.5142,10.6099 27.9673,14.6079 42.0886,23.4343 17.0516,10.6571 21.8646,29.1945 45.9449,32.3315 31.6299,4.12205 41.0658,1.62992 62.9623,15.3154 2.79567,1.74685 62.0445,30.5386 35.7355,20.4201 -18.0827,-6.95316 -45.287,1.70197 -59.5595,1.70197 -27.3343,0 -73.6831,-8.50867 -112.31,-8.50867 -21.476,0 -21.2362,-10.7209 -34.0347,-18.7181 -5.27363,-3.29764 -40.5697,-7.59449 -39.1382,3.40276 0.65315,5.01024 38.2016,8.50867 30.6307,8.50867 -39.1748,0 -63.4831,10.2095 -8.50867,10.2095 51.1619,0 -10.8579,1.70197 -27.2268,1.70197 -23.9953,0 59.9008,8.50867 34.0335,8.50867 -64.7103,0 25.063,17.0173 51.0508,17.0173 19.4799,0 50.0634,8.50749 79.9784,8.50749 44.0303,0 79.1741,8.50867 119.118,8.50867 45.4855,0 27.7406,79.0194 51.0508,86.7863 -3.74646,5.42481 -6.56693,10.9984 -6.56693,17.4791 -1.62047,0.540945 -0.859843,15.8835 -0.859843,18.913 1.15984,0.386221 1.71969,4.23189 1.71969,6.0189 1.43622,0.478347 0.859843,1.73977 0.859843,3.43819 1.07362,0.357874 1.71969,2.70236 1.71969,4.29803 1.38662,0.462992 0.859843,0.927166 0.859843,2.57953 1.43622,0.478347 0.858662,1.73977 0.858662,3.43819 -2.52638,0.360237 -2.70591,1.71969 -5.15788,1.71969 -0.625985,1.88032 -2.8311,1.0063 -3.43819,3.43937l-1.71969 0c-0.480709,1.9252 -2.09764,2.37284 -2.57953,4.29803 -1.51299,0.50315 -1.06536,2.0752 -2.57835,2.57953l0 1.71851c-1.39961,0.466536 -2.57953,5.65748 -2.57953,7.73741 -1.46929,0.488977 -0.703938,26.0292 -1.71851,30.0898l-0.859843 0.858662c-1.56732,0.392126 -1.87323,1.32874 -3.43937,1.71969 -0.328347,0.987402 -3.65906,3.92363 -5.15788,4.29803 -0.403937,1.21181 -2.22756,3.03544 -3.43937,3.43937 -0.390945,1.56614 -1.32756,1.87205 -1.71851,3.43819 -1.9748,0.493701 -1.15866,1.24606 -2.57953,1.71969l0 1.71969c-1.09134,0.362599 -6.87756,11.8854 -6.87756,13.7551 -2.4378,0.811418 -7.73741,24.5055 -7.73741,29.2288 -1.08307,0.361418 -6.01772,15.6921 -6.01772,18.0543 -1.07362,0.357874 -1.71851,2.70118 -1.71851,4.29803 -0.659056,0.219685 -2.28543,3.11929 -2.57953,4.29803 -1.40315,0.467717 -1.17638,1.25197 -2.57953,1.71969 -0.688583,2.7567 -2.74961,4.97953 -3.43819,7.73741 -5.60788,1.86851 -4.41615,28.8366 -6.01772,35.2465 -1.66299,0.415748 -2.16378,0.916536 -2.57953,2.57953 -4.18229,1.04528 -3.43583,6.66142 -7.73741,7.73741 -0.394488,1.58032 -0.138189,1.3252 -1.71851,1.71851 -0.529134,2.11772 -4.85433,7.2319 -6.87756,7.73741 -0.394488,1.5815 -0.138189,1.3252 -1.71969,1.71969 -0.467717,1.40315 -1.25197,1.17638 -1.71969,2.57953 -1.78583,0.446457 -2.15197,1.7315 -2.57835,3.43819 -1.51417,0.504331 -1.06654,2.0752 -2.57953,2.57953l0 1.71851c-1.14921,0.383859 -1.35945,1.13858 -1.71969,2.57953 -0.996851,0.33189 -3.07441,2.84055 -3.43819,4.29803 -1.67835,0.559843 -0.0413386,0.301181 -1.71969,0.859843 -0.394488,1.5815 -0.138189,1.3252 -1.71969,1.71969 -0.376772,1.50709 -4.15985,6.54567 -5.15788,6.87756 0,2.56299 -1.71969,2.59488 -1.71969,5.15788 -1.35945,0.452363 -1.71851,1.66654 -1.71851,3.43937 -1.32638,0.440552 -0.859843,-0.0295276 -0.859843,1.71851 -1.32638,0.441733 -0.859843,-0.0283465 -0.859843,1.71969 -1.14921,0.382677 -1.35945,1.1374 -1.71969,2.57953 -1.14921,0.382677 -1.35945,1.1374 -1.71969,2.57835 -1.67717,0.559843 -0.0413386,0.301181 -1.71851,0.859843l0 1.71969c-1.67835,0.558662 -0.0425197,0.301181 -1.71969,0.859843 0,2.31614 -1.22717,2.32677 -1.71969,4.29803 -1.96299,0.654331 -2.33504,2.78504 -4.29803,3.43937 -0.394488,1.58032 -0.138189,1.32402 -1.71969,1.71851 -0.393307,1.57559 -1.30512,3.87402 -2.57835,4.29922l0 1.71851c-1.43622,0.478347 -3.43937,4.88032 -3.43937,6.87756 -1.07362,0.357874 -1.71969,2.70236 -1.71969,4.29922 -1.15866,0.386221 -1.71851,4.23189 -1.71851,6.01772 -0.839764,0.279921 -4.29922,16.4575 -4.29922,18.913 -0.823229,0.274016 -2.57835,6.14528 -2.57835,7.73741 -0.93189,0.309449 -3.43937,10.7339 -3.43937,12.8953 -1.38662,0.461811 -0.859843,0.927166 -0.859843,2.57835 -1.46457,0.488977 -0.859843,2.53819 -0.859843,4.29922 -0.925985,0.307087 -1.71851,3.67441 -1.71851,5.15788 -1.43622,0.478347 -0.859843,1.73977 -0.859843,3.43819 -2.01496,0.672048 -2.57953,9.92599 -2.57953,12.8953 -1.54725,0.516142 -0.859843,4.9252 -0.859843,6.87756 -14.5075,10.8803 -4.58977,34.3878 -29.2288,34.3878 -27.2941,0 26.5193,55.7339 44.7036,26.6504 10.5236,-16.8295 7.16575,-47.4237 19.7729,-67.9158 18.2433,-29.6492 40.3205,-55.6654 53.3008,-89.4072 14.0232,-36.4512 43.9701,-49.3796 56.739,-87.6875 0,34.4681 21.2551,54.7264 1.71969,85.9678 -22.2473,35.5807 0.258662,131.792 19.7729,151.305 32.8642,32.8654 -30.5788,66.6969 47.2831,75.6532 25.4044,2.92205 -11.0032,-57.3248 -15.4748,-64.4776 -5.66575,-9.06024 -9.46064,-56.7319 -5.15788,-67.9146 4.20709,-10.9406 3.19016,-38.3977 -3.43937,-49.0028 -7.55552,-12.0827 11.439,-60.2623 12.8953,-77.3717l3.43937 -40.4055c0.383859,-4.51181 12.3343,-33.5268 7.73741,-33.5268 12.6059,22.4126 5.6315,82.3347 -1.71969,101.443 -5.61024,14.5843 -15.0331,74.9091 -9.45709,89.4072 8.16142,21.2126 8.73662,49.3678 17.1945,71.354 3.49725,9.09213 9.68741,59.55 11.1756,61.0382 6.86339,6.86339 41.5512,3.70866 54.1607,5.15788 36.3296,4.17756 76.402,-4.26733 18.913,-21.4925 -55.5662,-16.6488 -44.7036,-64.7398 -44.7036,-124.654 0,-33.763 -2.14606,-43.6429 8.59607,-74.7934 3.62244,-10.5024 2.79567,-28.4374 5.15788,-38.6859 2.9504,-12.7973 11.1768,-19.2142 11.1768,-35.2477 0.745276,1.57441 3.48189,8.89961 5.15788,9.45709l0 1.71969c1.51299,0.50315 1.06536,2.0752 2.57953,2.57835 0,1.94055 0.858662,2.35866 0.858662,4.29922 1.3878,0.461811 0.859843,0.927166 0.859843,2.57835 1.0748,0.357874 1.71969,2.70236 1.71969,4.29922 1.32638,0.440552 0.859843,-0.0295276 0.859843,1.71851 1.56496,0.522048 0.630709,2.78977 2.57953,3.43937 0,3.13937 2.57835,5.31851 2.57835,8.59607 1.32638,0.441733 0.859843,-0.0283465 0.859843,1.71969 2.17559,0.725197 2.12362,5.2937 4.29803,6.01772 0,3.7004 3.43937,4.56851 3.43937,8.59725 1.46457,0.487796 0.859843,2.53701 0.859843,4.29803 1.28858,0.429922 4.29803,17.8288 4.29803,19.7729 1.09961,0.366142 2.57953,5.14252 2.57953,6.87756 1.19528,0.399213 2.57835,5.93268 2.57835,7.73741 1.15984,0.386221 1.71969,4.23189 1.71969,6.01772 0.836221,0.277559 1.71969,4.60867 1.71969,6.01772 1.3252,0.441733 0.859843,-0.0283465 0.859843,1.71969 1.3252,0.441733 0.858662,-0.0295276 0.858662,1.71969 1.59095,0.529134 5.15906,7.16693 5.15906,9.45591 1.38662,0.461811 0.859843,0.927166 0.859843,2.57953 1.62165,0.539764 1.71851,3.913 1.71851,6.01772 1.32638,0.441733 0.859843,-0.0295276 0.859843,1.71969 1.32638,0.440552 0.859843,-0.0295276 0.859843,1.71851 4.51536,1.50591 6.55276,9.45709 13.7551,9.45709 0.624804,1.87677 3.67323,1.5626 4.29803,3.43819l1.71969 0 0.859843 0.859843 -0.859843 0.859843c0,10.9039 5.15788,19.1232 5.15788,27.5103 1.32638,0.441733 0.859843,-0.0295276 0.859843,1.71969 1.89685,0.63189 15.8776,9.80316 16.3347,11.1756l1.71851 0c0.501969,1.50709 3.79725,2.79095 4.29922,4.29803l1.71851 0c1.49646,4.48701 12.8953,8.99764 12.8953,15.4748 1.3878,0.461811 0.859843,0.927166 0.859843,2.57953 1.36772,0.454725 1.71969,3.27402 1.71969,5.15788 1.46457,0.487796 0.859843,2.53701 0.859843,4.29803 1.54725,0.514961 1.71969,7.10197 1.71969,9.45709 1.38662,0.461811 0.858662,0.927166 0.858662,2.57835 1.3878,0.461811 0.859843,0.927166 0.859843,2.57953 1.43622,0.478347 0.859843,1.73977 0.859843,3.43819 1.51063,0.50315 1.25433,6.72284 4.29922,7.73741l0 1.71969c1.43386,0.357874 3.09095,1.53543 3.43819,2.57835l1.71969 0c0.487796,1.46457 2.53701,0.859843 4.29803,0.859843 0.441733,-1.3252 -0.0295276,-0.859843 1.71969,-0.859843 0.65315,-1.96181 2.78504,-2.33504 3.43819,-4.29803l1.71969 0c0.467717,-1.40315 1.25197,-1.17638 1.71969,-2.57953l1.71851 0c0.441733,-1.3252 -0.0283465,-0.858662 1.71969,-0.858662 0.487796,-1.46457 2.53819,-0.859843 4.29922,-0.859843 0.309449,-0.93189 11.7,-2.57953 13.7539,-2.57953 0.479528,-1.43622 1.74095,-0.859843 3.43937,-0.859843 0.461811,-1.38662 0.927166,-0.859843 2.57953,-0.859843 0.692127,-2.07992 4.4067,-2.04685 5.15788,-4.29803l1.71851 0c1.14803,-3.44646 10.0512,-5.22048 11.1768,-8.59725l1.71851 0c0.441733,-1.3252 -0.0283465,-0.858662 1.71969,-0.858662 0.584646,-1.75748 2.81929,-1.58032 3.43937,-3.43937l1.71851 0c0.559843,-1.67717 0.301181,-0.0413386 0.859843,-1.71969l1.71969 0 0 -1.71851c1.51299,-0.504331 1.06536,-2.07638 2.57953,-2.57953l0 -5.15788c-1.32638,-0.441733 -0.859843,0.0283465 -0.859843,-1.71969 -0.874016,-0.290551 -3.08504,-1.51536 -3.43937,-2.57953l-1.71851 0c-1.12441,-3.37323 -11.0114,-0.858662 -13.7551,-0.858662 -0.441733,1.3252 0.0283465,0.858662 -1.71969,0.858662 -0.441733,1.32638 0.0295276,0.859843 -1.71969,0.859843 -0.440552,1.32638 0.0295276,0.859843 -1.71969,0.859843 -1.61811,4.85552 -21.4713,0 -24.9307,0 -0.440552,-1.3252 0.0295276,-0.859843 -1.71851,-0.859843 -0.441733,-1.3252 0.0283465,-0.859843 -1.71969,-0.859843 -0.282284,-0.846851 -7.4504,-9.07442 -8.59725,-9.45591l0 -1.71969c-1.32638,-0.440552 -0.859843,0.0295276 -0.859843,-1.71969 -1.3252,-0.440552 -0.859843,0.0295276 -0.859843,-1.71851 -1.73386,-0.57756 -1.71851,-2.27362 -1.71851,-4.29922 -1.67835,-0.558662 -0.0425197,-0.3 -1.71969,-0.859843l0 -1.71851c-1.51299,-0.504331 -1.06536,-2.0752 -2.57953,-2.57953l0 -1.71969c-1.35945,-0.452363 -1.71851,-1.66536 -1.71851,-3.43819 -1.32638,-0.441733 -0.859843,0.0295276 -0.859843,-1.71969 -1.36772,-0.455906 -1.71969,-3.27402 -1.71969,-5.15788 -1.32638,-0.441733 -0.859843,0.0295276 -0.859843,-1.71969 -1.32638,-0.440552 -0.859843,0.0295276 -0.859843,-1.71969 -1.38662,-0.461811 -0.859843,-0.927166 -0.859843,-2.57835 -0.992127,-0.330709 -2.57835,-4.35118 -2.57835,-6.01772 -1.32638,-0.441733 -0.859843,0.0283465 -0.859843,-1.71969 -1.39961,-0.466536 -2.57953,-5.6563 -2.57953,-7.73741 -1.38662,-0.461811 -0.859843,-0.927166 -0.859843,-2.57835 -1.35473,-0.452363 -2.57835,-7.20945 -2.57835,-9.45709 -1.36772,-0.455906 -1.71969,-3.27402 -1.71969,-5.15788 -1.07362,-0.357874 -1.71969,-2.70236 -1.71969,-4.29803 -1.3252,-0.441733 -0.859843,0.0283465 -0.859843,-1.71969 -1.51299,-0.504331 -1.06536,-2.0752 -2.57835,-2.57953l0 -1.71969c-1.40315,-0.466536 -1.17638,-1.25197 -2.57953,-1.71851l0 -1.71969c-1.17638,-0.392126 -5.15788,-11.5028 -5.15788,-13.7551 -1.3878,-0.461811 -0.859843,-0.927166 -0.859843,-2.57835 -1.43622,-0.479528 -0.859843,-1.74095 -0.859843,-3.43937 -1.69843,-0.565748 -1.72677,-8.96103 -2.57835,-11.1756 -3.38977,-8.81457 -21.4925,-20.5087 -21.4925,-28.3701 -1.78465,-0.594095 -2.57953,-4.63583 -2.57953,-6.87756 -1.8874,-0.628347 -1.71851,-6.91772 -1.71851,-9.45591 -0.458268,-0.152362 -2.57953,-8.09056 -2.57953,-9.45709 -1.3878,-0.461811 -0.859843,-0.927166 -0.859843,-2.57953 -1.38662,-0.461811 -0.859843,-0.927166 -0.859843,-2.57835 -1.3252,-0.441733 -0.859843,0.0295276 -0.859843,-1.71969 -1.3252,-0.441733 -0.858662,0.0295276 -0.858662,-1.71969 -1.43622,-0.478347 -0.859843,-1.73977 -0.859843,-3.43819 -1.3878,-0.461811 -0.859843,-0.927166 -0.859843,-2.57953 -1.3878,-0.461811 -0.859843,-0.927166 -0.859843,-2.57835 -1.32638,-0.441733 -0.859843,0.0283465 -0.859843,-1.71969 -1.51299,-0.504331 -1.06536,-2.0752 -2.57835,-2.57953l0 -1.71851c-1.40197,-0.466536 -2.57953,-3.26339 -2.57953,-5.15906 -1.22835,-0.408662 -1.71969,-11.2984 -1.71969,-13.7539 1.3878,-0.462992 0.859843,-0.928347 0.859843,-2.57953 2.01378,-0.670867 1.71969,-7.64528 1.71969,-10.3158 3.69803,-1.23307 -1.71969,-17.1815 -1.71969,-19.7729 -1.32638,-0.441733 -0.859843,0.0283465 -0.859843,-1.71969 -1.94173,-0.647245 -2.66575,-7.76694 -5.15788,-8.59725l0 -1.71969c-1.87677,-0.624804 -1.5626,-3.67205 -3.43819,-4.29803l0 -1.71969c-1.51417,-0.50315 -1.06654,-2.0752 -2.57953,-2.57835l0 -1.71969c-1.67835,-0.558662 -0.0413386,-0.301181 -1.71969,-0.859843 0,-3.75118 -2.57835,-5.88308 -2.57835,-9.45591 -0.993308,-0.33189 -2.57953,-4.35237 -2.57953,-6.0189 -2.26418,-0.753544 -2.99882,-7.87678 -5.15788,-8.59607 0,-1.94055 -0.859843,-2.35866 -0.859843,-4.29922 -1.32638,-0.440552 -0.859843,0.0295276 -0.859843,-1.71851 -1.56496,-0.522048 -0.630709,-2.78977 -2.57953,-3.43937 0,-1.93937 -0.858662,-2.35866 -0.858662,-4.29803 -1.32638,-0.441733 -0.859843,0.0295276 -0.859843,-1.71969 -3.66024,-1.22008 -5.9256,-12.2917 -10.3169,-13.7551l0 -3.43819c-4.30985,-3.35197 1.49055,-27.7748 -6.01772,-36.9674 -20.791,-25.4492 -5.38819,-28.6323 -11.015,-64.8485 -0.648426,-4.17992 -4.37126,-9.69804 -1.31457,-11.8571 10.4232,-7.36064 3.81851,-34.2166 15.9012,-46.5768 3.44055,-3.51969 0.661418,-23.7591 1.07008,-25.7788 1.84606,-9.09095 15.3815,-13.8366 24.3886,-22.8449 1.4315,-1.43032 11.9504,-2.64567 27.6012,0.183071 11.9847,2.16614 18.1878,-8.23583 22.8355,-5.89843 3.84449,1.93465 48.0213,1.91457 49.4859,3.10512 7.93347,6.44174 37.754,4.54134 61.0607,0.581103 10.5933,-1.8 11.7201,-4.54725 23.1106,-6.21142 23.3717,-3.41575 49.8189,-1.76575 60.2563,-2.96575 26.4213,-3.0378 68.5701,2.67166 22.3524,-11.1768 -0.989765,-0.296457 61.1044,-6.5693 21.4925,-19.7729 27.613,0 -25.7445,-11.1756 -40.4055,-11.1756 -28.7303,0 -12.7642,13.7421 -46.9807,13.7421 -4.72087,0 -18.7654,-0.822048 -38.8382,-1.56851 -20.1839,-0.748819 -60.8764,-8.39764 -61.513,6.2563 -0.10748,2.51693 -1.34528,0.0200788 -6.66024,-1.48465 -23.2878,-6.5941 -46.8473,-4.1752 -46.2544,-1.94291 30.5067,-24.0461 56.0174,-20.5878 89.0505,-35.3788 16.461,-7.37127 28.9358,-19.761 44.3374,-26.602 8.8382,-3.92481 44.5441,-13.911 39.4607,-21.398 -2.55945,10.2378 19.8484,-3.3378 21.7252,-5.64804 4.6441,-5.7189 15.1949,-9.06733 21.2823,-13.3016 9.013,-6.2693 13.9595,-18.9851 5.32087,-11.9705 -5.89489,4.78583 -22.4173,6.32599 -13.3016,1.77284 8.48741,-4.23898 39.6355,-19.4917 12.4146,-15.9614 -27.4264,3.55748 17.8831,-5.61497 9.75355,-13.7445 -9.77717,-9.77717 -58.5827,12.5599 -63.4016,20.3953 -18.952,30.8091 -61.1516,23.276 -95.3257,40.3465 -13.5626,6.77599 -36.3674,29.263 -47.4414,29.263 -21.013,0 -35.6516,15.0744 -48.7713,15.0744 -0.36378,2.18977 -9.93544,-1.62402 -11.0835,-1.77284 -14.948,-1.93819 -31.2236,-1.71851 -39.4607,8.42363 -3.21378,3.95906 -12.9791,4.03465 -17.2914,7.5378 -8.46261,6.87166 -6.61182,1.80236 -13.7445,-3.54685l0.442914 0.887009c1.19528,-1.29567 1.37953,-2.21693 2.65984,-2.21693 0.474804,-1.42677 3.10984,-1.79291 3.54685,-3.10394l0.887009 0c0.209055,-0.624804 1.14921,-1.56496 1.77402,-1.77402l0 -0.885827c0.683859,-0.227953 0.442914,0.0153543 0.442914,-0.887009 0.441733,-0.147638 2.61732,-3.85748 2.66103,-3.99095 0.912993,0 1.54016,-0.185433 1.77284,-0.887009 2.16969,0 2.77323,-2.69764 3.99095,-3.10276l0 -1.32992c0.700394,-0.233858 0.885827,-7.78583 0.885827,-9.31182 0.683859,-0.227953 0.444095,0.0165354 0.444095,-0.885827 0.683859,-0.227953 0.442914,0.0153543 0.442914,-0.887009 2.93858,-0.979135 5.2063,-5.87481 7.5378,-6.65079l0 -0.887009c0.683859,-0.227953 0.442914,0.0153543 0.442914,-0.887009 0.683859,-0.227953 0.444095,0.0165354 0.444095,-0.885827 0.714567,-0.238583 0.442914,-0.479528 0.442914,-1.3311 0.772442,-0.256299 0.442914,-2.12244 0.442914,-3.10276 -0.683859,-0.227953 -0.442914,0.0153543 -0.442914,-0.887009 -0.683859,-0.227953 -0.442914,0.0153543 -0.442914,-0.887009 -0.741733,-0.246851 -0.444095,-0.897639 -0.444095,-1.77284 -0.683859,-0.227953 -0.442914,0.0153543 -0.442914,-0.887009 2.45433,-0.612993 3.00709,-3.36733 4.87678,-3.99095l0 -0.885827c3.22087,-1.07362 0.329528,-7.88032 0,-8.86772l-1.32992 0c-0.263386,-0.791339 -3.34252,-0.444095 -4.43386,-0.444095 -2.44488,7.33465 -4.43386,-3.92599 -4.43386,-6.64961 0.683859,-0.227953 0.444095,0.0153543 0.444095,-0.887009 1.46575,-0.366142 1.94173,-2.27362 3.10276,-2.66103 0,-1.35354 0.444095,-2.81693 0.444095,-4.43268l-0.444095 -0.444095 -0.887009 0c-0.258662,-0.779528 -2.52992,-0.442914 -3.54685,-0.442914 -0.173622,0.522048 -3.90827,0.887009 -4.87678,0.887009l0 -3.10394c0.683859,-0.227953 0.442914,0.0153543 0.442914,-0.887009 0.548032,-0.18189 0.705119,-0.338977 0.887009,-0.887009l0.887009 0c0.227953,-0.683859 -0.0153543,-0.442914 0.887009,-0.442914 0.168898,-0.511418 2.2441,-1.32992 3.10394,-1.32992 0.702756,-2.11181 1.32992,-3.2315 1.32992,-6.65079l-3.54685 -3.54685 -4.43386 0c-0.432284,1.29803 -3.51969,2.13189 -3.99095,3.54685 -4.65945,0 -6.2067,1.17756 -6.2067,-5.32087 0.740552,-0.246851 0.442914,-0.897639 0.442914,-1.77284 0.714567,-0.238583 0.442914,-0.479528 0.442914,-1.3311 1.98189,-0.659056 0.0980316,-7.09371 -3.10276,-7.09371 -0.227953,-0.683859 0.0153543,-0.442914 -0.887009,-0.442914 -0.232677,-0.696851 -2.4874,-1.32992 -3.54685,-1.32992 -0.227953,-0.683859 0.0153543,-0.444095 -0.887009,-0.444095 -0.33189,-0.996851 -3.86339,-5.13071 -4.43386,-5.31969l0 -0.887009 -0.442914 -0.444095 -0.887009 0c-0.288189,-0.864568 -0.154725,-0.0212599 -0.442914,-0.885827l-0.887009 0c-0.233858,-0.701575 -0.859843,-0.887009 -1.77402,-0.887009 -0.227953,-0.683859 0.0165354,-0.444095 -0.885827,-0.444095 -0.227953,-0.683859 0.0153543,-0.442914 -0.887009,-0.442914 -0.227953,-0.683859 0.0153543,-0.442914 -0.887009,-0.442914 -0.141732,-0.425197 -3.17008,-1.3311 -3.99095,-1.3311 -0.520867,-1.56378 -21.2386,-0.442914 -25.2721,-0.442914 -0.184252,-0.553937 -1.3937,-0.887009 -2.21693,-0.887009 -0.227953,-0.683859 0.0165354,-0.442914 -0.885827,-0.442914 -0.238583,-0.714567 -0.479528,-0.442914 -1.3311,-0.442914 -0.553937,-1.66417 -23.2252,0.885827 -27.0449,0.885827 -0.0826772,0.248032 -3.32599,3.32599 -3.99095,3.54685l0 0.887009c-3.25394,1.08425 -2.82874,7.09371 -10.6406,7.09371 -0.227953,0.683859 0.0153543,0.444095 -0.887009,0.444095 -0.18189,0.546851 -0.338977,0.703938 -0.887009,0.887009l0 0.885827c-0.752363,0.251575 -1.32992,2.12126 -1.32992,3.10394 -0.754725,0.250394 -0.442914,1.30866 -0.442914,2.21693 -0.765355,0.255118 -0.444095,1.71732 -0.444095,2.65984 -0.754725,0.251575 -0.442914,1.30866 -0.442914,2.21693 -0.553937,0.184252 -0.887009,1.3937 -0.887009,2.21693 -1.86851,0.622441 -2.59725,4.43386 -6.2067,4.43386 -0.227953,-0.683859 0.0153543,-0.442914 -0.887009,-0.442914 -0.184252,-0.553937 -1.3937,-0.887009 -2.21693,-0.887009 -1.05709,-3.17362 -4.87678,2.70236 -4.87678,5.32087 1.04646,0.261024 1.96181,0.885827 3.10276,0.885827 0.227953,0.683859 -0.0153543,0.444095 0.887009,0.444095 0.494882,1.48347 1.32992,1.76457 1.32992,4.43386l-0.887009 0c-0.239764,0.721654 -1.68189,1.32992 -2.65984,1.32992 -0.265748,0.800788 -4.15394,0.442914 -5.32087,0.442914 -0.17126,0.516142 -1.58386,2.45079 -2.21575,2.66103 0,1.95473 -0.887009,3.17599 -0.887009,5.31969l0.442914 0.444095 0.887009 0c0.238583,0.714567 0.478347,0.442914 1.32992,0.442914 0.558662,1.67835 1.77402,1.2626 1.77402,4.43386 -0.722835,0.240945 -1.3311,1.68307 -1.3311,2.65984 -0.779528,0.259843 -0.442914,2.5311 -0.442914,3.54685 0.89882,0.298819 1.37244,1.49291 2.21693,1.77402l0 0.887009c0.765355,0.255118 0.442914,1.71732 0.442914,2.65984l-2.65984 0c-0.257481,-0.772442 -2.12362,-0.442914 -3.10394,-0.442914 -0.398032,1.19528 -2.21693,2.08347 -2.21693,3.98977 -0.714567,0.238583 -0.442914,0.479528 -0.442914,1.32992 -0.772442,0.257481 -0.442914,2.12362 -0.442914,3.10394 0.546851,0.18189 0.703938,0.338977 0.885827,0.887009 5.97874,0 5.06339,-2.15433 10.1976,-0.442914 0,2.04567 -0.458268,2.26299 -0.885827,3.54685l-0.887009 0c-0.0425197,0.170079 -3.7689,5.09882 -4.43386,5.31969l0 2.21693 0.442914 0.444095 0.887009 0c0.258662,0.779528 2.52992,0.442914 3.54685,0.442914 0.102756,0.311811 2.7874,1.6689 3.10394,1.77402 0,4.18937 -6.20788,5.24882 -6.20788,10.6406 1.78465,0.594095 5.13307,1.32992 7.5378,1.32992 0.227953,0.683859 -0.0153543,0.444095 0.887009,0.444095l0 1.32992c-1.32638,0.330709 -2.26299,1.93701 -3.10394,2.21693l0 1.77284c1.95236,0 4.00748,0.444095 6.20788,0.444095 0.227953,0.683859 -0.0165354,0.442914 0.885827,0.442914l0 1.32992c0.765355,0.255118 0.444095,1.71732 0.444095,2.66103 0.904725,0.301181 0.814961,1.45394 1.77284,1.77284l0 1.32992c0.779528,0.259843 0.444095,2.52992 0.444095,3.54685 -0.683859,0.227953 -0.444095,-0.0153543 -0.444095,0.887009 -0.28937,0.0956694 -2.51221,1.77402 -2.65984,2.21693l-0.887009 0c-0.227953,0.683859 0.0153543,0.442914 -0.887009,0.442914 -0.227953,0.683859 0.0165354,0.444095 -0.885827,0.444095 -0.227953,0.683859 0.0153543,0.442914 -0.887009,0.442914 -0.238583,0.715749 -0.478347,0.444095 -1.32992,0.444095 -0.253937,0.762993 -0.943702,0.263386 -1.54961,0.608268 -10.2189,-8.51575 -43.7563,-27.0874 -56.1544,-17.0162 -13.1669,10.6961 -19.7103,-11.3079 -34.0347,-15.3154 -17.2795,-4.83426 -14.9469,-6.60473 -31.0512,-1.70669 -3.91181,1.18819 -17.4473,-17.7201 -23.6138,-20.0894 -38.6646,-14.8677 -71.4686,-8.76733 -97.5946,-34.8933 -5.50985,-2.9811 -3.27284,-6.90119 -6.00709,-11.315 -2.81929,-4.55433 -9.30355,-4.96654 -12.8965,-9.04253 -6.86575,-7.7941 -7.23308,-9.38623 -17.8028,-9.38623 -6.17599,0 -15.1524,2.84764 -18.4878,-0.114567 -2.92559,-2.59725 -18.2268,-6.42638 -11.7555,0.915355 3.84803,4.37008 11.1992,5.74725 14.6079,9.15709 2.18386,2.18386 5.79095,8.34922 -2.39646,4.6937 -3.07559,-1.3748 -8.20158,-7.15749 -10.9559,-2.74725 -2.64095,4.22481 12.6319,10.6689 14.7225,14.8807 4.94528,9.96143 -10.5,-4.74095 -10.5,1.71732 0,5.24174 30.4347,23.3835 37.2107,20.8831z"/>
   <path id="_229187856" class="fil2 str1" d="M427.674 536.755l-0.453544 56.7225c-0.0897639,11.3492 4.02756,40.9701 0,50.3693"/>
   <path id="_229187808" class="fil2 str1" d="M425.405 657.915c6.13347,-21.4677 23.739,-28.3677 34.9406,-44.4709 8.59489,-12.3579 33.5799,-38.5642 33.5799,-54.4536"/>
   <path id="_229188120" class="fil2 str1" d="M502.094 591.662c0,9.04961 1.74567,20.0244 0,28.5886 -1.68543,8.25827 -2.99055,16.95 -4.99134,24.9579"/>
   <path id="_229187784" class="fil2 str1" d="M476.228 532.217c0,4.87323 4.84252,10.1374 9.0756,12.2516 1.80709,0.903544 12.3874,5.04095 12.7063,4.08426"/>
   <path id="_229187736" class="fil2 str1" d="M491.203 530.402c5.71536,6.15473 12.2516,11.5264 12.2516,20.4201"/>
   <path id="_229188024" class="fil2 str1" d="M515.254 530.402c0,3.75237 0.42874,8.25709 -0.454725,11.798 -0.435827,1.74685 -2.87008,9.57993 -4.08307,9.98387"/>
   <path id="_229188240" class="fil2 str1" d="M535.674 534.939c0,4.31693 0.106299,6.41693 -2.2689,9.98269 -2.55827,3.83859 -5.90315,7.88741 -9.98387,10.4374"/>
   <path id="_229187712" class="fil2 str1" d="M493.926 570.335c-0.470079,2.03977 -1.12323,4.10079 -1.81536,5.89843 -1.65118,4.29449 -3.93662,12.7512 0,14.9752 5.38583,3.04016 10.4374,-2.05748 10.4374,-6.8067"/>
   <path id="_229188096" class="fil2 str1" d="M502.094 559.444c0,6.54686 0.907087,12.3177 0.907087,19.0583 0,5.02441 0.200788,8.47442 3.17717,10.891 4.27796,3.47362 9.55985,-10.3205 9.0756,-14.0669 -0.109843,-0.848032 -1.23425,-2.18977 -1.36181,-3.17599 -0.302362,-2.3315 1.36181,-3.95788 1.36181,-6.8067 0,-3.7004 -1.01575,-4.40552 -1.81536,-6.80788"/>
   <path id="_229188000" class="fil2 str1" d="M514.799 561.713c3.49843,3.62835 3.54095,2.85118 4.5378,5.44489 0.323622,0.842127 -0.0543308,1.49528 0.908268,1.81536 0.43937,2.19685 2.2689,4.41733 2.2689,6.35315 0.699213,0.232677 0.453544,-0.0153543 0.453544,0.907087 0.8563,0.285827 0.907087,2.06693 0.907087,3.17717 2.61496,0.870473 -1.57205,8.10237 -1.81417,9.0756l-0.454725 0.453544c-1.60512,0 -2.1815,0.907087 -3.62953,0.907087 -0.162992,0.490158 -2.40591,1.27323 -3.17717,1.36181 -4.8378,0.553937 -2.88544,-1.04646 -1.81417,-6.8067"/>
   <path id="_229186968" class="fil2 str1" d="M516.615 590.755c3.79252,-0.505512 1.60984,6.60001 4.99134,9.98269 9.39804,9.39804 15.9803,22.8732 21.3284,33.5799 3.34488,6.69686 23.1425,20.0776 23.1425,26.7732"/>
   <path id="_229186920" class="fil2 str1" d="M570.161 496.822c-5.87245,31.3217 -1.36181,63.4276 -1.36181,94.8402 0,23.7166 -6.08032,57.4122 -0.453544,80.3197"/>
   <path id="_229187592" class="fil2 str1" d="M366.414 293.981c12.8126,11.8276 33.3142,6.19725 44.4697,22.2355 8.66457,12.4559 33.4618,42.6 43.5638,47.6469 5.66811,2.8311 25.2059,3.99803 30.4028,0 1.32638,-1.02047 29.3197,-12.0673 19.513,-18.6047"/>
   <path id="_229187568" class="fil2 str1" d="M512.53 340.268c0,35.5524 52.2957,20.0138 66.7064,2.2689 8.92324,-10.989 15.3343,-25.3725 29.9492,-32.6729 8.27953,-4.13622 36.5977,-19.0583 45.3792,-19.0583"/>
   <path id="_229186992" class="fil2 str1" d="M489.388 255.41c-1.22008,6.50788 2.62323,19.2047 6.35315,24.0508 2.89488,3.763 0.793701,6.65788 5.89961,8.62087 3.11575,1.19882 8.25709,-12.424 9.98269,-15.8823 1.68189,-3.36614 3.47835,-5.29252 6.35315,-8.16733 1.59685,-1.59685 7.83426,-6.38032 8.16733,-7.71497"/>
   <path id="_229187376" class="fil2 str1" d="M475.774 237.712c6.90001,6.89882 7.25197,7.57087 15.8823,10.891 5.37993,2.07047 20.4567,1.59095 24.0508,-0.908268 5.86063,-4.07599 12.1878,-10.3512 17.6977,-17.6965"/>
   <path id="_229187208" class="fil2 str1" d="M545.203 209.577c0,7.7941 8.25473,14.2748 4.99134,22.2355 -1.53307,3.73937 -2.2689,4.84252 -2.2689,9.0756 0,1.19646 -0.291733,2.65748 0.453544,3.17717 1.05945,0.735827 2.00079,3.1252 3.17717,1.36063"/>
   <path id="_229187184" class="fil2 str1" d="M552.463 200.048c5.58426,5.58426 7.67953,10.9417 4.5378,18.6059 -1.25551,3.06142 -2.2689,6.0567 -2.2689,9.52914 0,1.4811 2.52047,6.50906 3.17717,4.5378"/>
   <path id="_229187160" class="fil2 str1" d="M548.834 184.166c1.57441,5.12008 4.8,8.6752 6.8067,13.1599 1.24134,2.77323 0.453544,4.06181 0.453544,6.8067 0,5.08583 3.63425,3.35433 4.99134,6.8067 0.799607,2.0315 0.453544,4.58741 0.453544,6.8067 0,1.37717 -0.405118,2.84528 -0.907087,4.08426 -1.54606,3.80788 0.794883,3.64843 -5.44607,1.36181"/>
   <path id="_229187136" class="fil2 str1" d="M534.312 171.461c3.33662,6.19725 -3.83268,13.3512 1.81536,17.6965 2.85236,2.19685 6.60827,1.78583 9.98269,2.72362 0.887009,0.245669 3.09803,1.40079 3.63071,2.2689 3.39922,5.5252 -3.51024,4.23662 6.8067,6.35197"/>
   <path id="_229187496" class="fil2 str1" d="M501.186 165.108c-9.4004,6.50788 -18.7394,-12.2197 -23.5961,4.99134 -1.05236,3.72638 -0.597638,9.67087 -4.99134,10.891 -4.54725,1.26378 -13.1599,1.25669 -13.1599,8.16733"/>
   <path id="_229187088" class="fil2 str1" d="M507.993 164.654c5.32087,9.88111 11.915,-4.08426 18.6059,-4.08426 9.78662,0 0.977954,16.728 14.0669,13.1599"/>
   <path id="_229187256" class="fil2 str1" d="M495.741 156.939c-3.00827,0 -9.05434,1.43268 -11.3445,0 -4.82953,-3.02126 -7.76812,4.79292 -9.0756,7.71497 -1.42205,3.17481 -3.34134,4.22008 -6.35315,4.99134 -1.54606,0.39567 -3.06142,0.497244 -4.5378,0.907087 -4.363,1.21063 -5.07166,1.01221 -10.891,0"/>
   <path id="_229187064" class="fil2 str1" d="M467.606 189.612c-4.15866,0 -4.14331,0.167717 -6.35197,3.62953 -3.81024,5.96693 5.44843,17.6977 -4.5378,17.6977 -3.82796,0 -6.18071,-2.55827 -8.62205,-4.08426 -1.10315,-0.689764 -3.53032,0.357874 -4.08426,1.36181 -0.477166,0.86693 -1.51181,2.64803 -1.81536,3.62953 -1.41614,4.5815 2.1189,2.74252 -6.35315,3.17717"/>
   <path id="_229187424" class="fil2 str1" d="M456.716 185.074c-2.5004,0.576378 -6.27993,1.98543 -7.26142,4.5378 -0.911812,2.37402 1.29449,6.08386 0.908268,9.0756 -0.113386,0.876379 -3.27756,2.2689 -4.5378,2.72244 -3.00118,1.08189 -6.82914,0.056693 -9.98387,-0.453544"/>
   <path id="_229187616" class="fil2 str1" d="M475.774 190.519c-14.9421,0 -9.72166,17.2382 -13.6134,25.4114 -2.20276,4.62402 -4.19528,4.99252 -9.0756,4.99252 -1.59213,0 -3.71929,-0.297638 -4.99134,0.453544 -5.73189,3.37677 -0.0153543,5.71536 -8.62205,3.62953"/>
   <path id="_229186752" class="fil2 str1" d="M471.69 210.032c-3.6815,5.66457 -5.89843,9.02481 -5.89843,15.8823 0,8.04213 -2.78268,7.71379 -9.98387,7.71379 -8.96103,0 -11.1177,8.46969 -12.7051,15.8823"/>
   <path id="_229186464" class="fil2 str1" d="M468.968 242.704c-3.92599,3.59882 -2.72244,10.4941 -2.72244,15.8823 0,3.0437 -3.31299,4.65709 -5.44607,6.35315 -1.58977,1.26614 -2.82756,2.49213 -4.5378,3.63071 -3.13701,2.09173 -2.34685,1.00866 -6.8067,-1.81536"/>
   <path id="_229186416" class="fil2 str1" d="M463.523 232.721c1.15512,0.878741 2.22047,1.62992 3.17599,2.72244 -2.07284,2.07284 -2.72244,5.29489 -2.72244,8.16851 -1.18347,0.394488 -4.13504,7.7126 -5.44607,9.52914 -0.988583,1.3689 -1.82244,2.67638 -2.72244,4.08426 -2.39882,3.75827 -0.487796,3.58819 -5.89843,4.99134"/>
   <path id="_229186584" class="fil2 str1" d="M537.943 220.468c9.08741,9.08859 -1.36181,14.8406 -1.36181,23.5973 0,3.81969 0.570473,6.65788 4.5378,8.16733 2.11417,0.804331 4.82599,1.16811 6.8067,2.2689 1.91575,1.06417 2.76614,7.22481 3.63071,9.53032"/>
   <path id="_229186392" class="fil2 str1" d="M479.17 199.628c2.62087,-2.62205 5.32914,-3.86929 9.07914,-3.86929 3.20079,0 4.94646,2.70591 7.26379,4.43859"/>
   <path id="_229186248" class="fil2 str1" d="M481.439 201.905c0.713386,2.1437 4.41969,2.8063 6.47008,2.27599 1.28858,-0.333071 5.49804,-2.12717 5.78741,-3.30118"/>
   <path id="_229186344" class="fil1 str1" d="M488.93 199.173c-0.187795,-0.0425197 -0.376772,-0.0850394 -0.56693,-0.113386 -0.204331,-0.0307087 -0.354331,-0.090945 -0.56693,-0.114567 -0.198425,-0.0212599 -0.222047,-0.113386 -0.453544,-0.113386 -0.0236221,-0.0720473 -0.0673229,-0.056693 -0.113386,-0.114567 -0.056693,-0.0708662 -0.0590552,-0.155906 -0.113386,-0.226772 -0.166536,-0.216142 -0.114567,-0.4063 -0.114567,-0.682678l0.681497 0c0.370866,0 0.194882,0.0248032 0.453544,0.113386 0.183071,0.0637796 0.255118,0.0153543 0.453544,0.113386 0.0673229,0.0330709 0.0602363,0.0625985 0.113386,0.114567l0.113386 0.113386 0.113386 0 0 0.113386c0,0.198425 0.178347,0.258662 0,0.797245z"/>
   <path id="_229186536" class="fil2 str1" d="M512.878 197.808c1.2815,-2.73425 7.48465,-3.87166 10.3276,-3.1878 1.39725,0.335433 2.83229,1.32638 4.31339,1.70788 1.29331,0.33189 2.54055,1.93465 3.63071,1.93465"/>
   <path id="_229186896" class="fil2 str1" d="M515.261 199.514c1.29685,2.42008 4.59095,3.18662 7.14922,3.18662 1.14449,0 5.19095,-2.02914 5.44843,-3.07323"/>
   <path id="_229186872" class="fil2 str1" d="M520.482 197.693c0.532678,-0.369685 0.333071,-0.341339 0.793701,-0.341339l0.794883 0c0.197244,0 0.190158,-0.0366142 0.340158,0.113386 0.197244,0.198425 0.0177165,0.158268 0.227953,0.227953 0,0.218504 0.022441,0.468898 0,0.682678 -0.0366142,0.336614 -0.141732,0.159449 -0.341339,0.227953 -0.178347,0.0602363 -0.209055,0.113386 -0.454725,0.113386 -0.279921,0 -0.485433,-0.0295276 -0.680315,-0.226772 -0.178347,-0.178347 -0.113386,-0.435827 -0.113386,-0.682678l0.226772 0"/>
   <path id="_229186656" class="fil2 str1" d="M494.037 217.044c-1.25079,5.02441 1.42559,3.64252 4.76693,3.64252 2.70118,0 2.47323,2.1626 4.54016,2.1626 1.04055,0 2.24882,-2.07284 3.29055,-2.73189 1.32284,-0.833859 3.90118,2.24528 5.22166,0.341339 0.954331,-1.37717 1.12323,-5.35394 -1.24843,-5.69056"/>
   <path id="_229186200" class="fil2 str1" d="M489.726 235.37c2.58544,-0.73819 4.56733,-2.73189 7.2626,-2.73189 1.73268,0 3.04016,0.683859 4.53898,0.683859 1.15512,0 2.14134,-1.23307 3.29292,-1.36654 2.15551,-0.249213 4.79764,-0.0838583 6.58111,0.910631 1.15984,0.647245 4.56142,2.84528 5.44843,2.84528"/>
  </g>
 </g>
</svg>
