<?xml version="1.0" encoding="UTF-8"?>
<!DOCTYPE svg PUBLIC "-//W3C//DTD SVG 1.1//EN" "http://www.w3.org/Graphics/SVG/1.1/DTD/svg11.dtd">
<!-- Creator: CorelDRAW -->
<svg xmlns="http://www.w3.org/2000/svg" xml:space="preserve" width="1000px" height="1000px" style="shape-rendering:geometricPrecision; text-rendering:geometricPrecision; image-rendering:optimizeQuality; fill-rule:evenodd; clip-rule:evenodd"
viewBox="0 0 1000 1000"
 xmlns:xlink="http://www.w3.org/1999/xlink">
 <defs>
  <style type="text/css">
   <![CDATA[
    .str2 {stroke:#1F1A17;stroke-width:4.16693}
    .str0 {stroke:#1F1A17;stroke-width:8.33386}
    .str1 {stroke:#1F1A17;stroke-width:16.6665}
    .fil1 {fill:none}
    .fil2 {fill:white}
    .fil0 {fill:#EEC2C6}
   ]]>
  </style>
 </defs>
 <g id="Warstwa_x0020_1">
  <metadata id="CorelCorpID_0Corel-Layer"/>
  <circle class="fil0" cx="505.447" cy="499.474" r="485.835"/>
  <g id="_228863528">
   <line id="_188898456" class="fil1 str0" x1="541.538" y1="133.358" x2="585.891" y2= "679.9" />
   <path id="_228854144" class="fil2 str0" d="M577.864 316.938c-23.7319,-44.0752 -53.9634,-43.1469 -69.4229,-31.5083 -6.84449,5.15197 0.791339,15.6992 -6.5693,19.7587 -3.67323,2.02559 -8.71536,-1.57795 -12.6969,-0.921261 -6.9189,1.14449 -8.05867,12.4382 -13.448,20.7047 -4.19292,6.43111 -12.0177,10.1209 -20.3386,11.674 -39.5894,7.39016 -59.1449,24.5977 -57.2918,33.7193 1.49528,7.35945 54.6107,-5.10709 53.4201,4.4067 -0.604725,4.83307 -19.5106,21.5457 -53.8465,36.4866 -22.774,9.90946 -26.3563,34.3028 -47.8642,46.4563 -31.8449,17.9953 -30.9709,8.29725 -30.9709,49.2721 0,22.6843 -28.8862,13.3913 -45.0496,22.5236 -16.4977,9.32363 -52.4398,39.9992 -85.656,62.726 -9.24331,6.32363 -16.5165,26.9788 -24.9792,30.9922 -7.46694,3.54213 -15.9874,-5.57363 -21.254,-1.37008 -6.78426,5.41536 -11.0315,7.39725 -14.5181,9.01182 -9.64017,4.46457 -32.1662,12.2244 -30.3355,23.198l2.10236 12.6083 -29.4862 37.3973c-3.79961,4.82126 -30.5835,31.3583 -21.1158,40.826 4.06536,4.06536 24.6154,20.6799 30.9709,25.2508 7.99134,0 1.92874,-28.904 8.44607,-39.3284 9.64371,-15.4264 25.7717,-24.111 41.3941,-36.4701 3.54567,-2.80394 5.90079,-8.5819 10.4799,-8.74843 24.2847,-0.887009 33.8611,-14.6693 37.2933,-33.6425 0.720473,-3.98268 6.24095,-5.19213 9.47245,-7.69607 20.6858,-16.0299 44.7201,-29.2394 60.4382,-48.5894 10.8047,-13.3016 29.2229,-22.4669 37.5331,-14.6764 26.0162,24.3839 45.4926,97.5568 50.4473,110.061 1.64528,4.15512 4.06772,12.5398 2.29252,16.6228 -11.2878,25.9736 0.0578741,41.8654 28.3701,47.6965 3.71339,0.765355 4.45866,6.09686 6.38504,9.23032 10.0181,16.2921 8.01024,49.8886 13.7858,69.0579 0.708662,2.35276 7.68308,0.718111 10.0429,1.31339 13.891,3.49961 30.5859,-1.68662 39.1571,-6.68859 6.25158,-3.65079 1.32756,-6.9626 -4.65591,-12.8327 -4.47284,-4.3878 -17.4319,-5.56063 -20.8051,-10.8047 -2.50158,-3.88937 1.14567,-8.84056 -0.540945,-13.6701 -5.05985,-14.4886 -9.19843,-31.0902 -14.7697,-49.8012 -0.698032,-2.34449 -3.64725,-5.22874 -2.04095,-7.1256 10.8543,-12.8114 7.82599,-24.6236 -9.37205,-34.9914 -3.72638,-2.24764 -4.46811,-8.82284 -6.61654,-12.5894 -15.5752,-27.3166 -21.0012,-62.6894 -37.7079,-86.5784 -29.3575,-41.9823 111.731,-115.86 133.739,-133.739 51.541,-41.8677 61.3406,-61.5686 137.961,-70.3879 18.1063,-2.08465 28.7646,-7.18111 47.5146,-10.4941 6.5126,-1.15039 22.1516,1.52599 28.2555,-0.328347 7.89804,-2.4 5.113,-5.15552 4.01693,-7.35355 -1.07362,-2.15433 0.918898,-5.03386 -7.93701,-6.28819 -10.0347,-1.42205 -32.4402,-0.914174 -60.3461,2.29488 -3.45355,0.396851 -24.1807,3.81969 -27.2799,4.19646 -18.9449,2.30433 -35.2181,0.578741 -42.5445,-1.64646 -17.4626,-5.3067 -6.40867,-20.7284 11.9291,-18.3213 3.61772,0.474804 9.80434,-2.00788 18.2705,-1.29803 10.5189,0.879922 29.9681,0.956694 31.8012,-4.75748 1.61811,-5.03977 -16.1728,-12.3697 -37.4658,-8.09174 -8.59371,1.72559 -14.7236,3.32362 -16.8319,3.15355 -3.35788,-0.272835 -3.27638,-5.81339 1.50709,-10.1563 2.60433,-2.36693 10.5272,-0.933072 13.7528,-3.55985 4.14449,-3.37677 3.32126,-11.0185 2.97874,-16.1847z"/>
   <path id="_228856784" class="fil1 str1" d="M544.4 134.789c186.877,154.862 193.414,337.392 35.7685,545.111"/>
   <path id="_228856064" class="fil1 str2" d="M597.337 342.246c72.0851,10.8118 143.613,18.5988 218.902,18.5988l90.1371 0 68.6753 -1.43032"/>
   <path id="_228855464" class="fil1 str2" d="M646.29 349.519l-5.72363 0c-1.14921,0 -1.71851,-0.080315 -2.86181,-0.0885827 -4.07126,-0.0283465 -8.74489,0 -12.8764,0 -3.99213,0 -1.51417,-0.0874016 -4.29213,-0.0874016l-1.43032 0c-6.15119,0 1.45039,-0.0401575 -10.0158,-0.0874016"/>
   <path id="_227832256" class="fil1 str2" d="M650.274 159.111c41.9504,83.9032 15.0662,179.471 28.6146,267.548 3.23386,21.0189 11.4461,139.817 11.4461,134.489"/>
   <path id="_227829904" class="fil1 str2" d="M671.735 171.988c0,44.4036 17.8642,100.694 24.3236,145.936 12.4996,87.541 17.1685,180.104 17.1685,268.979"/>
   <path id="_227829616" class="fil1 str2" d="M693.197 174.849c0,91.7115 15.8209,181.844 20.0303,273.271 1.23307,26.7839 32.191,138.066 30.0449,133.058"/>
   <path id="_227829592" class="fil1 str2" d="M727.208 527.156c0,5.55945 1.78583,11.2819 1.78583,17.1414 0,7.98662 -0.714567,15.6095 -0.714567,23.5701 0,2.74016 1.42913,17.3185 1.07126,16.7835"/>
   <path id="_227828944" class="fil1 str2" d="M730.779 530.013c0.425197,5.97048 2.54882,12.3142 3.21378,18.5705 1.50709,14.1815 5.71418,30.1429 5.71418,43.9241"/>
   <path id="_227829256" class="fil1 str2" d="M712.209 522.514c-1.85197,12.0449 -2.37047,24.6248 -3.92717,36.7819 -0.452363,3.5315 -2.14606,23.9292 -3.57166,24.2835"/>
   <path id="_229200360" class="fil1 str2" d="M712.923 531.799c0,12.0331 0.550394,23.2831 2.5004,34.9973 0.73819,4.4315 1.43504,18.8126 3.92717,22.1398"/>
   <path id="_229199592" class="fil1 str2" d="M686.854 509.658c0,11.6032 0.251575,23.2642 -1.42795,34.6394l-4.64292 31.4256"/>
   <path id="_229198728" class="fil1 str2" d="M685.069 493.946c0.735827,7.61575 4.48701,14.4945 5.713,22.1398 1.18937,7.42442 2.14252,17.5181 2.14252,24.9981 0,6.64252 2.85709,12.9366 2.85709,18.5693"/>
   <path id="_229198584" class="fil1 str2" d="M626.352 346.838c-4.57678,1.68425 -11.3551,1.56496 -16.1953,1.60158 -5.16969,0.0401575 -10.3228,-0.275197 -15.4854,-0.178347 -5.17678,0.0980316 -8.86064,4.23426 -14.5937,1.77992"/>
  </g>
 </g>
</svg>
