<?xml version="1.0" encoding="UTF-8"?>
<!DOCTYPE svg PUBLIC "-//W3C//DTD SVG 1.1//EN" "http://www.w3.org/Graphics/SVG/1.1/DTD/svg11.dtd">
<!-- Creator: CorelDRAW -->
<svg xmlns="http://www.w3.org/2000/svg" xml:space="preserve" width="1000px" height="1000px" style="shape-rendering:geometricPrecision; text-rendering:geometricPrecision; image-rendering:optimizeQuality; fill-rule:evenodd; clip-rule:evenodd"
viewBox="0 0 1000 1000"
 xmlns:xlink="http://www.w3.org/1999/xlink">
 <defs>
  <style type="text/css">
   <![CDATA[
    .str1 {stroke:#1F1A17;stroke-width:4.16693}
    .str0 {stroke:#1F1A17;stroke-width:8.33386}
    .fil2 {fill:none}
    .fil1 {fill:white}
    .fil0 {fill:#EEC2C6}
   ]]>
  </style>
 </defs>
 <g id="Warstwa_x0020_1">
  <metadata id="CorelCorpID_0Corel-Layer"/>
  <circle class="fil0" cx="505.447" cy="499.474" r="485.835"/>
  <g id="_228855776">
   <polygon id="_229610288" class="fil1 str0" points="179.713,845.044 172.941,819.183 178.482,753.297 160.625,734.825 166.167,440.496 169.862,396.777 184.024,400.472 192.644,428.796 182.792,741.598 172.857,747.252 178.482,753.297 173.654,812.565 210.501,814.873 236.362,813.024 236.979,757.607 220.353,747.755 229.282,424.178 239.75,404.474 280.081,403.243 284.391,409.092 270.229,737.287 253.604,760.071 258.529,771.154 257.299,808.099 247.446,820.414 300.401,826.572 323.799,816.72 322.568,747.14 312.716,739.751 319.488,406.629 336.73,419.56 329.957,733.593 322.568,747.14 323.799,816.72 360.744,817.951 385.374,814.873 377.985,801.941 377.985,777.927 411.235,771.77 404.463,764.381 403.231,498.991 408.157,466.357 460.496,463.278 467.269,471.899 464.807,737.287 454.339,754.529 452.491,809.33 486.974,808.714 483.894,824.109 543.006,827.187 561.479,819.798 604.582,819.798 604.889,807.791 598.732,804.712 598.424,769.614 604.274,764.689 603.35,751.758 588.264,734.209 587.957,393.083 599.656,391.851 597.808,379.536 628.596,377.073 631.059,390.004 645.221,394.93 650.763,436.185 640.912,436.185 653.226,471.899 653.226,471.899 648.916,734.825 642.759,742.214 646.453,755.144 642.142,806.867 672.315,808.714 664.926,827.187 626.749,825.34 622.439,843.812 724.961,847.199 729.579,855.204 750.823,853.357 811.166,826.572 818.864,817.951 811.782,807.483 773.605,806.867 767.756,801.941 767.14,768.999 772.066,761.61 771.758,747.447 765.292,744.061 764.369,738.519 756.909,731.467 752.001,450.824 784.381,449.116 789.307,465.126 793.001,734.209 779.763,752.989 786.536,766.536 785.612,792.705 781.918,804.096 792.386,804.096 794.205,806.953 811.782,807.483 818.864,817.951 811.166,826.572 897.372,825.648 910.302,820.106 903.529,779.158 849.959,780.082 850.882,749.294 841.031,738.827 833.949,468.205 835.796,455.889 842.261,457.121 844.725,447.885 835.489,431.259 839.799,421.407 837.951,403.55 856.116,396.469 869.663,382 849.959,347.517 849.035,328.121 838.875,319.5 818.247,329.66 818.864,341.052 812.398,347.517 801.314,347.825 763.138,328.736 756.364,306.57 746.205,300.72 743.434,291.176 763.753,269.316 770.404,256.367 762.123,244.099 698.327,256.674 693.113,269.863 675.937,271.089 672.87,242.258 688.818,249.926 691.886,219.561 675.63,196.558 629.317,175.702 626.862,187.97 611.834,166.5 569.354,152.698 565.519,164.814 545.737,137.975 522.886,131.995 516.753,136.135 515.372,128.467 463.575,109.221 458.648,111.069 472.503,137.854 448.797,131.388 438.329,138.777 434.019,131.697 408.464,144.011 411.235,163.408 422.035,182.797 416.201,206.052 408.983,206.823 403.301,201.124 394.987,201.158 389.466,206.373 370.45,192.878 354.194,190.117 346.833,201.466 331.503,201.662 324.781,198.606 340.975,190.356 348.919,174.468 347.698,152.773 327.531,141.163 331.503,118.246 310.114,109.386 271.309,120.691 278.032,146.662 271.309,168.051 273.448,187.301 267.949,175.995 209.282,210.217 204.699,221.828 192.171,214.495 132.588,255.744 144.2,297.299 157.338,299.133 157.032,323.272 120.062,325.41 126.783,378.883 117.49,379.642 116.424,390.787 125.538,391.394 131.614,416.307 117.147,736.364 100.166,759.257 97.7398,817.326 74.3906,819.448 71.9646,840.674 "/>
   <polyline id="_229610792" class="fil2 str1" points="377.985,777.927 382.923,754.9 365.827,734.005 368.993,423.115 "/>
   <polyline id="_229610264" class="fil2 str1" points="561.479,819.798 562.745,759.966 543.75,734.639 545.017,385.125 "/>
   <polyline id="_229610216" class="fil2 str1" points="753.966,364.863 719.774,329.405 494.363,343.335 "/>
   <line id="_229609952" class="fil2 str1" x1="715.974" y1="300.279" x2="496.895" y2= "314.209" />
   <polyline id="_229609856" class="fil2 str1" points="502.594,352.199 367.727,361.063 314.54,333.836 127.752,349.034 "/>
   <polyline id="_229609832" class="fil2 str1" points="169.541,319.273 325.304,307.244 369.626,337.003 491.196,326.872 484.864,314.842 489.93,305.977 487.398,291.414 471.567,277.484 476.633,261.655 "/>
   <line id="_229609736" class="fil2 str1" x1="662.788" y1="274.951" x2="487.398" y2= "291.414" />
   <line id="_229609712" class="fil2 str1" x1="642.526" y1="251.524" x2="647.592" y2= "277.484" />
   <line id="_229609904" class="fil2 str1" x1="725.473" y1="269.886" x2="719.774" y2= "329.405" />
   <line id="_229609976" class="fil2 str1" x1="762.83" y1="328.772" x2="762.83" y2= "328.772" />
   <line id="_229609664" class="fil2 str1" x1="756.364" y1="306.57" x2="760.297" y2= "383.224" />
   <line id="_229609784" class="fil2 str1" x1="752.001" y1="450.824" x2="753.966" y2= "364.863" />
   <polyline id="_229610096" class="fil2 str1" points="664.926,827.187 745.734,825.183 794.205,806.953 "/>
   <polyline id="_229609568" class="fil2 str1" points="745.734,825.183 735.603,806.821 736.236,769.463 743.834,753.001 726.106,729.573 726.106,369.927 "/>
   <line id="_229609688" class="fil2 str1" x1="377.224" y1="429.447" x2="472.202" y2= "426.915" />
   <polyline id="_229610000" class="fil2 str1" points="469.035,383.857 460.804,397.787 462.703,432.612 "/>
   <polyline id="_229609016" class="fil2 str1" points="367.727,361.063 365.827,390.189 501.961,383.224 "/>
   <polyline id="_229198608" class="fil2 str1" points="126.783,378.883 314.54,366.129 353.797,385.125 "/>
   <line id="_228856040" class="fil2 str1" x1="272.75" y1="374.36" x2="284.391" y2= "409.092" />
   <line id="_228863096" class="fil2 str1" x1="272.75" y1="374.36" x2="170.176" y2= "381.325" />
   <polyline id="_228863288" class="fil2 str1" points="374.059,318.64 391.787,280.017 386.088,263.554 410.15,235.061 439.909,225.564 469.035,220.498 486.131,224.297 "/>
   <polyline id="_228863360" class="fil2 str1" points="488.664,260.388 495.629,174.277 472.503,137.854 "/>
   <line id="_228863384" class="fil2 str1" x1="688.818" y1="249.926" x2="484.231" y2= "156.547" />
   <polyline id="_188898936" class="fil2 str1" points="144.2,297.299 318.972,173.643 340.975,190.356 "/>
   <line id="_228863264" class="fil2 str1" x1="327.531" y1="141.163" x2="144.215" y2= "270.519" />
   <line id="_188312784" class="fil2 str1" x1="317.706" y1="151.481" x2="342.399" y2= "166.044" />
   <line id="_228855056" class="fil2 str1" x1="422.035" y1="182.797" x2="439.909" y2= "225.564" />
   <line id="_228855104" class="fil2 str1" x1="410.15" y1="235.061" x2="410.15" y2= "235.061" />
   <line id="_228855152" class="fil2 str1" x1="394.954" y1="200.869" x2="389.255" y2= "206.568" />
   <line id="_228854888" class="fil2 str1" x1="410.15" y1="235.061" x2="370.45" y2= "192.878" />
   <line id="_228855272" class="fil2 str1" x1="484.231" y1="156.547" x2="469.035" y2= "220.498" />
   <line id="_228854528" class="fil2 str1" x1="433.056" y1="200.462" x2="467.502" y2= "195.722" />
   <line id="_228854864" class="fil2 str1" x1="312.64" y1="195.171" x2="314.54" y2= "286.349" />
   <polyline id="_228854552" class="fil2 str1" points="263.886,290.147 324.671,280.017 372.159,304.71 "/>
   <line id="_228855656" class="fil2 str1" x1="241.092" y1="236.327" x2="236.026" y2= "302.811" />
   <line id="_228855728" class="fil2 str1" x1="391.787" y1="280.017" x2="471.567" y2= "277.484" />
   <polyline id="_228855920" class="fil2 str1" points="476.633,261.655 599.47,249.624 678.617,250.891 "/>
   <polyline id="_228855392" class="fil2 str1" points="501.961,383.224 500.694,745.403 484.25,758.532 484.882,769.593 490.57,776.545 490.255,816.362 "/>
  </g>
 </g>
</svg>
