<?xml version="1.0" encoding="UTF-8"?>
<!DOCTYPE svg PUBLIC "-//W3C//DTD SVG 1.1//EN" "http://www.w3.org/Graphics/SVG/1.1/DTD/svg11.dtd">
<!-- Creator: CorelDRAW -->
<svg xmlns="http://www.w3.org/2000/svg" xml:space="preserve" width="1000px" height="1000px" style="shape-rendering:geometricPrecision; text-rendering:geometricPrecision; image-rendering:optimizeQuality; fill-rule:evenodd; clip-rule:evenodd"
viewBox="0 0 1000 1000"
 xmlns:xlink="http://www.w3.org/1999/xlink">
 <defs>
  <style type="text/css">
   <![CDATA[
    .str0 {stroke:#1F1A17;stroke-width:4.16693}
    .str2 {stroke:white;stroke-width:4.16693}
    .str1 {stroke:#1F1A17;stroke-width:8.33386}
    .fil3 {fill:none}
    .fil2 {fill:#1F1A17}
    .fil1 {fill:white}
    .fil0 {fill:#EEC2C6}
   ]]>
  </style>
 </defs>
 <g id="Warstwa_x0020_1">
  <metadata id="CorelCorpID_0Corel-Layer"/>
  <circle class="fil0" cx="505.447" cy="499.474" r="485.835"/>
  <g id="_228855848">
   <path id="_231198160" class="fil1 str0" d="M163.684 495.869c18.3555,-23.8606 77.7508,-32.1839 108.928,-32.1839 20.5914,0 60.0355,-2.28189 60.0355,19.8059 0,31.9382 -54.0685,46.7859 -86.0292,46.4185l-53.8465 -0.618898c-7.79764,-0.0897639 -17.9728,-5.59607 -22.2803,-9.90355 -0.494882,-0.494882 -11.9906,-20.7626 -6.80788,-23.5181z"/>
   <path id="_231198496" class="fil1 str0" d="M610.542 442.642c31.7197,-21.9591 55.4847,-26.6138 97.1694,-26.6138 23.1945,0 52.0512,12.378 76.1268,12.378 7.28859,0 13.9595,15.6886 8.04568,19.8059 -29.4461,20.491 -60.2752,30.9449 -100.264,30.9449 -25.076,0 -91.3737,-2.48977 -81.078,-36.515z"/>
   <path id="_231198304" class="fil2 str0" d="M666.224 419.549c-13.2319,15.8764 4.29213,39.3768 17.6067,46.0241 18.0969,9.03662 27.8988,4.4126 46.9512,-2.1626 11.2654,-3.88819 20.6953,-11.4437 20.6953,-24.0933 0,-16.9902 -19.65,-20.6953 -35.2134,-20.6953 -7.11024,0 -20.6705,0.0838583 -27.1819,-2.1626 -9.40158,-3.24449 -16.2614,3.70748 -22.8579,3.08977z"/>
   <path id="_231198088" class="fil2 str0" d="M214.008 470.515c-4.35,9.42639 1.81299,23.178 6.79607,29.654 7.08426,9.20906 9.08505,12.4276 20.0776,17.9162 15.6225,7.79764 28.6878,-0.238583 42.3177,-4.94292 10.4929,-3.62126 14.3599,-17.0953 16.989,-27.1819 1.26378,-4.8437 4.513,-20.6953 -2.77914,-20.6953 -14.837,0 -30.867,-2.43898 -45.4075,-1.23662 -7.39843,0.611812 -14.4638,3.19607 -21.6225,4.01575 -3.21142,0.367323 -6.14292,0.617717 -9.5752,0.617717 -2.30197,0 -7.25552,1.85315 -6.79607,1.85315z"/>
   <path id="_231198232" class="fil3 str0" d="M157.494 516.911c28.8284,28.8284 59.5241,20.4248 99.6461,20.4248 35.0988,0 64.0725,-29.7083 103.358,-36.5162 0,-32.9729 -39.2422,-75.919 -78.6012,-64.9867 -34.4055,9.55513 -133.539,21.6201 -142.97,62.5111"/>
   <path id="_231198112" class="fil3 str0" d="M319.65 461.828c-4.30748,0.614174 -8.51103,-2.66339 -12.9969,-3.71339 -5.33386,-1.25079 -12.4347,-3.52559 -17.3291,-5.57008 -2.26299,-0.946064 -7.77875,-5.75906 -8.04568,-4.95119"/>
   <path id="_227830048" class="fil3 str0" d="M297.37 465.541c-7.11851,1.73032 -8.09883,2.79567 -13.6158,-0.618898 -4.90867,-3.03898 -25.4717,-10.1858 -26.6138,-13.6158"/>
   <path id="_227831896" class="fil3 str0" d="M252.189 464.304c4.39252,3.2941 4.86733,2.47559 1.2378,2.47559 -7.80473,0 -13.9512,-3.55394 -21.0437,-6.18898 -2.32087,-0.863387 -15.5705,-5.89843 -16.0914,-4.33229"/>
   <path id="_227830120" class="fil3 str0" d="M220.624 468.636c-0.533859,4.00276 1.05591,3.09449 -2.47559,3.09449 -4.88268,0 -9.46536,-0.252756 -14.2347,-0.618898 -4.49055,-0.344882 -8.89489,-2.47559 -12.998,-2.47559"/>
   <path id="_188898648" class="fil3 str0" d="M189.678 482.872c-2.43662,0 -4.9937,0.13937 -7.42678,0 -3.41929,-0.196063 -22.102,-5.49567 -22.8992,-3.09567"/>
   <path id="_188898624" class="fil3 str0" d="M163.684 495.869c7.13032,-1.25669 2.30906,-0.618898 0,-0.618898 -3.87992,0 -7.43505,0.0531496 -11.1413,-0.618898 -1.81063,-0.329528 -3.09567,-0.144095 -4.95119,-0.618898 -3.38386,-0.868111 -6.58701,2.92559 -8.66457,4.33229"/>
   <path id="_188898600" class="fil3 str0" d="M159.971 505.771c-4.7504,1.01693 -9.46654,1.41851 -14.2358,1.85669 -2.36811,0.218504 -4.51654,1.09961 -6.80788,1.2378 -1.78819,0.109843 -3.09449,-0.111024 -3.09449,1.85669"/>
   <path id="_188898552" class="fil3 str0" d="M170.492 519.387c-5.41063,4.4563 -11.5394,7.97009 -16.0925,12.998 -1.57087,1.73386 -5.75788,7.42678 -1.2378,7.42678"/>
   <path id="_188898504" class="fil3 str0" d="M181.014 531.766c-2.01732,2.01614 -4.13032,3.93426 -5.57008,6.18898 -3.6874,5.7756 -6.18898,9.5067 -6.18898,16.7102"/>
   <path id="_188898696" class="fil3 str0" d="M201.438 537.955c-4.16221,4.16221 -8.38465,8.96221 -9.90355,14.8536 -0.506693,1.96536 -1.2378,4.22008 -1.2378,6.18898 0,2.05158 -0.193701,1.85669 1.85669,1.85669"/>
   <path id="_228852440" class="fil3 str0" d="M221.862 538.574c-1.83898,2.6563 -1.63701,2.43662 -2.47559,4.95119 -0.253937,0.766536 -0.5563,1.6441 -0.618898,2.47559 -0.0625985,0.825591 0.170079,2.30551 0,3.09449 -0.351969,1.62047 -0.618898,1.89213 -0.618898,3.71339 0,1.22362 -0.415748,2.13189 0.618898,2.47559"/>
   <path id="_228855968" class="fil3 str0" d="M241.049 538.574c-2.93622,2.93504 -2.2878,2.16851 -3.71457,4.95119 -0.373229,0.72756 -0.992127,1.73858 -1.2378,2.47559 -0.220866,0.667323 -0.316536,1.22362 -0.618898,1.85669 -0.696851,1.46575 -0.618898,2.17914 -0.618898,3.71339 0,1.18819 -0.379134,1.52599 0.618898,1.85669"/>
   <path id="_228855680" class="fil3 str0" d="M269.518 536.098c-3.96614,3.96614 -9.22324,9.03072 -10.5213,14.2347"/>
   <path id="_228854792" class="fil3 str1" d="M361.737 308.336c0,15.4228 -9.42639,87.0379 -6.18898,92.2194 28.8343,46.1351 40.5721,53.0752 12.998,115.117 -26.0504,58.617 -53.8465,104.536 -53.8465,173.916"/>
   <path id="_228854672" class="fil3 str0" d="M432.293 251.397c-4.47402,20.8961 -7.07835,39.4607 -9.90237,60.6532 -2.1248,15.9414 0,32.7083 -3.71339,48.2764 0,5.03977 0.437008,-7.0063 0,-9.28465 -0.848032,-4.41615 -0.595276,-9.73111 -1.2378,-14.2347 -1.99488,-13.9713 -3.2126,-29.5477 -9.28347,-42.7052 -3.80197,-8.23583 -9.32245,-18.9106 -8.04686,-27.8516"/>
   <path id="_228854912" class="fil3 str0" d="M384.018 437.69c27.9638,-5.98819 47.4154,-9.58111 75.5079,-7.42678 43.3382,3.32362 39.691,-2.61024 56.9398,-37.1351 12.4382,-24.8918 90.3615,-9.1441 90.3615,1.85669"/>
   <path id="_228854576" class="fil3 str0" d="M802.405 457.496c-17.4425,8.05158 -40.0772,27.2327 -59.4154,27.2327 -15.4606,0 -27.3614,7.87205 -44.5618,3.09449 -13.8638,-3.8504 -35.9091,-7.42678 -50.1331,-7.42678 -22.1114,0 -31.741,-6.87402 -48.2752,-12.3791"/>
   <path id="_229201536" class="fil3 str0" d="M577.12 463.066c3.2067,-5.95749 10.0595,-10.6004 16.0914,-13.6158 4.0063,-2.00315 7.65709,-4.75867 11.7591,-6.80788 1.56969,-0.785434 3.50551,-1.51181 4.95237,-2.47559 3.12638,-2.08583 3.75,-2.65158 0.618898,2.47559"/>
   <path id="_229201416" class="fil3 str0" d="M558.552 450.688c39.5575,-63.2918 101.757,-68.504 173.916,-62.5111 26.1815,2.17559 50.2205,14.2358 74.8879,14.2358 20.4047,0 44.9233,24.7559 65.6056,24.7559"/>
   <path id="_229201128" class="fil3 str0" d="M798.073 422.217c14.0658,4.01811 26.4307,11.0835 39.6107,15.4725 6.71575,2.23819 17.3055,4.89685 20.4248,11.1413 5.5878,11.185 -21.1642,16.5532 -29.0894,19.8047 -5.84174,2.39764 -34.3146,19.3819 -35.8973,24.1382"/>
   <path id="_229201224" class="fil3 str0" d="M609.304 421.598l-0.618898 2.47559c-0.18189,0.728741 0.908268,1.1811 1.2378,1.85669 1.06772,2.19803 4.13504,5.32559 6.18898,6.80788 0.609449,0.43937 1.26732,0.77126 1.85669,1.2378 1.51063,1.19882 1.50709,1.2378 3.71339,1.2378"/>
   <path id="_229200312" class="fil3 str0" d="M620.444 414.172c0.972048,3.88937 0.927166,3.80079 3.71339,6.18898 4.07835,3.49488 10.1197,8.04568 15.4725,8.04568"/>
   <path id="_229200120" class="fil3 str0" d="M650.152 404.888c0,4.22717 0.175984,7.26733 3.09449,10.5213 0.988583,1.10315 0.762993,3.09449 1.85669,3.09449l0.618898 0c3.9437,0 0.354331,1.01693 10.5213,1.2378"/>
   <path id="_229200072" class="fil3 str0" d="M683.573 398.079c0.0850394,1.11378 0.21378,2.0563 0.618898,3.09567 1.34646,3.45118 2.81457,7.14567 5.57126,9.90237 4.14685,4.14685 11.6303,-1.31929 -0.620079,5.57008"/>
   <path id="_229200624" class="fil3 str0" d="M709.568 400.556c2.05276,3.8126 2.9941,6.70867 6.18898,9.90237l3.09449 3.09449c3.03307,3.03189 2.46851,1.89213 -2.47559,4.95119"/>
   <path id="_229200432" class="fil3 str0" d="M738.657 403.65c1.68662,3.37441 3.62953,6.14646 5.57008,9.28347 0.369685,0.597638 0.504331,1.16339 0.618898,1.85669 0.153543,0.928347 0.512599,0.924804 0.618898,1.85669 0.144095,1.26024 -0.462992,0.87756 0.618898,1.2378"/>
   <path id="_229200216" class="fil3 str0" d="M763.413 406.745c0,4.02166 0.132284,3.81733 0,4.33229 -0.184252,0.726379 -1.01221,2.19449 -1.2378,3.09449 -0.705119,2.82756 -0.17126,6.41457 -1.85669,8.66457"/>
   <path id="_229199352" class="fil3 str0" d="M798.073 422.217c-2.54055,-1.34882 -3.49488,-2.08583 -6.18898,-3.09449l0 4.33229c0,0.585827 0.0661418,1.27913 0,1.85669 -0.115748,1.02165 -0.497244,1.11614 -8.04568,3.09449 -12.6874,-4.02166 -10.4433,-2.70945 -7.42678,-3.71339 0,-1.42323 0.302362,-2.16024 1.2378,-3.09449l0.618898 -0.618898c0.890552,-0.891733 -0.355512,-2.47914 -0.618898,-3.71339"/>
   <path id="_229199280" class="fil3 str0" d="M668.101 480.396c2.07756,2.55709 5.37402,5.83701 5.57008,9.28347 0.0779528,1.36654 0.105118,2.96693 0,4.33229 -0.100394,1.33228 -0.199606,2.13071 -1.2378,2.47559"/>
   <path id="_229199208" class="fil3 str0" d="M691.62 479.157c-3.67796,3.00827 -2.25709,0.838583 0,3.09567 1.18228,1.18228 2.67874,2.4189 3.71339,3.71339 1.19291,1.49055 1.50827,2.42126 1.85669,4.33229 0.480709,2.65512 -0.046063,5.74371 -0.618898,8.04568"/>
   <path id="_229199784" class="fil3 str0" d="M716.376 479.157c2.23347,2.23465 4.9193,4.24016 5.57008,7.42796 0.249213,1.22362 0,3.04607 0,4.33229l0 1.85669"/>
   <path id="_229199928" class="fil3 str0" d="M732.468 473.587c2.54528,0.784253 5.23701,1.69488 6.18898,4.33229 0.628347,1.74685 0.618898,1.84252 0.618898,3.71457 0,2.93858 -0.578741,1.42559 3.71339,3.09449"/>
   <path id="_229199616" class="fil3 str0" d="M757.843 466.779c1.19291,1.10787 2.56299,1.9441 3.71339,3.09449 0.530315,0.530315 0.820867,1.23189 1.2378,1.85669 1.25079,1.87795 2.47559,3.19961 2.47559,5.57008"/>
   <path id="_229199832" class="fil3 str0" d="M774.555 456.877c1.76929,0.816142 2.4626,0.98504 3.71339,1.85669 0.546851,0.380315 0.72756,0.810237 1.2378,1.2378 0.379134,0.320079 0.885827,0.26811 1.2378,0.618898l0.618898 0.618898 0.618898 0.618898c0.572835,0.572835 0.618898,1.56024 0.618898,2.47559"/>
   <path id="_229198992" class="fil3 str0" d="M791.884 448.212c1.07008,1.15748 2.82874,2.89252 3.71339,4.33229 0.427559,0.693308 0.472441,1.09134 1.2378,1.85669 0.81378,0.812599 1.66417,1.66417 2.47559,2.47559l0.618898 0.618898c1.36654,1.36536 0.216142,1.61339 2.47559,0"/>
   <path id="_229198488" class="fil3 str1" d="M314.699 689.59c-6.34489,6.55512 -6.18898,3.36851 -6.18898,7.42678 -0.337796,0.112205 -3.09449,12.5445 -3.09449,14.2347 -0.714567,0.237402 -1.85669,3.13347 -1.85669,4.33229 -0.666142,0.222047 -1.2378,2.64685 -1.2378,3.71339 -1.35118,0.45 -1.12441,2.64567 -2.47559,3.09449 0,6.24331 -6.80788,14.4177 -6.80788,22.2815 0,8.81103 3.71339,14.5028 3.71339,22.2815 0.955513,0.317717 0.618898,-0.0212599 0.618898,1.2378 1.20827,0.401575 0.0295276,0.216142 1.2378,0.618898 0.197244,0.793701 0.421654,1.06299 0.618898,1.85669 0.920079,0.304725 2.78858,2.17441 3.09449,3.09449 0.793701,0.197244 1.06299,0.420473 1.85669,0.618898 0.46063,1.38662 7.99489,4.33229 9.90237,4.33229 0.33189,0.998032 0.669686,0.618898 1.85669,0.618898 0.424016,1.27323 5.11418,3.09449 6.80906,3.09449 0.317717,0.955513 -0.0212599,0.618898 1.2378,0.618898 0.296457,0.891733 3.67559,2.15788 4.95119,2.47559 0.32126,0.964961 4.29449,3.39567 5.57008,3.71339 0.432284,1.73504 1.42441,0.740552 1.85669,2.47559 1.73504,0.432284 0.740552,1.42441 2.47559,1.85669 0.354331,1.42205 0.897639,0.83504 1.2378,1.85669"/>
   <path id="_229198032" class="fil3 str0" d="M317.175 768.811c11.6079,-8.93032 37.1044,25.0618 53.8465,27.8504 11.5807,1.92992 32.3315,1.58268 42.7052,5.57008 21.2504,8.17323 28.2614,-22.6914 42.7052,-37.1351 9.18544,-9.18544 78.0296,-22.7752 82.3158,-9.90237"/>
   <path id="_229197720" class="fil3 str1" d="M453.337 792.948c14.4969,-0.850394 28.5945,-14.2347 45.7996,-14.2347 41.041,0 80.1237,7.22127 95.9316,-40.2296 3.15473,-9.47009 6.49961,-39.0473 2.47559,-49.513 -2.98937,-7.7752 -8.31733,-14.1532 -11.7591,-21.0437 -1.69961,-3.40276 -10.6004,-18.9721 -13.6158,-16.7102"/>
   <path id="_229197792" class="fil3 str0" d="M615.493 681.543c4.0004,22.6843 29.2347,57.5599 45.7996,72.4134 9.41576,8.44489 15.8232,28.0996 27.2315,30.9461"/>
   <path id="_229197984" class="fil1 str2" d="M312.842 618.414c-16.9276,-31.441 -136.54,52.1115 -148.539,76.1268 -16.0146,32.054 -36.5162,53.0398 -36.5162,88.5048 0,6.72756 12.665,21.202 18.5669,11.7591 9.6567,-15.4512 6.87756,-37.1268 17.9492,-54.4642 22.0382,-34.5095 45,-52.18 78.6024,-82.3158 9.97206,-8.94331 34.0689,-18.1937 46.4185,-21.0437 10.0984,-2.32914 34.7445,-19.8047 23.5181,-18.5669z"/>
   <path id="_229193016" class="fil1 str2" d="M181.632 745.91c-1.68898,-3.13819 -7.07599,-11.0835 -11.7591,-9.28347 -6.60591,2.54055 -12.3791,15.7146 -12.3791,22.8992 0,7.84725 -1.3063,11.2075 3.09567,16.7114 2.35276,2.93977 8.5382,3.34843 11.1402,1.2378 4.43268,-3.59882 6.90591,-8.04922 9.28347,-14.2358 2.61732,-6.80552 1.85669,-12.3059 0.618898,-17.3291z"/>
   <path id="_229190736" class="fil1 str2" d="M197.636 686.738c-5.91378,3.69685 -8.08229,7.93938 -9.5752,14.2099 -1.68189,7.06536 -3.60709,21.2799 3.7063,24.0933 13.2992,5.11654 20.387,-10.5579 20.387,-21.3142 0,-5.92796 -0.396851,-10.5224 -5.25119,-13.8992 -0.676772,-0.47126 -8.63505,-6.23504 -9.26694,-3.08977z"/>
   <path id="_229189560" class="fil1 str2" d="M256.944 665.116c-2.35512,-4.37126 -2.83701,-12.9732 -9.26694,-12.9732 -17.5181,0 -24.2268,39.8469 -11.1201,39.8469 6.2563,0 11.7768,-7.30512 16.3713,-10.5024 5.70709,-3.97205 4.01575,-11.0291 4.01575,-16.3713z"/>
   <path id="_229189440" class="fil1 str2" d="M292.466 630.83c-5.97874,0.459449 -14.6244,8.83938 -16.3713,14.5181 -2.62677,8.54292 -6.15945,18.0851 3.39803,22.8579 7.38662,3.68622 22.8106,-11.941 25.6382,-17.6067 3.12166,-6.25276 1.71614,-8.40473 -1.85315,-14.2099 -1.22717,-1.99252 -9.97914,-10.8366 -10.8118,-5.55945z"/>
   <path id="_229188504" class="fil1 str2" d="M267.662 677.21c-11.6433,0.894095 -43.0004,30.0036 -52.6075,39.6107 -16.3323,16.3335 -37.754,67.9607 -37.754,90.9816 0,39.1642 20.3043,15.691 27.8516,-6.19016 13.3996,-38.8512 40.3748,-74.041 77.9835,-88.5048 6.76418,-2.60197 27.9803,-30.1973 20.4236,-37.754 -5.51457,-5.51457 -37.1351,-2.05276 -35.8973,1.85669z"/>
   <path id="_229189152" class="fil1 str2" d="M333.267 639.456c59.9315,-55.3288 291.484,31.8355 345.355,64.9867 21.9839,13.5272 81.9095,44.2583 84.7914,69.319 7.27323,63.2339 79.1422,77.8264 30.3272,-19.8059 -43.9725,-87.945 -147.384,-133.611 -239.521,-144.207 -37.2508,-4.28504 -112.38,-39.7134 -150.396,-25.9949 -13.1929,4.75985 -43.8118,11.7732 -53.2276,12.9969 -7.97953,1.03701 -33.8315,43.324 -17.3291,42.7052z"/>
   <path id="_229189056" class="fil1 str2" d="M578.977 536.717c-64.3087,-5.96339 -100.954,-25.4173 -167.107,-22.9004 -45.1914,1.71969 -75.306,49.1504 -56.941,47.0374 92.3765,-10.6228 151.336,-15.6425 246.947,14.2358 77.3729,24.1772 124.341,14.478 193.102,65.6044 36.2504,26.9528 48.8079,64.7138 73.6512,95.3139 9.12284,11.2347 22.8992,-7.42205 22.8992,-17.9492 0,-93.6402 -193.728,-177.593 -312.552,-181.342z"/>
   <path id="_229188984" class="fil1 str2" d="M357.333 571.213c-3.01181,3.91536 -8.14253,11.3303 -8.64922,15.7536 -0.256299,2.25118 -0.636615,3.52087 0.617717,5.56063 3.30355,5.37048 8.03386,-1.08543 9.26694,-4.3252 2.07047,-5.43426 4.63347,-9.90119 4.63347,-16.0618 0,-1.19291 -1.20591,-5.12835 -2.1626,-5.25119 -1.71142,-0.222047 -2.5252,3.93189 -3.7063,4.32402z"/>
   <path id="_229188840" class="fil1 str2" d="M377.103 568.125c-5.97284,8.36103 -4.08898,15.8539 5.55945,18.5339 12.7866,3.55158 31.767,-13.6772 21.313,-25.3299 -4.40906,-4.91339 -12.6969,-7.09016 -16.989,-0.925985 -0.97441,1.40079 -9.5752,7.78701 -9.88347,7.72205z"/>
   <path id="_229188816" class="fil1 str2" d="M417.876 568.125c2.2311,4.14449 4.77638,7.17993 8.33977,8.95749 17.0386,8.50749 27.678,-16.8024 16.989,-27.4914 -5.25473,-5.25355 -17.3941,-4.84489 -22.8579,0.617717 -3.20906,3.21024 -4.01575,4.63583 -4.01575,9.57639 0,2.03622 -0.0897639,9.5752 1.54488,8.33977z"/>
   <path id="_229188624" class="fil1 str2" d="M458.032 564.419c0,18.9378 37.9996,17.2477 32.7414,-5.56063 -2.03268,-8.82166 -15.4016,-15.7665 -24.0933,-11.4284 -3.08032,1.5378 -6.86693,3.5126 -7.72205,6.79489 -0.350788,1.34646 -2.48858,9.57048 -0.925985,10.1941z"/>
   <path id="_229188528" class="fil1 str2" d="M497.767 569.598c-1.02992,8.04922 11.9882,21.7807 20.8075,18.6047 5.33504,-1.92166 9.5752,-10.2213 9.5752,-15.7536 0,-8.97402 -9.76772,-14.8264 -18.2244,-14.8264 -10.7953,0 -11.8394,8.74725 -12.1583,11.9752z"/>
   <path id="_229188720" class="fil1 str2" d="M540.434 583.532c0,8.37048 19.6571,12.0189 25.826,9.64607 8.3693,-3.21969 13.6913,-7.55197 13.6913,-17.426 0,-12.515 -26.5323,-17.5453 -32.6717,-8.71182 -1.11496,1.60158 -11.4177,15.078 -6.84567,16.4917z"/>
   <path id="_229188360" class="fil1 str2" d="M589.441 594.578c0,7.67363 10.8165,12.7571 17.2689,12.7571 20.5134,0 27.8788,-25.5921 4.66772,-31.2709 -8.70709,-2.13071 -18.7795,-1.07835 -22.5591,7.46812 -0.666142,1.50591 -0.366142,10.839 0.622441,11.0457z"/>
   <path id="_229186512" class="fil1 str2" d="M634.871 604.535c-4.11614,7.64764 2.82756,16.7882 9.9567,18.9815 16.0347,4.93111 31.2,-17.6291 17.1142,-30.1831 -9.05434,-8.06694 -24.1016,4.12205 -27.0709,11.2016z"/>
   <path id="_229185600" class="fil1 str2" d="M684.812 627.25c-3.62126,9.65906 11.4473,19.1421 19.9146,15.5587 8.01733,-3.39213 12.1358,-13.3854 12.1358,-21.4701 0,-7.20473 -7.65709,-12.4689 -14.1579,-13.3807 -6.42166,-0.900001 -15.2032,3.43819 -17.8925,9.49135 -0.676772,1.52599 -2.2004,9.3815 0,9.8008z"/>
   <path id="_229185888" class="fil1 str2" d="M730.848 639.051c-2.51457,1.93701 -2.2252,10.4599 -1.09961,13.2248 2.89252,7.09843 13.5945,14.4673 20.563,9.13111 11.8677,-9.08741 19.911,-30.3591 1.4126,-37.9418 -6.51969,-2.67402 -9.59765,1.40433 -13.3429,6.61182 -1.29213,1.79646 -8.39646,8.31733 -7.53308,8.97402z"/>
   <path id="_229186056" class="fil1 str2" d="M769.462 667.862c-4.10552,11.6658 5.47678,20.3374 15.3839,23.1449 10.6406,3.01536 18.8055,-4.71733 22.2886,-14.8004 3.12284,-9.03898 0.102756,-15.3248 -7.22008,-20.9398 -15.8622,-12.163 -30.2953,-4.55197 -30.4524,12.5953z"/>
   <path id="_229617728" class="fil1 str2" d="M801.641 712.191c0,40.9748 49.3087,19.5626 39.0071,-10.0654 -7.59804,-21.8528 -43.3713,-9.35316 -39.0071,10.0654z"/>
   <path id="_229617632" class="fil1 str2" d="M822.718 753.086c-3.62599,7.85434 1.07126,23.2772 10.0654,23.2772 7.67245,0 16.0288,3.5374 22.0205,-3.14528 10.9996,-12.2693 10.7114,-32.4 -9.43702,-32.4 -5.99646,0 -12.3555,0.770079 -16.6725,4.08898 -1.55669,1.19764 -7.38544,6.613 -5.97638,8.17914z"/>
   <path id="_229617512" class="fil1 str2" d="M87.0249 405.216c44.68,-44.6811 137.877,-43.3559 193.501,-87.8398 94.0241,-75.1949 254.694,-54.7689 393.369,-48.3756 45.4559,2.09528 113.636,11.3433 146.399,31.826 12.4725,7.79883 69.6556,77.4745 82.7469,61.1056 44.0847,-55.1268 -135.183,-94.9961 -169.314,-105.662 -68.7804,-21.4949 -190.084,-10.3866 -248.242,-39.4642 -61.6583,-30.8292 -166.078,13.1929 -220.236,61.1056 -25.9394,22.9488 -76.526,64.9252 -110.754,64.9252 -44.0859,0 -77.041,61.1056 -67.4705,62.3788z"/>
   <path id="_229617440" class="fil1 str2" d="M103.28 325.791c-3.56103,5.14252 -4.92874,21.4583 -2.86181,27.665 0.647245,1.94173 3.00236,4.39607 5.40473,2.86063 4.95473,-3.16299 3.74174,-12.7701 3.49843,-17.8063 -0.31063,-6.43701 0.922442,-16.2343 -1.27205,-21.9402 -2.80984,-7.30867 -6.67796,9.43347 -4.7693,9.22087z"/>
   <path id="_229617344" class="fil1 str2" d="M117.589 309.893c-3.26221,7.92048 -5.1378,22.2579 6.67678,22.2579 9.59528,0 8.95867,-8.98938 10.1752,-16.5354 1.16339,-7.22008 3.42402,-23.1449 -7.31339,-20.6681 -2.47795,0.571654 -4.90512,7.45512 -5.72363,8.90316 -0.779528,1.38307 -4.67244,5.07284 -3.81496,6.04252z"/>
   <path id="_229616792" class="fil1 str2" d="M147.796 304.805c-1.27323,5.51693 -1.27205,13.0524 -1.27205,18.7606 0,7.54134 13.6654,7.6878 14.3091,-3.49725 0.317717,-5.51811 8.17205,-43.8437 -2.54292,-42.6095 -5.75434,0.66378 -10.4941,23.2677 -10.4941,27.3461z"/>
   <path id="_229616240" class="fil1 str2" d="M169.736 293.358c0,7.0441 9.76891,30.0248 17.4886,23.8488 9.45355,-7.56142 8.77678,-43.1492 -2.86181,-48.9685 -10.3772,-5.18859 -8.88426,1.72795 -11.765,9.22087 -1.26969,3.30118 -4.04292,15.398 -2.86181,15.8988z"/>
   <path id="_229615544" class="fil1 str2" d="M201.852 271.1c-1.00748,4.37126 0.742914,11.5795 2.86181,14.6268 1.85079,2.65866 5.85591,5.85473 7.63229,7.63111 5.01851,5.01851 12.4252,-9.1819 13.6725,-13.6725 2.14606,-7.7315 -5.63741,-29.2536 -13.037,-29.2536 -7.90867,0 -11.4473,15.4417 -11.1295,20.6681z"/>
   <path id="_229615232" class="fil1 str2" d="M233.332 257.426c0,6.41457 4.17284,25.4386 10.4929,25.4386 5.67756,0 11.1614,-25.5945 12.4016,-30.8433 1.1811,-5.00315 3.7937,-16.4126 -0.954331,-19.715 -6.61654,-4.60394 -14.6575,-5.30788 -17.4886,4.13386 -0.924804,3.08504 -3.17953,7.33819 -3.17953,10.8106 0,2.68937 -1.27205,10.0169 -1.27205,10.1752z"/>
   <path id="_229614704" class="fil1 str2" d="M265.765 229.445c-2.87717,5.34567 -8.28072,37.6866 6.67796,30.2079 7.48583,-3.74292 31.3299,-45.1831 17.8063,-46.7422 -4.67599,-0.539764 -14.928,-5.19095 -18.7606,0.317717 -3.49607,5.02678 -6.67678,9.43583 -5.72363,16.2165z"/>
   <path id="_229614536" class="fil1 str2" d="M312.508 210.366c-2.04567,4.43268 -5.40591,10.1504 -5.40591,14.9445 0,7.53426 8.40709,11.6941 15.2622,8.26772 4.80827,-2.40355 13.1114,-9.65434 13.9913,-14.9445 1.32047,-7.92875 6.18071,-19.715 -6.99567,-19.715 -6.61654,0 -15.4618,6.32363 -16.852,11.4473z"/>
   <path id="_229613984" class="fil1 str2" d="M363.702 181.113c-4.42087,4.42087 -5.72363,12.013 -5.72363,18.124 0,9.4004 13.6158,8.00906 20.3504,7.31339 7.66064,-0.791339 13.676,-4.64882 15.5811,-12.0827 2.67047,-10.4197 -1.36299,-22.5756 -12.0839,-22.5756 -5.91969,0 -18.7606,6.53977 -18.124,9.22087z"/>
   <path id="_229612880" class="fil1 str2" d="M407.582 176.025c-7.43977,7.43977 -9.84331,20.0374 2.5441,23.2122 11.5051,2.9504 29.0693,-28.0748 19.0784,-33.0685 -5.91615,-2.95866 -9.04016,-3.68032 -13.9913,1.27205 -1.65354,1.65236 -8.58544,6.71457 -7.63111,8.58426z"/>
   <path id="_229622288" class="fil1 str2" d="M442.877 176.979c-7.83544,14.5536 6.76654,23.8477 20.0327,23.8477 14.1106,0 14.7874,-10.1291 18.4429,-21.9402 9.38859,-30.3378 -39.1111,-29.2406 -38.4756,-1.90748z"/>
   <path id="_229619528" class="fil1 str2" d="M503.611 186.519c0,13.6288 -1.97953,25.7551 14.9445,25.7551 16.9866,0 41.7307,-38.0847 19.0795,-47.3776 -14.6516,-6.00945 -33.3874,10.128 -34.024,21.6225z"/>
   <path id="_229620200" class="fil1 str2" d="M554.487 194.15c-2.52402,14.3067 11.7201,22.9866 24.4843,19.7138 21.8894,-5.61142 24.5008,-43.5626 -2.86181,-43.5626 -17.465,0 -21.3047,11.2287 -21.6225,23.8488z"/>
   <path id="_229620176" class="fil1 str2" d="M613.63 201.145c-6.86693,19.4575 3.66496,28.5154 21.9402,22.8933 10.6205,-3.26693 19.5638,-23.5654 21.6225,-33.3874 2.02677,-9.67324 -6.15827,-15.4866 -14.6268,-17.4886 -9.38859,-2.21693 -21.7512,2.99528 -22.8945,11.7662 -0.483071,3.70866 -5.46378,16.2165 -6.04134,16.2165z"/>
   <path id="_229620248" class="fil1 str2" d="M664.506 204.007c-1.89095,6.14646 -0.336614,13.8721 0.635434,19.7138 1.91575,11.4992 24.926,7.46694 31.4799,1.58977 6.31536,-5.66103 12.2764,-19.0099 8.26772,-27.0272 -4.70315,-9.40867 -12.1146,-21.7559 -23.8488,-15.5811 -5.13071,2.7 -7.72796,5.18386 -11.765,9.22087 -1.3689,1.37008 -6.70985,11.7555 -4.7693,12.0839z"/>
   <path id="_229619864" class="fil1 str2" d="M722.059 215.455c-14.2075,37.8886 49.5662,43.0855 51.8304,3.81496 1.60394,-27.8067 -51.8304,-28.0429 -51.8304,-3.81496z"/>
   <path id="_229619720" class="fil1 str2" d="M782.475 234.851c-5.95985,1.98662 -2.58898,17.0575 1.58977,20.3504 17.6103,13.8732 61.4563,10.989 45.789,-20.3504 -6.27166,-12.5421 -20.3114,-13.3547 -33.0697,-13.3547 -7.01221,0 -15.2634,9.90355 -14.3091,13.3547z"/>
   <path id="_229620104" class="fil1 str2" d="M854.019 255.836c-26.6729,26.674 17.002,53.589 38.1579,32.4343 23.4366,-23.4378 -18.7524,-56.6906 -38.1579,-32.4343z"/>
   <path id="_229620008" class="fil3 str0" d="M149.068 391.295c-5.32441,1.87914 -10.0913,2.98465 -15.2622,5.72245 -6.52678,3.45355 -14.687,9.53977 -22.2591,9.53977"/>
   <path id="_229619984" class="fil3 str0" d="M162.423 395.746c-6.49725,12.9957 -21.9756,22.5886 -34.3406,26.7095"/>
   <path id="_229619768" class="fil3 str0" d="M190.406 382.39c-2.64095,11.2264 -8.27363,19.8851 -17.8075,26.7107 -3.46536,2.48268 -19.3677,12.3154 -20.3504,15.2622"/>
   <path id="_229619624" class="fil3 str0" d="M210.119 411.009c-9.90237,0 -16.5284,2.82756 -26.074,4.45158 -2.98347,0.506693 -23.0528,4.02874 -20.3504,7.63111"/>
   <path id="_229619744" class="fil3 str0" d="M224.746 420.548c-6.30355,1.93937 -12.5445,5.52284 -19.0784,6.99449 -5.5193,1.24252 -10.9902,2.72244 -16.5343,3.81614 -2.17087,0.42874 -9.90591,1.9878 -4.45158,-1.90748"/>
   <path id="_229619840" class="fil3 str0" d="M234.921 381.755c-13.135,7.72678 -31.5366,16.5343 -47.0599,16.5343"/>
   <path id="_229620224" class="fil3 str0" d="M253.364 390.023c-3.52914,6.05079 -10.4256,7.16812 -17.1709,8.90316 -5.55591,1.42913 -11.1402,2.86654 -16.5343,4.45158 -7.09725,2.08701 -4.95119,-0.972048 -9.53977,7.63111"/>
   <path id="_229619936" class="fil3 str0" d="M267.991 392.566c-6.22678,6.7063 -9.39095,14.1071 -17.8063,19.0795 -7.36064,4.34882 -16.865,8.90316 -25.4386,8.90316"/>
   <path id="_229619576" class="fil3 str0" d="M276.894 365.221c-6.21969,5.26182 -10.3654,12.7713 -17.1709,18.4417 -3.37559,2.81339 -7.43505,6.34252 -11.4473,8.26772 -8.09292,3.88465 -2.56536,-2.1815 -12.0827,6.99567"/>
   <path id="_229619144" class="fil3 str0" d="M298.517 362.04c-3.53977,8.59843 -9.57993,14.5441 -17.1709,19.715 -4.35473,2.96693 -8.51339,6.5126 -13.3547,8.90316 -4.05827,2.00551 -9.93072,3.05433 0,1.90748"/>
   <path id="_229619048" class="fil3 str0" d="M309.327 371.58c-3.24331,7.56851 -9.30828,15.4099 -15.8977,20.9858 -3.10984,2.63032 -6.3189,4.96772 -10.1752,6.36024 -1.8189,0.655512 -4.95709,1.49173 -6.36024,2.5441"/>
   <path id="_229619336" class="fil3 str0" d="M323.319 383.027c-3.82914,7.65827 -8.51694,12.6437 -15.2622,17.8063 -4.5437,3.47835 -9.13702,5.82402 -14.6268,7.63111 -1.03228,0.340158 -7.72087,2.67874 -6.36024,0.636615"/>
   <path id="_229618976" class="fil3 str0" d="M339.853 397.017c-7.31457,13.5886 -33.7654,21.0083 -47.6953,26.074"/>
   <path id="_229618808" class="fil3 str0" d="M250.185 411.645c7.57205,7.05001 7.02638,4.20355 1.90748,10.1752 -4.2378,4.94528 -14.3433,7.46103 -20.3504,9.53859 -4.55433,1.57677 -9.28229,3.12047 -13.9913,3.81614 -9.34489,1.37835 -7.69961,2.42244 -12.0827,-7.63229"/>
   <path id="_229619288" class="fil3 str0" d="M562.437 356.953c7.57914,-13.265 24.7441,-21.6225 39.4288,-21.6225"/>
   <path id="_229619408" class="fil3 str0" d="M575.155 372.852c10.1528,-18.4606 44.2359,-8.90316 61.0512,-8.90316"/>
   <path id="_229619456" class="fil3 str0" d="M615.22 340.419c7.55552,7.01457 25.676,14.3882 34.3418,5.72245"/>
   <path id="_229618928" class="fil3 str0" d="M629.847 325.791c8.17205,1.92284 16.7634,4.13622 24.802,6.36024 8.96694,2.47914 18.0662,1.90748 27.3461,1.90748"/>
   <path id="_229618880" class="fil3 str0" d="M657.828 360.769c10.761,4.43032 27.4193,15.8256 37.5213,5.72245"/>
   <path id="_229618736" class="fil3 str0" d="M698.529 344.234c3.58347,-3.32717 2.90433,-2.80866 6.99567,-3.81496 2.01614,-0.496063 2.8004,-1.17284 5.08819,-1.27205 4.63229,-0.20315 8.74607,-1.90866 13.3547,-1.90866"/>
   <path id="_229619240" class="fil3 str0" d="M712.521 358.225c6.30473,4.05237 16.9311,4.84725 22.2579,10.1752"/>
   <path id="_229619072" class="fil3 str0" d="M690.263 321.339c9.47245,-4.05945 22.3547,4.03347 31.161,8.90434 3.76181,2.0811 12.7725,6.51851 13.9913,10.1752"/>
   <path id="_229619168" class="fil3 str0" d="M730.327 305.44c13.8898,1.98425 20.3528,22.8945 35.6138,22.8945"/>
   <path id="_229619192" class="fil3 str0" d="M758.945 302.261c6.75945,5.56772 11.6327,12.9059 17.8063,19.0784 2.52402,2.5252 11.2724,8.63387 13.9913,9.53977"/>
   <path id="_229618688" class="fil3 str0" d="M813.001 310.529c2.64685,3.36969 5.91969,7.24371 9.53977,9.53977 0.755906,0.479528 1.70669,0.316536 2.54292,0.635434 0.894095,0.338977 1.24134,1.1374 2.5441,1.27205 1.29921,0.132284 0.905906,-0.461811 2.5441,6.99567 -4.22835,-1.41024 -10.6429,-2.64567 -15.2634,-5.72363 -6.50079,-4.33465 -11.8441,-11.061 -18.4417,-15.8988"/>
   <path id="_229618616" class="fil3 str0" d="M754.494 335.966c7.32756,5.37402 14.9232,11.6835 22.8945,15.8988 5.60788,2.96575 13.2532,7.44804 19.0784,8.90434"/>
   <path id="_229618112" class="fil3 str0" d="M751.314 356.316c10.0913,3.10512 25.5815,21.5504 35.6126,16.5354"/>
   <path id="_229618472" class="fil3 str0" d="M807.914 351.229c3.74292,6.95079 8.08465,8.50276 14.6268,12.0827 1.76457,0.967324 12.991,5.2689 13.3547,6.36024"/>
   <path id="_229618232" class="fil3 str0" d="M526.823 352.501c8.45434,-14.2488 36.1063,-27.9815 60.4158,-27.9815"/>
   <path id="_229618208" class="fil3 str0" d="M526.823 316.252c4.68662,-6.56339 11.4378,-13.1539 18.4429,-17.1709 3.81851,-2.19095 15.7288,-6.20552 19.7138,-3.81614"/>
   <path id="_229618184" class="fil3 str0" d="M548.445 380.483c6.5941,-0.274016 11.4898,-2.32795 17.8063,-3.81614 11.2571,-2.65276 38.3433,3.66969 43.8803,-10.1752"/>
   <path id="_228854648" class="fil3 str0" d="M636.206 363.949c-0.779528,7.80709 -0.916536,3.10748 2.5441,1.27205 8.17205,-4.33465 23.6599,-2.37756 29.2536,-8.90434"/>
  </g>
 </g>
</svg>
