<?xml version="1.0" encoding="UTF-8"?>
<!DOCTYPE svg PUBLIC "-//W3C//DTD SVG 1.1//EN" "http://www.w3.org/Graphics/SVG/1.1/DTD/svg11.dtd">
<!-- Creator: CorelDRAW -->
<svg xmlns="http://www.w3.org/2000/svg" xml:space="preserve" width="1000px" height="1000px" style="shape-rendering:geometricPrecision; text-rendering:geometricPrecision; image-rendering:optimizeQuality; fill-rule:evenodd; clip-rule:evenodd"
viewBox="0 0 1000 1000"
 xmlns:xlink="http://www.w3.org/1999/xlink">
 <defs>
  <style type="text/css">
   <![CDATA[
    .str0 {stroke:#1F1A17;stroke-width:0.900001}
    .str2 {stroke:#1F1A17;stroke-width:8.33386}
    .str1 {stroke:#1F1A17;stroke-width:25.0004}
    .fil0 {fill:none}
    .fil2 {fill:#1F1A17}
    .fil1 {fill:white}
   ]]>
  </style>
 </defs>
 <g id="Warstwa_x0020_1">
  <metadata id="CorelCorpID_0Corel-Layer"/>
  <rect class="fil0 str0" x="-5324.47" y="7886.71" width="1002.45" height="1002.45"/>
  <g id="_228400288">
   <polygon id="_228375784" class="fil1 str1" points="103.139,101.503 108.932,642.212 782.887,640.281 779.025,105.365 "/>
   <path id="_228376096" class="fil2 str2" d="M799.514 349.486c-44.0953,0 -83.8572,171.625 -65.6174,219.046 5.86772,15.2539 -5.72717,92.5737 -18.3343,105.181 -26.4697,26.4697 38.615,42.4748 47.2831,51.143 9.05434,9.05434 -49.7422,160.727 -44.3882,165.008 27.6886,22.148 40.65,10.7232 37.6335,-15.4394 -3.5504,-30.7866 28.5792,-111.156 45.3532,-137.989 36.4488,-58.3111 19.2992,53.8796 19.2992,78.1619 0,23.6776 -30.6638,98.7509 3.85985,103.251 19.011,2.47795 36.6685,-146.897 36.6685,-183.343 0,-25.7162 12.5445,-46.3949 12.5445,-74.302 0,-25.5213 87.1158,18.2563 60.7926,-50.178 -22.7835,-59.2347 -31.0075,-121.714 -78.1619,-168.868 -12.2067,-12.2067 27.4583,-34.6276 4.82481,-40.5284 -0.66378,-0.172441 -42.0071,-66.1914 -61.7575,-51.143zm35.5914 21.1028c5.50748,4.21181 12.9673,5.30197 19.7575,6.02363 3.43229,0.36378 13.9217,-0.187795 16.3843,-2.6504m-33.9733 14.4567c6.49961,2.67638 31.4091,4.67717 35.178,-3.61418m-46.7433 -26.9858c4.46811,1.3748 9.24213,4.14095 13.7339,6.02363 4.55552,1.90984 5.97048,4.28268 11.3244,3.61418m1.20473 22.8898c2.95158,1.90984 4.98426,4.77048 7.95119,6.74646 3.15118,2.1 7.63111,4.94292 11.5654,4.8189 1.26614,-0.0401575 9.53977,0.253937 9.87875,0m-99.2694 -39.7559c-9.32835,4.38898 -17.3055,15.4205 -28.4315,15.4205m20.7213 4.57796c-9.74883,10.2354 -19.1658,20.8583 -33.4914,22.6488m20.7213 2.6504c-3.93071,1.12323 -13.9949,11.6953 -16.6252,15.1795 -3.45355,4.57205 -7.69489,9.17127 -12.7701,4.09607m38.5512 -49.1528c-3.91181,2.04921 -8.06457,3.45355 -12.0473,5.30079 -2.83937,1.31811 -6.21024,3.61418 -9.39686,3.61418m106.739 14.6976c13.1138,0 26.9268,29.9185 39.274,21.2032m-53.7308 -18.3118c10.4728,1.99488 18.7016,11.2996 23.1307,20.4803 2.44252,5.06103 10.8307,18.0591 16.8662,17.1071"/>
   <path id="_228379384" class="fil0 str2" d="M257.627 143.987c0,125.509 17.3799,251.007 17.3799,378.496"/>
   <path id="_228374056" class="fil0 str2" d="M294.318 196.127c0,65.7331 9.65552,131.482 9.65552,198.904 0,39.541 -3.48544,133.844 15.4488,164.144"/>
   <path id="_228375184" class="fil0 str2" d="M219.005 273.371c67.976,0 136.696,-6.4441 204.697,-7.72442 75.4631,-1.42205 139.813,4.10552 214.353,-11.5866"/>
   <path id="_228375808" class="fil0 str2" d="M553.086 171.023c0,120.151 49.4977,257.704 13.5177,374.634"/>
   <path id="_228373336" class="fil0 str2" d="M375.424 441.377c74.3197,-19.6713 132.31,-9.65552 206.628,-9.65552 38.9327,0 76.7292,-5.79331 113.935,-5.79331"/>
   <path id="_228374128" class="fil0 str2" d="M429.495 443.308c57.8776,0 119.744,-3.04252 175.73,11.5866 17.3008,4.52126 73.552,9.16654 88.8308,0"/>
   <path id="_228373408" class="fil0 str2" d="M444.944 520.552c41.2855,11.7957 94.6938,1.9311 139.039,1.9311 36.2788,0 75.2835,-4.96654 110.073,0"/>
   <path id="_228373168" class="fil0 str2" d="M477.773 203.851c20.3398,4.35709 42.1831,-5.79331 63.7264,-5.79331 61.9087,0 131.234,3.62599 191.179,-3.86221"/>
   <path id="_228373696" class="fil0 str2" d="M564.765 190.66c-5.78623,11.5725 -0.134646,30.7406 1.92756,42.8882 2.42126,14.2642 2.89134,27.0177 2.89134,41.4426"/>
   <path id="_228374344" class="fil0 str2" d="M620.664 195.96c-1.54606,13.1445 1.49882,31.4032 3.37323,44.8158 0.920079,6.58229 1.34882,13.1563 1.92756,19.7575 0.131102,1.50827 0.46063,11.7331 -0.48189,12.0473"/>
   <path id="_228401056" class="fil0 str2" d="M537.297 207.044c17.4378,0 34.591,-1.44567 52.0441,-1.44567 14.7567,0 29.152,3.37323 43.3701,3.37323"/>
   <path id="_228374680" class="fil0 str2" d="M554.163 256.679c16.7528,0 34.6642,-5.78623 51.5622,-7.71024 11.9421,-1.36063 23.7343,-1.44567 35.6599,-1.44567"/>
   <path id="_228397840" class="fil0 str2" d="M577.776 205.598c0,11.5276 0.240945,21.9 2.40945,33.2504 0.859843,4.50709 1.00866,18.0496 3.37323,21.2032"/>
   <path id="_228373984" class="fil0 str2" d="M599.943 208.49c1.81181,9.51379 5.0941,18.6886 5.30079,28.4315 0.146457,6.89292 0,13.8225 0,20.7213"/>
   <path id="_228372832" class="fil0 str2" d="M562.837 211.863c6.79016,9.36615 10.0429,7.69371 21.2032,6.74646 10.6701,-0.904725 21.2067,-0.551575 31.8047,0.48189 3.9815,0.388583 16.5992,2.04449 19.7575,-0.48189"/>
   <path id="_228373480" class="fil0 str2" d="M556.091 234.512c17.589,5.59607 36.5835,0.454725 54.4536,0 8.62205,-0.219685 19.8945,1.53189 27.9496,-0.48189"/>
   <path id="_228373720" class="fil0 str2" d="M681.382 186.804c0,10.5673 0.97441,20.8158 1.44567,31.3229 0.324803,7.23308 2.40945,14.1402 2.40945,21.2032"/>
   <path id="_228373792" class="fil0 str2" d="M657.769 219.091c13.2543,5.67993 37.6122,-2.76614 53.4898,-0.96378 10.0677,1.14331 23.4,1.0063 33.2504,-0.96378"/>
   <path id="_228373432" class="fil0 str2" d="M573.439 678.814c-59.6056,0 -122.166,-2.04921 -181.191,-6.26457 0.661418,4.4126 -1.2626,15.0461 2.89134,15.9024 36.2906,7.48347 85.2934,6.74646 122.882,6.74646 7.88741,0 28.1551,-4.38544 35.178,-0.48189 5.07874,2.82166 23.7437,-2.05866 22.6488,-0.96378"/>
  </g>
 </g>
</svg>
