<?xml version="1.0" encoding="UTF-8"?>
<!DOCTYPE svg PUBLIC "-//W3C//DTD SVG 1.1//EN" "http://www.w3.org/Graphics/SVG/1.1/DTD/svg11.dtd">
<!-- Creator: CorelDRAW -->
<svg xmlns="http://www.w3.org/2000/svg" xml:space="preserve" width="1000px" height="1000px" style="shape-rendering:geometricPrecision; text-rendering:geometricPrecision; image-rendering:optimizeQuality; fill-rule:evenodd; clip-rule:evenodd"
viewBox="0 0 1000 1000"
 xmlns:xlink="http://www.w3.org/1999/xlink">
 <defs>
  <style type="text/css">
   <![CDATA[
    .str1 {stroke:#1F1A17;stroke-width:4.16693}
    .str0 {stroke:#1F1A17;stroke-width:16.6665}
    .fil2 {fill:#1F1A17}
    .fil1 {fill:white}
    .fil0 {fill:#EEC2C6}
   ]]>
  </style>
 </defs>
 <g id="Warstwa_x0020_1">
  <metadata id="CorelCorpID_0Corel-Layer"/>
  <circle class="fil0" cx="505.447" cy="499.474" r="485.835"/>
  <g id="_228863144">
   <path id="_228862712" class="fil1 str0" d="M402.709 342.659l0 -8.35158c-1.74449,-0.581103 -1.0441,-2.11181 -1.0441,-4.1752 -1.74449,-0.581103 -1.04291,-2.11181 -1.04291,-4.1752 -1.68425,-0.561024 -1.0441,-1.12677 -1.0441,-3.1311 -1.30512,-0.434646 -2.08819,-3.27992 -2.08819,-5.2193 -1.61102,-0.536221 -1.04291,0.0354331 -1.04291,-2.08819 -1.61102,-0.536221 -1.0441,0.0366142 -1.0441,-2.08701 -1.8378,-0.612993 -1.29449,-2.51929 -3.13229,-3.13229l0 -2.08701c-1.61102,-0.536221 -1.04291,0.0354331 -1.04291,-2.08819 -1.61102,-0.536221 -1.0441,0.0354331 -1.0441,-2.08701 -1.61102,-0.537402 -1.0441,0.0354331 -1.0441,-2.08819 -1.61102,-0.536221 -1.0441,0.0354331 -1.0441,-2.08819 -1.83662,-0.611812 -1.29449,-2.51929 -3.1311,-3.1311l0 -2.08701c-1.73268,-0.57756 -5.82756,-4.95473 -6.26339,-6.26339l-2.08701 0c-0.679134,-2.0374 -0.366142,-0.0507874 -1.0441,-2.08819 -3.13465,0 -4.17284,-2.08701 -7.30749,-2.08701 -0.291733,-0.878741 -13.0476,-9.91654 -14.6138,-10.4386l0 -12.5268c1.61102,-0.536221 1.0441,0.0366142 1.0441,-2.08701 1.39725,-0.466536 2.66575,-1.73504 3.1311,-3.13229l2.08819 0c0.624804,-1.87441 8.82284,-1.04291 11.4827,-1.04291 0.561024,-1.68425 1.12559,-1.0441 3.1311,-1.0441 0.536221,-1.61102 -0.0354331,-1.0441 2.08819,-1.0441 0.464174,-1.39488 1.38189,-1.65118 3.1311,-2.08819l0 -2.08701c1.8626,-0.62126 1.0441,-7.86851 1.0441,-10.4386 -1.77756,-0.592914 -1.0441,-3.07914 -1.0441,-5.2193 -1.84961,-0.616536 -1.0441,-6.913 -1.0441,-9.3945l1.0441 -1.0441 2.08701 0c0.601182,-1.8 4.04174,-1.0441 6.26339,-1.0441l0 -8.3504c-1.9004,-0.633071 -0.766536,-3.3874 -3.1311,-4.1752 0,-2.15197 -0.435827,-3.62481 -2.08819,-4.1752l0 -2.08819c-1.8626,-0.620079 -1.0441,-7.86733 -1.0441,-10.4386 -1.60984,-0.536221 -1.04291,0.0366142 -1.04291,-2.08701 1.28976,-0.429922 1.65709,-0.798426 2.08701,-2.08819l2.08819 0c0.27874,-0.839764 4.43859,-2.87126 5.2193,-3.1311l0 -3.13229c8.90316,-2.96693 -9.21379,-21.5126 -10.4386,-21.9201l0 -2.08819c-3.05788,-1.01929 -3.80079,-5.38701 -7.30749,-6.26221 -0.334252,-1.34055 -0.708662,-1.79173 -1.04291,-3.13229 -4.17638,-1.0441 -5.3752,-5.2193 -10.4386,-5.2193 -0.561024,-1.68425 -1.12677,-1.0441 -3.13229,-1.0441 -1.05591,-3.16654 -27.404,0 -31.3146,0 -0.536221,1.61102 0.0354331,1.0441 -2.08819,1.0441 -0.561024,1.68425 -1.12677,1.0441 -3.1311,1.0441 -0.536221,1.61102 0.0354331,1.0441 -2.08819,1.0441 -0.611812,1.83662 -2.51929,1.29449 -3.1311,3.1311l-2.08819 0c-0.103937,0.312992 -9.74528,10.2083 -10.4386,10.4386l0 2.08819c-1.61102,0.536221 -1.04291,-0.0366142 -1.04291,2.08701 -3.86575,1.28858 -5.60315,8.1319 -9.39568,9.3945 0,5.04804 -2.08701,11.5583 -2.08701,16.702 -1.68425,0.561024 -1.0441,1.12677 -1.0441,3.1311 -2.29252,0.764174 -2.08701,8.40001 -2.08701,11.4827 -2.01024,0.669686 -2.08819,11.4036 -2.08819,14.6138 1.61102,0.536221 1.0441,-0.0354331 1.0441,2.08819 1.70315,0.56693 1.42795,1.5189 3.1311,2.08701l0 2.08819c1.61102,0.536221 1.0441,-0.0366142 1.0441,2.08701 1.61102,0.536221 1.0441,-0.0354331 1.0441,2.08819 1.61102,0.536221 1.04291,-0.0354331 1.04291,2.08701 1.61102,0.537402 1.0441,-0.0354331 1.0441,2.08819 1.61102,0.536221 1.0441,-0.0354331 1.0441,2.08819 1.61102,0.536221 1.0441,-0.0366142 1.0441,2.08701 1.74449,0.582284 1.0441,2.11299 1.0441,4.1752 3.53859,1.17992 -0.578741,7.53071 -1.0441,9.3945 -1.79528,0.448819 -10.9973,6.8941 -11.4827,8.35158l-2.08701 0c-0.537402,1.61102 0.0354331,1.0441 -2.08819,1.0441 -0.536221,1.60984 0.0354331,1.04291 -2.08819,1.04291 -0.536221,1.61102 0.0366142,1.0441 -2.08701,1.0441 -0.679134,2.0374 -0.364961,0.0507874 -1.0441,2.08819l-2.08701 0c-0.679134,2.0374 -0.366142,0.0496063 -1.0441,2.08701l-2.08819 0c-0.677953,2.0374 -0.364961,0.0507874 -1.0441,2.08819l-2.08701 0c-1.06181,3.18544 -7.36182,3.34725 -8.35158,7.3063 -2.6811,0.670867 -2.04331,2.42244 -4.1752,3.13229l0 2.08701c-4.69489,1.56496 -7.43623,12.9177 -12.5256,14.6138l0 2.08819c-1.8378,0.611812 -1.29449,2.51929 -3.1311,3.1311l0 3.13229c-1.68425,0.561024 -1.0441,1.12559 -1.0441,3.1311 -3.01654,1.00512 -2.08819,14.778 -2.08819,18.789 1.84961,0.616536 1.0441,6.913 1.0441,9.3945 1.8626,0.62126 1.0441,7.86851 1.0441,10.4386 -1.20473,0.401575 -3.13229,5.28308 -3.13229,7.30749 -1.66063,0.552756 -2.08701,3.97441 -2.08701,6.26221 -1.40906,0.470079 -2.08819,5.13898 -2.08819,7.30749 -1.57323,0.52441 -4.1752,21.1394 -4.1752,25.0524 -2.65158,0.883465 0,29.5618 0,34.4469 0,12.4973 2.08819,23.7933 2.08819,36.5339 -5.89961,1.96654 4.1752,28.4469 4.1752,32.3599 2.92914,0.976772 0,11.9858 0,14.6138 -1.68425,0.561024 -1.0441,1.12677 -1.0441,3.1311 -1.13504,0.377953 -4.1752,15.8008 -4.1752,18.789 -1.68425,0.561024 -1.0441,1.12677 -1.0441,3.13229 -1.61102,0.536221 -1.0441,-0.0354331 -1.0441,2.08701 -1.65236,0.551575 -2.08701,2.02323 -2.08701,4.17638 -1.61102,0.536221 -1.0441,-0.0366142 -1.0441,2.08701 -1.77756,0.592914 -1.0441,3.07914 -1.0441,5.2193l9.3945 0c0.6,1.80118 4.04055,1.0441 6.26339,1.0441 0.592914,1.77756 3.07914,1.0441 5.2193,1.0441 0.6,1.8 4.04055,1.04291 6.26339,1.04291 0.680315,2.04331 2.44961,2.13189 3.1311,4.17638 2.48268,0 3.53622,1.04291 6.26339,1.04291 0.429922,1.28976 0.797245,1.65827 2.08701,2.08819l0 2.08701c1.61102,0.537402 1.0441,-0.0354331 1.0441,2.08819 1.66063,0.553937 2.08819,3.97559 2.08819,6.26339 1.62756,0.542126 2.08701,6.13111 2.08701,8.3504 5.1815,37.9985 -5.97048,101.348 -14.6138,138.832 -8.57127,37.1658 -26.0965,80.7638 -26.0965,117.954 0,17.7874 -9.40985,39.6662 12.5268,39.6662 16.7244,0 81.4194,18.7028 81.4194,-10.4386 0,-12.7606 -17.7449,-12.815 -17.7449,-32.3587 0,-29.6445 -1.12441,-55.4115 12.5256,-77.2453 4.4752,-7.15749 -2.67874,-26.8205 2.08819,-34.4469 3.40748,-5.44961 4.1752,53.5867 4.1752,62.6315 0,26.178 -18.1618,99.1643 15.6579,99.1643 21.8327,0 67.5213,8.15788 88.7268,0 26.1236,-10.0476 -22.6311,-17.4579 -30.2717,-26.0953 -27.6638,-31.2756 -5.2193,-139.952 -5.2193,-183.717 -7.45158,-4.34646 5.2193,-64.2308 5.2193,-78.2883 0,-7.41615 -3.18189,-28.6725 1.0441,-31.3158 26.3988,-16.5036 27.1394,12.0886 27.1394,-38.6221 0,-8.11772 -26.3516,-106.728 -3.1311,-83.5075 16.1894,16.1894 40.3926,26.8229 55.3241,41.7544 4.35945,4.35945 36.5185,-15.3756 41.7532,-21.9213 9.61418,-12.0225 -15.1725,-14.1295 -24.0083,-22.9642 -15.5634,-15.5646 -88.7268,-63.254 -88.7268,-93.9461z"/>
   <path id="_228862856" class="fil2 str0" d="M592.167 167.293l-6.78544 0c-0.536221,1.61102 0.0354331,1.0441 -2.08701,1.0441 -0.22441,0.672048 -5.81693,7.15867 -6.26339,7.30749l0 2.08701c-1.61102,0.536221 -1.0441,-0.0354331 -1.0441,2.08819 -2.13307,0.711024 -1.91811,3.42284 -4.1752,4.1752l0 2.08819 -2.08819 0c-0.561024,1.68307 -1.12559,1.04291 -3.1311,1.04291 -0.536221,1.61102 0.0354331,1.0441 -2.08819,1.0441 -0.611812,1.8378 -2.51929,1.29449 -3.1311,3.13229l-2.08819 0c-1.43976,4.31929 -2.08701,7.43623 -2.08701,13.5697 1.77756,0.591733 1.0441,3.07914 1.0441,5.2193 2.4874,0.829135 0,7.68544 0,10.4386l1.04291 1.04291 2.08819 0c0.561024,1.68425 1.12677,1.0441 3.1311,1.0441 0.582284,1.74449 2.11299,1.0441 4.17638,1.0441 0.37441,1.12559 4.46221,2.08819 6.26221,2.08819 0.466536,1.39606 1.73504,2.66575 3.13229,3.1311l0 2.08701c1.68425,0.562205 1.04291,1.12677 1.04291,3.13229 1.77874,0.592914 1.0441,3.07914 1.0441,5.2193 -1.66063,0.552756 -2.08701,3.97559 -2.08701,6.26221 -1.77874,0.592914 -1.0441,3.08032 -1.0441,5.2193 -1.61102,0.537402 -1.0441,-0.0354331 -1.0441,2.08819 1.61102,0.536221 1.0441,-0.0354331 1.0441,2.08819l2.08701 0 0 4.1752 1.0441 1.0441 6.26339 0c0.592914,-1.77874 3.07914,-1.0441 5.2193,-1.0441l0 2.08701c2.0374,0.679134 0.0496063,0.366142 2.08701,1.0441 0,2.9941 1.0441,4.31221 1.0441,7.30749 1.74449,0.581103 1.0441,2.11181 1.0441,4.1752 0.788977,0.262205 4.84843,3.06024 5.2193,4.1752l10.4386 0 1.0441 1.0441c0,7.44922 -3.76418,16.9122 -9.3945,18.789l0 2.08701c-2.03858,0.679134 -0.0507874,0.366142 -2.08819,1.0441l0 2.08819c-1.61102,0.536221 -1.0441,-0.0354331 -1.0441,2.08701 -1.61102,0.537402 -1.0441,-0.0354331 -1.0441,2.08819 -1.74449,0.581103 -1.04291,2.11181 -1.04291,4.1752 -1.68425,0.561024 -1.0441,1.12677 -1.0441,3.13229 -1.97599,0.657875 -1.0441,21.1772 -1.0441,25.0512 1.74449,0.582284 1.0441,2.11299 1.0441,4.17638 1.97244,0.656693 1.0441,20.2311 1.0441,24.0083 1.74449,0.581103 1.04291,2.11181 1.04291,4.1752 1.66181,0.552756 2.08819,3.97559 2.08819,6.26339 1.68425,0.561024 1.0441,1.12559 1.0441,3.1311 1.8,0.6 1.0441,4.04055 1.0441,6.26339 1.77756,0.591733 1.04291,3.07914 1.04291,5.2193 -1.56496,0.522048 -31.1433,26.6244 -31.3146,27.1394l-2.08819 0c-0.677953,2.0374 -0.364961,0.0507874 -1.0441,2.08819l-3.1311 0c-0.581103,1.74449 -2.11299,1.04291 -4.1752,1.04291 -0.468898,1.41024 -5.13898,2.08819 -7.30749,2.08819 -0.536221,1.61102 0.0366142,1.0441 -2.08701,1.0441 -0.536221,1.61102 0.0354331,1.0441 -2.08819,1.0441 -0.677953,2.0374 -0.364961,0.0496063 -1.0441,2.08701l-2.08701 0c-0.568111,1.70433 -1.52008,1.42795 -2.08819,3.13229l-2.08701 0c-0.679134,2.0374 -0.366142,0.0496063 -1.0441,2.08701l-3.13229 0c-0.6,1.80118 -4.04055,1.0441 -6.26221,1.0441 -0.6,1.80118 -4.04174,1.0441 -6.26339,1.0441 -0.633071,-1.89803 -10.7315,-1.0441 -13.5697,-1.0441 -0.451181,1.35236 -7.3004,6.9567 -8.35158,7.3063 0,3.69449 1.37126,3.06851 2.08819,5.2193l2.08819 0c0.536221,1.61102 -0.0366142,1.0441 2.08701,1.0441 0.536221,1.61102 -0.0354331,1.0441 2.08819,1.0441 0.465355,1.39725 1.73386,2.66575 3.1311,3.1311l0 7.30749c-1.39725,0.465355 -2.66575,1.73386 -3.1311,3.1311 -2.99528,0 -4.31221,1.0441 -7.30749,1.0441 -0.561024,1.68425 -1.12559,1.0441 -3.1311,1.0441 -0.536221,1.61102 0.0354331,1.0441 -2.08819,1.0441 -0.751182,2.25709 -3.46418,2.04095 -4.1752,4.1752l-2.08701 0c-0.227953,0.681497 -4.17284,5.91497 -5.2193,6.26221l0 2.08819c4.01575,0 11.2642,0.654331 12.5256,-3.1311l2.08819 0c0.536221,-1.61102 -0.0366142,-1.0441 2.08701,-1.0441 0.561024,-1.68425 1.12677,-1.0441 3.13229,-1.0441l0 2.08819c1.68307,0.561024 1.04291,1.12559 1.04291,3.1311 1.29095,0.429922 1.65827,0.797245 2.08819,2.08819l4.1752 0c0.53504,-1.60512 2.54292,-2.86181 3.1311,-5.2193l4.17638 0 0 2.08701c4.21536,1.40551 4.63583,5.2193 12.5256,5.2193 0.681497,-2.04331 2.45079,-2.13189 3.1311,-4.1752l5.2193 0c0.537402,1.61102 -0.0354331,1.0441 2.08819,1.0441 0.561024,1.68425 1.12677,1.0441 3.1311,1.0441 0.611812,1.83543 5.95749,1.04291 8.35158,1.04291 2.97166,-8.91733 20.6752,-16.0984 24.0083,-26.0953l8.3504 0 0 2.08701c1.77756,0.592914 1.0441,3.08032 1.0441,5.2193 -1.61102,0.536221 -1.0441,-0.0354331 -1.0441,2.08819 -3.2067,1.06772 -2.08701,8.97402 -2.08701,12.5256 1.11732,0.372048 7.05119,6.54331 7.3063,7.30749 4.29331,0 7.64882,-1.0441 11.4827,-1.0441 0.677953,-2.0374 0.364961,-0.0507874 1.04291,-2.08819l2.08819 0c0.679134,-2.0374 0.364961,-0.0496063 1.0441,-2.08701l6.26339 0 0 2.08701c3.01418,1.00512 0,44.9221 0,51.1489 1.74449,0.581103 1.04291,2.11181 1.04291,4.1752 1.61102,0.536221 1.0441,-0.0354331 1.0441,2.08819 2.0374,0.677953 0.0507874,0.364961 2.08819,1.0441l0 2.08701c6.94607,2.31496 14.6138,12.4193 14.6138,24.0083 1.68425,0.561024 1.0441,1.12677 1.0441,3.13229 1.74449,0.581103 1.04291,2.11181 1.04291,4.1752 1.68425,0.561024 1.0441,1.12559 1.0441,3.1311 1.80118,0.6 1.0441,4.04055 1.0441,6.26339 1.87441,0.624804 1.0441,8.82166 1.0441,11.4815 0.591733,14.837 10.4386,25.3252 10.4386,42.7985 0,10.6949 3.1311,21.3945 3.1311,32.8807 0,22.5012 17.0634,34.7126 17.2228,50.1048l0.522048 50.1048c13.2437,71.1579 -35.4898,71.3871 -35.4898,90.2918 28.3831,7.09607 56.6363,-2.08701 81.4194,-2.08701 0,11.6764 -18.789,9.75119 -18.789,21.9201 98.6316,0 98.5572,-48.3591 65.7615,-133.611 -9.99213,-25.9748 -41.7532,-69.8977 -41.7532,-90.815 0,-28.624 16.702,-76.2131 16.702,-102.297 41.0776,-10.2697 15.3177,-33.1595 11.4815,-62.6315 -3.87992,-29.8051 -19.5166,-97.1729 -5.2193,-120.041 31.6902,-50.6906 -26.0953,-76.2107 -26.0953,-103.341l-1.0441 1.0441c-2.67402,-4.96536 -5.7,-12.5268 -11.4827,-12.5268 -0.333071,-1.00039 -7.46221,-3.1311 -9.3945,-3.1311 -0.536221,-1.61102 0.0354331,-1.0441 -2.08819,-1.0441 -1.62402,-4.87323 -15.2788,-9.30473 -16.7008,-13.5697l-2.08819 0c-0.37441,-1.12559 -4.46221,-2.08819 -6.26221,-2.08819 -0.466536,-1.39725 -1.73504,-2.66575 -3.13229,-3.1311 0,-2.9941 -1.0441,-4.31221 -1.0441,-7.30749 -1.40906,-0.468898 -2.08701,-5.1378 -2.08701,-7.3063 -1.16457,-0.388583 -4.1752,-7.26969 -4.1752,-9.3945 -1.61102,-0.536221 -1.0441,0.0354331 -1.0441,-2.08819 -1.68425,-0.561024 -1.0441,-1.12677 -1.0441,-3.1311 -1.61102,-0.536221 -1.0441,0.0354331 -1.0441,-2.08819 -2.53819,-0.84567 -6.45709,-7.37245 -9.3945,-8.3504 0,-3.3189 0.969686,-9.42048 -2.08701,-10.4386l0 -2.08819c-1.37599,-0.457087 -4.94528,-5.44016 -5.2193,-6.26221l-2.08819 0c-0.814961,-3.25985 -4.1752,-3.52559 -4.1752,-7.30749 -1.39725,-0.465355 -2.66575,-1.73386 -3.1311,-3.1311 -2.60906,0 -4.29922,-1.0441 -7.30749,-1.0441 -0.61063,-1.83543 -5.95749,-1.0441 -8.3504,-1.0441 -0.592914,-1.77756 -3.08032,-1.0441 -5.2193,-1.0441 -0.561024,1.68425 -1.12677,1.0441 -3.13229,1.0441 -0.536221,1.61102 0.0366142,1.0441 -2.08701,1.0441 -0.536221,1.61102 0.0354331,1.0441 -2.08819,1.0441 -0.561024,1.68425 -1.12559,1.0441 -3.1311,1.0441l-8.87245 1.04291z"/>
   <path id="_228862112" class="fil1 str1" d="M706.99 110.926c-0.839764,-1.82008 -7.12205,-14.2276 -9.3945,-10.9606 -6.15355,8.85001 -10.0382,18.2067 -22.9642,8.87245 -9.69804,-7.00158 -12.2575,19.5874 -18.789,2.61024 -2.32205,-6.03426 -15.6,7.67717 -19.8331,8.87245 -15.9284,4.49646 -12.0791,13.6453 -20.8772,22.4421 -6.02835,6.02835 -12.7169,0.957875 -20.3551,10.4386 -4.52717,5.62087 -10.9606,13.7197 -10.9606,20.8772 0,16.9335 11.6008,-3.88937 14.0929,0.522048 0.634252,1.12205 -0.0307087,9.40867 2.08701,8.3504 13.9323,-6.96142 4.5567,4.69725 12.5268,4.69725 24.1311,0 7.15158,12.6721 27.1394,14.0917 6.18898,0.43937 4.95119,13.5543 6.78544,17.224 3.9874,7.98308 9.3945,-10.4882 9.3945,-14.0917 0,-5.08583 9.01182,-7.0252 7.82835,-9.3945 -2.2878,-4.57796 -11.0221,-7.69607 -14.6138,-12.5268 -7.69371,-10.3476 13.5331,-8.38347 0,-20.3551 -5.45434,-4.82363 8.14725,-9.06851 3.13229,-17.2228 -10.8898,-17.7012 21.5232,-11.2335 22.4421,-9.3945 1.30158,2.60551 -8.3504,6.16772 -8.3504,10.4386 0,4.7693 13.5,-1.4126 16.1788,-1.56614 6.0378,-0.346063 4.73268,21.3024 17.7461,6.78544 3.43229,-3.82914 -11.387,-14.2028 -3.13229,-24.5303 3.63898,-4.55315 12.7075,-15.2516 9.91654,-16.1799z"/>
   <path id="_228861920" class="fil1 str1" d="M735.174 251.322c-5.97402,-3.21496 -19.8177,-0.0673229 -27.1406,5.2193 -9.0189,6.51378 0.237402,6.51851 5.74134,8.35158 9.46536,3.15118 -0.15,5.51457 -2.08819,9.3945 -2.1378,4.27796 10.5295,3.98032 10.9606,7.3063 0.457087,3.52323 -7.51418,6.75237 -1.56496,9.3945 17.1827,7.63347 -11.302,11.576 0,17.224 11.7886,5.89016 -0.820867,35.7898 -8.35158,43.3193 -8.95631,8.95749 -4.25079,25.8969 5.2193,18.2669 2.60669,-2.09882 6.40158,-22.304 14.0917,-14.6138 7.25434,7.25434 11.452,-2.72481 12.0047,-9.3945 0.848032,-10.2354 10.9476,-25.0595 18.789,-33.9248 10.5496,-11.928 12.9508,-1.0441 23.4862,-1.0441 11.7697,0 -6.99922,-11.8205 -3.65315,-17.7449 2.08229,-3.68622 42.2989,-22.6205 24.5303,-25.5744 -10.7752,-1.79173 5.21811,-15.6555 6.26339,-17.7449 8.89371,-17.8004 -25.9453,13.4811 -26.0965,13.5697 -6.90709,4.07008 -14.5288,10.5354 -17.7449,-1.0441 -1.82717,-6.57166 -2.55473,-11.9799 -9.91654,-15.6579 -2.4,-1.19882 -3.30591,30.7866 -13.0488,18.789 -3.09213,-3.8067 -5.74489,-14.0917 -11.4815,-14.0917z"/>
   <path id="_228861608" class="fil1 str1" d="M757.616 358.317c26.4284,-21.8717 -13.4232,1.17992 -21.9201,-2.08819 -15.1299,-5.81811 -9.8504,6.85158 -4.17638,12.5256 1.22953,1.22953 -17.0221,22.7693 -19.8331,25.0524 -2.02323,1.6441 -6.5693,11.3622 -12.5256,16.702 -4.97953,4.46457 -18.4299,12.1299 -19.8331,17.7449 12.7748,2.55473 40.4445,-9.99568 53.2359,-14.6138 7.57442,-2.73307 28.1847,-10.4563 28.1847,-18.789 0,-6.14764 25.402,-27.5563 31.3146,-32.3587 3.75355,-3.04961 54.691,-20.8772 17.7461,-20.8772 2.13898,-8.56064 29.7673,3.29528 41.7532,-7.30749 2.13071,-1.88386 31.8922,-16.0394 18.789,-17.7449 -4.95709,-0.644882 -20.276,4.42559 -25.0524,6.26339 -10.161,3.90709 -22.911,-8.18741 -33.4028,-9.3945 -3.75827,-0.432284 -17.1933,2.55355 -13.5697,8.3504 2.67284,4.27559 15.1949,1.74095 16.702,6.26339 -8.75434,2.1874 -17.7461,0.222047 -17.7461,11.4815 0,6.47245 -15.3343,18.2055 -19.8331,18.7902 -0.168898,0.0212599 -33.6815,4.26733 -19.8331,0z"/>
   <path id="_228861992" class="fil1 str1" d="M725.258 556.647c-4.60512,-1.06181 -19.1162,-1.68071 -15.6579,7.30749 2.76496,7.18819 -1.69252,9.92599 -5.2193,15.6579 -2.9067,4.72559 1.04764,9.93662 -4.1752,13.5697 -18.5575,12.9095 5.16496,11.2406 4.1752,19.8331 -0.650788,5.6563 -13.337,14.7579 -5.2193,19.8331 7.3193,4.57678 8.24646,2.43189 13.5697,-5.2193 3.06733,-4.40906 11.7,-8.20985 15.6579,-9.3945 0.907087,-0.271654 3.3378,-4.26378 2.08819,-6.26339 -2.3374,-3.74055 9.44883,-4.1752 13.5697,-4.1752 6.7193,0 21.5551,-13.5756 13.5697,-14.6138 -5.29252,-0.688583 -19.7516,5.29961 -20.8772,4.1752 -2.38937,-2.38937 -12.2256,-2.90788 -12.5256,-5.2193 -0.572835,-4.41142 3.14882,-7.7126 5.2193,-9.3945 6.93426,-5.63268 -4.1752,-1.97835 -4.1752,-10.4386 0,-3.31536 9.00946,-9.96261 10.4386,-10.4386 -4.13032,-3.09685 -8.96457,-0.797245 -10.4386,-5.2193z"/>
   <path id="_228860744" class="fil1 str1" d="M765.967 710.092c-3.33662,-4.00394 -2.21693,-3.52323 -5.21811,-5.2193 -1.00394,-0.56693 -2.36811,-1.32402 -3.13229,-2.08701 -0.491339,-0.491339 -0.354331,-0.954331 -1.0441,-1.0441 -2.54055,-0.329528 -1.39725,-0.819686 -3.1311,-1.0441 -1.21654,-0.158268 -3.45591,0.46063 -4.1752,1.0441 -0.409843,0.333071 -0.798426,1.35827 -2.08819,2.08701 -1.21063,0.683859 -2.81221,2.95276 -3.1311,4.17638 -0.752363,2.89134 -3.60945,5.71654 -3.1311,9.3945 0.402756,3.09567 5.97048,2.08701 9.3945,2.08701 0,2.58662 1.04291,2.06457 1.04291,5.2193 2.91378,0 1.12087,0.783071 3.13229,1.0441 0.959056,0.124016 2.15433,0 3.1311,0 7.87796,0 2.04685,-4.29803 1.0441,-7.30749l11.4827 0c0,-2.2441 0.262205,-5.44607 -1.0441,-6.26221 -2.51575,-1.57323 -3.96142,1.68543 -3.13229,-2.08819z"/>
   <path id="_228854744" class="fil1 str1" d="M789.976 767.505c-1.46575,-4.76457 -3.13229,-7.61457 -3.13229,-12.5268 0,-4.46693 2.08819,-6.25749 2.08819,-10.4386 5.16142,-1.71969 -6.16063,-16.3925 -6.26339,-16.7008 -4.95237,0 -3.1311,8.53111 -3.1311,12.5256 1.77756,0.592914 1.0441,3.07914 1.0441,5.2193 -7.45276,2.48386 -6.26339,9.9815 -6.26339,17.7449 -1.97008,0.656693 -2.08819,4.75276 -2.08819,7.30749 -1.61102,0.536221 -1.0441,-0.0354331 -1.0441,2.08701 -1.28976,0.431103 -1.65709,0.798426 -2.08701,2.08819l-2.08819 0c-0.598819,1.79528 -4.16693,2.60788 -6.26221,3.1311l0 3.13229c2.98937,0.746457 4.89213,1.0441 8.3504,1.0441l1.0441 1.04291c0,5.49922 -7.30749,5.23701 -7.30749,12.5268 4.61221,0 7.80709,-1.0441 12.5268,-1.0441 0,6.05552 -2.09764,10.4386 5.2193,10.4386 0.927166,-2.78386 5.36221,-4.60512 6.26221,-7.30749 4.77284,0 3.54803,-3.26929 6.26339,-4.1752l0 -5.2193c-1.74449,-0.581103 -1.0441,-2.11181 -1.0441,-4.1752 1.28976,-0.429922 1.65827,-0.797245 2.08819,-2.08701l2.08701 0 0 -2.08819c2.28425,-0.760631 1.22244,-3.43701 4.1752,-4.1752l0 -2.08819c2.39882,-0.598819 1.40669,-1.51299 3.13229,-2.08701l0 -3.13229 -6.26339 0c-0.536221,1.61102 0.0354331,1.0441 -2.08701,1.0441 -0.537402,1.61102 0.0354331,1.0441 -2.08819,1.0441 -0.536221,1.61102 0.0354331,1.0441 -2.08819,1.0441 -0.536221,1.61102 0.0366142,1.04291 -2.08701,1.04291 -0.602363,-2.40827 -1.0441,-3.43701 1.0441,-5.21811z"/>
  </g>
 </g>
</svg>
