<?xml version="1.0" encoding="UTF-8"?>
<!DOCTYPE svg PUBLIC "-//W3C//DTD SVG 1.1//EN" "http://www.w3.org/Graphics/SVG/1.1/DTD/svg11.dtd">
<!-- Creator: CorelDRAW -->
<svg xmlns="http://www.w3.org/2000/svg" xml:space="preserve" width="1000px" height="1000px" style="shape-rendering:geometricPrecision; text-rendering:geometricPrecision; image-rendering:optimizeQuality; fill-rule:evenodd; clip-rule:evenodd"
viewBox="0 0 1000 1000"
 xmlns:xlink="http://www.w3.org/1999/xlink">
 <defs>
  <style type="text/css">
   <![CDATA[
    .str1 {stroke:#1F1A17;stroke-width:4.16693}
    .str2 {stroke:#1F1A17;stroke-width:8.33386}
    .str0 {stroke:#1F1A17;stroke-width:16.6665}
    .fil2 {fill:none}
    .fil1 {fill:white}
    .fil0 {fill:#A5A3B4}
   ]]>
  </style>
 </defs>
 <g id="Warstwa_x0020_1">
  <metadata id="CorelCorpID_0Corel-Layer"/>
  <circle class="fil0" cx="500.68" cy="498.622" r="485.835"/>
  <g id="_295548120">
   <path id="_295548096" class="fil1 str0" d="M337.09 885.111l286.427 -458.992c5.52874,-18.8504 -24.6484,-32.5229 -36.9733,-48.7831l9.49135 -17.9917c3.43229,0 5.95512,1.64882 8.9067,1.64882 3.30355,0 5.93741,-0.99567 5.93741,-4.28859 0,-1.00984 -0.173622,-1.37362 -0.329528,-1.97953 -0.602363,-2.31142 -3.17835,-3.31063 -5.60788,-4.61811l33.5788 -61.7339 15.1689 -23.6469c0,-0.4063 -0.046063,-0.707481 -0.330709,-0.992127 -0.200788,-0.20315 -0.48189,-0.444095 -0.659056,-0.496063 -0.245669,-0.0732284 -0.210236,-0.297638 -0.494882,-0.497244 -0.179528,-0.124016 -0.425197,-0.0921261 -0.494882,-0.329528 -0.0307087,-0.102756 -0.0755906,-0.103937 -0.164173,-0.165354 -0.219685,-0.153543 -0.275197,-0.271654 -0.330709,-0.496063 -0.145276,-0.585827 -0.194882,-0.214961 -0.493701,-0.661418l-0.602363 -1.04646c0,-1.63819 0.87756,-3.24095 1.64291,-4.59922 0.994489,-1.76339 3.43819,-2.08347 4.59922,-3.94252 1.87323,-2.99173 0.00472441,-9.90001 -0.328347,-12.8138 -0.191339,-1.68425 -4.54489,-3.31654 -6.26339,-4.16457 -5.21811,2.40945 -9.4252,3.0874 -12.7618,7.19882 -1.65827,2.04567 -3.70985,8.0693 -6.87166,4.90867 -2.75551,-2.75551 -10.4102,8.93505 -11.7803,11.1248 -2.1815,3.4937 -8.04331,11.6917 -8.83465,14.0705l-36.3213 56.2819c0.0614174,0.056693 -6.26457,1.31102 -7.15158,1.65354 -2.22638,0.855119 -2.83229,0.852757 -3.9437,2.6374 -1.86024,2.99055 -1.16221,4.57323 1.31339,6.5941 1.08071,0.882284 2.61142,1.55315 3.28701,2.6374 0.620079,0.996851 1.29095,2.20748 1.6441,3.62599l-10.0264 14.0102c-19.1728,-4.01221 -50.2075,-18.4937 -57.5233,-12.0331l-250.582 441.007c-2.45079,-11.5913 -60.7595,-7.3063 -50.2134,20.2051 6.99686,18.2504 2.9563,44.3457 13.4221,61.4197 32.3859,52.8414 -51.3993,1.64291 -43.2024,64.7859 8.93505,68.8276 145.886,69.1335 116.184,21.4547 -11.9539,-19.1847 5.49922,-15.4536 17.1969,-10.9382 69.0083,26.6374 54.7441,-66.4465 33.4855,-60.0556z"/>
   <line id="_295548432" class="fil2 str1" x1="786.662" y1="8.72717" x2="651.178" y2= "237.288" />
   <path id="_295547736" class="fil2 str1" d="M482.314 378.323c1.4126,2.62441 3.85394,8.56064 6.00237,10.2898 6.97914,5.61851 11.0953,17.0587 20.1496,18.8634"/>
   <path id="_295548408" class="fil2 str1" d="M469.452 402.332c4.88386,5.25945 8.06694,10.0949 14.1484,14.1473 3.68386,2.45669 13.2898,7.33347 13.2898,12.0047"/>
   <path id="_295547928" class="fil2 str1" d="M461.307 423.768c1.51299,6.56339 4.70906,14.1839 10.7173,17.5772 2.80158,1.58268 16.0264,8.85237 16.2921,10.7185"/>
   <path id="_295547904" class="fil2 str1" d="M448.445 443.489c4.25552,4.58386 7.73977,9.95788 12.0047,14.5772 4.01221,4.34528 10.4917,8.61497 11.5748,14.576"/>
   <path id="_295548384" class="fil2 str1" d="M435.584 464.067c2.63504,8.56536 18.7441,18.1205 25.7232,24.4382 3.13229,2.83701 4.99843,6.28465 7.71615,9.00237 3.8126,3.8126 6.85512,3.41929 9.43229,8.57481"/>
   <path id="_295548336" class="fil2 str1" d="M427.009 479.073c2.9752,6.94371 6.22796,13.8756 12.4323,18.4347 4.44567,3.26457 16.6394,6.5126 18.0071,12.0047"/>
   <path id="_295548312" class="fil2 str1" d="M417.577 502.653c0.431103,5.63741 5.53229,12.4784 9.00355,17.1484 3.61772,4.86615 9.41339,7.26969 13.2898,11.1473"/>
   <path id="_295547880" class="fil2 str1" d="M402.572 523.66c5.80276,4.14449 11.1248,11.1921 15.8622,16.7209 2.74488,3.20315 11.576,9.5693 11.576,13.7185"/>
   <path id="_295548264" class="fil2 str1" d="M392.282 537.808c2.20394,5.35276 6.21851,13.0784 10.2898,17.1484 2.04331,2.04331 4.56969,4.17874 6.85867,6.00237 2.31732,1.84252 5.55945,2.98583 7.71733,5.14489"/>
   <path id="_295548216" class="fil2 str1" d="M383.707 555.814c3.53268,12.365 11.628,19.3453 20.1508,27.867 3.30945,3.30945 6.48071,6.6626 10.2886,9.00355 2.13898,1.31575 14.687,8.09174 13.7197,8.57481"/>
   <path id="_295547856" class="fil2 str1" d="M371.704 576.393c2.14016,2.99764 4.0063,6.43819 6.00237,9.43229 2.72717,4.09016 7.12205,7.18583 10.2886,10.7185 2.33622,2.60433 5.7567,6.78071 8.57481,7.71615"/>
   <path id="_295548360" class="fil2 str1" d="M362.272 593.113c0,7.09489 4.61575,13.9807 8.14607,19.7209 1.29567,2.10473 4.95709,4.67599 6.85985,6.43111 1.82717,1.6878 6.68741,2.72953 7.28741,5.14489"/>
   <path id="_295547784" class="fil2 str1" d="M349.411 613.692c4.9878,7.9819 14.0469,28.7244 24.8658,28.7244"/>
   <path id="_295547832" class="fil2 str1" d="M340.836 632.126c1.84606,5.99764 8.72717,12.1087 12.861,16.7209 3.72284,4.14922 7.36064,9.0756 11.1473,12.861"/>
   <path id="_295548168" class="fil2 str1" d="M330.117 649.276c5.7756,12.5114 17.804,20.3752 25.7232,28.2957 0.871654,0.870473 17.5784,16.291 17.5784,17.1484"/>
   <path id="_295548288" class="fil2 str1" d="M321.115 666.853c2.4189,5.53229 5.68937,13.0571 10.2886,17.1496 2.27244,2.01851 10.3205,6.94607 11.1473,9.43111"/>
   <path id="_295548456" class="fil2 str1" d="M311.254 685.718c3.51733,6.53623 7.71851,13.0571 11.576,19.2921 2.20158,3.56221 7.03347,7.0878 9.43111,10.2886"/>
   <path id="_295548240" class="fil2 str1" d="M298.392 701.58c5.93032,5.50512 9.02953,14.2323 15.8634,18.4347 2.11063,1.29803 8.84292,10.6606 9.43229,12.4335"/>
   <path id="_295548192" class="fil2 str1" d="M290.675 719.586c4.82953,5.94686 7.14804,14.0079 11.5748,18.4358 1.14331,1.14331 11.8087,12.026 13.5874,13.2614"/>
   <path id="_295547808" class="fil2 str1" d="M283.838 734.018c2.69055,12.5811 8.72717,23.6398 18.4925,31.3937 3.92244,3.11339 7.11969,6.47481 10.5366,9.89174 1.19646,1.19646 9.98859,7.52599 8.17087,7.52599"/>
   <path id="_295548144" class="fil2 str2" d="M500.856 349.063c7.21536,15.6319 8.33977,22.4197 23.2949,33.2173 18.4382,13.3122 25.7906,22.0394 49.6099,30.6296 7.35945,2.65158 45.5681,13.2319 44.8654,14.2358"/>
   <path id="_295547760" class="fil2 str1" d="M551.02 358.31c3.42402,15.4039 18.6862,23.2925 33.3366,23.2925"/>
  </g>
 </g>
</svg>
