<?xml version="1.0" encoding="UTF-8"?>
<!DOCTYPE svg PUBLIC "-//W3C//DTD SVG 1.1//EN" "http://www.w3.org/Graphics/SVG/1.1/DTD/svg11.dtd">
<!-- Creator: CorelDRAW -->
<svg xmlns="http://www.w3.org/2000/svg" xml:space="preserve" width="1000px" height="1000px" style="shape-rendering:geometricPrecision; text-rendering:geometricPrecision; image-rendering:optimizeQuality; fill-rule:evenodd; clip-rule:evenodd"
viewBox="0 0 1000 1000"
 xmlns:xlink="http://www.w3.org/1999/xlink">
 <defs>
  <style type="text/css">
   <![CDATA[
    .str0 {stroke:#1F1A17;stroke-width:0.900001}
    .str2 {stroke:#1F1A17;stroke-width:8.33386}
    .str1 {stroke:#1F1A17;stroke-width:16.6665}
    .fil0 {fill:none}
    .fil1 {fill:white}
    .fil2 {fill:#1F1A17;fill-rule:nonzero}
   ]]>
  </style>
 </defs>
 <g id="Warstwa_x0020_1">
  <metadata id="CorelCorpID_0Corel-Layer"/>
  <rect class="fil0 str0" x="-5324.47" y="7886.71" width="1002.45" height="1002.45"/>
  <g id="_282333712">
   <path id="_282339904" class="fil1 str1" d="M739.288 474.429c-22.8189,-114.709 -114.7,-303.975 -224.475,-362.218 -141.236,-74.9339 -330.427,145.31 -362.218,283.079 -19.7339,85.5237 -35.3315,188.728 15.2197,267.859 118.468,185.447 392.676,332.451 553.98,133.929 89.2725,-109.869 40.2863,-224.577 17.4933,-322.648z"/>
   <path id="_282339784" class="fil1 str1" d="M489.004 345.897c-110.146,-26.263 -275.9,53.0729 -258.089,142.636 50.0481,251.656 202.807,366.929 405.568,258.591 130.084,-69.5044 -11.0362,-368.692 -147.48,-401.227z"/>
   <path id="_282339760" class="fil1 str1" d="M542.115 474.538c-62.9056,-14.9988 -251.888,27.2693 -241.716,78.4194 28.5815,143.724 158.421,233.897 274.221,172.025 74.2914,-39.6945 45.4193,-231.865 -32.5051,-250.445z"/>
   <path id="_282339736" class="fil1 str1" d="M528.99 537.31c-37.2803,-7.60631 -138.845,37.317 -132.869,67.3654 16.7906,84.43 63.4536,124.065 138.273,101.056 65.093,-20.0185 71.7225,-152.684 -5.40355,-168.422z"/>
   <line id="_282338776" class="fil0 str2" x1="676.131" y1="301.252" x2="800.874" y2= "216.062" />
   <line id="_282340024" class="fil0 str2" x1="609.195" y1="429.039" x2="799.353" y2= "357.54" />
   <line id="_282339064" class="fil0 str2" x1="595.504" y1="524.879" x2="800.874" y2= "494.454" />
   <line id="_228373432" class="fil0 str2" x1="585.022" y1="618.805" x2="810.002" y2= "631.367" />
   <path id="_228373792" class="fil2" d="M864.65 232.706c0,3.2374 -0.57756,6.15827 -1.6937,8.74371 -1.13386,2.60433 -2.75315,4.83662 -4.85433,6.67796 -2.10236,1.86024 -4.7067,3.27402 -7.7941,4.27796 -3.08859,1.00512 -6.56693,1.50709 -10.4551,1.50709 -2.36221,0 -4.57559,-0.204331 -6.62245,-0.576378 -2.06457,-0.390945 -3.88701,-0.837402 -5.48741,-1.35827 -1.59921,-0.539764 -2.91969,-1.07835 -3.98032,-1.63701 -1.04173,-0.576378 -1.71142,-0.967324 -1.97244,-1.22717 -0.27874,-0.261024 -0.483071,-0.50315 -0.63189,-0.762993 -0.148819,-0.261024 -0.27874,-0.558662 -0.390945,-0.930709 -0.111024,-0.372048 -0.185433,-0.799607 -0.242126,-1.33937 -0.0555119,-0.520867 -0.0744095,-1.17165 -0.0744095,-1.93465 0,-1.30158 0.131102,-2.21339 0.372048,-2.71536 0.261024,-0.520867 0.614174,-0.762993 1.09843,-0.762993 0.315355,0 0.967324,0.27874 1.93465,0.874016 0.967324,0.57756 2.19449,1.20945 3.70158,1.87914 1.50591,0.669686 3.27402,1.30276 5.28308,1.87914 2.02677,0.576378 4.25906,0.874016 6.73347,0.874016 2.4,0 4.50118,-0.316536 6.32481,-0.929528 1.82244,-0.614174 3.34843,-1.48819 4.57559,-2.62323 1.22835,-1.11614 2.15788,-2.45551 2.77205,-3.99922 0.633071,-1.5437 0.930709,-3.21851 0.930709,-5.04095 0,-2.00906 -0.390945,-3.79488 -1.17284,-5.39528 -0.780709,-1.59921 -1.91575,-2.97638 -3.42284,-4.14803 -1.50591,-1.15276 -3.36614,-2.04567 -5.56182,-2.65984 -2.19449,-0.633071 -4.70552,-0.930709 -7.49646,-0.930709l-6.69686 0c-0.297638,0 -0.576378,-0.0744095 -0.855119,-0.185433 -0.261024,-0.129921 -0.501969,-0.335433 -0.707481,-0.633071 -0.204331,-0.297638 -0.35315,-0.669686 -0.483071,-1.15276 -0.129921,-0.465355 -0.186614,-1.07953 -0.186614,-1.84134 0,-0.688583 0.0377953,-1.26496 0.148819,-1.73032 0.112205,-0.446457 0.261024,-0.799607 0.465355,-1.07953 0.204331,-0.27874 0.427559,-0.483071 0.688583,-0.595276 0.259843,-0.129921 0.538583,-0.204331 0.874016,-0.204331l6.15709 0c2.4,0 4.53898,-0.297638 6.45473,-0.911812 1.89803,-0.63189 3.51614,-1.50591 4.85552,-2.67756 1.32047,-1.15394 2.34331,-2.54882 3.05079,-4.16693 0.7063,-1.61929 1.06063,-3.42284 1.06063,-5.43189 0,-1.45158 -0.242126,-2.82756 -0.707481,-4.16693 -0.483071,-1.32047 -1.19055,-2.47441 -2.12008,-3.46063 -0.949607,-0.967324 -2.15788,-1.74803 -3.62835,-2.30669 -1.46929,-0.576378 -3.18071,-0.855119 -5.09646,-0.855119 -2.10236,0 -4.03701,0.316536 -5.80394,0.967324 -1.76693,0.63189 -3.32953,1.30158 -4.72441,2.02795 -1.37717,0.744095 -2.51103,1.41378 -3.42284,2.04567 -0.911812,0.650788 -1.5437,0.967324 -1.91575,0.967324 -0.242126,0 -0.484252,-0.0555119 -0.669686,-0.148819 -0.205512,-0.0933072 -0.372048,-0.259843 -0.50315,-0.539764 -0.129921,-0.27874 -0.204331,-0.650788 -0.259843,-1.15276 -0.0555119,-0.484252 -0.0933072,-1.13504 -0.0933072,-1.93465 0,-0.539764 0.0188977,-1.02284 0.0555119,-1.43268 0.0377953,-0.427559 0.112205,-0.780709 0.223229,-1.09724 0.112205,-0.297638 0.242126,-0.595276 0.372048,-0.837402 0.148819,-0.259843 0.390945,-0.557481 0.744095,-0.911812 0.335433,-0.334252 1.04173,-0.836221 2.10236,-1.48819 1.04173,-0.650788 2.34449,-1.30158 3.88819,-1.93465 1.5437,-0.63189 3.32953,-1.17165 5.33859,-1.61811 2.02795,-0.427559 4.18583,-0.650788 6.51024,-0.650788 3.27402,0 6.13937,0.427559 8.61261,1.26496 2.47441,0.837402 4.53898,2.00906 6.19489,3.53386 1.65591,1.52599 2.88307,3.34843 3.70158,5.48859 0.818505,2.12008 1.22835,4.46457 1.22835,7.05001 0,2.21339 -0.297638,4.27796 -0.875198,6.17599 -0.576378,1.91575 -1.4315,3.60827 -2.56654,5.07756 -1.11614,1.46929 -2.49213,2.71654 -4.12914,3.75827 -1.63701,1.04173 -3.53504,1.74803 -5.67402,2.15788l0 0.111024c2.43662,0.242126 4.6689,0.8563 6.67796,1.82362 2.00906,0.967324 3.75709,2.17559 5.20867,3.62717 1.45039,1.45039 2.58544,3.1441 3.40394,5.09646 0.818505,1.93465 1.22835,4.01811 1.22835,6.2315zm0.538583 152.369c0,0.651969 -0.0366142,1.24725 -0.129921,1.74921 -0.0933072,0.501969 -0.223229,0.929528 -0.390945,1.28386 -0.166536,0.334252 -0.372048,0.595276 -0.650788,0.761812 -0.27874,0.167717 -0.576378,0.242126 -0.892914,0.242126l-38.9705 0c-0.50315,0 -0.949607,-0.0555119 -1.33937,-0.185433 -0.372048,-0.131102 -0.707481,-0.335433 -0.986221,-0.633071 -0.261024,-0.297638 -0.465355,-0.7063 -0.595276,-1.24606 -0.129921,-0.558662 -0.186614,-1.22835 -0.186614,-2.02795 0,-0.725197 0.0188977,-1.35827 0.0744095,-1.89685 0.056693,-0.558662 0.186614,-1.02402 0.354331,-1.45158 0.185433,-0.408662 0.408662,-0.837402 0.687402,-1.24606 0.279921,-0.427559 0.633071,-0.874016 1.06063,-1.33937l13.6913 -14.491c3.1441,-3.34843 5.69174,-6.34371 7.58977,-9.00355 1.91575,-2.64095 3.38504,-5.05985 4.42678,-7.23662 1.02284,-2.19449 1.71142,-4.16575 2.02795,-5.95158 0.334252,-1.76811 0.501969,-3.44173 0.501969,-5.00433 0,-1.5626 -0.259843,-3.05079 -0.762993,-4.44567 -0.520867,-1.39488 -1.24606,-2.62323 -2.21339,-3.68386 -0.967324,-1.04173 -2.17677,-1.87795 -3.62717,-2.51103 -1.45158,-0.614174 -3.1252,-0.911812 -5.00433,-0.911812 -2.21339,0 -4.20355,0.297638 -5.97048,0.911812 -1.76811,0.633071 -3.31181,1.30276 -4.63229,2.02795 -1.32047,0.725197 -2.43662,1.39488 -3.32953,2.00906 -0.892914,0.614174 -1.5437,0.929528 -1.99016,0.929528 -0.242126,0 -0.484252,-0.0744095 -0.669686,-0.223229 -0.205512,-0.148819 -0.372048,-0.372048 -0.50315,-0.7063 -0.129921,-0.316536 -0.223229,-0.762993 -0.297638,-1.30276 -0.0744095,-0.538583 -0.111024,-1.20827 -0.111024,-1.97126 0,-0.539764 0.0188977,-1.00512 0.0555119,-1.41378 0.0377953,-0.390945 0.112205,-0.744095 0.186614,-1.02284 0.0921261,-0.297638 0.223229,-0.57756 0.372048,-0.818505 0.129921,-0.261024 0.427559,-0.57756 0.855119,-0.967324 0.446457,-0.372048 1.19055,-0.892914 2.27008,-1.54488 1.07835,-0.650788 2.41772,-1.30158 4.03583,-1.93465 1.61811,-0.63189 3.38622,-1.17165 5.33859,-1.61811 1.93465,-0.427559 3.9815,-0.650788 6.12048,-0.650788 3.42284,0 6.41812,0.484252 8.96576,1.45158 2.56772,0.966142 4.6878,2.2878 6.38032,3.94252 1.6937,1.6748 2.95866,3.62835 3.79488,5.84174 0.837402,2.21339 1.24725,4.57559 1.24725,7.08662 0,2.25118 -0.205512,4.48347 -0.595276,6.73465 -0.409843,2.23229 -1.24725,4.65 -2.52992,7.23544 -1.30276,2.60433 -3.16299,5.48859 -5.59961,8.6693 -2.41772,3.18071 -5.65512,6.84567 -9.69213,10.9748l-11.1791 11.6634 30.6933 0c0.27874,0 0.576378,0.0933072 0.837402,0.242126 0.27874,0.167717 0.520867,0.408662 0.7063,0.744095 0.204331,0.334252 0.35315,0.744095 0.446457,1.22717 0.0933072,0.484252 0.129921,1.06063 0.129921,1.71142zm0.167717 136.577c0,0.688583 -0.0555119,1.26496 -0.167717,1.74803 -0.111024,0.465355 -0.259843,0.837402 -0.427559,1.13504 -0.185433,0.297638 -0.390945,0.501969 -0.63189,0.633071 -0.242126,0.129921 -0.484252,0.185433 -0.744095,0.185433l-36.8327 0c-0.259843,0 -0.483071,-0.0555119 -0.7063,-0.185433 -0.223229,-0.131102 -0.427559,-0.335433 -0.633071,-0.633071 -0.204331,-0.297638 -0.35315,-0.669686 -0.464174,-1.13504 -0.112205,-0.483071 -0.167717,-1.05945 -0.167717,-1.74803 0,-0.650788 0.0555119,-1.22835 0.167717,-1.69252 0.111024,-0.465355 0.240945,-0.8563 0.408662,-1.17284 0.167717,-0.315355 0.372048,-0.538583 0.595276,-0.7063 0.242126,-0.167717 0.501969,-0.242126 0.799607,-0.242126l14.7142 0 0 -53.6292 -13.6347 8.11064c-0.688583,0.372048 -1.22835,0.595276 -1.65591,0.669686 -0.408662,0.0555119 -0.744095,-0.0188977 -1.00394,-0.261024 -0.261024,-0.223229 -0.42874,-0.614174 -0.520867,-1.17165 -0.0933072,-0.539764 -0.131102,-1.22835 -0.131102,-2.06457 0,-0.614174 0.0188977,-1.13504 0.0744095,-1.5815 0.056693,-0.427559 0.131102,-0.799607 0.242126,-1.07835 0.112205,-0.297638 0.27874,-0.558662 0.465355,-0.78189 0.204331,-0.204331 0.465355,-0.427559 0.799607,-0.650788l16.2402 -10.3984c0.148819,-0.112205 0.315355,-0.204331 0.538583,-0.27874 0.223229,-0.0744095 0.484252,-0.148819 0.818505,-0.223229 0.335433,-0.0744095 0.707481,-0.112205 1.15394,-0.131102 0.427559,-0.0177165 0.967324,-0.0177165 1.61811,-0.0177165 0.874016,0 1.59921,0.0366142 2.19449,0.0921261 0.57756,0.0744095 1.02402,0.186614 1.35827,0.316536 0.316536,0.112205 0.539764,0.27874 0.650788,0.484252 0.112205,0.204331 0.167717,0.408662 0.167717,0.63189l0 61.963 12.7429 0c0.297638,0 0.576378,0.0744095 0.818505,0.242126 0.259843,0.167717 0.464174,0.390945 0.63189,0.7063 0.167717,0.316536 0.297638,0.707481 0.390945,1.17284 0.0744095,0.464174 0.129921,1.04173 0.129921,1.69252zm2.17677 104.525c0,5.413 -0.427559,10.3417 -1.28386,14.8252 -0.855119,4.46457 -2.2689,8.29607 -4.24134,11.5146 -1.99016,3.21851 -4.57559,5.71063 -7.7752,7.47875 -3.19961,1.74803 -7.14331,2.64095 -11.8311,2.64095 -4.42678,0 -8.16615,-0.799607 -11.198,-2.3811 -3.03189,-1.5815 -5.46969,-3.90591 -7.32993,-6.9756 -1.84134,-3.06969 -3.16181,-6.84567 -3.9437,-11.3291 -0.780709,-4.48229 -1.17165,-9.63544 -1.17165,-15.4583 0,-5.3752 0.427559,-10.3051 1.30276,-14.7886 0.874016,-4.48229 2.2878,-8.33268 4.25906,-11.5512 1.95354,-3.21851 4.53898,-5.71063 7.73859,-7.47875 3.19961,-1.74803 7.12442,-2.64095 11.7756,-2.64095 4.46457,0 8.20276,0.799607 11.2536,2.3811 3.03189,1.5815 5.46969,3.90591 7.32993,6.9756 1.84134,3.06969 3.16181,6.84567 3.9437,11.3291 0.780709,4.48229 1.17165,9.63544 1.17165,15.4583zm-9.59883 0.650788c0,-3.53504 -0.112205,-6.69686 -0.372048,-9.48662 -0.261024,-2.79095 -0.633071,-5.26536 -1.11614,-7.40434 -0.501969,-2.15788 -1.13504,-3.99922 -1.91575,-5.54292 -0.78189,-1.5437 -1.71142,-2.80866 -2.80866,-3.81378 -1.07953,-1.00394 -2.32559,-1.73032 -3.72048,-2.17677 -1.39606,-0.446457 -2.97638,-0.687402 -4.72559,-0.687402 -3.0874,0 -5.58071,0.725197 -7.51536,2.19449 -1.93465,1.45158 -3.44055,3.44173 -4.5567,5.98937 -1.09843,2.54882 -1.86024,5.5252 -2.25118,8.92914 -0.408662,3.42284 -0.595276,7.0878 -0.595276,11.0126 0,5.26418 0.261024,9.74765 0.818505,13.4303 0.539764,3.70276 1.39488,6.69686 2.58544,9.02245 1.17165,2.32559 2.67874,4.01811 4.52008,5.07874 1.82362,1.04173 4.05591,1.58032 6.67796,1.58032 2.02795,0 3.81378,-0.334252 5.35748,-0.98504 1.54488,-0.651969 2.88425,-1.60039 3.9815,-2.80984 1.11614,-1.20827 2.02795,-2.67874 2.75315,-4.38898 0.725197,-1.71142 1.30158,-3.59055 1.74803,-5.67402 0.427559,-2.06457 0.725197,-4.31575 0.892914,-6.71575 0.167717,-2.41772 0.242126,-4.94764 0.242126,-7.55197z"/>
  </g>
 </g>
</svg>
